<svg xmlns="http://www.w3.org/2000/svg" xmlns:xlink="http://www.w3.org/1999/xlink" width="628.656" height="474" viewBox="0 0 628.656 474">
  <defs>
    <filter id="Path_671" x="0" y="0" width="628.656" height="474" filterUnits="userSpaceOnUse">
      <feOffset dy="16" input="SourceAlpha"/>
      <feGaussianBlur stdDeviation="8" result="blur"/>
      <feFlood flood-opacity="0.102"/>
      <feComposite operator="in" in2="blur"/>
      <feComposite in="SourceGraphic"/>
    </filter>
  </defs>
  <g id="Group_1582" data-name="Group 1582" transform="translate(-7270 -1025)">
    <g id="Group_1452" data-name="Group 1452" transform="translate(7294 1033)">
      <g transform="matrix(1, 0, 0, 1, -24, -8)" filter="url(#Path_671)">
        <path id="Path_671-2" data-name="Path 671" d="M583.744,219.285c19.719,10.341,30.614,36.159,22.018,56.694,25.542,2.463,47.136,26.455,46.891,52.111s-22.312,49.24-47.886,51.2c15.788,3.229,28.119,17.843,30.092,33.86,1.957,16-5.774,32.473-18.447,42.422S586.7,469.187,570.745,466.9c11.955,32.539-9.166,81.7-35.784,101.383-25.721,19.018-65.207,19.735-88.221-2.479-4.681,10.5-14.875,17.892-25.917,21.105s-22.867,2.691-34.186.652c-32.2-5.79-57.313-25.493-69.432-55.845-6,14.777-23.878,20.29-39.682,22.443-15.38,2.088-31.56,2.61-45.864-3.425-14.288-6.035-26.129-20.11-25.3-35.6-17.517,21.725-52.763,26.21-75.173,9.59-22.41-16.636-28.331-51.654-12.624-74.733-2.92,4.273-14.891,3.572-18.887,1.957-5.252-2.12-9.59-7.568-13.162-11.955-8.677-10.65-14.4-23.976-14.516-37.839-.13-18.5,10.928-37.3,28.249-43.776-14.973-5.154-25.77-20.551-25.509-36.388s11.58-30.875,26.716-35.523c-9.117-11.5-5.431-30.059,6.1-39.128,6.785-5.333,17.664-8.889,26.324-6.883,7.013,1.615,11.857,8.285,17.126,12.771-3.295-8.041-2.756-17.419,2.283-24.661a23.559,23.559,0,0,1,34.545-4.991c4.061,3.311,10.031,9.068,9.656,14.7,4.877-12.412,7.062-22.149,17.452-31.413,11.042-9.835,24.563-16.571,38.2-22.051,17.6-7.079,37.578-8.106,56.367-6.589,8.563.685,17.223,2.5,25,6.247,4.779,2.3,17.191,9.411,17.55,15.69-1.093-19.083,16.212-37.171,35.328-36.942,19.1.228,35.964,18.74,34.414,37.79.767-10.879,7.633-20.844,16.881-26.651,9.248-5.79,20.6-7.682,31.462-6.622a62.454,62.454,0,0,1,39.617,19.621,59.135,59.135,0,0,1,15.446,41.3c8.285-5.986,15.919-12.836,26.6-14.385C562.639,212.728,573.958,214.163,583.744,219.285Z" transform="translate(-48 -155.21)" fill="#e6ecff"/>
      </g>
    </g>
    <g id="camping-tent" transform="translate(7460.362 1127.598)">
      <g id="Group_1438" data-name="Group 1438" transform="translate(128.769 71.701)">
        <path id="Path_37990" data-name="Path 37990" d="M378.468,307.781,265.2,165.2a3.653,3.653,0,0,1,5.72-4.544l113.27,142.578a3.653,3.653,0,0,1-5.72,4.544Z" transform="translate(-264.405 -159.277)" fill="#dbedff"/>
      </g>
      <g id="Group_1439" data-name="Group 1439" transform="translate(0 71.702)">
        <path id="Path_37991" data-name="Path 37991" d="M1.381,308.369a3.653,3.653,0,0,1-.588-5.132l113.27-142.578a3.653,3.653,0,0,1,5.72,4.544L6.514,307.782a3.654,3.654,0,0,1-5.133.587Z" transform="translate(0 -159.279)" fill="#dbedff"/>
      </g>
      <g id="Group_1441" data-name="Group 1441" transform="translate(121.019 38.847)">
        <g id="Group_1440" data-name="Group 1440">
          <path id="Path_37992" data-name="Path 37992" d="M252.146,114.763a3.653,3.653,0,0,1-3.653-3.653V95.47a3.653,3.653,0,1,1,7.305,0v15.641A3.653,3.653,0,0,1,252.146,114.763Z" transform="translate(-248.493 -91.817)" fill="#ce775f"/>
        </g>
      </g>
      <g id="Group_1443" data-name="Group 1443" transform="translate(121.019 38.847)">
        <g id="Group_1442" data-name="Group 1442">
          <path id="Path_37993" data-name="Path 37993" d="M252.146,122.48a3.653,3.653,0,0,1-3.653-3.653V95.47a3.653,3.653,0,1,1,7.305,0v23.358A3.653,3.653,0,0,1,252.146,122.48Z" transform="translate(-248.493 -91.817)" fill="#ce775f"/>
        </g>
      </g>
      <g id="Group_1444" data-name="Group 1444" transform="translate(231.71 208.861)">
        <path id="Path_37994" data-name="Path 37994" d="M478.063,468.9a3.652,3.652,0,0,1-2.02-4.754L484.5,443.2a3.653,3.653,0,0,1,6.774,2.735l-8.459,20.952A3.652,3.652,0,0,1,478.063,468.9Z" transform="translate(-475.776 -440.911)" fill="#ce775f"/>
      </g>
      <path id="Path_37995" data-name="Path 37995" d="M145.821,144.827a7.566,7.566,0,0,0-12.845,0L28.707,312.287H250.09Z" transform="translate(-14.726 -78.333)" fill="#f4dd45"/>
      <path id="Path_37996" data-name="Path 37996" d="M139.4,141.26a7.5,7.5,0,0,0-6.423,3.567L28.707,312.287H48.461L139.4,166.238Z" transform="translate(-14.726 -78.333)" fill="#fcc101"/>
      <g id="Group_1445" data-name="Group 1445" transform="translate(1.868 208.861)">
        <path id="Path_37997" data-name="Path 37997" d="M12.561,466.884,4.1,445.933a3.653,3.653,0,0,1,6.774-2.735l8.459,20.952a3.653,3.653,0,0,1-6.774,2.735Z" transform="translate(-3.835 -440.912)" fill="#ce775f"/>
      </g>
      <g id="Group_1447" data-name="Group 1447" transform="translate(121.019 59.274)">
        <g id="Group_1446" data-name="Group 1446">
          <path id="Path_37998" data-name="Path 37998" d="M252.146,223.136a3.652,3.652,0,0,1-3.653-3.653V137.413a3.653,3.653,0,0,1,7.305,0v82.071A3.653,3.653,0,0,1,252.146,223.136Z" transform="translate(-248.493 -133.76)" fill="#f2ab08"/>
        </g>
      </g>
      <path id="Path_37999" data-name="Path 37999" d="M279.931,306.249H253.993v90.675h33.9v-82.71a7.989,7.989,0,0,0-7.965-7.965Z" transform="translate(-130.295 -162.97)" fill="#f87c68"/>
      <path id="Path_38000" data-name="Path 38000" d="M345.045,59.647a1.612,1.612,0,0,0-2.258-1.984,28.728,28.728,0,1,0,36.57,42.222,1.606,1.606,0,0,0-1.62-2.507C355.88,101.722,337.678,80.5,345.045,59.647Z" transform="translate(-167.88 -35.353)" fill="#f4dd45"/>
      <path id="Path_38001" data-name="Path 38001" d="M362.692,106.157a28.724,28.724,0,0,1-21.445-46.523,28.724,28.724,0,1,0,37.261,42.479A28.6,28.6,0,0,1,362.692,106.157Z" transform="translate(-167.88 -36.46)" fill="#fcc101"/>
      <g id="Group_1448" data-name="Group 1448" transform="translate(185.517 0)">
        <path id="Path_38002" data-name="Path 38002" d="M432.387,62.3h-.716v-.716a3.653,3.653,0,1,0-7.305,0V62.3h-.715a3.653,3.653,0,0,0,0,7.305h.715v.716a3.653,3.653,0,1,0,7.305,0v-.716h.716a3.653,3.653,0,1,0,0-7.305Z" transform="translate(-400.97 -35.588)" fill="#f4dd45"/>
        <path id="Path_38003" data-name="Path 38003" d="M401.17,22.172a3.653,3.653,0,0,0-3.653-3.653H394.7V15.7a3.653,3.653,0,0,0-7.305,0V18.52h-2.816a3.653,3.653,0,0,0,0,7.305H387.4v2.816a3.653,3.653,0,0,0,7.305,0V25.825h2.816A3.652,3.652,0,0,0,401.17,22.172Z" transform="translate(-380.928 -12.051)" fill="#f4dd45"/>
      </g>
      <path id="Path_38004" data-name="Path 38004" d="M196.344,306.249a7.989,7.989,0,0,0-7.965,7.965v82.71h32.929V306.249Z" transform="translate(-96.636 -162.97)" fill="#ec625e"/>
      <path id="Path_38005" data-name="Path 38005" d="M211.835,306.249h-15.49a7.989,7.989,0,0,0-7.965,7.965v82.71h15.49v-82.71A7.988,7.988,0,0,1,211.835,306.249Z" transform="translate(-96.636 -162.97)" fill="#df4854"/>
      <g id="Group_1449" data-name="Group 1449" transform="translate(6.098 230.301)">
        <path id="Path_38006" data-name="Path 38006" d="M246.017,492.24H16.175a3.653,3.653,0,1,1,0-7.305H246.017a3.653,3.653,0,0,1,0,7.305Z" transform="translate(-12.522 -484.935)" fill="#64d465"/>
      </g>
    </g>
  </g>
</svg>
