<svg xmlns="http://www.w3.org/2000/svg" xmlns:xlink="http://www.w3.org/1999/xlink" width="627.896" height="473.442" viewBox="0 0 627.896 473.442">
  <defs>
    <filter id="Path_671" x="0" y="0" width="627.896" height="473.442" filterUnits="userSpaceOnUse">
      <feOffset dy="16" input="SourceAlpha"/>
      <feGaussianBlur stdDeviation="8" result="blur"/>
      <feFlood flood-opacity="0.102"/>
      <feComposite operator="in" in2="blur"/>
      <feComposite in="SourceGraphic"/>
    </filter>
  </defs>
  <g id="Group_2040" data-name="Group 2040" transform="translate(-1038.105 -1858)">
    <g id="Group_1451" data-name="Group 1451" transform="translate(1062.105 1866)">
      <g transform="matrix(1, 0, 0, 1, -24, -8)" filter="url(#Path_671)">
        <path id="Path_671-2" data-name="Path 671" d="M583.074,219.211c19.693,10.327,30.574,36.112,21.99,56.619,25.508,2.46,47.074,26.42,46.83,52.042S629.61,377.048,604.07,379c15.767,3.225,28.082,17.82,30.053,33.815,1.955,15.979-5.766,32.431-18.422,42.367s-29.678,13.6-45.608,11.321c11.94,32.5-9.154,81.59-35.737,101.25-25.687,18.993-65.122,19.709-88.105-2.476-4.675,10.49-14.855,17.869-25.883,21.078s-22.837,2.688-34.141.652c-32.154-5.782-57.238-25.459-69.341-55.772-5.994,14.758-23.847,20.263-39.63,22.413-15.36,2.085-31.519,2.606-45.8-3.421-14.269-6.027-26.094-20.084-25.264-35.558-17.494,21.7-52.694,26.176-75.074,9.578-22.381-16.614-28.293-51.586-12.607-74.635-2.916,4.268-14.872,3.567-18.862,1.955-5.245-2.117-9.578-7.558-13.145-11.94-8.666-10.636-14.383-23.944-14.5-37.79-.13-18.471,10.913-37.252,28.212-43.719-14.953-5.147-25.736-20.524-25.475-36.34S86.3,290.947,101.418,286.3c-9.105-11.484-5.424-30.02,6.092-39.077,6.776-5.326,17.641-8.877,26.29-6.874,7,1.613,11.842,8.275,17.1,12.754-3.29-8.03-2.753-17.4,2.28-24.628a23.528,23.528,0,0,1,34.5-4.984c4.056,3.307,10.018,9.056,9.643,14.676,4.87-12.4,7.053-22.12,17.429-31.372,11.027-9.822,24.531-16.549,38.148-22.022,17.575-7.069,37.529-8.1,56.294-6.581,8.552.684,17.2,2.492,24.971,6.239,4.773,2.3,17.168,9.4,17.527,15.67-1.091-19.058,16.191-37.122,35.281-36.894,19.074.228,35.916,18.716,34.369,37.741.766-10.865,7.623-20.817,16.859-26.616,9.236-5.782,20.573-7.672,31.421-6.613a62.373,62.373,0,0,1,39.565,19.6,59.058,59.058,0,0,1,15.425,41.243c8.275-5.978,15.9-12.819,26.567-14.367C562,212.663,573.3,214.1,583.074,219.211Z" transform="translate(-48 -155.21)" fill="#e6ecff"/>
      </g>
    </g>
    <g id="kindergarten" transform="translate(1231.506 1963.969)">
      <path id="Path_37967" data-name="Path 37967" d="M290.547,47.1H255.825V22.069h34.722a2.931,2.931,0,0,1,2.073,5l-7.511,7.511,7.511,7.511A2.931,2.931,0,0,1,290.547,47.1Z" transform="translate(-134.933 -17.897)" fill="#ff646e"/>
      <path id="Path_37968" data-name="Path 37968" d="M251.344,13.241h0a4.172,4.172,0,0,0-4.172,4.172V59.128h8.343V17.413A4.171,4.171,0,0,0,251.344,13.241Z" transform="translate(-130.369 -13.241)" fill="#734b46"/>
      <path id="Path_37969" data-name="Path 37969" d="M243.4,231.024l-108.46-50.059L26.483,231.024v79.259H243.4Z" transform="translate(-13.968 -101.706)" fill="#ffc855"/>
      <path id="Path_37970" data-name="Path 37970" d="M26.483,253.371l108.46-50.058L243.4,253.371v-9.188L136.691,194.93a4.187,4.187,0,0,0-3.5,0L26.483,244.183Z" transform="translate(-13.968 -108.87)" fill="#ffaa4b"/>
      <path id="Path_37971" data-name="Path 37971" d="M238.259,237.221a4.156,4.156,0,0,1-1.746-.383L125.63,185.661,14.747,236.838a4.171,4.171,0,1,1-3.5-7.575l112.632-51.985a4.188,4.188,0,0,1,3.5,0L240.01,229.263a4.17,4.17,0,0,1-1.75,7.958Z" transform="translate(-4.656 -99.559)" fill="#ff646e"/>
      <path id="Path_37972" data-name="Path 37972" d="M250.186,148.373l-50.058-29.2-50.058,29.2V277.691H250.186Z" transform="translate(-79.153 -69.114)" fill="#ffe678"/>
      <path id="Path_37973" data-name="Path 37973" d="M234.091,475.479H17.171a8.343,8.343,0,0,1-8.343-8.343V454.621H242.434v12.515A8.343,8.343,0,0,1,234.091,475.479Z" transform="translate(-4.656 -246.044)" fill="#00bea5"/>
      <path id="Path_37974" data-name="Path 37974" d="M237.778,454.135H4.172A4.172,4.172,0,0,1,0,449.964H0a4.172,4.172,0,0,1,4.172-4.172H237.778a4.172,4.172,0,0,1,4.172,4.172h0A4.172,4.172,0,0,1,237.778,454.135Z" transform="translate(0 -241.387)" fill="#009d93"/>
      <path id="Path_37975" data-name="Path 37975" d="M150.069,157.374l50.058-29.2,50.058,29.2v-9l-50.058-29.2-50.058,29.2Z" transform="translate(-79.153 -69.114)" fill="#ffc855"/>
      <path id="Path_37976" data-name="Path 37976" d="M245.04,141.5a4.16,4.16,0,0,1-2.1-.568l-52.128-30.408-52.128,30.409a4.172,4.172,0,1,1-4.2-7.206l54.23-31.635a4.173,4.173,0,0,1,4.2,0l54.23,31.635a4.171,4.171,0,0,1-2.107,7.774Z" transform="translate(-69.84 -59.802)" fill="#ff646e"/>
      <path id="Path_37977" data-name="Path 37977" d="M252.608,394.576h-58.4V352.861a4.172,4.172,0,0,1,4.172-4.172h50.058a4.172,4.172,0,0,1,4.172,4.172v41.716Z" transform="translate(-102.433 -190.17)" fill="#b97850"/>
      <path id="Path_37978" data-name="Path 37978" d="M204.636,220.69h0a10.429,10.429,0,0,0-10.429,10.429v29.2a4.172,4.172,0,0,0,4.172,4.172h12.515a4.172,4.172,0,0,0,4.172-4.172v-29.2A10.429,10.429,0,0,0,204.636,220.69Z" transform="translate(-102.433 -122.658)" fill="#aae1ff"/>
      <path id="Path_37979" data-name="Path 37979" d="M204.636,220.69a10.429,10.429,0,0,0-10.429,10.429v6.257a10.429,10.429,0,0,1,20.858,0v-6.257A10.429,10.429,0,0,0,204.636,220.69Z" transform="translate(-102.433 -122.658)" fill="#8cd2ff"/>
      <rect id="Rectangle_166" data-name="Rectangle 166" width="20.858" height="8.343" transform="translate(91.774 112.632)" fill="#fff"/>
      <path id="Path_37980" data-name="Path 37980" d="M81.05,317.793h0a10.428,10.428,0,0,0-10.429,10.429v29.2a4.172,4.172,0,0,0,4.172,4.172H87.307a4.172,4.172,0,0,0,4.172-4.172v-29.2A10.429,10.429,0,0,0,81.05,317.793Z" transform="translate(-37.249 -173.875)" fill="#aae1ff"/>
      <path id="Path_37981" data-name="Path 37981" d="M81.05,317.793a10.428,10.428,0,0,0-10.429,10.429v6.257a10.429,10.429,0,0,1,20.858,0v-6.257A10.429,10.429,0,0,0,81.05,317.793Z" transform="translate(-37.249 -173.875)" fill="#8cd2ff"/>
      <rect id="Rectangle_167" data-name="Rectangle 167" width="20.858" height="8.343" transform="translate(33.372 158.519)" fill="#fff"/>
      <path id="Path_37982" data-name="Path 37982" d="M407.67,317.793h0a10.429,10.429,0,0,0-10.429,10.429v29.2a4.172,4.172,0,0,0,4.172,4.172h12.515a4.172,4.172,0,0,0,4.172-4.172v-29.2A10.429,10.429,0,0,0,407.67,317.793Z" transform="translate(-209.522 -173.875)" fill="#aae1ff"/>
      <path id="Path_37983" data-name="Path 37983" d="M407.67,317.793a10.429,10.429,0,0,0-10.429,10.429v6.257a10.429,10.429,0,0,1,20.858,0v-6.257A10.429,10.429,0,0,0,407.67,317.793Z" transform="translate(-209.522 -173.875)" fill="#8cd2ff"/>
      <rect id="Rectangle_168" data-name="Rectangle 168" width="20.858" height="8.343" transform="translate(187.719 158.519)" fill="#fff"/>
      <path id="Path_37984" data-name="Path 37984" d="M284.084,220.69h0a10.429,10.429,0,0,0-10.429,10.429v29.2a4.172,4.172,0,0,0,4.172,4.172h12.515a4.172,4.172,0,0,0,4.172-4.172v-29.2A10.429,10.429,0,0,0,284.084,220.69Z" transform="translate(-144.337 -122.658)" fill="#aae1ff"/>
      <path id="Path_37985" data-name="Path 37985" d="M284.084,220.69a10.429,10.429,0,0,0-10.429,10.429v6.257a10.429,10.429,0,1,1,20.858,0v-6.257A10.428,10.428,0,0,0,284.084,220.69Z" transform="translate(-144.337 -122.658)" fill="#8cd2ff"/>
      <rect id="Rectangle_169" data-name="Rectangle 169" width="20.858" height="8.343" transform="translate(129.318 112.632)" fill="#fff"/>
      <g id="Group_1434" data-name="Group 1434" transform="translate(70.916 187.72)">
        <rect id="Rectangle_170" data-name="Rectangle 170" width="20.858" height="16.686" fill="#ffc855"/>
        <rect id="Rectangle_171" data-name="Rectangle 171" width="20.858" height="16.686" transform="translate(79.259)" fill="#ffc855"/>
      </g>
      <g id="Group_1435" data-name="Group 1435" transform="translate(12.515 187.72)">
        <rect id="Rectangle_172" data-name="Rectangle 172" width="58.401" height="16.686" transform="translate(158.518)" fill="#ffaa4b"/>
        <rect id="Rectangle_173" data-name="Rectangle 173" width="58.401" height="16.686" fill="#ffaa4b"/>
      </g>
      <rect id="Rectangle_174" data-name="Rectangle 174" width="8.343" height="45.887" transform="translate(116.803 158.519)" fill="#734b46"/>
      <g id="Group_1436" data-name="Group 1436" transform="translate(100.117 166.861)">
        <path id="Path_37986" data-name="Path 37986" d="M216.034,387.2h0a4.172,4.172,0,0,0,4.172-4.172V370.516a4.172,4.172,0,0,0-4.172-4.172h0a4.172,4.172,0,0,0-4.172,4.172V383.03A4.172,4.172,0,0,0,216.034,387.2Z" transform="translate(-211.862 -366.344)" fill="#aae1ff"/>
        <path id="Path_37987" data-name="Path 37987" d="M286.654,387.2h0a4.172,4.172,0,0,0,4.172-4.172V370.516a4.172,4.172,0,0,0-4.172-4.172h0a4.172,4.172,0,0,0-4.172,4.172V383.03A4.172,4.172,0,0,0,286.654,387.2Z" transform="translate(-249.11 -366.344)" fill="#aae1ff"/>
      </g>
      <g id="Group_1437" data-name="Group 1437" transform="translate(100.117 166.862)">
        <path id="Path_37988" data-name="Path 37988" d="M216.034,366.345a4.172,4.172,0,0,0-4.172,4.172v8.343a4.172,4.172,0,1,1,8.343,0v-8.343A4.172,4.172,0,0,0,216.034,366.345Z" transform="translate(-211.862 -366.345)" fill="#8cd2ff"/>
        <path id="Path_37989" data-name="Path 37989" d="M286.654,366.345a4.172,4.172,0,0,0-4.172,4.172v8.343a4.172,4.172,0,1,1,8.343,0v-8.343A4.172,4.172,0,0,0,286.654,366.345Z" transform="translate(-249.11 -366.345)" fill="#8cd2ff"/>
      </g>
    </g>
  </g>
</svg>
