<svg xmlns="http://www.w3.org/2000/svg" width="1920" height="1007.021" viewBox="0 0 1920 1007.021">
  <g id="hero_img2" data-name="hero img2" transform="translate(-0.001 0)">
    <path id="Subtraction_1" data-name="Subtraction 1" d="M1558.627,1007.021h0c-.022-.06-2.3-6.121-6.663-15.216a280.355,280.355,0,0,0-19.868-34.8c-10.223-15.158-21.287-27.975-32.887-38.094a128.908,128.908,0,0,0-21.267-15.194,99.8,99.8,0,0,0-24.452-9.911,133.3,133.3,0,0,0-21.6-5.682,119.01,119.01,0,0,0-20.175-1.75,114.936,114.936,0,0,0-23.23,2.381,121.083,121.083,0,0,0-20.671,6.278,141.241,141.241,0,0,0-33,19.049,161.933,161.933,0,0,0-20.774,19.049,107.644,107.644,0,0,0-7.219,8.659,188.926,188.926,0,0,0-22.5-14.33,144.479,144.479,0,0,0-22.1-9.851c-8.74-2.972-16.805-4.478-23.973-4.478a45.327,45.327,0,0,0-8.391.753c-7.472,1.413-14.966,5.063-22.273,10.848a99.291,99.291,0,0,0-17.056,17.823,148.954,148.954,0,0,0-10.913,16.66c-2.475,4.392-3.83,7.333-3.844,7.362-.031-.026-3.832-3.327-10.49-8.262a287.411,287.411,0,0,0-27.8-18.176,228.643,228.643,0,0,0-39.621-18.177c-16.11-5.482-31.567-8.262-45.943-8.262-2.14,0-4.29.062-6.39.185-11.808.079-24.58,2.58-37.962,7.433a191.469,191.469,0,0,0-33.045,16.016,248.328,248.328,0,0,0-23.339,15.952c-5.521,4.262-8.814,7.212-8.844,7.239a56.651,56.651,0,0,0-2.9-6.175,86.621,86.621,0,0,0-9.51-14.178,78.426,78.426,0,0,0-17.331-15.661,72.246,72.246,0,0,0-26.365-10.627,94.588,94.588,0,0,0-17.579-1.713,76.614,76.614,0,0,0-29.2,5.6,75.644,75.644,0,0,0-20.2,12.325A79.5,79.5,0,0,0,807.5,942.424a52.078,52.078,0,0,0-3.795,5.6,124.762,124.762,0,0,0-8.282-13.013c-3.233-4.532-6.771-9.02-10.516-13.339A182.4,182.4,0,0,0,770,906.383a162.677,162.677,0,0,0-43.436-28.629,150.316,150.316,0,0,0-28.744-9.435,156.936,156.936,0,0,0-33.572-3.579,137.6,137.6,0,0,0-29.3,3.149,141.56,141.56,0,0,0-25.74,8.3,163.979,163.979,0,0,0-40.374,25.194,189.3,189.3,0,0,0-14.42,13.455c-3.669,3.8-7.179,7.748-10.433,11.738a128.755,128.755,0,0,0-8.474,11.452,86.809,86.809,0,0,0-5.987-10.168,126.052,126.052,0,0,0-7.808-10.422,129.311,129.311,0,0,0-11.305-11.948,119.162,119.162,0,0,0-57.056-29.741,132.925,132.925,0,0,0-27.452-2.8,113.867,113.867,0,0,0-27.286,3.226,103.582,103.582,0,0,0-22.656,8.5,112.241,112.241,0,0,0-32.642,25.805,132.4,132.4,0,0,0-10.6,13.783,136.044,136.044,0,0,0-7.192,12.023,99.2,99.2,0,0,0-5.386,11.73c-30.325-56.534-78.817-97.447-144.132-121.6a383.377,383.377,0,0,0-78.893-19.555,450.971,450.971,0,0,0-63.224-4.453h-.652V0h1920V816.049c-8.427-1.931-16.91-3.47-25.214-4.575a228.84,228.84,0,0,0-29.987-2.072c-24.48,0-45.63,4.524-62.861,13.446a125.5,125.5,0,0,0-20.959,13.887,183.7,183.7,0,0,0-18.9,17.787A288.221,288.221,0,0,0,1764.59,894.7c-8.8,13.674-15.608,26.314-19.771,34.51-4.455,8.772-6.893,14.418-6.995,14.654a219.684,219.684,0,0,0-25.839-10.954,212.636,212.636,0,0,0-26.133-7.531,140.486,140.486,0,0,0-29.459-3.424,81.75,81.75,0,0,0-27.152,4.233c-10.218,3.6-20.289,10.092-29.933,19.291a156.958,156.958,0,0,0-22.174,27.046,223.151,223.151,0,0,0-13.774,24.085c-3.01,6.121-4.664,10.234-4.732,10.406Z" transform="translate(-33.238)" fill="#4b44f2"/>
    <g id="objekt" transform="translate(818.217 167.602)">
      <g id="Group_2011" data-name="Group 2011" transform="translate(347.76 174.106)">
        <path id="Path_39558" data-name="Path 39558" d="M606.538,331.754c-47.66,17.114-109.392,30.973-135.549,79.166-.107.187-.2.387-.293.574A168.965,168.965,0,0,1,489,373.825c29.759-45.459,77.392-74.471,114.887-112.713,1.414-1.441-.8-3.668-2.228-2.228-38.416,39.189-86.222,68.8-116.715,115.394A166.525,166.525,0,0,0,464.32,420.39a312.179,312.179,0,0,1,4.789-36.762c4.535-23.716,12.165-45.645,24.437-66.454,11.1-18.808,24-36.468,33.134-56.383.84-1.827-1.867-3.428-2.708-1.587-9.484,20.689-22.929,39.1-34.454,58.637-12.458,21.115-19.368,43.791-23.97,67.788a301.361,301.361,0,0,0-5.229,51.648c-10.711,36.9-7.79,78.472-7.75,115.781a1.575,1.575,0,0,0,3.148,0c-.027-22.342-.947-45.7.52-68.695a287.408,287.408,0,0,0,3.735,43.991c.32,2,3.348,1.147,3.028-.84a266.743,266.743,0,0,1-2.348-69.522,348.679,348.679,0,0,0,11.885,74.537,1.572,1.572,0,0,0,3.028-.84A338.683,338.683,0,0,1,463.6,438.3a142.086,142.086,0,0,1,9.2-24.037c11.765-23.783,33.587-38.469,56.757-49.927,24.917-12.325,51.755-20.208,77.845-29.572C609.259,334.1,608.446,331.074,606.538,331.754Z" transform="translate(-229.769 -133.506)" fill="#2daaa1"/>
        <path id="Path_39559" data-name="Path 39559" d="M555.78,305.978c1.067,16.273,7.777,22.476,20.528,26.371,3.135-7.283,8.39-13.392,11.751-19.755l-13.606-5.229C567.225,304.711,563.37,303.5,555.78,305.978Z" transform="translate(-195.177 -118.068)" fill="#ffa506"/>
        <path id="Path_39560" data-name="Path 39560" d="M455.477,240.971c-15.807-6.429-34.788-7.416-48.153,4.682-15.886,14.366.213,29.639-8.6,43.7L452.1,324.938c.04,1.534.48-1.374.787-2.094,7.55-17.821,36.522-14.513,34.574-40.843C486.063,263.166,472.284,247.813,455.477,240.971Z" transform="translate(-247.617 -140.883)" fill="#ea561c"/>
        <path id="Path_39561" data-name="Path 39561" d="M583.7,244.69c-5.122,3.695-14.166,1.907-20.769,2.254-4.375,25.851,33.76,37.962,30.2,1.934Z" transform="translate(-192.908 -138.08)" fill="#2daaa1"/>
        <path id="Path_39562" data-name="Path 39562" d="M358.3,544.953l8.363,44.485,20.408-2.614-2.081-48.673Z" transform="translate(-261.112 -40.099)" fill="#eaa07a"/>
        <g id="Group_1995" data-name="Group 1995" transform="translate(5.872 347.856)">
          <path id="Path_39563" data-name="Path 39563" d="M296.934,439.436c5.362-6.483,18.408-6.1,24.944-10.8a1.206,1.206,0,0,0,.133-.12,33.407,33.407,0,0,1-4.068-2.961c-9.177,5.336-23.049,3.908-27.265,15.593a1.919,1.919,0,0,0,.36,2.081c-.987,1.974,1.027,4.775,3.108,3.188,12.485-9.511,30.292-2.027,43.031-11.765-1.307-.987-2.614-1.947-3.948-2.881C322.771,439.036,308.419,434.794,296.934,439.436Z" transform="translate(-289.613 -425.55)" fill="#c66376"/>
          <path id="Path_39564" data-name="Path 39564" d="M291.507,440.166c-2.921.8-1.681,5.349,1.254,4.535,13.712-3.775,26.571,5.469,40.43,1.841-.707-1.441-1.4-2.895-2.081-4.348C317.784,445.155,305.033,436.444,291.507,440.166Z" transform="translate(-289.841 -420.985)" fill="#c66376"/>
        </g>
        <path id="Path_39565" data-name="Path 39565" d="M286.2,446.439c-2.521,8.964,1.4,12.312,9.03,15.82,5.842,2.681,16.74,7.9,23.023,5.109l2.614-18.314c-6.829-3.348-12.432-7.857-19.488-10.858C292.963,434.62,288.788,437.235,286.2,446.439Z" transform="translate(-285.439 -73.986)" fill="#d37d96"/>
        <path id="Path_39566" data-name="Path 39566" d="M313.351,446.356s-18.834-4.709-20.929,12.032c-1.294,10.378,7.163,22.449,18.328,18.808-3.308-5.522-2.721-12.618,3.121-16.18,3-1.827,13.085,1.054,16.22,1.054s22.5-1.574,42.391-28.785L355.209,414.97C355.222,414.957,344.751,449.491,313.351,446.356Z" transform="translate(-283.151 -81.227)" fill="#eaa07a"/>
        <path id="Path_39567" data-name="Path 39567" d="M513.083,598.02c-13.606-4.188-185.783,7.323-185.783,7.323a26.45,26.45,0,0,0,8.9,15.18c7.843,6.8,150.195-5.229,177.94-9.417S526.688,602.208,513.083,598.02Z" transform="translate(-271.462 -20.416)" fill="#ff99ad"/>
        <path id="Path_39568" data-name="Path 39568" d="M430.685,389.943c-15.7,8.243-1.574,36.108-1.574,36.108,8.243,10.591,18.448,1.174,14.913-19.621S430.685,389.943,430.685,389.943Z" transform="translate(-239.418 -89.707)" fill="#c90d42"/>
        <path id="Path_39569" data-name="Path 39569" d="M389.064,600.291l-24.077,5.229c-2.454-1.4-15.446-1.841-15.766,4.135-.373,6.829,29.772,3.041,33.214,2.668,5.135-.547,15.233-3.348,20.568-5.389C420.463,600.291,396.747,598.623,389.064,600.291Z" transform="translate(-264.145 -19.553)" fill="#e86d7f"/>
        <path id="Path_39570" data-name="Path 39570" d="M359.389,391.183c-7.843,8.63-18.834,27.478-22.369,29.439,0,0,4.322,7.456,15.313,13.739l20.408-44.352C372.728,390.009,367.246,382.552,359.389,391.183Z" transform="translate(-268.217 -90.56)" fill="#c90d42"/>
        <path id="Path_39571" data-name="Path 39571" d="M434.105,436.826s12.165-37.282-3.135-41.217l-16.62-4.442s-16.754-1.827-27.345,7.977c0,0-7.07,4.709-13.739,1.574,0,0-2.228-4.055,3.4-11.645,0,0-13.219-1.694-26.171,38.336,0,0-9.417,68.682,3.535,83.608,0,0,80.86-3.135,96.159-18.047C450.192,492.955,427.823,472.147,434.105,436.826Z" transform="translate(-264.821 -89.877)" fill="#e61647"/>
        <path id="Path_39572" data-name="Path 39572" d="M370.351,391.287s-8.377,9.417-1.574,12.032,16.18-5.269,21.462-7.323c4.188-1.627,17.794-2.614,17.794-2.614l.52-7.843-37.162-3.148Z" transform="translate(-258.503 -92.105)" fill="#eaa07a"/>
        <g id="Group_1996" data-name="Group 1996" transform="translate(150.837 129.569)">
          <path id="Path_39573" data-name="Path 39573" d="M400.094,262.22c-.787,7.07-1.574,15.7-1.574,15.7l61.225,30.613,10.2-9.417C444.059,255.95,400.094,262.22,400.094,262.22Z" transform="translate(-398.52 -261.902)" fill="#31bddd"/>
          <path id="Path_39574" data-name="Path 39574" d="M443.286,302.649l9.444-4.388s16.487-10.991-5.5-33.761C447.234,264.5,414.22,276.425,443.286,302.649Z" transform="translate(-387.57 -261.034)" fill="#5ce0ff"/>
          <path id="Path_39575" data-name="Path 39575" d="M454.038,295.344l-3.148,11.778c32.867,15.886,37.682-14.913,37.682-14.913C468.177,279.645,454.038,295.344,454.038,295.344Z" transform="translate(-381.035 -253.41)" fill="#5ce0ff"/>
          <path id="Path_39576" data-name="Path 39576" d="M440.29,295.38l17.194,14.633,3.241-16.674-7.857-7.07Z" transform="translate(-384.574 -253.766)" fill="#3fc8f4"/>
        </g>
        <path id="Path_39577" data-name="Path 39577" d="M474.691,321.778c-3.735-4.148-7-8.564-11.645-11.778-6.069-4.215-13.512-7.27-20.022-10.9-21.155-11.8-46.886-21.182-69.909-9.417-2.988,1.534-17.674,7.443-16.86,11.778,0,0-17.327,18.794-24.663,26.744a1.4,1.4,0,0,1-.173,1.8,1.36,1.36,0,0,1-.16.48,18.291,18.291,0,0,1-1.987,3c1.067,3.508-.107,8.9-.387,11.9-.574,6.056-1.414,12.112-1.281,18.194.814,35.375,41.991,52.382,71.483,56.9a126.659,126.659,0,0,0,28.425,1.094c18.714-1.414,38.7-7.11,50.074-23.156,7.963-11.245,13.632-25.784,13.3-39.736a60.212,60.212,0,0,0-3.828-20.048C484.455,331.8,479.506,327.127,474.691,321.778Z" transform="translate(-271.366 -124.865)" fill="#f4b08e"/>
        <path id="Path_39578" data-name="Path 39578" d="M440.939,358.274A206.871,206.871,0,0,1,415.4,345.843v.147c.013,1.547-1.441,3.361-3.135,3.135-9.977-1.307-17.621-9.964-21.716-18.754-4.709-10.1-4.015-20.648-4.055-31.36-22.5,8.5-50.381,23.81-56.023,36.108a65.638,65.638,0,0,0,1.827,33.494c5.4,16.54,19.755,29.319,35.695,34.974,23.156,8.217,51.581,12.2,66.881-10.138,4.388-6.416,8.737-14.486,10.924-21.969,1.147-3.922,1.481-7.056,0-9.511A9.814,9.814,0,0,0,440.939,358.274Z" transform="translate(-270.855 -119.944)" fill="#ffceb6"/>
        <path id="Path_39579" data-name="Path 39579" d="M330,344.258c1.561,9.15,15.94,16.74,19.515,4.735a13.053,13.053,0,0,0-2.988-12.659C340.042,329.853,328.4,334.815,330,344.258Z" transform="translate(-270.612 -108.462)" fill="#f98282" opacity="0.4"/>
        <path id="Path_39580" data-name="Path 39580" d="M477.675,300.267c-37.455-25.17-78.472-43.685-119.689-11.458-7.2,5.642-13.205,13.912-19.235,20.8-5.189,5.922-9.177,27.958-10.431,30.359,18.808-22.142,38.322-25.21,61.532-36.9-4.068,20.315,3.415,39.51,21.742,49.767-.24-1.747.56-4.122.32-5.829.414,2.948,14.659,7.176,17.26,8.27,6.323,2.681,11.3,6.176,16.74,10.178,2.228-3.055,6.763-4.509,10.177-5.816,10.524-4,21.916,4.228,17.447,15.993-2.895,7.6-11.965,16.78-20.969,14.446,3.028.787,14.126,13.739,10.844,25.944,44.938-3,53.262-70.669,31.453-99.548A71.186,71.186,0,0,0,477.675,300.267Z" transform="translate(-271.122 -129.084)" fill="#ff7433"/>
        <path id="Path_39581" data-name="Path 39581" d="M328.37,322.86c-.067.08-.133.147-.2.227C328.237,323.087,328.3,323.007,328.37,322.86Z" transform="translate(-271.172 -111.981)" fill="#ff7433"/>
        <g id="Group_1997" data-name="Group 1997" transform="translate(68.365 210.302)">
          <path id="Path_39582" data-name="Path 39582" d="M346.547,322.951c-6.016,1.641-11.751,8.83-9.257,14.793,3.748,8.937,14.593,3.508,18.247-2.334C359.926,328.407,356.431,320.27,346.547,322.951Z" transform="translate(-336.691 -322.427)" fill="#fff"/>
          <path id="Path_39583" data-name="Path 39583" d="M350.931,324.982c-3.6-.2-8.257,3.895-8.644,9.671-.253,3.775,1.134,5.736,3.055,6.376a16.717,16.717,0,0,0,8.337-6.456,12.376,12.376,0,0,0,1.481-3.615C355.013,326.889,353.172,325.115,350.931,324.982Z" transform="translate(-334.833 -321.577)" fill="#44291e"/>
        </g>
        <path id="Path_39584" data-name="Path 39584" d="M385.884,348.883a17.145,17.145,0,0,0-8.83-3.642c-4.829-.48-12.5,3.015-13.792,8.323-2.094,8.63,9.684,17.527,17.474,17.514,10.231-.027,13.219-10.3,8.59-18.261A14.409,14.409,0,0,0,385.884,348.883Z" transform="translate(-259.537 -104.523)" fill="#f98282" opacity="0.4"/>
        <g id="Group_1998" data-name="Group 1998" transform="translate(111.861 223.354)">
          <path id="Path_39585" data-name="Path 39585" d="M369.393,344.028c-1.561,11.952,16.98,17.874,23.836,10.938a15.326,15.326,0,0,0,4.028-10.1,10.83,10.83,0,0,0-.4-3.095C392.923,328.008,371.3,329.408,369.393,344.028Z" transform="translate(-369.3 -332.212)" fill="#fff"/>
          <path id="Path_39586" data-name="Path 39586" d="M384.368,336.3a7.364,7.364,0,0,0-7.963,4.255c-5.389,10.284,7.31,18.474,14.339,9.937C396.333,343.706,390.384,337.184,384.368,336.3Z" transform="translate(-367.362 -330.877)" fill="#44291e"/>
        </g>
        <path id="Path_39587" data-name="Path 39587" d="M363.224,339.189c-2.348-1.574-5.962.654-8.51,1.027-2.148.32-4.348-.52-6.189.867-3.8,2.868-2.068,9.2.987,11.792,5.389,4.549,10.071,2.855,13.686-4.682.907-1.894,2.334-5.949,1.054-7.95A4.08,4.08,0,0,0,363.224,339.189Z" transform="translate(-265.102 -106.714)" fill="#f4976e"/>
        <path id="Path_39588" data-name="Path 39588" d="M370.812,362.187a1.439,1.439,0,0,0-1.614,1.24,1.279,1.279,0,0,0-1.267-.28c-9.417,2.481-21.916,1.8-25.157-9.23a1.637,1.637,0,0,0-.76-.974,1.341,1.341,0,0,0,.187-.64,1.906,1.906,0,0,0-.374-1.454,1.622,1.622,0,0,0-1.867-.427,2.291,2.291,0,0,0-.707.48,1.546,1.546,0,0,0,.48,2.641,1.289,1.289,0,0,0-.053.907c2,6.816,7.483,11.138,14.313,12.5a25.123,25.123,0,0,0,9.417.08c1.627-.293,5.362-1.04,6.629-1.787C370.6,364.908,374.347,362.52,370.812,362.187Z" transform="translate(-267.662 -102.821)" fill="#ea8673"/>
        <path id="Path_39589" data-name="Path 39589" d="M353,342.279c-5.135-1.321-1.254,6.109,1.454,5.3a1.719,1.719,0,0,0,1.4-2A4.486,4.486,0,0,0,353,342.279Z" transform="translate(-263.722 -105.549)" fill="#fff"/>
        <path id="Path_39590" data-name="Path 39590" d="M444.1,294.232q-3.421-2.3-6.909-4.522c10.071,6.416,19.1,22.876,21.062,38.589,6.469,51.9-25.17,66.454-29.385,68.922a21.006,21.006,0,0,1,.974,12.765c44.938-3,53.262-70.669,31.453-99.548A71.189,71.189,0,0,0,444.1,294.232Z" transform="translate(-237.55 -123.049)" fill="#ea561c"/>
        <path id="Path_39591" data-name="Path 39591" d="M424.154,394.432c-21.982-3.922-39.643,32.974-39.643,32.974s-18.448-4.709-25.517-7.456,17.14-30.879,17.14-30.879c-12.685.133-27.345,35.975-27.345,35.975l18.047,82.421,47.1,7.069,35.721-21.582c-18.448,5.5-51.421,5.882-51.421,5.882C374.694,414.841,424.154,394.432,424.154,394.432Z" transform="translate(-264.287 -89.874)" fill="#c90d42"/>
        <path id="Path_39592" data-name="Path 39592" d="M388.022,284.21c-9.817,7.456-13.272,14.659-13.272,14.659-7.376,36.242,21.742,49.767,21.742,49.767C358.583,312.475,388.022,284.21,388.022,284.21Z" transform="translate(-256.02 -124.885)" fill="#ea561c"/>
        <path id="Path_39593" data-name="Path 39593" d="M405.22,334.52c.053.013.093.027.093.027A.341.341,0,0,0,405.22,334.52Z" transform="translate(-245.446 -108.088)" fill="#ea561c"/>
        <path id="Path_39594" data-name="Path 39594" d="M389.644,314.82s-12.138,19.195,21.5,26.277C409.625,340.737,387.736,335.282,389.644,314.82Z" transform="translate(-251.359 -114.665)" fill="#ea561c"/>
        <path id="Path_39595" data-name="Path 39595" d="M390.954,426.206S360.6,416.788,351.178,412.6c0,0-10.471,20.929-6.8,77.979a116.968,116.968,0,0,0,50.234,3.668S383.618,448.722,390.954,426.206Z" transform="translate(-266.022 -82.018)" fill="#31bddd"/>
        <path id="Path_39596" data-name="Path 39596" d="M391.671,425.291,349.28,413.78l2.334.8,37.429,12.805c-8.9,27.731,3.655,68.041,3.655,68.028h3.135C380.68,446.233,391.671,425.291,391.671,425.291Z" transform="translate(-264.124 -81.624)" fill="#229baf"/>
        <path id="Path_39597" data-name="Path 39597" d="M348.769,431.04s-5.229,35.588-1.054,42.911,28.718,11.325,30.879,5.762c4.975-12.819-2.094-42.911-2.094-42.911Z" transform="translate(-265.186 -75.861)" fill="#5ce0ff"/>
        <path id="Path_39598" data-name="Path 39598" d="M366.15,480.885s18.314,5.229,3.668-45.525C369.8,435.36,378.182,481.419,366.15,480.885Z" transform="translate(-258.491 -74.419)" fill="#229baf"/>
        <g id="Group_1999" data-name="Group 1999" transform="translate(83.598 360.95)">
          <path id="Path_39599" data-name="Path 39599" d="M353.018,436.172c-1.307-.267-2.614-.52-3.922-.787-.987-.2-1.414,1.321-.414,1.507,1.307.267,2.614.52,3.922.787C353.592,437.879,354.005,436.372,353.018,436.172Z" transform="translate(-348.112 -435.366)" fill="#229baf"/>
          <path id="Path_39600" data-name="Path 39600" d="M358.3,437.058a20.616,20.616,0,0,1-3.722-.494c-.987-.2-1.414,1.321-.414,1.521a22.658,22.658,0,0,0,4.135.547A.787.787,0,0,0,358.3,437.058Z" transform="translate(-346.282 -434.972)" fill="#229baf"/>
          <path id="Path_39601" data-name="Path 39601" d="M363.463,438.307a14.6,14.6,0,0,1-3.188-.76.782.782,0,0,0-.413,1.507,16.111,16.111,0,0,0,3.615.814C364.477,439.908,364.477,438.334,363.463,438.307Z" transform="translate(-344.378 -434.648)" fill="#229baf"/>
          <path id="Path_39602" data-name="Path 39602" d="M369.939,440.114a9.218,9.218,0,0,0-4.589-1.414.787.787,0,0,0,0,1.574,7.691,7.691,0,0,1,3.788,1.2A.79.79,0,0,0,369.939,440.114Z" transform="translate(-342.61 -434.254)" fill="#229baf"/>
        </g>
        <path id="Path_39603" data-name="Path 39603" d="M365.27,436.47l14.913,5.109s9.03-47.1,44.752-46.312l-15.313-5.109C409.622,390.145,373.9,387.4,365.27,436.47Z" transform="translate(-258.785 -89.522)" fill="#3dcfe8"/>
        <path id="Path_39604" data-name="Path 39604" d="M432.06,531.891l36.108.52,2.094-19.355L436.248,505.2Z" transform="translate(-236.485 -51.101)" fill="#ffbd99"/>
        <path id="Path_39605" data-name="Path 39605" d="M376.45,440.327h2.361c8.15-47.033,38.656-46.539,42.071-46.339C384.253,390.773,376.45,440.327,376.45,440.327Z" transform="translate(-255.052 -88.283)" fill="#229baf"/>
        <path id="Path_39606" data-name="Path 39606" d="M409.76,393.95c.107.013.213.013.32.027C410.067,393.977,409.96,393.963,409.76,393.95Z" transform="translate(-243.931 -88.245)" fill="#229baf"/>
        <path id="Path_39607" data-name="Path 39607" d="M345.26,430.278h7.456s10.338-36.628,24.6-40.683l-6.149-2.094S357.812,387.487,345.26,430.278Z" transform="translate(-265.466 -90.399)" fill="#3dcfe8"/>
        <path id="Path_39608" data-name="Path 39608" d="M447.674,499.523c14.126-23.556,3.535-32.573,3.535-32.573-44.352,16.487-107.017,5.5-107.017,5.5-1.054,50.634,15.953,87.916,15.953,87.916l30.613-3.135,3.922-27.865c25.9,16.1,60.051,18.448,60.051,18.448,8.63-14.526,6.669-33.761,6.669-33.761C450.809,512.475,447.674,499.523,447.674,499.523Z" transform="translate(-265.838 -63.872)" fill="#31bddd"/>
        <path id="Path_39609" data-name="Path 39609" d="M344.08,469.3s1.561,56.13,16.087,90.277l30.613-3.135,3.922-27.865C394.7,528.564,352.31,515.612,344.08,469.3Z" transform="translate(-265.86 -63.087)" fill="#15a4bc"/>
        <path id="Path_39610" data-name="Path 39610" d="M430.888,499.61c-3.535,24.33-11.778,37.282-11.778,37.282l18.061,3.535c11.378-20.021,5.109-35.721,5.109-35.721Z" transform="translate(-240.809 -52.967)" fill="#3dcfe8"/>
        <path id="Path_39611" data-name="Path 39611" d="M415.884,439.2s.387-10.2,2.748-16.087H397.05A55.614,55.614,0,0,0,415.884,439.2Z" transform="translate(-248.174 -78.509)" fill="#c90d42"/>
        <path id="Path_39612" data-name="Path 39612" d="M462.169,380.14c-14.126,12.565-36.508,19.235-36.508,19.235-7.857,11.378,4.322,27.865,4.322,27.865,21.582-7.843,44.752-35.321,44.752-35.321C470.413,390.744,462.169,380.14,462.169,380.14Z" transform="translate(-239.503 -92.856)" fill="#f4b08e"/>
        <path id="Path_39613" data-name="Path 39613" d="M352.61,531.878l3.135,18.061,34.147-3.135-.387-16.874C376.153,532.264,352.61,531.878,352.61,531.878Z" transform="translate(-263.012 -42.844)" fill="#31bddd"/>
        <path id="Path_39614" data-name="Path 39614" d="M441.35,389.85s-7.07.387-31.4,4.322-21.2,34.534-10.991,40.03,45.925-4.322,45.925-4.322C428.784,405.55,441.35,389.85,441.35,389.85Z" transform="translate(-250.083 -89.614)" fill="#ff2261"/>
        <path id="Path_39615" data-name="Path 39615" d="M479.9,370.185a10.342,10.342,0,0,0-4.789-4.815c-4.242-2.027-15.18-1.654-18.954,1.187-3.521,2.641-3.561,4.775-4.122,8.657-.387,2.654-2.028,6.683,1.067,8.8-2.534,3.175,1.707,9.844,4.629,12.192,3.095,2.481,10.218,2.641,13.859,1.467,8.363-2.694,10.938-14.579,9.9-22.076A17.657,17.657,0,0,0,479.9,370.185Z" transform="translate(-230.076 -98.214)" fill="#ffceb6"/>
        <path id="Path_39616" data-name="Path 39616" d="M304.625,462.83s32.44,16.754,61.225,23.556c0,0,1.054-17.274,5.762-18.314l-57.57-20.942S297.289,447.65,304.625,462.83Z" transform="translate(-279.654 -70.489)" fill="#d34662"/>
        <path id="Path_39617" data-name="Path 39617" d="M355.445,314.325c-3.895-2.4-8.1-2.121-12.058,0-1.787.96-.2,3.668,1.587,2.708,2.988-1.6,5.949-1.814,8.884,0C355.591,318.1,357.165,315.379,355.445,314.325Z" transform="translate(-266.353 -115.397)" fill="#ff7433"/>
        <path id="Path_39618" data-name="Path 39618" d="M320.157,448.646c-9.617,7.056-9.417,20.408-2.614,25.117s11.511,5.762,15.18,4.709c0,0-2.094-15.18,8.9-20.929C341.619,457.543,328.013,442.884,320.157,448.646Z" transform="translate(-276.351 -70.431)" fill="#f5818e"/>
        <path id="Path_39619" data-name="Path 39619" d="M339.795,620.15c-5.509.627-1.814,12.632.133,15.7a20.122,20.122,0,0,0,13.445,8.924c13.419,2.094,27.211-11.578,24.623-24.1Z" transform="translate(-268.257 -12.721)" fill="#389b91"/>
        <path id="Path_39620" data-name="Path 39620" d="M324.234,448.68c-3.268-.36-6.1.494-6.643,3.308-.707,3.655,3.175,5.082,5.656,6.163,3.095,1.347,12.245,4.7,12.365-1.547C335.679,452.868,329.409,449.253,324.234,448.68Z" transform="translate(-274.732 -69.998)" fill="#ffb0bb"/>
        <path id="Path_39621" data-name="Path 39621" d="M454.818,611.97l-27.745,4.709c-5,11.1-1.254,25.41,13.606,26.691,7.15.614,12.565-2.881,15.06-9.831a34.392,34.392,0,0,0,1.681-14.633C457.233,616.852,456.352,610.583,454.818,611.97Z" transform="translate(-238.848 -15.519)" fill="#389b91"/>
        <path id="Path_39622" data-name="Path 39622" d="M479.211,657.418c-33.787,4.348-67.441,5.456-101.388,5.015-13.726-.187-31.706-2.828-40.95-14.086-5.962-7.243-7.3-16.74-9.1-25.637-5.215-25.971-5.789-51.861-3.6-78.272,2.014-24.33,6.149-48.727,11.231-72.59l-15.18-4.709c-5.175,21.062-9.671,43.218-11.725,64.827-2.534,26.758-6.6,54.1-1.4,80.807,3.161,16.207,3.268,32.267,15.42,45.045,13.112,13.779,33.48,17.314,51.675,17.861,11.885.36,23.7-.694,35.535-1.587,11-.827,22-1.987,32.933-3.375,95.252-12.032,98.387-9.937,93.678-20.929C517.373,652.79,498.286,654.964,479.211,657.418Z" transform="translate(-279.048 -63.808)" fill="#e86d7f"/>
        <path id="Path_39623" data-name="Path 39623" d="M339.07,625.516c42.391,15.18,183.689-15.166,183.689-15.166C369.416,634.933,339.07,625.516,339.07,625.516Z" transform="translate(-267.533 -15.993)" fill="#d34662"/>
        <g id="Group_2002" data-name="Group 2002" transform="translate(87.355 603.074)">
          <g id="Group_2000" data-name="Group 2000">
            <path id="Path_39624" data-name="Path 39624" d="M379.129,617.438c-12.832-3.255-27.718,8.337-28.185,22.062-.934,27.558,40.964,29.132,45.219,3.535C398.417,629.457,389.573,620.093,379.129,617.438Z" transform="translate(-350.928 -616.885)" fill="#49bab1"/>
            <path id="Path_39625" data-name="Path 39625" d="M382.431,617.438c-11.645-3.255-25.17,8.337-25.6,22.062-.84,27.558,37.2,29.132,41.057,3.535C399.931,629.457,391.9,620.093,382.431,617.438Z" transform="translate(-348.962 -616.885)" fill="#6dd7d3"/>
          </g>
          <g id="Group_2001" data-name="Group 2001" transform="translate(19.496 13.218)">
            <path id="Path_39626" data-name="Path 39626" d="M378.37,645.209,377.33,626.9C361.27,625.068,361.63,648.864,378.37,645.209Z" transform="translate(-365.545 -626.795)" fill="#e86d7f"/>
            <path id="Path_39627" data-name="Path 39627" d="M375.208,627.16c-6.523.147-8.8,8.51-7.3,12.885,1.961,5.682,10.017,7.15,13.526,1.894C384.358,637.591,383.025,627,375.208,627.16Z" transform="translate(-364.903 -626.673)" fill="#ff99ad"/>
          </g>
          <path id="Path_39628" data-name="Path 39628" d="M380.012,631.537c-2.895-5.442-10.951-.133-7.163,4.482,3.068,3.762,9.417.147,7.256-4.308C380.078,631.643,380.038,631.59,380.012,631.537Z" transform="translate(-343.942 -612.763)" fill="#ffd2da"/>
        </g>
        <g id="Group_2006" data-name="Group 2006" transform="translate(197.267 594.697)">
          <g id="Group_2005" data-name="Group 2005" transform="translate(0 0)">
            <g id="Group_2003" data-name="Group 2003">
              <path id="Path_39629" data-name="Path 39629" d="M461.529,611.159c-12.832-3.255-27.718,8.337-28.185,22.062-.934,27.558,40.964,29.132,45.219,3.535C480.8,623.177,471.96,613.813,461.529,611.159Z" transform="translate(-433.328 -610.605)" fill="#49bab1"/>
              <path id="Path_39630" data-name="Path 39630" d="M464.821,611.159c-11.645-3.255-25.17,8.337-25.6,22.062-.84,27.558,37.2,29.132,41.057,3.535C482.321,623.177,474.3,613.813,464.821,611.159Z" transform="translate(-431.365 -610.605)" fill="#6dd7d3"/>
            </g>
            <g id="Group_2004" data-name="Group 2004" transform="translate(19.483 13.218)">
              <path id="Path_39631" data-name="Path 39631" d="M460.76,638.929l-1.04-18.314C443.66,618.788,444.02,642.6,460.76,638.929Z" transform="translate(-447.935 -620.515)" fill="#e86d7f"/>
              <path id="Path_39632" data-name="Path 39632" d="M457.608,620.891c-6.509.147-8.8,8.51-7.3,12.885,1.961,5.682,10.017,7.15,13.539,1.894C466.745,631.308,465.411,620.717,457.608,620.891Z" transform="translate(-447.29 -620.39)" fill="#ff99ad"/>
            </g>
          </g>
          <path id="Path_39633" data-name="Path 39633" d="M458.793,622.937c-4.415-1.254-6.643,4.068-3.348,6.856C460.714,634.288,465.1,624.738,458.793,622.937Z" transform="translate(-426.471 -606.551)" fill="#ffd2da"/>
        </g>
        <g id="Group_2007" data-name="Group 2007" transform="translate(80.045 396.244)">
          <path id="Path_39634" data-name="Path 39634" d="M380.625,469.915a72.751,72.751,0,0,0-14.753-6.523c-6.069-1.614-12.592-3.015-16.687,1.361-2.881,3.081-5.215,14.059-2.6,17.674,3.521,4.869,15.286,7.536,20.208,9.484,6.256,2.481,12.165,2.361,15.126-1.614C387.081,483.333,387.948,474.89,380.625,469.915Z" transform="translate(-345.448 -461.826)" fill="#ff99ad"/>
          <path id="Path_39635" data-name="Path 39635" d="M376.887,471.106c-5.536-8.1-16.754,11.885-9.017,18.514,6.429,5.482,12.885-11.6,9.4-17.887C377.14,471.506,377.02,471.293,376.887,471.106Z" transform="translate(-338.842 -459.363)" fill="#fcc5ce"/>
        </g>
        <path id="Path_39636" data-name="Path 39636" d="M369.967,479.318c3.455,12,5.616,26.251,14.206,35.735,1.267-.907,2.534-1.814,3.788-2.721-8.43-8.764-10.218-23.05-13.459-34.267C373.661,475.157,369.113,476.4,369.967,479.318Z" transform="translate(-257.252 -60.714)" fill="#e86d7f"/>
        <path id="Path_39637" data-name="Path 39637" d="M369.81,476.95l-.52,2.094s25.117,7.843,27.731,37.682l4.709-2.094S400.156,482.712,369.81,476.95Z" transform="translate(-257.443 -60.533)" fill="#e61647"/>
        <path id="Path_39638" data-name="Path 39638" d="M422.345,492.531c-17.394-.867-32.613-17.554-50.914-17.741-3.041-.027-3.041,4.682,0,4.709,19.195.187,33.334,16.367,51.088,17.474-.013-.133-.013-.28-.027-.414C422.439,495.959,422.425,494.211,422.345,492.531Z" transform="translate(-257.489 -61.254)" fill="#fc95a9"/>
        <path id="Path_39639" data-name="Path 39639" d="M312.374,445.566c-1.6,0-7.59,8.75-7.723,10.2-.72,7.7,7.63,4.1,10.484.387,2.774-3.615,6.029-5.376,9.244-8.363C320.631,445.152,316.816,445.566,312.374,445.566Z" transform="translate(-279.039 -71.019)" fill="#eaa07a"/>
        <path id="Path_39640" data-name="Path 39640" d="M361.513,571.608c-1.147,1.894,3.762,12.672,4.215,12.7,5.042.253,8.924,3.241,13.552,5.189,4.362,1.827,6.963,9.324,8.87,3.8,2.281-6.629,3.842-16.06-1.441-21.622C385.99,570.9,364.888,566.059,361.513,571.608Z" transform="translate(-260.097 -29.806)" fill="#f1e8dd"/>
        <path id="Path_39641" data-name="Path 39641" d="M453.266,508.883c-2.134,1.974-1.574,14.1-2.174,17.274-1.147,6.083-1.947,11.1,5.842,10.071,3.255-.427,15.726-1.12,16.633-3.788l-4.188-22.5C466.925,509.163,455.053,507.229,453.266,508.883Z" transform="translate(-230.373 -50.088)" fill="#f1e8dd"/>
        <path id="Path_39642" data-name="Path 39642" d="M369.754,580.266s4.709,8.377-10.471,10.991-14.126,18.834-5.762,24.077,40.3-5.749,40.3-5.749c3.135-4.188,1.574-15.7,1.574-15.7C394.351,575.557,369.754,580.266,369.754,580.266Z" transform="translate(-264.723 -26.219)" fill="#e61647"/>
        <path id="Path_39643" data-name="Path 39643" d="M366.013,584.45a9.622,9.622,0,0,1-7.323,4.188s10.471,14.659,18.834,6.283C387.382,585.064,366.013,584.45,366.013,584.45Z" transform="translate(-260.982 -24.641)" fill="#f1e8dd"/>
        <path id="Path_39644" data-name="Path 39644" d="M479.207,504.03c-3.722-.08-13.365,3.655-15.927,7.163,3.922,6.509,4.4,24.223,4.4,24.237.814,2.428,13.339,17.18,18.434,17.807,6.629.827,16.3-1.921,17.767-9.471,1.441-7.443-8.31-16.94-11.738-22.876C489.237,515.849,485.543,504.15,479.207,504.03Z" transform="translate(-226.061 -51.492)" fill="#e61647"/>
        <path id="Path_39645" data-name="Path 39645" d="M482.156,524.554c-8.9-7.843-13.606,8.9-13.606,8.9l6.283,7.323C474.819,540.787,489.132,530.729,482.156,524.554Z" transform="translate(-224.302 -45.337)" fill="#f1e8dd"/>
        <path id="Path_39646" data-name="Path 39646" d="M389.573,475.8a18.93,18.93,0,0,1-5.282.36.787.787,0,0,0,0,1.574,19.99,19.99,0,0,0,5.709-.427A.784.784,0,0,0,389.573,475.8Z" transform="translate(-252.688 -60.929)" fill="#229baf"/>
        <path id="Path_39647" data-name="Path 39647" d="M396.922,475.506a23.374,23.374,0,0,1-5.282.36.787.787,0,0,0,0,1.574,25.628,25.628,0,0,0,5.709-.427C398.336,476.8,397.91,475.279,396.922,475.506Z" transform="translate(-250.234 -61.023)" fill="#229baf"/>
        <path id="Path_39648" data-name="Path 39648" d="M404.583,474.624a27.993,27.993,0,0,1-5.282.36.787.787,0,0,0,0,1.574,31.465,31.465,0,0,0,5.709-.413C405.983,475.945,405.57,474.437,404.583,474.624Z" transform="translate(-247.677 -61.315)" fill="#229baf"/>
        <path id="Path_39649" data-name="Path 39649" d="M412.046,473.232a12.171,12.171,0,0,1-5.1,1.067.787.787,0,0,0,0,1.574,14.049,14.049,0,0,0,5.9-1.281C413.74,474.152,412.953,472.792,412.046,473.232Z" transform="translate(-245.122 -61.803)" fill="#229baf"/>
        <path id="Path_39650" data-name="Path 39650" d="M417.825,471.472a6.366,6.366,0,0,1-3.535,1.067.787.787,0,0,0,0,1.574,7.993,7.993,0,0,0,4.322-1.281C419.466,472.285,418.679,470.925,417.825,471.472Z" transform="translate(-242.672 -62.404)" fill="#229baf"/>
        <path id="Path_39651" data-name="Path 39651" d="M423.165,469.235a4.813,4.813,0,0,1-2.975,1.334c-1.014.04-1.014,1.614,0,1.574a6.439,6.439,0,0,0,4.082-1.8C425.006,469.649,423.9,468.542,423.165,469.235Z" transform="translate(-240.702 -63.182)" fill="#229baf"/>
        <path id="Path_39652" data-name="Path 39652" d="M359.569,534.03H354.86a.787.787,0,0,0,0,1.574h4.709A.787.787,0,0,0,359.569,534.03Z" transform="translate(-262.514 -41.475)" fill="#229baf"/>
        <path id="Path_39653" data-name="Path 39653" d="M364.765,534.03H361.63a.787.787,0,0,0,0,1.574h3.135A.787.787,0,0,0,364.765,534.03Z" transform="translate(-260.254 -41.475)" fill="#229baf"/>
        <path id="Path_39654" data-name="Path 39654" d="M370.355,534.03H367.22a.787.787,0,0,0,0,1.574h3.135A.787.787,0,0,0,370.355,534.03Z" transform="translate(-258.388 -41.475)" fill="#229baf"/>
        <path id="Path_39655" data-name="Path 39655" d="M375.355,533.74H372.22a.787.787,0,0,0,0,1.574h3.135A.787.787,0,0,0,375.355,533.74Z" transform="translate(-256.718 -41.572)" fill="#229baf"/>
        <path id="Path_39656" data-name="Path 39656" d="M380.065,533.74H376.93a.787.787,0,0,0,0,1.574h3.135A.787.787,0,0,0,380.065,533.74Z" transform="translate(-255.146 -41.572)" fill="#229baf"/>
        <path id="Path_39657" data-name="Path 39657" d="M428.92,503.33a11.142,11.142,0,0,1-.36,3.321c-.293.974,1.214,1.387,1.521.414a13.015,13.015,0,0,0,.427-3.735A.794.794,0,0,0,428.92,503.33Z" transform="translate(-237.666 -51.979)" fill="#229baf"/>
        <path id="Path_39658" data-name="Path 39658" d="M427.975,508.417c-.427,1.294-.76,2.628-1.174,3.922-.32.96,1.2,1.374,1.507.413.427-1.294.76-2.628,1.174-3.922C429.8,507.87,428.282,507.456,427.975,508.417Z" transform="translate(-238.256 -50.209)" fill="#229baf"/>
        <path id="Path_39659" data-name="Path 39659" d="M426.306,514.6c-.467,1.334-1.107,2.588-1.574,3.922-.333.96,1.187,1.374,1.507.414.467-1.334,1.107-2.588,1.574-3.922C428.147,514.048,426.639,513.648,426.306,514.6Z" transform="translate(-238.948 -48.144)" fill="#229baf"/>
        <path id="Path_39660" data-name="Path 39660" d="M424.115,520.3c-.387.88-.4,1.881-.787,2.748-.4.92.947,1.721,1.361.787.387-.88.4-1.881.787-2.748C425.876,520.182,424.529,519.382,424.115,520.3Z" transform="translate(-239.425 -46.195)" fill="#229baf"/>
        <path id="Path_39661" data-name="Path 39661" d="M495.14,259.805A42.556,42.556,0,0,0,512.8,273.717c12.325,4.975,9.244-.654,11.778-10.724l-14.659-7.323C505.1,256.35,498.568,255.843,495.14,259.805Z" transform="translate(-215.424 -134.414)" fill="#ff6687"/>
        <path id="Path_39662" data-name="Path 39662" d="M422.574,525.487a16.912,16.912,0,0,1-1.881,3.735c-.56.854.8,1.641,1.361.787a19.032,19.032,0,0,0,2.041-4.108C424.428,524.94,422.907,524.526,422.574,525.487Z" transform="translate(-240.324 -44.51)" fill="#229baf"/>
        <g id="Group_2008" data-name="Group 2008" transform="translate(369.758)">
          <path id="Path_39663" data-name="Path 39663" d="M686.263,188.915C660.8,151.486,597.48,160,573.043,197.732c-13.472,20.809-14.726,50.581,1.4,70.442,21.4,26.371,67.094,30.653,93.038,10.8,20.8-15.9,34.094-47.353,26.6-73.2A58.776,58.776,0,0,0,686.263,188.915Z" transform="translate(-562.644 -164.765)" fill="#a1e1d8"/>
          <path id="Path_39664" data-name="Path 39664" d="M686.262,188.915C660.8,151.486,597.479,160,573.043,197.732a65.651,65.651,0,0,0-9.737,44.525,50.23,50.23,0,0,0,6.429,10.231c21.4,26.371,67.094,30.653,93.038,10.8,18.914-14.459,31.626-41.8,28.118-66.08A54.573,54.573,0,0,0,686.262,188.915Z" transform="translate(-562.643 -164.765)" fill="#72d5d0"/>
          <path id="Path_39665" data-name="Path 39665" d="M621.837,171.691c-6.109-5.4-21.782.654-16.927,9.564C610.005,190.605,632.188,180.881,621.837,171.691Z" transform="translate(-548.839 -163.135)" fill="#fff"/>
        </g>
        <g id="Group_2009" data-name="Group 2009" transform="translate(271.38 2.005)">
          <path id="Path_39666" data-name="Path 39666" d="M592.746,179.049a59.035,59.035,0,0,0-16.073-9.35c-42.311-16.087-89.343,27.171-87.743,72.083.88,24.77,16.9,49.887,41.51,56.943,32.653,9.35,72.55-13.326,82.447-44.445C620.824,229.35,613.7,195.936,592.746,179.049Z" transform="translate(-488.89 -166.268)" fill="#ffa8be"/>
          <path id="Path_39667" data-name="Path 39667" d="M576.683,169.709c-42.311-16.087-89.343,27.171-87.743,72.083a65.7,65.7,0,0,0,17.527,42.071,51.068,51.068,0,0,0,11.125,4.709c32.64,9.351,72.55-13.325,82.447-44.445,7.216-22.689,1.974-52.382-14.806-70.269A56.513,56.513,0,0,0,576.683,169.709Z" transform="translate(-488.887 -166.265)" fill="#ff8096"/>
          <path id="Path_39668" data-name="Path 39668" d="M519.933,181.021c-8.1-.934-17.474,13.005-8.39,17.527C521.08,203.31,533.685,182.622,519.933,181.021Z" transform="translate(-482.571 -161.357)" fill="#fff"/>
          <path id="Path_39669" data-name="Path 39669" d="M573.053,191.263c-13.472,20.809-14.726,50.581,1.4,70.442a54.438,54.438,0,0,0,4.175,4.575,57.863,57.863,0,0,0,9.631-17.954c6.443-20.275,2.948-46.139-9.844-64.186A63.743,63.743,0,0,0,573.053,191.263Z" transform="translate(-464.262 -160.301)" fill="#a1e1d8" opacity="0.2"/>
        </g>
        <g id="Group_2010" data-name="Group 2010" transform="translate(369.758 93.145)">
          <path id="Path_39670" data-name="Path 39670" d="M686.263,258.745c-25.464-37.429-88.783-28.919-113.22,8.817-13.472,20.809-14.726,50.581,1.4,70.442,21.4,26.371,67.094,30.653,93.038,10.8,20.8-15.9,34.094-47.353,26.6-73.2A59.3,59.3,0,0,0,686.263,258.745Z" transform="translate(-562.644 -234.595)" fill="#ffdf99"/>
          <path id="Path_39671" data-name="Path 39671" d="M686.262,258.745c-25.464-37.429-88.783-28.919-113.22,8.817a65.651,65.651,0,0,0-9.737,44.525,50.23,50.23,0,0,0,6.429,10.231c21.409,26.358,67.094,30.653,93.038,10.8,18.914-14.459,31.626-41.8,28.118-66.08A55.222,55.222,0,0,0,686.262,258.745Z" transform="translate(-562.643 -234.595)" fill="#ffcd52"/>
          <path id="Path_39672" data-name="Path 39672" d="M578.96,254.35c23.5,17.567,60.652,18.448,83.074,1.307a66.336,66.336,0,0,0,8.643-7.963C645.654,227.205,604.077,231.82,578.96,254.35Z" transform="translate(-557.196 -234.589)" fill="#72d5d0" opacity="0.2"/>
          <path id="Path_39673" data-name="Path 39673" d="M621.827,241.531c-6.109-5.4-21.782.654-16.927,9.564C610,260.445,632.191,250.708,621.827,241.531Z" transform="translate(-548.842 -232.961)" fill="#fff"/>
        </g>
      </g>
      <g id="Group_2012" data-name="Group 2012" transform="translate(-121.217 461.151)">
        <path id="Path_39674" data-name="Path 39674" d="M212.392,225.707c-21.329-6.283-54.329,7.11-69.322,22.169,17.127,17.447,37.269,35.521,61.705,35.441C237.335,283.211,241.564,234.311,212.392,225.707Z" transform="translate(-83.996 -153.993)" fill="#ffd880"/>
        <path id="Path_39675" data-name="Path 39675" d="M124.53,175.393c-47.726,23.316,11.2,72.683,36.295,85.262,0,0,23.356-49.74,10.9-70.749C162.066,173.605,142.631,166.549,124.53,175.393Z" transform="translate(-96.229 -171.546)" fill="#ffd880"/>
        <path id="Path_39676" data-name="Path 39676" d="M153.388,234.43l-5.3.187c-5.776,14.126-8.91,79.459,23.423,64.346C206.2,282.743,168.008,244.728,153.388,234.43Z" transform="translate(-83.55 -150.551)" fill="#ffb31a"/>
        <path id="Path_39677" data-name="Path 39677" d="M100.086,227.117c-11.218,33.881,53.289,23.1,66.641,15.713l-.44-5.282C154.349,224.236,112.131,190.769,100.086,227.117Z" transform="translate(-98.783 -158.471)" fill="#ffb31a"/>
        <path id="Path_39678" data-name="Path 39678" d="M158.36,224.9a6.949,6.949,0,0,0-6.709,7.19,6.59,6.59,0,0,0,.267,1.627,41.87,41.87,0,0,1-10.284,9.084c-3.895,2.294-.867,8.67,3.081,6.363a51.594,51.594,0,0,0,12.258-10.578,6.636,6.636,0,0,0,1.867.213,6.954,6.954,0,0,0-.48-13.9Z" transform="translate(-85.08 -153.733)" fill="#a04e35"/>
      </g>
      <g id="Group_2013" data-name="Group 2013" transform="translate(797.123 445.268)">
        <path id="Path_39679" data-name="Path 39679" d="M655.929,374.585c-5.376,9.377-2.761,26.491,2.668,35.281,10.178-6.136,21-13.619,23.716-25.184C685.941,369.263,663.292,361.753,655.929,374.585Z" transform="translate(-612.088 -368.053)" fill="#fdffff"/>
        <path id="Path_39680" data-name="Path 39680" d="M634.964,387.312c-8.79,2.734-14.326,11.125-12.178,20.675,5.642,25.2,35.641,2.895,44.418-7.55C667.191,400.451,646.316,383.791,634.964,387.312Z" transform="translate(-622.323 -361.786)" fill="#fdffff"/>
        <path id="Path_39681" data-name="Path 39681" d="M654.687,397.348l-.507,2.521c6.029,4.322,36.562,13.179,33.067-3.815C683.485,377.82,661.21,391.585,654.687,397.348Z" transform="translate(-611.686 -361.751)" fill="#e7f7f5"/>
        <path id="Path_39682" data-name="Path 39682" d="M657.225,395.15c-7.643,4.148-28.238,20.342-12.405,30.132,14.753,9.124,16.94-22.6,14.953-29.745Z" transform="translate(-616.759 -359.006)" fill="#e7f7f5"/>
        <path id="Path_39683" data-name="Path 39683" d="M656.677,395.319a3.638,3.638,0,0,0,.32-.854,3.382,3.382,0,1,0-3.988,2.641,3.237,3.237,0,0,0,.8.053,20.693,20.693,0,0,1,3.135,5.882c.64,2.107,4,1.387,3.361-.734A25.265,25.265,0,0,0,656.677,395.319Z" transform="translate(-612.982 -360.589)" fill="#a04e35"/>
      </g>
      <g id="Group_2014" data-name="Group 2014" transform="translate(219.991 12.79)">
        <path id="Path_39684" data-name="Path 39684" d="M354.462,147.381c-7.536,14.473-2.534,40.15,6.2,53.075,14.979-9.884,30.853-21.849,34.241-39.456C399.427,137.51,364.773,127.573,354.462,147.381Z" transform="translate(-298.855 -136.79)" fill="#e7f7f5"/>
        <path id="Path_39685" data-name="Path 39685" d="M327.122,170.167c-12.472,6.149-18.741,19.968-13.3,33.721,14.353,36.268,53.835-4.068,64.466-21.716C378.3,182.159,343.222,162.231,327.122,170.167Z" transform="translate(-311.851 -126.27)" fill="#e7f7f5"/>
        <path id="Path_39686" data-name="Path 39686" d="M354.483,180.848l-.253,3.882c9.9,5.255,57.384,12.365,48.727-12.365C393.673,145.833,363.087,170.924,354.483,180.848Z" transform="translate(-297.702 -128.853)" fill="#fdffff"/>
        <path id="Path_39687" data-name="Path 39687" d="M357.447,176.77c-10.6,7.737-38.162,36.121-12.5,47.593,23.916,10.7,20.8-37.229,16.393-47.526Z" transform="translate(-304.347 -123.442)" fill="#fdffff"/>
        <path id="Path_39688" data-name="Path 39688" d="M357.56,176.389a4.95,4.95,0,0,0,.293-1.347,5.106,5.106,0,1,0-5.429,4.762,5.262,5.262,0,0,0,1.214-.08,31.15,31.15,0,0,1,5.882,8.177c1.387,3.015,6.269,1.267,4.882-1.774A38.669,38.669,0,0,0,357.56,176.389Z" transform="translate(-299.899 -125.835)" fill="#a04e35"/>
      </g>
    </g>
  </g>
</svg>
