<svg xmlns="http://www.w3.org/2000/svg" width="2272" height="1398" viewBox="0 0 2272 1398">
  <g id="Group_2015" data-name="Group 2015" transform="translate(0 0)">
    <path id="Subtraction_1" data-name="Subtraction 1" d="M1558.627,1276.021h0c-.022-.076-2.3-7.756-6.663-19.28a389.5,389.5,0,0,0-19.868-44.093c-10.223-19.208-21.287-35.448-32.887-48.269a134.452,134.452,0,0,0-21.267-19.253,89.161,89.161,0,0,0-24.452-12.559,111.515,111.515,0,0,0-21.6-7.2,94.657,94.657,0,0,0-20.175-2.217,91.707,91.707,0,0,0-23.23,3.017,103.067,103.067,0,0,0-20.671,7.955,137.726,137.726,0,0,0-33,24.137,184.844,184.844,0,0,0-20.774,24.138c-4.667,6.483-7.195,10.929-7.219,10.972a191.116,191.116,0,0,0-22.5-18.158,131.593,131.593,0,0,0-22.1-12.483c-8.74-3.766-16.805-5.675-23.973-5.675a36.084,36.084,0,0,0-8.391.954c-7.472,1.791-14.966,6.415-22.273,13.745a118.088,118.088,0,0,0-17.056,22.583,199.969,199.969,0,0,0-10.913,21.111c-2.475,5.565-3.83,9.291-3.844,9.328-.031-.033-3.832-4.216-10.49-10.469a291.8,291.8,0,0,0-27.8-23.031,209.674,209.674,0,0,0-39.621-23.032c-16.11-6.947-31.567-10.469-45.943-10.469-2.14,0-4.29.079-6.39.234-11.808.1-24.58,3.269-37.962,9.418a177.937,177.937,0,0,0-33.045,20.295,255.829,255.829,0,0,0-23.339,20.213c-5.521,5.4-8.814,9.139-8.844,9.173a82.155,82.155,0,0,0-2.9-7.824,115.633,115.633,0,0,0-9.51-17.965,88.738,88.738,0,0,0-17.331-19.845,64.619,64.619,0,0,0-26.365-13.466,75.374,75.374,0,0,0-17.579-2.171,62.754,62.754,0,0,0-29.2,7.1,75.038,75.038,0,0,0-20.2,15.617,95.2,95.2,0,0,0-11.736,15.618,69.575,69.575,0,0,0-3.795,7.1,169.405,169.405,0,0,0-8.282-16.489c-3.233-5.743-6.771-11.43-10.516-16.9A215.919,215.919,0,0,0,770,1148.5c-13.271-15.318-27.885-27.523-43.436-36.277a129.391,129.391,0,0,0-28.744-11.955,125.334,125.334,0,0,0-33.572-4.535,109.9,109.9,0,0,0-29.3,3.991,121.527,121.527,0,0,0-25.74,10.52c-14.112,7.7-27.7,18.444-40.374,31.924a216.792,216.792,0,0,0-14.42,17.05c-3.669,4.813-7.179,9.818-10.433,14.873a167.6,167.6,0,0,0-8.474,14.511,120.207,120.207,0,0,0-5.987-12.884c-2.373-4.487-5-8.93-7.808-13.206a154.641,154.641,0,0,0-11.305-15.139,122.679,122.679,0,0,0-33.965-28.345,102.864,102.864,0,0,0-23.091-9.341,106.06,106.06,0,0,0-27.452-3.543,89.537,89.537,0,0,0-49.942,14.863c-12.057,7.89-23.04,18.892-32.642,32.7a169.447,169.447,0,0,0-10.6,17.464c-2.609,4.932-5.028,10.058-7.192,15.234a144.43,144.43,0,0,0-5.386,14.863c-30.325-71.635-78.817-123.477-144.132-154.086A319.137,319.137,0,0,0,97.115,1022.4a357.761,357.761,0,0,0-63.224-5.642h-.652V0h1920V1034.035a224.7,224.7,0,0,0-25.214-5.8,181.483,181.483,0,0,0-29.987-2.626c-24.48,0-45.63,5.732-62.861,17.038a127.647,127.647,0,0,0-20.959,17.6,210.878,210.878,0,0,0-18.9,22.538,369.168,369.168,0,0,0-30.726,50.916c-8.8,17.327-15.608,33.343-19.771,43.728-4.455,11.115-6.893,18.27-6.995,18.569a199.039,199.039,0,0,0-25.839-13.88,179.672,179.672,0,0,0-26.133-9.543,112.358,112.358,0,0,0-29.459-4.338,66.215,66.215,0,0,0-27.152,5.364c-10.218,4.563-20.289,12.787-29.933,24.444a196.61,196.61,0,0,0-22.174,34.27,309.883,309.883,0,0,0-13.774,30.519c-3.01,7.756-4.664,12.968-4.732,13.186Z" transform="translate(-33.239)" fill="#4b44f2"/>
    <g id="Ellipse_126" data-name="Ellipse 126" transform="translate(1301 367)" fill="#fff" stroke="#707070" stroke-width="1" opacity="0.13">
      <ellipse cx="485.5" cy="515.5" rx="485.5" ry="515.5" stroke="none"/>
      <ellipse cx="485.5" cy="515.5" rx="485" ry="515" fill="none"/>
    </g>
  </g>
</svg>
