<svg xmlns="http://www.w3.org/2000/svg" xmlns:xlink="http://www.w3.org/1999/xlink" width="404.012" height="309.189" viewBox="0 0 404.012 309.189">
  <defs>
    <filter id="Path_671" x="0" y="0" width="404.012" height="309.189" filterUnits="userSpaceOnUse">
      <feOffset dy="16" input="SourceAlpha"/>
      <feGaussianBlur stdDeviation="8" result="blur"/>
      <feFlood flood-opacity="0.102"/>
      <feComposite operator="in" in2="blur"/>
      <feComposite in="SourceGraphic"/>
    </filter>
  </defs>
  <g id="Group_2037" data-name="Group 2037" transform="translate(-758 -3571)">
    <g id="Group_1451" data-name="Group 1451" transform="translate(710.001 3415.791)">
      <g transform="matrix(1, 0, 0, 1, 48, 155.21)" filter="url(#Path_671)">
        <path id="Path_671-2" data-name="Path 671" d="M385.76,197.59c12.09,6.34,18.77,22.17,13.5,34.76,15.66,1.51,28.9,16.22,28.75,31.95s-13.68,30.19-29.36,31.39c9.68,1.98,17.24,10.94,18.45,20.76s-3.54,19.91-11.31,26.01-18.22,8.35-28,6.95c7.33,19.95-5.62,50.09-21.94,62.16-15.77,11.66-39.98,12.1-54.09-1.52-2.87,6.44-9.12,10.97-15.89,12.94s-14.02,1.65-20.96.4c-19.74-3.55-35.14-15.63-42.57-34.24-3.68,9.06-14.64,12.44-24.33,13.76-9.43,1.28-19.35,1.6-28.12-2.1s-16.02-12.33-15.51-21.83c-10.74,13.32-32.35,16.07-46.09,5.88s-17.37-31.67-7.74-45.82c-1.79,2.62-9.13,2.19-11.58,1.2-3.22-1.3-5.88-4.64-8.07-7.33-5.32-6.53-8.83-14.7-8.9-23.2-.08-11.34,6.7-22.87,17.32-26.84a23.186,23.186,0,0,1,.74-44.09c-5.59-7.05-3.33-18.43,3.74-23.99,4.16-3.27,10.83-5.45,16.14-4.22,4.3.99,7.27,5.08,10.5,7.83a15.935,15.935,0,0,1,1.4-15.12,14.445,14.445,0,0,1,21.18-3.06c2.49,2.03,6.15,5.56,5.92,9.01,2.99-7.61,4.33-13.58,10.7-19.26,6.77-6.03,15.06-10.16,23.42-13.52,10.79-4.34,23.04-4.97,34.56-4.04a43.257,43.257,0,0,1,15.33,3.83c2.93,1.41,10.54,5.77,10.76,9.62-.67-11.7,9.94-22.79,21.66-22.65s22.05,11.49,21.1,23.17c.47-6.67,4.68-12.78,10.35-16.34s12.63-4.71,19.29-4.06a38.292,38.292,0,0,1,24.29,12.03,36.257,36.257,0,0,1,9.47,25.32c5.08-3.67,9.76-7.87,16.31-8.82A32.482,32.482,0,0,1,385.76,197.59Z" transform="translate(-48 -155.21)" fill="#fff"/>
      </g>
    </g>
    <g id="kindergarten" transform="translate(886 3625.759)">
      <path id="Path_37967" data-name="Path 37967" d="M277.141,37.435H255.825V22.069h21.316a1.8,1.8,0,0,1,1.272,3.072L273.8,29.752l4.611,4.611A1.8,1.8,0,0,1,277.141,37.435Z" transform="translate(-181.607 -6.267)" fill="#ff646e"/>
      <path id="Path_37968" data-name="Path 37968" d="M249.733,13.241h0a2.561,2.561,0,0,0-2.561,2.561v25.61h5.122V15.8A2.561,2.561,0,0,0,249.733,13.241Z" transform="translate(-175.464 0)" fill="#734b46"/>
      <path id="Path_37969" data-name="Path 37969" d="M159.655,211.7,93.069,180.966,26.483,211.7v48.659H159.655Z" transform="translate(-18.8 -119.066)" fill="#ffc855"/>
      <path id="Path_37970" data-name="Path 37970" d="M26.483,230.661l66.586-30.732,66.586,30.732V225.02L94.142,194.782a2.571,2.571,0,0,0-2.146,0L26.483,225.02Z" transform="translate(-18.8 -128.707)" fill="#ffaa4b"/>
      <path id="Path_37971" data-name="Path 37971" d="M149.681,213.93a2.552,2.552,0,0,1-1.072-.235L80.535,182.277,12.461,213.7a2.561,2.561,0,1,1-2.146-4.651L79.463,177.13a2.571,2.571,0,0,1,2.146,0l69.147,31.915a2.56,2.56,0,0,1-1.075,4.886Z" transform="translate(-6.266 -116.176)" fill="#ff646e"/>
      <path id="Path_37972" data-name="Path 37972" d="M211.533,137.1,180.8,119.172,150.069,137.1V216.49h61.464Z" transform="translate(-106.532 -75.199)" fill="#ffe678"/>
      <path id="Path_37973" data-name="Path 37973" d="M147.122,467.426H13.95A5.122,5.122,0,0,1,8.828,462.3v-7.683H152.244V462.3A5.122,5.122,0,0,1,147.122,467.426Z" transform="translate(-6.267 -313.329)" fill="#00bea5"/>
      <path id="Path_37974" data-name="Path 37974" d="M145.977,450.914H2.561A2.561,2.561,0,0,1,0,448.353H0a2.561,2.561,0,0,1,2.561-2.561H145.978a2.561,2.561,0,0,1,2.561,2.561h0A2.562,2.562,0,0,1,145.977,450.914Z" transform="translate(0 -307.062)" fill="#009d93"/>
      <path id="Path_37975" data-name="Path 37975" d="M150.069,142.625,180.8,124.7l30.732,17.927V137.1L180.8,119.172,150.069,137.1Z" transform="translate(-106.532 -75.199)" fill="#ffc855"/>
      <path id="Path_37976" data-name="Path 37976" d="M201.557,126.061a2.554,2.554,0,0,1-1.288-.349l-32-18.668-32,18.669a2.561,2.561,0,1,1-2.581-4.424l33.293-19.421a2.562,2.562,0,0,1,2.581,0l33.293,19.421a2.561,2.561,0,0,1-1.293,4.773Z" transform="translate(-93.997 -62.666)" fill="#ff646e"/>
      <path id="Path_37977" data-name="Path 37977" d="M230.061,376.86H194.207V351.25a2.561,2.561,0,0,1,2.561-2.561H227.5a2.561,2.561,0,0,1,2.561,2.561v25.61Z" transform="translate(-137.865 -238.13)" fill="#b97850"/>
      <path id="Path_37978" data-name="Path 37978" d="M200.61,220.69h0a6.4,6.4,0,0,0-6.4,6.4V245.02a2.561,2.561,0,0,0,2.561,2.561h7.683a2.561,2.561,0,0,0,2.561-2.561V227.093A6.4,6.4,0,0,0,200.61,220.69Z" transform="translate(-137.865 -147.265)" fill="#aae1ff"/>
      <path id="Path_37979" data-name="Path 37979" d="M200.61,220.69a6.4,6.4,0,0,0-6.4,6.4v3.841a6.4,6.4,0,0,1,12.805,0v-3.841A6.4,6.4,0,0,0,200.61,220.69Z" transform="translate(-137.865 -147.265)" fill="#8cd2ff"/>
      <rect id="Rectangle_166" data-name="Rectangle 166" width="12.805" height="5.122" transform="translate(56.342 82.388)" fill="#fff"/>
      <path id="Path_37980" data-name="Path 37980" d="M77.024,317.793h0a6.4,6.4,0,0,0-6.4,6.4v17.927a2.561,2.561,0,0,0,2.561,2.561h7.683a2.561,2.561,0,0,0,2.561-2.561V324.2A6.4,6.4,0,0,0,77.024,317.793Z" transform="translate(-50.133 -216.197)" fill="#aae1ff"/>
      <path id="Path_37981" data-name="Path 37981" d="M77.024,317.793a6.4,6.4,0,0,0-6.4,6.4v3.841a6.4,6.4,0,0,1,12.805,0V324.2A6.4,6.4,0,0,0,77.024,317.793Z" transform="translate(-50.133 -216.197)" fill="#8cd2ff"/>
      <rect id="Rectangle_167" data-name="Rectangle 167" width="12.805" height="5.122" transform="translate(20.488 110.56)" fill="#fff"/>
      <path id="Path_37982" data-name="Path 37982" d="M403.643,317.793h0a6.4,6.4,0,0,0-6.4,6.4v17.927a2.561,2.561,0,0,0,2.561,2.561h7.683a2.561,2.561,0,0,0,2.561-2.561V324.2A6.4,6.4,0,0,0,403.643,317.793Z" transform="translate(-281.996 -216.197)" fill="#aae1ff"/>
      <path id="Path_37983" data-name="Path 37983" d="M403.643,317.793a6.4,6.4,0,0,0-6.4,6.4v3.841a6.4,6.4,0,0,1,12.805,0V324.2A6.4,6.4,0,0,0,403.643,317.793Z" transform="translate(-281.996 -216.197)" fill="#8cd2ff"/>
      <rect id="Rectangle_168" data-name="Rectangle 168" width="12.805" height="5.122" transform="translate(115.245 110.56)" fill="#fff"/>
      <path id="Path_37984" data-name="Path 37984" d="M280.058,220.69h0a6.4,6.4,0,0,0-6.4,6.4V245.02a2.561,2.561,0,0,0,2.561,2.561H283.9a2.561,2.561,0,0,0,2.561-2.561V227.093A6.4,6.4,0,0,0,280.058,220.69Z" transform="translate(-194.264 -147.265)" fill="#aae1ff"/>
      <path id="Path_37985" data-name="Path 37985" d="M280.058,220.69a6.4,6.4,0,0,0-6.4,6.4v3.841a6.4,6.4,0,1,1,12.805,0v-3.841A6.4,6.4,0,0,0,280.058,220.69Z" transform="translate(-194.264 -147.265)" fill="#8cd2ff"/>
      <rect id="Rectangle_169" data-name="Rectangle 169" width="12.805" height="5.122" transform="translate(79.391 82.388)" fill="#fff"/>
      <g id="Group_1434" data-name="Group 1434" transform="translate(43.537 128.487)">
        <rect id="Rectangle_170" data-name="Rectangle 170" width="12.805" height="10.244" fill="#ffc855"/>
        <rect id="Rectangle_171" data-name="Rectangle 171" width="12.805" height="10.244" transform="translate(48.659)" fill="#ffc855"/>
      </g>
      <g id="Group_1435" data-name="Group 1435" transform="translate(7.683 128.487)">
        <rect id="Rectangle_172" data-name="Rectangle 172" width="35.854" height="10.244" transform="translate(97.318)" fill="#ffaa4b"/>
        <rect id="Rectangle_173" data-name="Rectangle 173" width="35.854" height="10.244" fill="#ffaa4b"/>
      </g>
      <rect id="Rectangle_174" data-name="Rectangle 174" width="5.122" height="28.171" transform="translate(71.708 110.56)" fill="#734b46"/>
      <g id="Group_1436" data-name="Group 1436" transform="translate(61.464 115.681)">
        <path id="Path_37986" data-name="Path 37986" d="M214.423,379.149h0a2.561,2.561,0,0,0,2.561-2.561v-7.683a2.561,2.561,0,0,0-2.561-2.561h0a2.561,2.561,0,0,0-2.561,2.561v7.683A2.561,2.561,0,0,0,214.423,379.149Z" transform="translate(-211.862 -366.344)" fill="#aae1ff"/>
        <path id="Path_37987" data-name="Path 37987" d="M285.043,379.149h0a2.561,2.561,0,0,0,2.561-2.561v-7.683a2.561,2.561,0,0,0-2.561-2.561h0a2.561,2.561,0,0,0-2.561,2.561v7.683A2.561,2.561,0,0,0,285.043,379.149Z" transform="translate(-261.994 -366.344)" fill="#aae1ff"/>
      </g>
      <g id="Group_1437" data-name="Group 1437" transform="translate(61.464 115.681)">
        <path id="Path_37988" data-name="Path 37988" d="M214.423,366.345a2.561,2.561,0,0,0-2.561,2.561v5.122a2.561,2.561,0,1,1,5.122,0v-5.122A2.561,2.561,0,0,0,214.423,366.345Z" transform="translate(-211.862 -366.345)" fill="#8cd2ff"/>
        <path id="Path_37989" data-name="Path 37989" d="M285.043,366.345a2.561,2.561,0,0,0-2.561,2.561v5.122a2.561,2.561,0,1,1,5.122,0v-5.122A2.561,2.561,0,0,0,285.043,366.345Z" transform="translate(-261.994 -366.345)" fill="#8cd2ff"/>
      </g>
    </g>
  </g>
</svg>
