<svg id="Group_1560" data-name="Group 1560" xmlns="http://www.w3.org/2000/svg" width="157.905" height="148.735" viewBox="0 0 157.905 148.735">
  <path id="Path_38348" data-name="Path 38348" d="M240.481,249.81a247.9,247.9,0,0,0-17.2-35.681c-3.24-5.492-11.144-.678-8.449,4.938,3.358,7,7.09,13.818,10.478,20.8q2.388,4.929,4.665,9.91c1.9,4.155,1.965,6.383-2.047,2.216-9.119-9.476-12.154-23.222-16.682-35.147a3.586,3.586,0,0,0-1.674-1.875c-1.238-2.007-3.581-3.111-6-1.275-6.955,5.285-13.553,10.1-22.056,12.668-6.489,1.957-24.149,5.737-26.422-4.225-1.975-8.643,12.6-15.3,18.708-17.513,8.619-3.127,17.975-4.245,27.108-4.366,3.806-.05,4.229-5.155.865-6.381-13-4.733-26.737-2.959-38.979,3.3-9.964,5.092-21.831,15.313-18.509,27.943,3.348,12.724,17.837,15.319,29.031,13.948,11.327-1.389,23.306-5.986,32.018-13.776a73.885,73.885,0,0,0,7,22.52c3.631,7.007,11.1,17.2,19.579,18.23C241.764,267.241,243.133,256.631,240.481,249.81Z" transform="translate(-141.33 -120.164)" fill="#f33d8a"/>
  <path id="Path_38349" data-name="Path 38349" d="M264.2,235.812c-2.031-7.842-12.092-13.73-19.1-16.154a53.291,53.291,0,0,0-22.349-2.226c4.1-7.4,4.045-17.662,2.993-25.436-1.714-12.664-5.911-27.164-18.539-32.907-10.96-4.986-22.762.69-28.361,10.783-6.728,12.126-3.687,29.585,1.03,41.964a3.3,3.3,0,0,0,6.457-.875c.771-9.2-1.7-18.423-.159-27.608,1.377-8.232,8.3-19.244,17.965-13.262,7.431,4.6,9.368,16.072,10.2,24.061a40.125,40.125,0,0,1-.317,12.315c-.853,4.059-3.186,6.941-4.98,10.554a5.651,5.651,0,0,0,1.654,6.989,3.308,3.308,0,0,0,2.794,2.728c11.867,1.748,25.4.986,35.368,8.832.353.249.676.532,1,.807-.155.05-.3.09-.47.153-2.589-.787-6.365-.165-9.121-.454a89.207,89.207,0,0,1-20-4.7c-7.29-2.531-10.454,9.063-3.184,11.55C225.437,245.782,269.7,257.055,264.2,235.812Z" transform="translate(-110.334 -153.863)" fill="#f33d8a"/>
  <path id="Path_38350" data-name="Path 38350" d="M177.324,183.915c-.428-.409-.845-.835-1.283-1.234a6.3,6.3,0,0,0-2.748-1.491,7.593,7.593,0,0,0-3.42.078,5.2,5.2,0,0,0-3.691,3.691,5.373,5.373,0,0,0,1.359,5.141,6.062,6.062,0,0,0,4.681,2.108c.584-.048,1.172-.141,1.754-.209a5.925,5.925,0,0,0,2.391-.646,4.808,4.808,0,0,0,.957-7.439Z" transform="translate(-119.217 -130.264)" fill="#f3dc3d"/>
  <path id="Path_38351" data-name="Path 38351" d="M211.475,211.679c-3.874-5.654-10.532-9.207-16.074-13.091-6.283-4.4-12.612-9.007-19.416-12.574-2.379-1.247-5.859,1.471-4.015,4.015A89.1,89.1,0,0,0,187.9,206.3c5.39,4.424,11.783,10.233,18.756,11.648C210,218.624,213.738,214.983,211.475,211.679Z" transform="translate(-113.801 -125.619)" fill="#f3dc3d"/>
  <path id="Path_38352" data-name="Path 38352" d="M185.364,173.79c-1.2,7.144-2.234,14.376-1.6,21.622.586,6.654,10.5,8.954,12.3,1.664,1.578-6.373,3.041-12.708,5.472-18.826C205.545,168.178,187.157,163.063,185.364,173.79Z" transform="translate(-101.765 -143.369)" fill="#f3dc3d"/>
  <path id="Path_38353" data-name="Path 38353" d="M184.6,195.527c-4.177.719-8.268,1.893-12.4,2.822-4.34.976-8.677,1.3-12.686,3.3-7.429,3.711-3.473,14.755,4.049,14.952,4.7.122,9.233-1.965,13.535-3.687a59.594,59.594,0,0,0,12.238-6.16C195.158,202.682,191.531,194.336,184.6,195.527Z" transform="translate(-129.59 -115.978)" fill="#f3dc3d"/>
  <path id="Path_38354" data-name="Path 38354" d="M193.7,220.962c-2.814-5.711-5.371-11.7-8.968-16.969-3.157-4.623-9.43-1.6-8.655,3.649.937,6.351,3.121,12.527,4.928,18.672,1.672,5.685,2.509,12.19,8.184,15.125a6.209,6.209,0,0,0,8.968-3.649C200.313,231.845,196.294,226.219,193.7,220.962Z" transform="translate(-109.271 -109.719)" fill="#f3dc3d"/>
  <path id="Path_38355" data-name="Path 38355" d="M226.684,194.3c-8.792-2.264-18.788-4.623-27.907-3.581-6.518.743-8.168,9.322-1.574,11.618,8.308,2.894,16.893,4.51,25.1,7.846,3.256,1.323,7.688-.871,9.3-3.784a10.742,10.742,0,0,0,1.126-4.157C233.178,198.771,229.854,195.121,226.684,194.3Z" transform="translate(-92.408 -120.888)" fill="#f3dc3d"/>
  <path id="Path_38356" data-name="Path 38356" d="M239.241,250.8l-.161-.082a1.3,1.3,0,0,0,.138-1.164c-2.772-8.326-11.319-16.14-17.881-21.642A90.268,90.268,0,0,0,198.774,214.1a8.365,8.365,0,0,0-.634-6.618,9.508,9.508,0,0,0-11.724-4.275,1.674,1.674,0,0,0-.1-.345c-7.266-14.388-12.286-28.776-14.386-44.812-.241-1.849-3.093-1.981-3,0,.765,16.245,5.6,32.793,14.681,46.392.024.036.056.05.08.084a5.979,5.979,0,0,0-2.441,2.74c-6.59-5.06-15.568-10.733-23.894-9.731-6.034.725-11.672,6.367-8.7,12.495.666,1.373,2.513.546,2.625-.711,1.339-14.9,21.8-3.691,29.133,1.186a11.213,11.213,0,0,0,.8,5.235,8.956,8.956,0,0,0,11.845,4.474c9.125,15.639,27.365,31.412,45.465,33.238C239.945,253.591,240.439,251.429,239.241,250.8Zm-46.029-35a1.176,1.176,0,0,0-1.841,1.17,5.261,5.261,0,0,1-7.391-3.081c-1.128-3.119.269-5.486,1.869-8.053a.9.9,0,0,0,.084-.209.946.946,0,0,0,.4-.052c3.131-1.1,6.758.664,8.358,3.529C196.046,211.535,195.117,214.134,193.212,215.8Zm21.855,22.5a93.762,93.762,0,0,1-19.529-19.549,10.146,10.146,0,0,0,1.684-1.7,99.42,99.42,0,0,1,22.052,14.535c5.554,4.908,9.549,11.17,14.46,16.514C227.358,245.134,220.954,242.515,215.067,238.3Z" transform="translate(-137.241 -154.5)" fill="#3c3c3b"/>
  <path id="Path_38357" data-name="Path 38357" d="M270.129,242.964c-1.269-8.382-15.193-12.917-21.965-15.113a65.473,65.473,0,0,0-28.134-2.86c8.85-8.356,12.126-24.2,11.126-35.426-1.178-13.212-8.33-26.677-21.086-31.877-11.347-4.625-24.645-1.744-31.693,8.631-9.936,14.621-4.285,32.371,1.359,47.4.624,1.666,3.258,1.012,2.716-.749-3.964-12.887-8.627-27.74-2.417-40.7,5.821-12.16,20.271-15.414,31.534-8.613,9.97,6.02,14.587,18.11,14.792,29.31a44.544,44.544,0,0,1-3.165,17.068c-2.2,5.548-6.1,9.767-8.8,14.976a1.809,1.809,0,0,0-.175,1.026c-.415.1-.831.189-1.245.295-1.618.418-1.343,3.171.406,3,16.443-1.622,33.389.163,47.512,9.545,2.632,1.748,3.639,1.921,3.087,5.293-.6,3.667-2.489,3.609-6.008,4.259a42.968,42.968,0,0,1-15.635-.45c-9.081-1.752-17.327-5.753-25.593-9.735-2.511-1.21-4.707,2.4-2.212,3.784,10.984,6.112,23.535,11.233,36.269,11.433C257.068,253.552,271.578,252.536,270.129,242.964Z" transform="translate(-112.325 -155.551)" fill="#3c3c3b"/>
  <path id="Path_38358" data-name="Path 38358" d="M242.969,254.1a167.661,167.661,0,0,0-15.687-34.168c-1.453-2.467-5.177-.279-3.83,2.238,3.334,6.231,6.616,12.463,9.462,18.939,1.692,3.854,3.282,7.766,4.707,11.728q.867,2.293,1.58,4.637-2.254,11.58-10.1,4.872c-5.488-4.133-9.121-13.7-11.247-19.922a95.692,95.692,0,0,1-3.91-18.794c.054-.08.118-.157.171-.235a1.936,1.936,0,0,0-.644-2.7,1.337,1.337,0,0,0-2.427.038,1.771,1.771,0,0,0-.165.159c-7.212,8.583-15.807,15.229-26.757,18.282-11.472,3.2-27.3,2.742-34.051-8.776-7.118-12.148-.367-26.733,12.371-31.315,11.377-4.093,24.908-3.721,36.837-4.98a1.553,1.553,0,0,0,0-3.1c-14.428-.654-35.388-1.289-47.209,8.569a26.014,26.014,0,0,0-6.512,32.251c13.268,24.627,49.351,12.977,65.11-4.143a63.249,63.249,0,0,0,6.742,25.605c3.5,7.164,9.4,17.383,18.88,16C244.384,268.1,245.024,260.661,242.969,254.1Z" transform="translate(-142.521 -120.676)" fill="#3c3c3b"/>
</svg>
