<svg xmlns="http://www.w3.org/2000/svg" xmlns:xlink="http://www.w3.org/1999/xlink" width="444.457" height="291.244" viewBox="0 0 444.457 291.244">
  <defs>
    <clipPath id="clip-path">
      <path id="Path_37788" data-name="Path 37788" d="M548.15,821.48c0-.01-.01-.01-.01-.02l1.22-.13h0l-1.21.15" transform="translate(-548.64 -820.8)"/>
    </clipPath>
  </defs>
  <g id="Group_1410" data-name="Group 1410" transform="translate(-487.84 -647.559)">
    <path id="Path_37760" data-name="Path 37760" d="M864.84,746.58s-2.96,10.9-10.45,14.6a85.649,85.649,0,0,0-11.86,6.94s-5.14-2.49-10.07,2.71,1.31,9.11,2.45,9.84c1.15.75,8.4-5.32,8.4-5.32s15.8-5.47,20.67-10.27c5.78-5.67,10.25-17.14,9.87-17.57s-9.01-.93-9.01-.93" fill="#d6ac91"/>
    <path id="Path_37761" data-name="Path 37761" d="M860.66,755.42l-.01-.01c.14-.2.28-.41.42-.62l.01.01c-.14.21-.28.42-.42.62" fill="#d6ac91"/>
    <path id="Path_37762" data-name="Path 37762" d="M862.38,758.21c-.55-.93-1.09-1.9-1.72-2.79.14-.21.28-.41.42-.62.45.52.94,1.06,1.47,1.59l.6.6a2.39,2.39,0,0,1-.13.21l.01.01c-.21.34-.42.67-.65,1" fill="#ba7c5d"/>
    <path id="Path_37763" data-name="Path 37763" d="M564.75,825.02a82.724,82.724,0,0,0,17.42-2.22c8.09-2.14,12.75-21.22,12.75-21.22l-.02-.13a2.514,2.514,0,0,1,2.35.42c.62.46,1.64.23,2.6,0,1.18-.29,2.26-.58,2.4.4.23,1.5-1.92,6.79-2.22,8.18-1.45,4.76-3.37,18.23-17.02,22.56,0,0-12.54,1.7-18.58,1.12l.32-9.11" fill="#eac29f"/>
    <path id="Path_37764" data-name="Path 37764" d="M574.65,833.91h0c.66-.06,1.31-.11,1.94-.17-.63.06-1.28.12-1.94.17m-1.2-9.51v-.01c1.23-.15,2.53-.33,3.84-.56v.01c-1.32.23-2.61.41-3.84.56" fill="#eac29f"/>
    <path id="Path_37765" data-name="Path 37765" d="M574.65,833.91c0-.2.01-.39,0-.59,0-.64-.02-1.27-.06-1.88a34.646,34.646,0,0,0-1.15-7.05c1.23-.15,2.53-.33,3.84-.56a66.453,66.453,0,0,0,1.79,9.64c-.76.09-1.6.17-2.49.26-.62.07-1.27.12-1.93.18" fill="#db9b6c"/>
    <path id="Path_37766" data-name="Path 37766" d="M605.66,801.63c-3.4,4.17-8.56,2.65-11.71.72-1.98-1.23-3.26-4.63-3.71-6.9-.85-4.18-1.61-6.73-3.77-8.68,0,0,.14-1.52,2.3-.72,2.18.81,3.48,2.96,4.78,5.82,0,0,.37-6.93,3.51-11.51s5.34-2.95,3.55-.21-2.27,8.04-2.27,8.04,2.6-5.87,5.46-8.56c2.84-2.67,4.41-.55,2.52,2.27a40.631,40.631,0,0,0-3.54,7.26s4.5-6,6.79-7.11c2.29-1.13,4.13.77.8,4.5a34.592,34.592,0,0,0-3.68,4.41s5.31-3.36,7.77-2.76c2.44.61,1.74,1.56-.91,2.78a22.2,22.2,0,0,0-4.9,3.36l-.11.91a16.215,16.215,0,0,1-.5,2.32,11.973,11.973,0,0,1-2.38,4.06" fill="#eac29f"/>
    <path id="Path_37767" data-name="Path 37767" d="M602.5,799.17c-.98-3.27-3.69-4.85-6.72-5.92a2.743,2.743,0,0,0-.39-.1c.19-.17.37-.34.55-.51.16.04.3.07.39.1a12.443,12.443,0,0,1,3.16,1.52,7.188,7.188,0,0,1,3.09,4.91h-.08" fill="#d1a682"/>
    <path id="Path_37768" data-name="Path 37768" d="M607.33,793.44c-1.53-2.75-5.81-4-8.99-4.46a1.932,1.932,0,0,0-.01-.42h.05a13.011,13.011,0,0,1,4.72,1.39c1.49.68,3.67,1.82,4.29,3.48l-.06.01" fill="#d1a682"/>
    <path id="Path_37769" data-name="Path 37769" d="M590.18,871a10.343,10.343,0,0,1,9.26,5.14c3.12,5.56-2.03,48.33-2.03,48.33l-5.5.52s1.1-35.19-3.15-43.32c-4.28-8.15,1.42-10.67,1.42-10.67" fill="#d6ac91"/>
    <path id="Path_37770" data-name="Path 37770" d="M596.92,912.22c-1.63.02-3.28.13-4.9.27.05,7.08-.11,12.5-.11,12.5l5.5-.52s.62-5.24,1.29-12.27c-.58.01-1.17.01-1.78.02Z" fill="#d4e9c7"/>
    <path id="Path_37771" data-name="Path 37771" d="M588.94,932.16c1.19-2.91,2.38-7.25,2.38-7.25l7.6-.45s.75,2.72,5.87,2.78c5.11.09,17.67-.53,19.91,4.48a21.094,21.094,0,0,1,.65,2.77c-4.79-.67-17.33-1.71-37.59,1.25a14.4,14.4,0,0,1,1.18-3.58Z" fill="#2f79be"/>
    <path id="Path_37772" data-name="Path 37772" d="M625.34,934.49c.42,2.56-.13,3.28-.13,3.28s-25.63,1.1-33.86,1.03c-3.06-.23-3.78-1.48-3.59-3.06,20.25-2.96,32.79-1.92,37.58-1.25Z" fill="#d5d4bc"/>
    <path id="Path_37773" data-name="Path 37773" d="M864.61,791.45a10.283,10.283,0,0,0-5.76,8.85c-.15,6.37,24.55,41.77,24.55,41.77l5.1-2.09s-17.54-30.6-17.61-39.76-6.28-8.77-6.28-8.77Z" fill="#d6ac91"/>
    <path id="Path_37774" data-name="Path 37774" d="M899.45,783.24l-22.82,2.65-13.77,3.82s5.48,7.02,9.01,22.33c.33.44.61.88.95,1.32,0,0,22.04-5.9,26.22-18.89a17.689,17.689,0,0,0,.41-11.23" fill="#613f2c"/>
    <path id="Path_37775" data-name="Path 37775" d="M871.86,812.05c-3.53-15.31-9.01-22.33-9.01-22.33a58.027,58.027,0,0,0,9.01,22.33Z" fill="#482c1c"/>
    <path id="Path_37776" data-name="Path 37776" d="M876.63,785.89l-13.77,3.82s1.84,12.97,9.96,23.65c0,0,22.04-5.9,26.22-18.89a17.493,17.493,0,0,0,.43-11.24l-22.84,2.66" fill="#613f2c"/>
    <path id="Path_37777" data-name="Path 37777" d="M536.17,747.77c8.6-1.77,22.08-.71,30.88,4.8,13.08,8.19,16.69,16.37,16.69,16.37s-.01.01-2.06.48l-.69.05a157.979,157.979,0,0,0-22.3,3.87c-1.88-5.64-8.45-22-22.52-25.57" fill="#ec1e26"/>
    <path id="Path_37778" data-name="Path 37778" d="M526.36,751.84c-1.37,4.38-2.47,13.7,2.96,30.62a142.477,142.477,0,0,0-16.01,7.43c-2.92-22.2,5.28-32.96,13.05-38.05" fill="#0071b4"/>
    <path id="Path_37779" data-name="Path 37779" d="M526.36,751.84a29.922,29.922,0,0,1,7.22-3.42,20.851,20.851,0,0,1,2.59-.65c14.08,3.57,20.65,19.93,22.52,25.58a215.822,215.822,0,0,0-29.37,9.11c-5.43-16.93-4.33-26.24-2.96-30.62" fill="#ffc939"/>
    <path id="Path_37780" data-name="Path 37780" d="M512.68,782.98s-17.4,5.14-21.95,11.37c-3.91,5.01-2.72,7.55-2.72,7.55l25.3-12.01-.63-6.91" fill="#ec1e26"/>
    <path id="Path_37781" data-name="Path 37781" d="M543.37,809.95c-8.27,4.44-11.65-9.23-7.89-11.17,3.75-1.96,6.93,4.71,6.93,4.71l-3.53-21.03,4.57,10.64,6.8-13.02,1.18,8.37,7.46-9.83,2.29,5.82,4.93-12.72a134.6,134.6,0,0,1,14.88-2.24l.69-.05-.11.03c6.94,5.29,10.86,18.17,10.86,18.17,8.56-1.52,6.32,2.6,2.68,5.79.5,7.33-1.09,15.93-13.48,23.71s-26.29,4.73-26.29,4.73l-.75,6.6-7.09-2.2-.08-4.69,1.95-.21c-.01-.03-1.09-4.79-6-11.41" fill="#f0d2b7"/>
    <path id="Path_37782" data-name="Path 37782" d="M548.07,817.81a21.286,21.286,0,0,1,1.29,3.52l-1.95.21.08,4.69,7.09,2.2.73-6.37a26.66,26.66,0,0,1-7.24-4.25" fill="#d6ac91"/>
    <path id="Path_37783" data-name="Path 37783" d="M513.3,789.89c16.86-9.24,37.77-15.17,52.8-18.18l-4.93,12.72-2.29-5.82-7.46,9.83-1.18-8.37-6.8,13.02-4.57-10.64,3.53,21.03s-3.18-6.67-6.93-4.71c-3.76,1.94-.38,15.61,7.89,11.17,4.91,6.62,5.99,11.38,5.99,11.38l-1.95.21a18.572,18.572,0,0,1-10.85-4.71,11.665,11.665,0,0,0,.66,4.43c-15.95-5.24-15.9-15.92-15.9-15.92a29.33,29.33,0,0,0-2.37,5.99c-4.29-4.51-3.16-11.2-3.16-11.2a39.164,39.164,0,0,0-5.51,7.01,19.815,19.815,0,0,1,3.03-17.24" fill="#561709"/>
    <path id="Path_37784" data-name="Path 37784" d="M573.09,756.84a44.41,44.41,0,0,1,9.28,9.75c-2.33.52-5.99,1.28-11.63,2.39-2.45-8.06-.03-11.05,2.35-12.14Z" fill="#561709"/>
    <path id="Path_37785" data-name="Path 37785" d="M580.7,782.01c.72,1.86,1.89,3.02,2.6,2.6.69-.42.69-2.25-.05-4.11-.72-1.85-1.88-3.02-2.6-2.61s-.68,2.25.05,4.12Z" fill="#5f2d21"/>
    <path id="Path_37786" data-name="Path 37786" d="M581.6,779.73c.27.54.64.86.84.71s.16-.69-.09-1.22c-.26-.55-.65-.87-.86-.7-.2.12-.16.68.11,1.21Z" fill="#fff"/>
    <path id="Path_37787" data-name="Path 37787" d="M568.68,790.56c.11,1.41,3.01,2.34,6.47,2.02,3.45-.29,6.14-1.7,6.01-3.13s-3.02-2.33-6.48-2.03-6.14,1.69-6,3.14Z" fill="#fbc4b8"/>
    <g id="Group_1409" data-name="Group 1409">
      <g id="Group_1408" data-name="Group 1408" transform="matrix(0.058, -0.998, 0.998, 0.058, 548.109, 821.523)" clip-path="url(#clip-path)">
        <rect id="Rectangle_162" data-name="Rectangle 162" width="0.22" height="1.21" fill="#8e5f4d"/>
      </g>
    </g>
    <path id="Path_37789" data-name="Path 37789" d="M548.14,821.47c-1.87-4.63-5.4-8.69-8.42-9.05-3.54-.41-7.43-1.74-7.49-9.58-.06-6.27,3.85-6.67,5.41-6.58a3.663,3.663,0,0,1,.64.08l-1.07-16.2,6.67,7.26,7.14-10.95,1.66,6.41,6.22-7.49,2.17,3.44,2.29-6.52c.92-.19,1.84-.37,2.73-.57l-4.93,12.72-2.29-5.82-7.46,9.83-1.18-8.37-6.8,13.02-4.57-10.64,3.53,21.03s-2.32-4.87-5.34-5.07h-.02a2.942,2.942,0,0,0-1.54.34c-.01.01-.02.01-.03.02a.878.878,0,0,0-.1.06,3.723,3.723,0,0,0-1.41,3.1c-.21,3.55,1.94,8.65,5.98,8.89a6.488,6.488,0,0,0,3.43-.87c4.91,6.62,5.99,11.38,5.99,11.38l-1.21.13" fill="#360506"/>
    <path id="Path_37790" data-name="Path 37790" d="M518.27,787.32c3.03-1.49,6.14-2.88,9.3-4.16-3.16,1.29-6.28,2.68-9.3,4.16m-5.5-3.31-.09-1.03a.313.313,0,0,1-.07.02c-.2-6.53.68-16.49,6.61-24.45-4.07,5.48-7.02,13.57-6.45,25.46m19.61-35.19c1.04-.4,2.13-.76,3.28-1.08,0,0-.12.06-.34.2-.61.14-1.2.3-1.76.48-.37.12-.77.26-1.18.4" fill="#cdcbc9"/>
    <path id="Path_37791" data-name="Path 37791" d="M513.3,789.89h0l-.53-5.88c-.56-11.89,2.38-19.98,6.45-25.45a27.726,27.726,0,0,1,7.12-6.68,25.949,25.949,0,0,0-1.04,6.24c-.31,5.31.43,13.16,4.02,24.34-.58.23-1.17.47-1.75.7-3.16,1.28-6.27,2.67-9.3,4.16q-2.535,1.245-4.97,2.57h0" fill="#006096"/>
    <path id="Path_37792" data-name="Path 37792" d="M529.32,782.46c-3.58-11.17-4.32-19.03-4.02-24.34a26.462,26.462,0,0,1,1.04-6.24,32.5,32.5,0,0,1,6.04-3.06c.41-.15.81-.28,1.19-.4.55-.18,1.14-.34,1.76-.48-1.87,1.25-10.57,8.59-1.38,32.75-1.55.57-3.1,1.16-4.63,1.77" fill="#cea433"/>
    <path id="Path_37793" data-name="Path 37793" d="M513.3,789.89a44.514,44.514,0,0,1-.7-6.89.313.313,0,0,0,.07-.02l.09,1.03.54,5.88" fill="#c12126"/>
    <path id="Path_37794" data-name="Path 37794" d="M513.3,789.89h0c1.62-.89,3.28-1.75,4.96-2.57,3.03-1.48,6.14-2.87,9.3-4.16.58-.24,1.17-.47,1.75-.7q2.31-.915,4.63-1.76c.01.02.01.03.02.05-6.56,2.23-20.66,9.14-20.66,9.14" fill="#461108"/>
    <path id="Path_37795" data-name="Path 37795" d="M570.26,805.93s-3.84,9.72,2.33,11.43,15.51-8.21,15.51-8.21-12.46,10.01-17.84-3.22Z" fill="#f8b2bd"/>
    <path id="Path_37796" data-name="Path 37796" d="M574.74,817.51a11.992,11.992,0,0,0-.8-6.33,12.34,12.34,0,0,1-3.68-5.25s-3.84,9.72,2.33,11.43a5.923,5.923,0,0,0,2.15.15Z" fill="#f37475"/>
    <path id="Path_37797" data-name="Path 37797" d="M574.35,814.07a5.68,5.68,0,0,0,6.42-1.48c-3.68.7-7.91-.27-10.51-6.66a20.251,20.251,0,0,0-.99,3.8c1.46,1.73,2.93,3.59,5.08,4.34Z" fill="#fff"/>
    <path id="Path_37798" data-name="Path 37798" d="M589.25,807.19a9.376,9.376,0,0,1-.63.86,12.539,12.539,0,0,1-1.91,1.94,11.032,11.032,0,0,1-1.45,1.05,9.515,9.515,0,0,1-1.78.88,9.311,9.311,0,0,1-2.05.5,6.448,6.448,0,0,1-1.07.1,6.613,6.613,0,0,1-1.09-.03l-.55-.05-.53-.08c-.38-.08-.77-.12-1.11-.23a11.482,11.482,0,0,1-1.97-.7,9.431,9.431,0,0,1-1.69-1.04,7.984,7.984,0,0,1-1.3-1.21,8.567,8.567,0,0,1-.91-1.22,5.145,5.145,0,0,1-.56-1.04,6.8,6.8,0,0,1-.38-.99,5.012,5.012,0,0,0,.18,1.05,9.271,9.271,0,0,0,.42,1.15,6.523,6.523,0,0,0,.79,1.41,8.58,8.58,0,0,0,3.04,2.68,11.5,11.5,0,0,0,2.18.85c.38.13.74.15,1.12.26l.59.1.6.05a7.01,7.01,0,0,0,1.21.02,5.084,5.084,0,0,0,1.18-.12,8.271,8.271,0,0,0,2.24-.64,9.147,9.147,0,0,0,1.86-1.08,8.954,8.954,0,0,0,1.43-1.25,12.256,12.256,0,0,0,1.68-2.26,6.281,6.281,0,0,0,.46-.96Z" fill="#bb8d68"/>
    <path id="Path_37799" data-name="Path 37799" d="M572.45,803.07a9.757,9.757,0,0,0-.75.65l-.69.66c-.24.26-.5.5-.76.76l-.4.37-.37.36-.37.32-.34.3a6.438,6.438,0,0,0-.76.63,4.52,4.52,0,0,0,1.03-.11l.46-.18.5-.24.48-.35.47-.38a5.88,5.88,0,0,0,.75-.93,4.972,4.972,0,0,0,.49-.89,3.046,3.046,0,0,0,.26-.97Z" fill="#bb8d68"/>
    <path id="Path_37800" data-name="Path 37800" d="M581.34,774.48a6.4,6.4,0,0,0-.91-1.84,6.24,6.24,0,0,0-.65-.78,4.336,4.336,0,0,0-.91-.75,3.434,3.434,0,0,0-1.26-.46l-.71.01a3.662,3.662,0,0,0-.75.18l-.55.32-.56.47a3.42,3.42,0,0,0-.65,1.15,5.155,5.155,0,0,0-.24,2.16,5.886,5.886,0,0,0,.44,2,16.611,16.611,0,0,1,.13-1.98,6.567,6.567,0,0,1,.5-1.85,2.83,2.83,0,0,1,.55-.81l.32-.3.52-.26.42-.13h.48a2.887,2.887,0,0,1,.94.27,6.224,6.224,0,0,1,1.54,1.14,15.939,15.939,0,0,1,1.35,1.46Z" fill="#bb8d68"/>
    <path id="Path_37801" data-name="Path 37801" d="M537.32,804.18a3.181,3.181,0,0,1,.99.08l.39.15.42.23a3.72,3.72,0,0,1,.74.7l.33.43.32.46c.21.3.36.62.54.86.33.52.6.88.6.88a5.193,5.193,0,0,0-.05-1.08,4.8,4.8,0,0,0-.31-1.07l-.27-.57-.39-.56-.52-.47-.59-.36a2.047,2.047,0,0,0-1.21-.17,1.964,1.964,0,0,0-.77.29l-.22.2Z" fill="#bb8d68"/>
    <path id="Path_37802" data-name="Path 37802" d="M537.99,807.36s.24-.12.52-.29l.43-.26.23-.15.24-.13.43-.25.46-.23a3.072,3.072,0,0,0,.53-.27,1.572,1.572,0,0,0-.56-.3l-.67-.05-.36.09-.37.14-.56.51-.27.57a1.055,1.055,0,0,0-.05.62Z" fill="#bb8d68"/>
    <path id="Path_37803" data-name="Path 37803" d="M919.96,800.13,543.77,913.35l-1.78-5.83L918.18,794.3l1.78,5.83" fill="#1c5da9"/>
    <path id="Path_37804" data-name="Path 37804" d="M919.96,800.13,543.77,913.35l-1.13-3.71L918.83,796.42l1.13,3.71" fill="#1b3763"/>
    <path id="Path_37805" data-name="Path 37805" d="M863.38,794.46c3.07,7.98,20.99,20.33,20.99,20.33a109.421,109.421,0,0,0-20.99-20.33Z" fill="#4c2f1d"/>
    <path id="Path_37806" data-name="Path 37806" d="M895.86,844.25c-2.43-2.02-5.54-5.29-5.54-5.29l-6.93,3.11s.62,2.75-3.87,5.21c-4.48,2.43-15.86,7.72-15.48,13.21a27.018,27.018,0,0,0,.72,2.75c3.93-2.83,14.5-9.56,33.8-16.36a14.714,14.714,0,0,0-2.7-2.63Z" fill="#ec1e26"/>
    <path id="Path_37807" data-name="Path 37807" d="M864.77,863.23c.83,2.44,1.65,2.84,1.65,2.84s23.18-10.93,30.43-14.82c2.61-1.64,2.64-3.06,1.73-4.38-19.31,6.79-29.88,13.53-33.81,16.36Z" fill="#d5d4bc"/>
    <path id="Path_37808" data-name="Path 37808" d="M892.34,840.46l-9.38,4.74-1.8-3.51,9.38-4.73Z" fill="#0071b4"/>
    <path id="Path_37809" data-name="Path 37809" d="M789.14,932.97l-111.3.74,55.72-78.11,55.58,77.37" fill="#f50057"/>
    <path id="Path_37810" data-name="Path 37810" d="M677.84,933.71l104.59-4.65L733.56,855.6l55.58,77.37-111.3.74" fill="#cc2026"/>
    <path id="Path_37811" data-name="Path 37811" d="M769.41,919.68l-72.06.48,36.07-50.57Z" fill="#751113"/>
    <path id="Path_37812" data-name="Path 37812" d="M766.21,918.22l-65.67.43,32.87-44.59Z" fill="#ffc939"/>
    <path id="Path_37813" data-name="Path 37813" d="M751.84,911.05l-37.04.26,18.55-25.16Z" fill="#4e9854"/>
    <path id="Path_37814" data-name="Path 37814" d="M731.71,860.81l-50.55,70.17,1.76.48Z" fill="#fff"/>
    <path id="Path_37815" data-name="Path 37815" d="M877.69,738.8s-2.29-2.66-8.1.8a125.243,125.243,0,0,0-12.71,9.12,33.409,33.409,0,0,0,8.35,10.14c.01.01,13-14.69,12.46-20.06" fill="#0071b4"/>
    <path id="Path_37816" data-name="Path 37816" d="M863.15,757q-.315-.3-.6-.6.285.3.6.6h0" fill="#bf5449"/>
    <path id="Path_37817" data-name="Path 37817" d="M863.15,757q-.315-.3-.6-.6a34.045,34.045,0,0,1-2.98-3.49c4.22-4.03,7.94-8.62,12.17-12.7-.02.09-.03.17-.05.26-.07.39-.14.77-.21,1.16-4.79,4.74-9.18,9.94-11.07,10.97,0,0,1.28,1.6,3.17,3.66-.14.25-.28.5-.43.74" fill="#0f4a80"/>
    <path id="Path_37818" data-name="Path 37818" d="M878.76,724.91a15.683,15.683,0,0,0-5.99,2.7c-1.4.9-2.65,1.66-3.36,3.2-.5,1.13,3.11,4.98,4.15,5.42,1.5.66,5.39,4.64,6.62,3.71,2.27-1.75,8.76-3.56,1.38-11.95-.51-.59-1.71-3.29-2.8-3.08" fill="#d6ac91"/>
    <path id="Path_37819" data-name="Path 37819" d="M872.66,677.74a29.771,29.771,0,0,0-20.67-1.43c-4.53,1.24-11.51,4.8-13.37,9.49l.11.29a29.71,29.71,0,0,0-3.12,23.24c.85,3.01,2.53,6.75-.03,9.43-.57.63-1.75,1.07-1.58,2.13.4,2.29,3.08,2.58,5.24,2.26,1.99,4.41,5.83,7.82,9.94,10.36,5.1,3.15,12.19,2.34,17.79,1.25,12.05-2.3,22.6-14.54,24.52-26.38,2.03-12.53-7.71-25.61-18.83-30.64" fill="#f0d2b7"/>
    <path id="Path_37820" data-name="Path 37820" d="M910.69,658.81c-.91-1.69-3.63-1.79-5.28-1.65a35.586,35.586,0,0,0-4.9.84l-.44.11c1.26-3.46,2.43-7.94.49-8.08a9.077,9.077,0,0,0-5.32,1.65,17.576,17.576,0,0,0-3.49,3.01l-.46.57c-.2-.61-.39-1.19-.56-1.77-.27-.92-1.09-5.31-2.6-5.21-1.97.09-2.71,2.96-2.95,5.5-.52-1.04-1.03-2.09-1.61-3.12-.66-1.18-1.73-3.16-3.41-2.94-.96.14-1.39,1.8-1.55,3.63a16.322,16.322,0,0,0-1.99-1.22c-1.29-.68-4.49-3.21-6.13-2.42-1.61.78-1.18,3.02-.17,5.06a28.266,28.266,0,0,0-3.46-2.11c-1.51-.77-3.94-1.95-5.65-1.73-1.28.17-.4,2.23.82,4.3a23.471,23.471,0,0,0-3.55-1.63c-1.29-.48-3.81-1.58-4.94-.28-.82.91.6,3.12.98,3.84a17.059,17.059,0,0,0,.89,1.48c-3.1-1.04-6.28-2.02-9.42-.89-1.54.57-.07,2.23.48,2.82l.35.33c-.44-.01-.87-.01-1.31-.02-1.83.01-4.17.16-5.46,1.58-.86.96-.51,1.99.4,2.97-.36.03-.69.09-1,.11-1.42.17-4.43.15-5.35,1.45-.8,1.07.62,2.25,2.47,3.26-.56.07-1.13.14-1.69.25-.9.16-2.76.3-2.89,1.49-.16,1.25,1.33,2,2.15,2.71l.09.08a21.2,21.2,0,0,0-2.8.53c-1.69.45-3.5.96-3.82,2.86-.29,1.73,1.65,3.53,2.76,4.56.58.56,1.21,1.11,1.83,1.61a10.532,10.532,0,0,0-2.55.36c-.94.27-2.4.53-2.19,1.86.24,1.34,1.66,1.92,2.78,2.37a18.191,18.191,0,0,0,1.77.64,17.944,17.944,0,0,0-2.42,2.04c-.48.49-2.11,2.53-1.45,3.39,1.16,1.5,4.29-.52,5.43-1.15a36.438,36.438,0,0,0,5.36-3.74c-.99,3.03-1.84,6.97.54,6.86,2.2-.11,3.65-3.28,4.77-4.81a32.046,32.046,0,0,0,2.35-3.72,30.438,30.438,0,0,0,.58,4.55c.23,1.03,1.34,4.89,3.01,4.44,2.06-.53,2.97-2.99,3.66-4.78.47-1.16.95-2.36,1.38-3.6.58,1.35,1.33,2.64,1.85,3.64.8,1.54,2.58,3.52,4.41,3.75,1.63.22,2.28-2.17,2.47-4.9.5,1.12,1.36,3.07,2.58,2.84a3.132,3.132,0,0,0,2.02-1.78c-.29,1.24-.57,2.47-.74,3.75-.14,1.19-.82,4.55.48,5.43.77.52,1.93-.72,3.08-2.5-.12,3.31-.25,6.88,1.55,9.1.27.35.57-.16.61-.42a9.322,9.322,0,0,1,5.48-7.68c3.98-2.03,6.07,1.49,6.32,4.9.2,2.65-.72,5.24-2.72,5.11-.67-.03.85,10.67-.27,14.78-.14.48.14,1.03.69.87a5.539,5.539,0,0,0,2.13-1.57c-.79,1.48-1.76,2.88-2.42,4.03l.16.52c2.58.57,5.46-1.91,6.96-3.7l.07-.08a7.587,7.587,0,0,1-1.29,2.78c-.24.32-.3,1.1.2,1.22,2.61.62,5.59-4.07,6.61-5.88.35-.62.76-1.38,1.15-2.21a10.908,10.908,0,0,0,1,3.08l.52.33c2.13-.34,2.53-4.34,2.72-5.98.08-.64.19-1.44.27-2.32a13.708,13.708,0,0,0,5.24,3.13l.52-.25c1.13-1.49.25-3.84-.19-5.44-.1-.32-.18-.67-.28-1,.62.38,1.26.73,1.87,1.13.93.56,2.07,1.66,3.22,1.27l.35-.61c.04-1.52-.92-3.23-1.54-4.57-.16-.31-.29-.62-.45-.96,2.61,1.21,5.73,2.21,5.82-.44.07-1.97-1.45-4.34-2.44-6.1a25.971,25.971,0,0,0,2.65.92l.45-.24c.91-1.06-.56-2.78-1.12-3.68a30.252,30.252,0,0,0-2.34-3.31c2.31.99,4.88,1.57,5.2.15.51-2.09-2.76-5.24-3.92-6.5-.42-.46-.86-.86-1.28-1.25,2.32.49,4.37.65,4.06-.81-.47-2.13-2.55-3.8-4.09-5.22l-.37-.32c2.31.26,4.61.19,4.48-1.59-.12-1.88-3.45-3.93-4.76-4.91-.36-.25-.73-.5-1.11-.73,2.09-.41,3.93-1.28,3.64-3.11-.32-2.02-3.79-3.04-5.41-3.55-.41-.13-.87-.28-1.33-.41.43-.59.82-1.17,1.13-1.63,1.12-1.52,2.59-3.44,1.58-5.32" fill="#fbaf34"/>
    <path id="Path_37821" data-name="Path 37821" d="M827.54,683.89a.615.615,0,0,1,.05-.12h0a.613.613,0,0,0-.05.12m67.2-31.85.51-.36-.51.36" fill="#fbaf34"/>
    <path id="Path_37822" data-name="Path 37822" d="M883.46,726.98a3.594,3.594,0,0,1-.56-.08l-.16-.52c.66-1.15,1.63-2.56,2.42-4.03h0a5.57,5.57,0,0,1-2.13,1.57.891.891,0,0,1-.22.03.6.6,0,0,1-.5-.7,1.249,1.249,0,0,1,.03-.19,13.421,13.421,0,0,0,.37-2.68c.23-4.03-.37-9.71-.27-11.52.02-.37.07-.58.17-.58h.01c1.69.1,2.6-1.73,2.72-3.9a9.778,9.778,0,0,0-.01-1.21c-.2-2.65-1.49-5.36-3.92-5.5a4.772,4.772,0,0,0-2.4.59,9.322,9.322,0,0,0-5.48,7.68c-.03.2-.22.55-.43.54a.257.257,0,0,1-.19-.12c-1.81-2.21-1.68-5.78-1.55-9.1-.98,1.53-1.98,2.66-2.73,2.62a.771.771,0,0,1-.35-.12c-.73-.49-.84-1.76-.77-2.99.06-.97.22-1.91.28-2.43.17-1.27.45-2.51.74-3.75h0a3.109,3.109,0,0,1-2.02,1.78,1.183,1.183,0,0,1-.26.02c-1.09-.06-1.86-1.81-2.32-2.85-.19,2.66-.81,5.01-2.35,4.92-.04,0-.08-.01-.12-.01-1.83-.23-3.6-2.21-4.41-3.75-.52-1-1.27-2.29-1.85-3.64-.43,1.24-.91,2.44-1.38,3.6-.69,1.79-1.6,4.25-3.66,4.78a.892.892,0,0,1-.32.03c-1.48-.09-2.47-3.51-2.68-4.48a30.118,30.118,0,0,1-.58-4.55,32.054,32.054,0,0,1-2.35,3.72c-1.12,1.53-2.57,4.7-4.77,4.81h-.2c-1.09-.06-1.41-1.09-1.32-2.47a19.69,19.69,0,0,1,.98-4.4h0c-.68.56-1.38,1.11-2.1,1.64a29.711,29.711,0,0,1-3.26,2.1c-.87.48-2.9,1.77-4.33,1.69a1.454,1.454,0,0,1-1.11-.54.8.8,0,0,1-.15-.57,6.059,6.059,0,0,1,1.6-2.81,18.706,18.706,0,0,1,2.42-2.04h0a15.894,15.894,0,0,1-1.77-.64c-1.12-.46-2.53-1.04-2.78-2.37h0a1.594,1.594,0,0,1,.05-.67.615.615,0,0,1,.05-.12,6.7,6.7,0,0,0,4.61,1.87,7.31,7.31,0,0,0,1.97-.13,21.713,21.713,0,0,0,6.67-2.78c-1.09,2.69-1.72,5.46-.04,6.05a1.157,1.157,0,0,0,.37.07c1.85.11,4.35-3.35,5.32-4.4.41-.42.78-.87,1.16-1.31a19.012,19.012,0,0,0-.01,4.13c.18,1.48.92,2.54,1.99,2.6a2.685,2.685,0,0,0,1.77-.69,11.788,11.788,0,0,0,3.28-5.41,13.577,13.577,0,0,0,2.27,5.26,3.9,3.9,0,0,0,2.68,1.69,2.636,2.636,0,0,0,2.37-1.43,9.713,9.713,0,0,0,1.14-2.68,3.939,3.939,0,0,0,2.89,2.19,3.157,3.157,0,0,0,1.79-.5,10.022,10.022,0,0,0,3.52-3.97l-.02.03c-.66,2.43-1.58,5.41-.27,7.77a.694.694,0,0,0,.57.41c1.07.06,2.77-2.4,3.06-2.75l.36-.48c-.77,3.45-1.15,7.4,1.52,7.55a3.723,3.723,0,0,0,.96-.08c2.42-.51,4.39-3.23,5.78-5.02.27-.35.52-.71.77-1.07.5,3.48,1.7,7.52,4.39,7.67a3.5,3.5,0,0,0,1.46-.26c1.8-.69,2.88-2.91,3.59-4.76.71,1.05,1.6,1.95,2.5,2,.61.03,1.23-.32,1.81-1.27.87-1.42.88-3.39.9-4.98,0-.6-.02-1.23-.07-1.83a10.364,10.364,0,0,0,3.05,1.79,3.474,3.474,0,0,0,.89.19c1.91.11,2.89-1.88,3.26-3.67a14.554,14.554,0,0,0-1.46-8.96,7.68,7.68,0,0,0,2.7.86c1.03.06,1.7-.44,1.54-1.96-.24-2.34-3.36-4.31-5.04-5.55-.36-.25-.72-.52-1.1-.77.1.01.2.02.3.02,1.44.08,2.58-.27,2.75-1.49a2.994,2.994,0,0,0-.94-2.62c1.98-.92,3.38-2.31,1.72-3.96a4.931,4.931,0,0,0-3.26-1.25,15.407,15.407,0,0,0-4.06.45c-.64.16-1.28.35-1.92.55.3-.51.58-1.04.87-1.52,1.08-1.96,2.6-4.66,2.09-6.98a1.493,1.493,0,0,0-1.48-1.28,7.756,7.756,0,0,0-3.63,1.23,22.428,22.428,0,0,0-2.75,1.93,18.2,18.2,0,0,1,2.56-2.23l.51-.36h0a9.181,9.181,0,0,1,5.24-1.66h.08c.83.06,1.09.91,1.02,2.13a23.917,23.917,0,0,1-1.51,5.96h0l.44-.11a35.336,35.336,0,0,1,4.9-.84,12.6,12.6,0,0,1,1.65-.03c1.44.08,2.98.48,3.63,1.68a2.736,2.736,0,0,1,.33,1.5c-.08,1.37-1.09,2.7-1.9,3.8-.32.46-.71,1.04-1.13,1.63h0c.46.14.92.28,1.33.41,1.61.51,5.09,1.53,5.41,3.55a2.746,2.746,0,0,1,.03.49c-.08,1.5-1.77,2.25-3.66,2.62h0c.38.23.76.48,1.11.73,1.31.98,4.64,3.02,4.76,4.91a.963.963,0,0,1,0,.24c-.08,1.31-1.65,1.55-3.46,1.44q-.51-.03-1.02-.09h0l.37.32c1.54,1.43,3.62,3.09,4.09,5.22a1.3,1.3,0,0,1,.03.33c-.04.69-.8.88-1.88.82a15.731,15.731,0,0,1-2.21-.34h0c.42.38.86.79,1.28,1.25,1.1,1.19,4.09,4.08,3.97,6.16a1.861,1.861,0,0,1-.05.34c-.15.67-.79.89-1.67.84a11.646,11.646,0,0,1-3.52-.99h0a30.274,30.274,0,0,1,2.34,3.31c.45.72,1.47,1.95,1.4,2.96a1.091,1.091,0,0,1-.29.71l-.45.24a27.664,27.664,0,0,1-2.65-.92h0c.99,1.76,2.51,4.13,2.44,6.1v.08c-.08,1.26-.86,1.66-1.95,1.59a11.82,11.82,0,0,1-3.87-1.23h0c.16.33.3.65.45.96.62,1.34,1.58,3.06,1.54,4.57l-.35.61a1.579,1.579,0,0,1-.6.08c-.94-.05-1.85-.88-2.62-1.35-.61-.4-1.25-.76-1.87-1.13h0c.1.33.18.68.28,1a12.9,12.9,0,0,1,.74,3.84,2.951,2.951,0,0,1-.54,1.6l-.52.25a14.042,14.042,0,0,1-5.24-3.13c-.08.88-.19,1.69-.27,2.32-.19,1.64-.59,5.64-2.72,5.98l-.52-.33a10.7,10.7,0,0,1-1-3.08c-.39.83-.8,1.59-1.15,2.21-.97,1.73-3.73,6.08-6.25,5.93a2.231,2.231,0,0,1-.36-.05c-.3-.07-.4-.38-.38-.68a.993.993,0,0,1,.18-.54,7.751,7.751,0,0,0,1.29-2.78h0l-.07.08c-1.37,1.68-3.96,3.93-6.39,3.79" fill="#f58024"/>
    <path id="Path_37823" data-name="Path 37823" d="M881.51,700.9l-.44-.21-.31-.08h-.36l-.39.07-.38.2a1.8,1.8,0,0,0-.65.61l-.26.41-.17.45a3.917,3.917,0,0,0-.14.97l.05.5.12.48a2.965,2.965,0,0,0,.48.85,2.7,2.7,0,0,0,.74.54l.74.25.63.05.48-.05.3-.08.09-.05h-.4l-.43-.07-.55-.2-.58-.31-.37-.34.18.07.49.06.48-.08.43-.21.53-.57a2.044,2.044,0,0,0,.26-.67s-.25.19-.57.39l-.54.29-.6.13-.3-.03-.32-.08-.3-.12-.21-.09-.04-.26-.04-.38.1-.77.1-.36.17-.34.43-.53.13-.09.12-.08.27-.12.54-.06.44.08a3.978,3.978,0,0,1,.4.11l-.35-.28Z" fill="#bb8d68"/>
    <path id="Path_37824" data-name="Path 37824" d="M877.49,707.56l.22.1.57.21.38.11.42.12.45.1.46.06.46.06.46-.01.44.01.4-.03a7.068,7.068,0,0,1,.86-.02,3.94,3.94,0,0,1-.78.44l-.39.16-.49.09-.51.08-.54-.06-.54-.08-.52-.19-.42-.21-.36-.26-.45-.46-.12-.22Z" fill="#bb8d68"/>
    <path id="Path_37825" data-name="Path 37825" d="M843.66,702.42c-.8-.56-2.23-1.43-3.24-.93a3.024,3.024,0,0,0-1.32,2.5c-.12,1.31.53,2.64.75,3.92l.12-.03c.01-1.22-.87-5.68,1.49-5.12a8.371,8.371,0,0,1,2.61,1.71c.76.56,1.45,1.19,2.25,1.69.29.18.44-.33.31-.52a11.865,11.865,0,0,0-2.97-3.22Z" fill="#231f20"/>
    <path id="Path_37826" data-name="Path 37826" d="M845.68,714.47c.41,1.48.21,2.81-.43,2.98s-1.52-.86-1.9-2.33c-.41-1.47-.22-2.8.43-2.97s1.49.87,1.9,2.32Z" fill="#3d1608"/>
    <path id="Path_37827" data-name="Path 37827" d="M844.04,713.75c.09.45-.01.84-.21.89-.2.02-.43-.3-.51-.76s0-.85.21-.9c.18-.03.43.3.51.77Z" fill="#fff"/>
    <path id="Path_37828" data-name="Path 37828" d="M853.18,716.52c.56.99-.91,2.9-3.31,4.23-2.4,1.37-4.79,1.67-5.36.67-.57-.98.91-2.89,3.3-4.25s4.8-1.65,5.37-.65Z" fill="#fbc4b8"/>
    <path id="Path_37829" data-name="Path 37829" d="M858.69,731.27c3.04-3.05,2.6-6.43,1.72-9.51-5.58,9.32-12.48,9.63-13.39,9.83,2.93,2.53,8.94,2.44,11.67-.32Z" fill="#f8b2bd"/>
    <path id="Path_37830" data-name="Path 37830" d="M856.08,732.86a6.9,6.9,0,0,0,2.61-1.59,7.477,7.477,0,0,0,2.36-5.58,12.114,12.114,0,0,0-4.97,7.17Z" fill="#f37475"/>
    <path id="Path_37831" data-name="Path 37831" d="M858.99,729.17c.56-.29,1.09-.6,1.63-.9a10.526,10.526,0,0,0-.21-6.5c-3.07,5.12-6.52,7.51-9.19,8.67,2.62.95,5.16.13,7.77-1.27Z" fill="#fff"/>
    <path id="Path_37832" data-name="Path 37832" d="M555.52,879.91l21.42-8.26,13.98-3s-1.54,8.75,2.55,23.93c-.07.52-.13,1.05-.21,1.6,0,0-22.25,5.03-32.07-4.53a17.318,17.318,0,0,1-5.67-9.74" fill="#613f2c"/>
    <path id="Path_37833" data-name="Path 37833" d="M593.46,892.58c-4.09-15.18-2.55-23.93-2.55-23.93a57.682,57.682,0,0,1,2.55,23.93" fill="#482c1c"/>
    <path id="Path_37834" data-name="Path 37834" d="M576.94,871.65l13.98-3s4.48,12.32,2.33,25.53c0,0-22.25,5.03-32.07-4.53a17.4,17.4,0,0,1-5.66-9.74l21.42-8.26" fill="#8a411d"/>
    <path id="Path_37835" data-name="Path 37835" d="M590.39,873.85s15.47.88,22.69,10.64c7.23,9.78,19.87,27.43,19.87,27.43l-4.42,4.26s-17.29-20.35-21-24.45c-6.41-7.1-20.81-8.38-21.25-8.44-.46-.05,4.11-9.44,4.11-9.44" fill="#f0d2b7"/>
    <path id="Path_37836" data-name="Path 37836" d="M620.47,906.72c4.36,5.09,8.06,9.45,8.06,9.45l4.42-4.26s-2.94-4.09-6.79-9.44c-1.89,1.44-3.79,2.85-5.69,4.25Z" fill="#d4e9c7"/>
    <path id="Path_37837" data-name="Path 37837" d="M596.54,874.84c-.43-.1-.85-.19-1.25-.28.4.09.81.18,1.25.28h0" fill="#c98a65"/>
    <path id="Path_37838" data-name="Path 37838" d="M593.57,884.59c-.3-.07-.59-.15-.88-.21v-.01c.29.07.58.14.88.22h0" fill="#803319"/>
    <path id="Path_37839" data-name="Path 37839" d="M593.57,884.58c-.3-.07-.59-.14-.88-.21a76.516,76.516,0,0,0,.32-10.21c.67.1,1.44.23,2.28.41.4.08.82.17,1.25.28-.92,3.27-1.91,6.5-2.97,9.73" fill="#e0a57a"/>
    <path id="Path_37840" data-name="Path 37840" d="M629.82,922.9c-1.01-3.19-2.97-7.51-2.97-7.51l5.89-5.48s2.45,1.73,6.68-1.65,14.03-12.31,19.26-9.7a24.019,24.019,0,0,1,2.42,1.81c-4.36,2.69-15.28,10.22-29.81,26.26a16.672,16.672,0,0,1-1.47-3.73Z" fill="#2f79be"/>
    <path id="Path_37841" data-name="Path 37841" d="M661.11,900.38c2.08,1.8,2.13,2.75,2.13,2.75s-20.16,18.1-26.92,23.58c-2.67,1.86-4.09,1.31-5.02-.08,14.53-16.04,25.45-23.56,29.81-26.25Z" fill="#d5d4bc"/>
    <path id="Path_37842" data-name="Path 37842" d="M545.18,879.07l30.04-10.17,2.61,2.3,14.73-1.38c.06.4,1.71,8.19-1.33,25.1,0,0-29.5,11.07-36.66,5.48-7.17-5.57-9.39-21.33-9.39-21.33" fill="#b75626"/>
    <path id="Path_37843" data-name="Path 37843" d="M546.03,884.65a16.747,16.747,0,0,1-.84-4.27c.06-.01.13-.02.2-.03.18.99.48,2.5.93,4.27l-.29.03" fill="#c1afa5"/>
    <path id="Path_37844" data-name="Path 37844" d="M546.33,884.61c-.45-1.77-.75-3.27-.93-4.27,1.51-.24,4.02-.66,7.13-1.3l.22-.05.77-.16.15-.03h0a121.131,121.131,0,0,0,24.37-7.59l2.63.34a49.827,49.827,0,0,1-6.74,4.45,56.722,56.722,0,0,1-8.71,4.11l-1.04-2.23-11.46,2.32a24.368,24.368,0,0,0,2.11,2.82,84.769,84.769,0,0,1-8.5,1.59" fill="#903d1e"/>
    <path id="Path_37845" data-name="Path 37845" d="M551.3,830.69s-.43-3.47,6.06-5.39a123.182,123.182,0,0,1,15.37-3.15,33.168,33.168,0,0,1,1.88,12.96s-19.7-.4-23.31-4.42" fill="#117ca3"/>
    <path id="Path_37846" data-name="Path 37846" d="M574.65,833.32c0-.64-.02-1.27-.06-1.88.04.61.06,1.24.06,1.88" fill="#006150"/>
    <path id="Path_37847" data-name="Path 37847" d="M570.79,834.95c-1.6-.09-3.56-.23-5.63-.45a25.706,25.706,0,0,0-5.78-7.34c4.88-.13,9.78.08,14.65-.22a33.248,33.248,0,0,1,.58,4.5c.03.61.06,1.23.06,1.88,0,.58-.01,1.18-.05,1.79-.01,0-1.54-.03-3.83-.16" fill="#004f79"/>
    <path id="Path_37848" data-name="Path 37848" d="M566.81,890.02c-5.34-.31-9.59-4.21-11.97-7,1.4-.32,2.73-.65,3.98-.95a56.48,56.48,0,0,0,6.41-1.96l4.51,9.71a11.332,11.332,0,0,1-2.93.2" fill="#903d1e"/>
    <path id="Path_37849" data-name="Path 37849" d="M554.83,883.02a24.368,24.368,0,0,1-2.11-2.82l11.46-2.32,1.04,2.23a58.594,58.594,0,0,1-6.41,1.96c-1.24.3-2.58.63-3.98.95" fill="#702813"/>
    <path id="Path_37850" data-name="Path 37850" d="M571.8,890.21a5.863,5.863,0,0,1-2.06-.39l22.19-2.2s-14.12,2.94-20.13,2.59" fill="#903d1e"/>
    <path id="Path_37851" data-name="Path 37851" d="M553.51,878.85l.15-.03c7.17-1.51,16.99-4.08,25.22-7.98a131.2,131.2,0,0,0-7.71-23.73l-.06-.11-.03-.06c-4.57-10.19-9.31-22.21-18.12-22.16,0,0-5.01-3.35-12.23,1.28,0,0-7.6,32.31,3.09,54.53,0,0,3.52-.47,8.7-1.53l.22-.05.77-.16" fill="#00b4c3"/>
    <path id="Path_37852" data-name="Path 37852" d="M543.82,880.58h0m.01,0h0m0,0h0m0,0h0m21.48-45.81h0c-.06-.09-.11-.18-.16-.27h.01l.15.27m-8.63-9.25a9.331,9.331,0,0,0-1.7-.54h0a8.4,8.4,0,0,1,1.7.54h0" fill="#76cdd7"/>
    <path id="Path_37853" data-name="Path 37853" d="M554.98,824.98h0v-.01h0v.01" fill="#72b6a7"/>
    <path id="Path_37854" data-name="Path 37854" d="M554.98,824.98a8.369,8.369,0,0,0-1.42-.19c-.2-.01-.39-.02-.59-.02.2,0,.4,0,.6.02a7.364,7.364,0,0,1,1.41.19h0" fill="#699584"/>
    <path id="Path_37855" data-name="Path 37855" d="M559.37,827.16a11.417,11.417,0,0,0-2.69-1.64h0a11.219,11.219,0,0,1,2.69,1.64h0" fill="#0b6b91"/>
    <path id="Path_37856" data-name="Path 37856" d="M565.15,834.5h0a26.022,26.022,0,0,0-5.78-7.34h0a25.672,25.672,0,0,1,5.78,7.34" fill="#0c4269"/>
    <path id="Path_37857" data-name="Path 37857" d="M552.97,824.77a8.6,8.6,0,0,0-4.05-1.15,8.657,8.657,0,0,1,4.05,1.15m-4.11-1.16h0" fill="#699584"/>
    <path id="Path_37858" data-name="Path 37858" d="M543.82,880.58c-5.45-11.33-6.14-25.27-5.52-36.23a117.559,117.559,0,0,1,2.43-18.3h0c.02-.01.05-.03.07-.04a13.553,13.553,0,0,1,8.06-2.39h.05a8.741,8.741,0,0,1,4.05,1.15h0a5.713,5.713,0,0,1,.59.02,9.345,9.345,0,0,1,1.42.19h0a10.18,10.18,0,0,1,1.7.54,11.417,11.417,0,0,1,2.69,1.64,25.705,25.705,0,0,1,5.78,7.34h0c.05.09.1.18.16.27-5.03-2.8-10.52-5.49-14.39-5.72a7.924,7.924,0,0,0-1.48.05c-7.42,1.1-4.6,8-4.58,8.04h0a20.3,20.3,0,0,0,3.89,5.6,1.307,1.307,0,0,0-.14.26c-2.15,5.92-.44,14.14.91,19.94,1.18,5.17,2.5,10.62,4.15,15.86h0c-5.69,1.22-9.7,1.76-9.84,1.78h0" fill="#0f95a9"/>
    <path id="Path_37859" data-name="Path 37859" d="M575.41,843.54s9.48,6.31,17.55,4.21a83.383,83.383,0,0,1,13.54-2.54s1.09-6.93,8.25-6.25c7.14.72,8.33,5.58,7.94,6.9-.36,1.31-12,5.32-12,5.32s-15.52,6.19-22.37,5.76c-8.09-.49-19.06-6.23-19.07-6.8s6.16-6.6,6.16-6.6" fill="#f0d2b7"/>
    <path id="Path_37860" data-name="Path 37860" d="M580.11,846.01a35.548,35.548,0,0,1-4.03-2.05h0a39.29,39.29,0,0,0,4.03,2.05h0" fill="#eac29f"/>
    <path id="Path_37861" data-name="Path 37861" d="M576.13,853.71c-1.61-.66-3.05-1.33-4.2-1.9.31-.5.62-1.02.92-1.53h0c1.3-2.27,2.44-4.58,3.23-6.31a33.853,33.853,0,0,0,4.03,2.05,49.218,49.218,0,0,1-3.98,7.69" fill="#e0a57a"/>
    <path id="Path_37862" data-name="Path 37862" d="M866.43,749.56s-2.96,10.93-10.44,14.61a83.063,83.063,0,0,0-11.87,6.94s-5.42-4.52-10.34.68-.01,9.51,1.13,10.26,10.51-4.31,10.51-4.31,15.27-4.88,20.14-9.65c5.78-5.69,10.23-17.15,9.88-17.58-.36-.45-9.01-.95-9.01-.95" fill="#f0d2b7"/>
    <path id="Path_37863" data-name="Path 37863" d="M863.03,757.22h0a1.96,1.96,0,0,1,.12-.21.01.01,0,0,1,.01.01,1.374,1.374,0,0,0-.13.2" fill="#a25d3c"/>
    <path id="Path_37864" data-name="Path 37864" d="M863.16,757.01l-.01-.01h0l.01.01h0" fill="#a53d30"/>
    <path id="Path_37865" data-name="Path 37865" d="M863.16,757.01c-.01,0-.01-.01,0,0,.14-.25.28-.5.42-.74l.01.01c-.14.24-.29.48-.43.73" fill="#052e4a"/>
    <path id="Path_37866" data-name="Path 37866" d="M869.46,763.18c-2.01-2.11-4.43-3.84-6.43-5.97.04-.07.09-.14.13-.21h0c.15-.24.29-.49.42-.73,1.06,1.15,2.3,2.45,3.62,3.7h0c.9.85,1.84,1.68,2.77,2.43q-.255.4-.51.78" fill="#cc9370"/>
    <path id="Path_37867" data-name="Path 37867" d="M630.31,882.03a2.77,2.77,0,0,1-5.25,1.7l-11.93-36.64a2.775,2.775,0,0,1,5.26-1.7l11.92,36.64" fill="#4e9854"/>
    <path id="Path_37868" data-name="Path 37868" d="M621.47,854.84l-2.26-6.93h0l2.26,6.93h0" fill="#4e9854"/>
    <path id="Path_37869" data-name="Path 37869" d="M619.21,847.91l-.82-2.52.82,2.52h0m-.82-2.52a.037.037,0,0,1-.01-.03.037.037,0,0,1,.01.03m-3.37-1.56h0m.02,0a3,3,0,0,1,1.02-.12,3,3,0,0,0-1.02.12m1.04-.12h0" fill="#d3b937"/>
    <path id="Path_37870" data-name="Path 37870" d="M616.11,856.2l-2.98-9.11a2.455,2.455,0,0,1-.11-.85,2.773,2.773,0,0,1,1.96-2.41c.01,0,.02-.01.03-.01h.01c.01,0,.01,0,.02-.01a3,3,0,0,1,1.02-.12h.02a2.535,2.535,0,0,1,2.31,1.65.037.037,0,0,1,.01.03h0l.82,2.52,2.25,6.93c-1.78.51-3.57.96-5.36,1.38" fill="#0d4823"/>
    <path id="Path_37871" data-name="Path 37871" d="M627.39,885.42h0m0,0a3.137,3.137,0,0,0,1-.11,3.1,3.1,0,0,1-1,.11m1.01-.12c.01,0,.01,0,.02-.01,0,.01-.01.01-.02.01"/>
    <path id="Path_37872" data-name="Path 37872" d="M629.99,881.04l-.64-1.97h0l.64,1.97h0" fill="#4e9854"/>
    <path id="Path_37873" data-name="Path 37873" d="M630.31,882.03l-.32-.99h0l.32.99"/>
    <path id="Path_37874" data-name="Path 37874" d="M627.39,885.42h0a2.546,2.546,0,0,1-2.31-1.63v-.02a.037.037,0,0,1-.01-.03h0l-.97-2.97c1.75-.54,3.5-1.12,5.25-1.69l.64,1.97.32.99a2.342,2.342,0,0,1,.11.86,1.861,1.861,0,0,1-.05.34,2.829,2.829,0,0,1-1.91,2.05c-.01,0-.01,0-.02.01s-.01,0-.02.01-.01,0-.02.01h-.01a3.4,3.4,0,0,1-1,.1h0" fill="#0d4823"/>
    <path id="Path_37875" data-name="Path 37875" d="M622.28,847.85a5.91,5.91,0,1,1-5.95-5.82,5.885,5.885,0,0,1,5.95,5.82Z" fill="#1c5da9"/>
    <path id="Path_37876" data-name="Path 37876" d="M620.32,847.93a3.95,3.95,0,1,1-3.98-3.9,3.929,3.929,0,0,1,3.98,3.9Z" fill="#ec1e26"/>
    <path id="Path_37877" data-name="Path 37877" d="M624.63,879.15l-7.3-21.52,1.5-.64,7.07,21.78-1.27.38" fill="#7dc686"/>
    <path id="Path_37878" data-name="Path 37878" d="M544.85,837.15s-2.86-6.94,4.58-8.04c7.42-1.08,23.89,11.21,27.86,12.07,0,0-4.73,11.71-9.41,15.73.01-.01-19.11-10.5-23.03-19.76" fill="#00bac7"/>
    <path id="Path_37879" data-name="Path 37879" d="M567.89,856.9s-12.25-6.72-19.14-14.15h0c6.89,7.43,19.14,14.15,19.14,14.15a23.458,23.458,0,0,0,4.05-5.09h0a22.986,22.986,0,0,1-4.05,5.09" fill="#07a0b3"/>
    <path id="Path_37880" data-name="Path 37880" d="M548.74,842.75a20.151,20.151,0,0,1-3.89-5.6h0a20.366,20.366,0,0,0,3.89,5.6h0" fill="#13879e"/>
    <path id="Path_37881" data-name="Path 37881" d="M571.93,851.81h0" fill="#9ebeab"/>
    <path id="Path_37882" data-name="Path 37882" d="M571.94,851.81h0c.31-.5.62-1.02.91-1.53h0c-.29.51-.6,1.02-.91,1.53" fill="#959572"/>
    <path id="Path_37883" data-name="Path 37883" d="M567.89,856.9s-12.25-6.72-19.14-14.15a20.151,20.151,0,0,1-3.89-5.6h0c-.02-.03-2.12-5.19,2.1-7.29.21,3.95,4.55,7.23,7.82,9.29q9.015,5.625,18.08,11.12c-.3.52-.6,1.03-.92,1.53h0a23.062,23.062,0,0,1-4.05,5.1" fill="#00a6b7"/>
    <path id="Path_37884" data-name="Path 37884" d="M854.62,814.28a2.628,2.628,0,0,1-1.85,3.25,2.671,2.671,0,0,1-3.41-1.56l-11.91-36.64a2.647,2.647,0,0,1,1.84-3.24,2.682,2.682,0,0,1,3.42,1.55l11.91,36.64" fill="#4e9854"/>
    <path id="Path_37885" data-name="Path 37885" d="M845.78,787.07l-2.65-8.14h0l2.65,8.14h0" fill="#4e9854"/>
    <path id="Path_37886" data-name="Path 37886" d="M843.13,778.93l-.42-1.3.42,1.3h0m-3.8-2.86a2.943,2.943,0,0,1,1.05-.13,2.943,2.943,0,0,0-1.05.13m1.06-.13h0" fill="#d3b937"/>
    <path id="Path_37887" data-name="Path 37887" d="M840.42,788.45l-2.97-9.12a2.487,2.487,0,0,1-.11-.85,2.753,2.753,0,0,1,1.95-2.39c.01,0,.02-.01.04-.01a2.943,2.943,0,0,1,1.05-.13h.01a2.549,2.549,0,0,1,2.32,1.69h0l.42,1.3,2.65,8.14c-1.79.49-3.58.93-5.36,1.37" fill="#0d4823"/>
    <path id="Path_37888" data-name="Path 37888" d="M851.7,817.66a2.847,2.847,0,0,0,1.07-.14,2.814,2.814,0,0,0,1.85-1.78h0a2.942,2.942,0,0,1-2.92,1.92"/>
    <path id="Path_37889" data-name="Path 37889" d="M851.69,817.66h0a2.533,2.533,0,0,1-2.33-1.7h0l-.95-2.96c1.75-.57,3.5-1.13,5.25-1.7l.97,2.97a2.432,2.432,0,0,1,0,1.47,2.836,2.836,0,0,1-1.85,1.78,2.948,2.948,0,0,1-1.09.14h0" fill="#0d4823"/>
    <path id="Path_37890" data-name="Path 37890" d="M846.58,780.1a5.905,5.905,0,1,1-5.94-5.82,5.892,5.892,0,0,1,5.94,5.82Z" fill="#1c5da9"/>
    <path id="Path_37891" data-name="Path 37891" d="M844.64,780.17a3.95,3.95,0,1,1-3.99-3.9,3.939,3.939,0,0,1,3.99,3.9Z" fill="#ec1e26"/>
    <path id="Path_37892" data-name="Path 37892" d="M848.95,811.4l-7.33-21.54,1.51-.63,7.06,21.79-1.24.38" fill="#7dc686"/>
    <path id="Path_37893" data-name="Path 37893" d="M855.15,856.11c-.61-3.3-.91-8.04-.91-8.04l-7.78-2.1s-1.36,2.65-6.68,1.64c-5.32-1.03-18.19-4.36-21.6.39a23.127,23.127,0,0,0-1.29,2.71c5.12.34,18.33,1.93,38.71,9.36a16.156,16.156,0,0,0-.45-3.96Z" fill="#ec1e26"/>
    <path id="Path_37894" data-name="Path 37894" d="M816.89,850.71c-.99,2.56-.58,3.43-.58,3.43s26.33,6.64,34.89,8.33c3.24.4,4.23-.73,4.39-2.4-20.37-7.42-33.58-9.02-38.7-9.36Z" fill="#d5d4bc"/>
    <path id="Path_37895" data-name="Path 37895" d="M865.76,794.07s-13.25,7.96-15.03,19.94c-1.8,12-4.66,33.49-4.66,33.49l5.92,1.71s5.7-26.02,7.05-31.38c2.31-9.26,14.43-17.07,14.8-17.32s-8.08-6.44-8.08-6.44Z" fill="#f0d2b7"/>
    <path id="Path_37896" data-name="Path 37896" d="M868.01,805.03a49.294,49.294,0,0,1,5.83-4.52c.37-.24-8.08-6.44-8.08-6.44a40.727,40.727,0,0,0-4.96,3.73c2.35,2.46,4.77,4.87,7.21,7.23Z" fill="#d6ac91"/>
    <path id="Path_37897" data-name="Path 37897" d="M854.86,850.66l-10.89-2.44.93-4.05,10.86,2.42Z" fill="#0071b4"/>
    <path id="Path_37898" data-name="Path 37898" d="M908.19,777.68l-31.34,4.95-1.24,3.26-12.23,8.56a109.419,109.419,0,0,1,20.99,20.33s20.73-13.85,24.45-22.11a16.626,16.626,0,0,0-.63-14.99" fill="#764c37"/>
    <path id="Path_37899" data-name="Path 37899" d="M874.94,786.36l.51-.35h0l-.51.35h0" fill="#c1afa5"/>
    <path id="Path_37900" data-name="Path 37900" d="M873.28,787.52h0l1.66-1.16h0l-1.66,1.16" fill="#4d2b1b"/>
    <path id="Path_37901" data-name="Path 37901" d="M910.07,783.01c-.08-.47-.17-.91-.28-1.33a12.445,12.445,0,0,1,.28,1.33h0" fill="#c1afa5"/>
    <path id="Path_37902" data-name="Path 37902" d="M878.94,788.22a38.011,38.011,0,0,1-5.66-.69l1.66-1.16.5-.35c9.23-.49,19.14-2.88,25.98-4.85,3.33-.95,5.92-1.81,7.37-2.31a17.978,17.978,0,0,1,1,2.84c.11.42.2.86.28,1.33a110.506,110.506,0,0,1-12.52,3.67,57.4,57.4,0,0,1-14.87,1.7l-.03-.03-.03.02c-.43-.01-.87-.02-1.3-.04-.75-.05-1.55-.08-2.38-.13" fill="#5c3624"/>
    <path id="Path_37903" data-name="Path 37903" d="M885.01,799.18c1.8,1.05,5.6,1.66,8.54,1.99l1.44-1.49-12.34-11.34-1.9,1.65c.57,2.78,1.95,7.87,4.26,9.19" fill="#694430"/>
    <path id="Path_37904" data-name="Path 37904" d="M885.01,799.18c-2.31-1.32-3.68-6.41-4.25-9.19l-7.26,6.27s5.91,10.25,12.71,12.63l7.35-7.73c-2.96-.32-6.75-.93-8.55-1.98" fill="#613f2c"/>
    <path id="Path_37905" data-name="Path 37905" d="M892.96,801.8l.6-.63h0l-.58.63h-.02" fill="#5b3220"/>
    <path id="Path_37906" data-name="Path 37906" d="M882.64,796.1a24.255,24.255,0,0,1-1.29-3.64,25.778,25.778,0,0,0,1.29,3.64" fill="#502b1b"/>
    <path id="Path_37907" data-name="Path 37907" d="M890.5,801.79a21.751,21.751,0,0,1-3.14-.41c-4.76-.98-5.74-5.27-6.15-9.44.04.17.09.34.14.51a23.506,23.506,0,0,0,1.29,3.64,6.731,6.731,0,0,0,2.37,3.08c1.8,1.05,5.6,1.66,8.54,1.99l-.6.63a20.019,20.019,0,0,1-2.45,0" fill="#4a2718"/>
    <path id="Path_37908" data-name="Path 37908" d="M886.21,795.94a1.09,1.09,0,0,1-2.18.02,1.09,1.09,0,0,1,2.18-.02Z" fill="#764c37"/>
    <path id="Path_37909" data-name="Path 37909" d="M887.14,728.77c-3.05-1.33-7.18.81-7.18.81a14.01,14.01,0,0,0-5.86,4.33l-.32.43-.04.05a14.64,14.64,0,0,0-1.18,2.09,90.738,90.738,0,0,0-2.23,26.03c.37,8.02,1.55,16.08,4.62,23.52,16.4-.76,35.13-7.65,35.13-7.65-1.01-24.6-22.94-49.61-22.94-49.61" fill="#ec1e26"/>
    <path id="Path_37910" data-name="Path 37910" d="M879.99,733.94c-.59.27-1.15.57-1.73.87a13.3,13.3,0,0,0-5.06,5.27l.39-.1c3.34-1.34,6.61-2.86,9.77-3.95,2.5-.86,4.95-1.76,7.41-2.71-.78-1.05-1.46-1.93-2.03-2.61a34.745,34.745,0,0,0-8.75,3.23" fill="#fdfada"/>
    <path id="Path_37911" data-name="Path 37911" d="M883.99,739.33c-4.01,1.3-7.99,2.68-12.09,3.67a28.1,28.1,0,0,0-1.22,4.7c4.63-.82,9.22-2.13,13.71-3.29,3.72-.95,7.46-1.94,11.05-3.23l.67-.22c-1.13-1.75-2.2-3.32-3.23-4.75-2.84,1.24-5.86,2.13-8.89,3.12" fill="#fdfada"/>
    <path id="Path_37912" data-name="Path 37912" d="M897.42,743.03c-3.75,1.38-7.57,2.55-11.44,3.56-5.11,1.32-10.29,2.82-15.56,3.77-.06,1.07-.12,2.16-.15,3.24a107.625,107.625,0,0,0,16.53-3.19A89.129,89.129,0,0,0,898.06,747c.43-.18.91-.36,1.39-.55-.67-1.18-1.36-2.33-2.03-3.42" fill="#fdfada"/>
    <path id="Path_37913" data-name="Path 37913" d="M900.76,748.81a87.813,87.813,0,0,1-12.33,3.78c-5.57,1.39-12,3.15-18.22,3.76,0,1.41.01,2.82.05,4.23,1.95-.23,3.89-.57,5.81-.82a120.233,120.233,0,0,0,15.25-2.61,75.544,75.544,0,0,0,11.69-3.97c-.73-1.5-1.48-2.97-2.25-4.37" fill="#fdfada"/>
    <path id="Path_37914" data-name="Path 37914" d="M903.99,755.3a74.612,74.612,0,0,1-12.7,4.44,144.366,144.366,0,0,1-16.05,2.8c-1.61.21-3.24.48-4.87.7.03.62.08,1.26.11,1.87.07.61.13,1.23.19,1.81,6.66.38,14.66-1.89,20.52-3.39a95.408,95.408,0,0,0,14.35-4.58c-.48-1.23-1-2.45-1.55-3.65" fill="#fdfada"/>
    <path id="Path_37915" data-name="Path 37915" d="M891.16,766.13c-5.99,1.45-13.39,3.64-20.1,3.66q.33,2.16.69,4.17c7.16.82,14.93-2.13,21.63-3.84a126.809,126.809,0,0,0,14.54-4.28c-.46-1.56-.97-3.13-1.53-4.67a90.335,90.335,0,0,1-15.23,4.96" fill="#fdfada"/>
    <path id="Path_37916" data-name="Path 37916" d="M890.58,773.43c-5.89,1.46-12.14,3.53-18.28,3.4.27,1.35.53,2.61.79,3.71a78.64,78.64,0,0,0,21.05-3.53c3.61-1.06,7.24-2.09,10.8-3.27,1.32-.45,2.9-.86,4.47-1.37-.23-1.42-.54-2.83-.88-4.22-5.73,2.32-11.91,3.78-17.95,5.28" fill="#fdfada"/>
    <path id="Path_37917" data-name="Path 37917" d="M874.95,786.03c16.4-.76,35.13-7.65,35.13-7.65-.03-1.1-.12-2.22-.26-3.33-4.72,1.81-10.06,2.87-14.18,4.09a91.7,91.7,0,0,1-21.74,4.08c.32.96.66,1.89,1.05,2.81" fill="#fdfada"/>
    <path id="Path_37918" data-name="Path 37918" d="M908.8,778.84h0c.82-.28,1.27-.45,1.28-.45-.01,0-.46.17-1.28.45" fill="#c4c5c5"/>
    <path id="Path_37919" data-name="Path 37919" d="M908.79,778.84h0" fill="#5e3c2b"/>
    <path id="Path_37920" data-name="Path 37920" d="M901.42,781.15c3.32-.96,5.92-1.82,7.37-2.32h0c-1.45.51-4.04,1.37-7.37,2.32" fill="#4a291b"/>
    <path id="Path_37921" data-name="Path 37921" d="M899.88,778.01c-.18-.84-.37-1.68-.56-2.52,1.89-.56,3.77-1.13,5.64-1.75,1.32-.45,2.9-.86,4.47-1.37-.23-1.42-.54-2.83-.88-4.22a88.771,88.771,0,0,1-10.21,3.31c-.2-.82-.42-1.64-.63-2.45a88.8,88.8,0,0,0,10.21-3.17c-.46-1.56-.97-3.13-1.53-4.67a78.6,78.6,0,0,1-9.83,3.52c-.21-.77-.44-1.58-.68-2.41a78.63,78.63,0,0,0,9.66-3.33c-.49-1.23-1-2.45-1.56-3.65a77.041,77.041,0,0,1-9.23,3.48c-.27-.78-.57-1.57-.88-2.34a68.78,68.78,0,0,0,9.13-3.26c-.73-1.5-1.48-2.97-2.25-4.37a71.959,71.959,0,0,1-9.14,2.97,23.442,23.442,0,0,0-1.5-2.23,72.674,72.674,0,0,0,7.94-2.55c.43-.18.91-.36,1.39-.55-.68-1.18-1.36-2.33-2.03-3.42q-4.7,1.725-9.51,3.04a26.82,26.82,0,0,0,1.25-2.93c2.12-.59,4.22-1.23,6.28-1.97l.67-.22c5.72,8.85,12.32,21.49,13.72,34.3a1.354,1.354,0,0,1-.02-.2,90.344,90.344,0,0,1-9.92,2.96" fill="#b82025"/>
    <path id="Path_37922" data-name="Path 37922" d="M872.11,738.38c.14-.64.29-1.28.45-1.91.11-.23.22-.45.34-.67h0c-.12.23-.23.46-.34.69q-.24.93-.45,1.89h0" fill="#c4c5c5"/>
    <path id="Path_37923" data-name="Path 37923" d="M871.74,740.21c.12-.61.24-1.22.38-1.83h0c-.14.61-.26,1.22-.38,1.83h0" fill="#005e93"/>
    <path id="Path_37924" data-name="Path 37924" d="M871.69,740.47c.02-.09.03-.17.05-.26h0a2.382,2.382,0,0,0-.05.26" fill="#163c65"/>
    <path id="Path_37925" data-name="Path 37925" d="M872.9,735.79h0c.04-.09.09-.18.14-.27a2.292,2.292,0,0,1-.14.27" fill="#a98a76"/>
    <path id="Path_37926" data-name="Path 37926" d="M871.48,741.63c.07-.39.13-.77.21-1.16.02-.09.03-.17.05-.26.12-.61.24-1.22.38-1.83.14-.63.29-1.26.44-1.89.11-.23.23-.47.34-.69.05-.09.09-.18.14-.27.04-.06.07-.13.11-.19a8.853,8.853,0,0,1,2.57-2.03s2.72-5.05,10.83-4.58c.19.01.39.03.59.04,0,0,.6.69,1.61,1.94a34.534,34.534,0,0,0-8.76,3.23c-.59.27-1.15.57-1.73.87a13.112,13.112,0,0,0-4.92,5.02c-.62.58-1.25,1.19-1.86,1.8m18.36-4.23a5.267,5.267,0,0,0-1.72-3.07c.89-.33,1.77-.67,2.66-1.01.81,1.07,1.71,2.31,2.68,3.69-.2-.28-.39-.55-.58-.81-.99.44-2.01.83-3.04,1.2" fill="#b82025"/>
    <path id="Path_37927" data-name="Path 37927" d="M873.34,739.83a13.254,13.254,0,0,1,4.92-5.02c.57-.3,1.14-.59,1.73-.87a34.02,34.02,0,0,1,8.76-3.23c.56.7,1.25,1.58,2.03,2.61-.89.34-1.78.68-2.66,1.01a4.981,4.981,0,0,0-2.96-1.06,8.737,8.737,0,0,0-1.8.09c-2.87.42-6.48,3.16-10.02,6.47" fill="#c3c2ab"/>
    <path id="Path_37928" data-name="Path 37928" d="M889.17,743.14a16.149,16.149,0,0,0,.84-3.43h0a8.4,8.4,0,0,0-.17-2.31c1.03-.37,2.05-.76,3.04-1.2.19.27.39.54.58.81.84,1.21,1.74,2.52,2.65,3.94l-.67.22c-2.05.74-4.15,1.38-6.27,1.97" fill="#c3c2ab"/>
    <path id="Path_37929" data-name="Path 37929" d="M890.12,749.55a16.157,16.157,0,0,0-1.96-2.15,1.2,1.2,0,0,0-.73-.29h-.04c.19-.35.36-.69.53-1.04,3.21-.89,6.38-1.89,9.51-3.04.67,1.09,1.35,2.24,2.03,3.42-.48.19-.96.37-1.39.55a72.833,72.833,0,0,1-7.95,2.55" fill="#c3c2ab"/>
    <path id="Path_37930" data-name="Path 37930" d="M893.88,756.44a34.6,34.6,0,0,0-2.26-4.66,71.972,71.972,0,0,0,9.14-2.97c.77,1.4,1.52,2.87,2.25,4.37a67.4,67.4,0,0,1-9.13,3.26" fill="#c3c2ab"/>
    <path id="Path_37931" data-name="Path 37931" d="M895.88,762.28c-.34-1.14-.71-2.32-1.12-3.5a78.81,78.81,0,0,0,9.23-3.48c.55,1.2,1.07,2.42,1.56,3.65a75.587,75.587,0,0,1-9.67,3.33" fill="#c3c2ab"/>
    <path id="Path_37932" data-name="Path 37932" d="M897.71,769.01c-.31-1.2-.63-2.38-.94-3.56-.07-.25-.14-.5-.21-.76a79.173,79.173,0,0,0,9.83-3.52c.56,1.53,1.07,3.1,1.53,4.67a88.793,88.793,0,0,1-10.21,3.17" fill="#c3c2ab"/>
    <path id="Path_37933" data-name="Path 37933" d="M899.31,775.49c-.31-1.35-.64-2.7-.97-4.03a88.779,88.779,0,0,0,10.21-3.31c.34,1.39.65,2.8.88,4.22-1.58.51-3.16.93-4.47,1.37-1.87.62-3.76,1.19-5.65,1.75" fill="#c3c2ab"/>
    <path id="Path_37934" data-name="Path 37934" d="M900.56,781.4c-.21-1.13-.44-2.26-.68-3.4a91.908,91.908,0,0,0,9.94-2.95,1.354,1.354,0,0,1,.02.2c.12,1.04.2,2.09.24,3.13h0c-.01,0-.46.17-1.28.45h0c-1.45.5-4.05,1.36-7.37,2.32-.29.09-.58.17-.87.25" fill="#c3c2ab"/>
    <path id="Path_37935" data-name="Path 37935" d="M890,739.71s.73-7.4-6.64-6.35c-7.34,1.05-19.44,17.31-22.97,19.24,0,0,7.84,9.77,13.4,12.28.01,0,15.11-15.31,16.21-25.17" fill="#0071b4"/>
    <path id="Path_37936" data-name="Path 37936" d="M870.33,762.69c-.12-.09-.24-.19-.36-.28h0c.12.09.24.19.36.28h0" fill="#f7b3d1"/>
    <path id="Path_37937" data-name="Path 37937" d="M869.97,762.41l-.01-.01h.01v.01h0" fill="#f69c9d"/>
    <path id="Path_37938" data-name="Path 37938" d="M869.96,762.4c-.93-.75-1.87-1.57-2.77-2.43h0c.91.86,1.84,1.69,2.77,2.43h0" fill="#cf7363"/>
    <path id="Path_37939" data-name="Path 37939" d="M870.94,763.16c-.2-.15-.41-.3-.61-.46h0c.21.15.41.31.61.46h0" fill="#ec1d25"/>
    <path id="Path_37940" data-name="Path 37940" d="M873.8,764.88a16.636,16.636,0,0,1-2.86-1.73h.01a16.209,16.209,0,0,0,2.85,1.73s.91-.92,2.3-2.46h0c-1.39,1.54-2.3,2.46-2.3,2.46" fill="#f8b1b5"/>
    <path id="Path_37941" data-name="Path 37941" d="M890,739.71h0" fill="#c68e92"/>
    <path id="Path_37942" data-name="Path 37942" d="M873.8,764.88a16.575,16.575,0,0,1-2.85-1.73c-.21-.15-.41-.3-.62-.46-.12-.09-.24-.19-.36-.28l-.01-.01c-.93-.75-1.87-1.58-2.77-2.43,4.7-5.18,9.37-10.35,13.97-15.6,2.51-2.85,5.71-7.19,4.78-11,4.58.82,4.07,6.29,4.06,6.34h0c-.83,7.44-9.63,17.98-13.91,22.71-1.38,1.54-2.29,2.46-2.29,2.46" fill="#00599e"/>
    <path id="Path_37943" data-name="Path 37943" d="M904.78,839.93s6.91,5.01,1.9,14.41a14.261,14.261,0,0,0-1.9-14.41Z" fill="#737778"/>
    <path id="Path_37944" data-name="Path 37944" d="M903.36,841.37s5.78,4.19,1.59,12.07a11.938,11.938,0,0,0-1.59-12.07Z" fill="#737778"/>
    <path id="Path_37945" data-name="Path 37945" d="M924.27,780.33s14.88,10.73,4.12,30.92a30.572,30.572,0,0,0-4.12-30.92Z" fill="#737778"/>
    <path id="Path_37946" data-name="Path 37946" d="M921.24,783.45s12.45,9,3.46,25.9a25.667,25.667,0,0,0-3.46-25.9Z" fill="#737778"/>
    <path id="Path_37947" data-name="Path 37947" d="M530.52,902.23s-6.93,16.9,12.92,28.43a30.736,30.736,0,0,1-12.92-28.43Z" fill="#737778"/>
    <path id="Path_37948" data-name="Path 37948" d="M534.76,903.28s-5.82,14.16,10.81,23.81a25.7,25.7,0,0,1-10.81-23.81Z" fill="#737778"/>
    <path id="Path_37949" data-name="Path 37949" d="M668.97,910.15s6.01-8.71-3.79-17.66a17.748,17.748,0,0,1,3.79,17.66Z" fill="#737778"/>
    <path id="Path_37950" data-name="Path 37950" d="M666.7,909.04s5.03-7.31-3.18-14.8a14.827,14.827,0,0,1,3.18,14.8Z" fill="#737778"/>
  </g>
</svg>
