<svg xmlns="http://www.w3.org/2000/svg" xmlns:xlink="http://www.w3.org/1999/xlink" width="404.012" height="309.189" viewBox="0 0 404.012 309.189">
  <defs>
    <filter id="Path_671" x="0" y="0" width="404.012" height="309.189" filterUnits="userSpaceOnUse">
      <feOffset dy="16" input="SourceAlpha"/>
      <feGaussianBlur stdDeviation="8" result="blur"/>
      <feFlood flood-opacity="0.102"/>
      <feComposite operator="in" in2="blur"/>
      <feComposite in="SourceGraphic"/>
    </filter>
  </defs>
  <g id="Group_2036" data-name="Group 2036" transform="translate(-254 -3571)">
    <g id="Group_1450" data-name="Group 1450" transform="translate(206.001 3415.791)">
      <g transform="matrix(1, 0, 0, 1, 48, 155.21)" filter="url(#Path_671)">
        <path id="Path_671-2" data-name="Path 671" d="M385.76,197.59c12.09,6.34,18.77,22.17,13.5,34.76,15.66,1.51,28.9,16.22,28.75,31.95s-13.68,30.19-29.36,31.39c9.68,1.98,17.24,10.94,18.45,20.76s-3.54,19.91-11.31,26.01-18.22,8.35-28,6.95c7.33,19.95-5.62,50.09-21.94,62.16-15.77,11.66-39.98,12.1-54.09-1.52-2.87,6.44-9.12,10.97-15.89,12.94s-14.02,1.65-20.96.4c-19.74-3.55-35.14-15.63-42.57-34.24-3.68,9.06-14.64,12.44-24.33,13.76-9.43,1.28-19.35,1.6-28.12-2.1s-16.02-12.33-15.51-21.83c-10.74,13.32-32.35,16.07-46.09,5.88s-17.37-31.67-7.74-45.82c-1.79,2.62-9.13,2.19-11.58,1.2-3.22-1.3-5.88-4.64-8.07-7.33-5.32-6.53-8.83-14.7-8.9-23.2-.08-11.34,6.7-22.87,17.32-26.84a23.186,23.186,0,0,1,.74-44.09c-5.59-7.05-3.33-18.43,3.74-23.99,4.16-3.27,10.83-5.45,16.14-4.22,4.3.99,7.27,5.08,10.5,7.83a15.935,15.935,0,0,1,1.4-15.12,14.445,14.445,0,0,1,21.18-3.06c2.49,2.03,6.15,5.56,5.92,9.01,2.99-7.61,4.33-13.58,10.7-19.26,6.77-6.03,15.06-10.16,23.42-13.52,10.79-4.34,23.04-4.97,34.56-4.04a43.257,43.257,0,0,1,15.33,3.83c2.93,1.41,10.54,5.77,10.76,9.62-.67-11.7,9.94-22.79,21.66-22.65s22.05,11.49,21.1,23.17c.47-6.67,4.68-12.78,10.35-16.34s12.63-4.71,19.29-4.06a38.292,38.292,0,0,1,24.29,12.03,36.257,36.257,0,0,1,9.47,25.32c5.08-3.67,9.76-7.87,16.31-8.82A32.482,32.482,0,0,1,385.76,197.59Z" transform="translate(-48 -155.21)" fill="#fff"/>
      </g>
    </g>
    <g id="abc" transform="translate(386 3640)">
      <path id="Path_37951" data-name="Path 37951" d="M321,326H261a5,5,0,0,1-5-5V261a5,5,0,0,1,5-5h60a5,5,0,0,1,5,5v60A5,5,0,0,1,321,326Z" transform="translate(-186 -186)" fill="#8cd2ff"/>
      <path id="Path_37952" data-name="Path 37952" d="M320.076,283.429a27.506,27.506,0,0,0-5.5,54.457,28.543,28.543,0,0,0,5.517.544,27.325,27.325,0,0,0,15.71-4.937,10,10,0,1,0-11.445-16.4,7.471,7.471,0,0,1-4.3,1.334,8.438,8.438,0,0,1-1.619-.16,7.318,7.318,0,0,1-5.705-5.729,7.519,7.519,0,0,1,7.342-9.107c.107,0,.213,0,.319.007a10,10,0,0,0,19.681-2.507v-2.989a12.466,12.466,0,0,0-6.1-10.74,27.5,27.5,0,0,0-13.9-3.771Z" transform="translate(-212.578 -205.929)" fill="#69beff"/>
      <path id="Path_37953" data-name="Path 37953" d="M193,70H133a5,5,0,0,1-5-5V5a5,5,0,0,1,5-5h60a5,5,0,0,1,5,5V65A5,5,0,0,1,193,70Z" transform="translate(-93)" fill="#f50057"/>
      <path id="Path_37954" data-name="Path 37954" d="M65,326H5a5,5,0,0,1-5-5V261a5,5,0,0,1,5-5H65a5,5,0,0,1,5,5v60A5,5,0,0,1,65,326Z" transform="translate(0 -186)" fill="#4b44f2"/>
      <path id="Path_37955" data-name="Path 37955" d="M189.557,36.567a12.894,12.894,0,0,0-12.027,8.142L165.273,75.355a10,10,0,1,0,18.57,7.427l.486-1.214h10.46l.486,1.214a10,10,0,1,0,18.57-7.427L201.585,44.708a12.9,12.9,0,0,0-12.028-8.141Z" transform="translate(-119.557 -26.568)" fill="#d24146"/>
      <path id="Path_37956" data-name="Path 37956" d="M77.357,283.429h-7.5a15.017,15.017,0,0,0-15,15v30a10.011,10.011,0,0,0,10,10h15a19.976,19.976,0,0,0,14.561-33.678,16.853,16.853,0,0,0,.439-3.822,17.519,17.519,0,0,0-17.5-17.5Z" transform="translate(-39.857 -205.929)" fill="#ffaf4b"/>
      <path id="Path_37957" data-name="Path 37957" d="M222.495,90.5,210.238,59.851a7.955,7.955,0,0,0-14.771,0L183.21,90.5a5,5,0,1,0,9.285,3.714l1.743-4.357h17.23l1.743,4.357a5,5,0,1,0,9.284-3.713ZM198.238,79.854l4.615-11.538,4.615,11.538Z" transform="translate(-132.853 -39.854)" fill="#ffc855"/>
      <path id="Path_37958" data-name="Path 37958" d="M101.9,319.558a12.356,12.356,0,0,0,1.247-5.344,12.515,12.515,0,0,0-12.5-12.5h-7.5a10.011,10.011,0,0,0-10,10v30a5,5,0,0,0,5,5h15a14.984,14.984,0,0,0,8.753-27.156Zm-18.753-7.844h7.5a2.5,2.5,0,1,1,0,5h-7.5Zm10,25h-10v-10h10a5,5,0,1,1,0,10Z" transform="translate(-53.143 -219.214)" fill="#e15050"/>
      <path id="SVGCleanerId_0" d="M333.377,346.716a23.485,23.485,0,0,1-4.55-.449A22.507,22.507,0,1,1,344.741,304.8a7.449,7.449,0,0,1,3.624,6.426v2.99a5,5,0,0,1-10,0v-1.459a12.517,12.517,0,0,0-17.251,14.023,12.366,12.366,0,0,0,9.65,9.678,12.618,12.618,0,0,0,9.74-1.98,5,5,0,1,1,5.723,8.2A22.339,22.339,0,0,1,333.377,346.716Z" transform="translate(-225.866 -219.215)" fill="#ffc855"/>
      <g id="Group_1430" data-name="Group 1430" transform="translate(49.999 14.999)">
        <path id="Path_37959" data-name="Path 37959" d="M294.248,187.214l-1.114-2.785a2.5,2.5,0,0,0-2.321-1.571h-3.306l1.743,4.357a5,5,0,0,0,6.5,2.786,4.9,4.9,0,0,0,.659-.344A4.933,4.933,0,0,1,294.248,187.214Z" transform="translate(-258.891 -147.856)" fill="#ffaf4b"/>
        <path id="Path_37960" data-name="Path 37960" d="M259.306,104.089H256l4.615,11.538h2.516a1.681,1.681,0,0,0,1.56-2.3l-3.065-7.662A2.5,2.5,0,0,0,259.306,104.089Z" transform="translate(-235.999 -90.626)" fill="#ffaf4b"/>
        <path id="Path_37961" data-name="Path 37961" d="M188.211,90.5l12.257-30.645a7.907,7.907,0,0,1,4.886-4.592,7.938,7.938,0,0,0-9.885,4.593L183.212,90.5a4.982,4.982,0,0,0,7.141,6.164A4.985,4.985,0,0,1,188.211,90.5Z" transform="translate(-182.853 -54.853)" fill="#ffaf4b"/>
      </g>
      <g id="Group_1431" data-name="Group 1431" transform="translate(20 82.5)">
        <path id="Path_37962" data-name="Path 37962" d="M139.643,340.786a2.5,2.5,0,0,1-2.5,2.5h5a2.5,2.5,0,0,0,0-5h-5A2.5,2.5,0,0,1,139.643,340.786Z" transform="translate(-119.643 -328.286)" fill="#d24146"/>
        <path id="Path_37963" data-name="Path 37963" d="M78.143,341.715v-30a10.011,10.011,0,0,1,10-10h-5a10.011,10.011,0,0,0-10,10v30a5,5,0,0,0,5,5h5A5,5,0,0,1,78.143,341.715Z" transform="translate(-73.143 -301.715)" fill="#d24146"/>
        <path id="Path_37964" data-name="Path 37964" d="M146.286,403.142h5a5,5,0,0,0,0-10h-5a5,5,0,1,1,0,10Z" transform="translate(-126.286 -368.142)" fill="#d24146"/>
      </g>
      <g id="Group_1432" data-name="Group 1432" transform="translate(85.003 82.5)">
        <path id="SVGCleanerId_0_1_" d="M333.377,346.716a23.485,23.485,0,0,1-4.55-.449A22.507,22.507,0,1,1,344.741,304.8a7.449,7.449,0,0,1,3.624,6.426v2.99a5,5,0,0,1-10,0v-1.459a12.517,12.517,0,0,0-17.251,14.023,12.366,12.366,0,0,0,9.65,9.678,12.618,12.618,0,0,0,9.74-1.98,5,5,0,1,1,5.723,8.2A22.339,22.339,0,0,1,333.377,346.716Z" transform="translate(-310.869 -301.715)" fill="#ffc855"/>
      </g>
      <g id="Group_1433" data-name="Group 1433" transform="translate(85.003 82.5)">
        <path id="Path_37965" data-name="Path 37965" d="M393.138,338.286a12.091,12.091,0,0,1,5,1.041v1.1a5.284,5.284,0,0,0,3.974,5.247,4.873,4.873,0,0,0,3.526-.583,4.979,4.979,0,0,1-2.5-4.307h0a2.5,2.5,0,0,0-2.5-2.5h-7.5Z" transform="translate(-370.643 -328.286)" fill="#ffaf4b"/>
        <path id="Path_37966" data-name="Path 37966" d="M333.828,346.267a22.5,22.5,0,0,1,1.913-44.394,22.49,22.49,0,0,0-6.912,44.394,23.479,23.479,0,0,0,4.55.449,22.626,22.626,0,0,0,2.31-.174C335.069,346.469,334.448,346.389,333.828,346.267Z" transform="translate(-310.87 -301.715)" fill="#ffaf4b"/>
      </g>
    </g>
  </g>
</svg>
