<svg xmlns="http://www.w3.org/2000/svg" xmlns:xlink="http://www.w3.org/1999/xlink" width="404.012" height="309.189" viewBox="0 0 404.012 309.189">
  <defs>
    <filter id="Path_671" x="0" y="0" width="404.012" height="309.189" filterUnits="userSpaceOnUse">
      <feOffset dy="16" input="SourceAlpha"/>
      <feGaussianBlur stdDeviation="8" result="blur"/>
      <feFlood flood-opacity="0.102"/>
      <feComposite operator="in" in2="blur"/>
      <feComposite in="SourceGraphic"/>
    </filter>
  </defs>
  <g id="Group_2038" data-name="Group 2038" transform="translate(-1262 -3571)">
    <g id="Group_1452" data-name="Group 1452" transform="translate(1214.001 3415.791)">
      <g transform="matrix(1, 0, 0, 1, 48, 155.21)" filter="url(#Path_671)">
        <path id="Path_671-2" data-name="Path 671" d="M385.76,197.59c12.09,6.34,18.77,22.17,13.5,34.76,15.66,1.51,28.9,16.22,28.75,31.95s-13.68,30.19-29.36,31.39c9.68,1.98,17.24,10.94,18.45,20.76s-3.54,19.91-11.31,26.01-18.22,8.35-28,6.95c7.33,19.95-5.62,50.09-21.94,62.16-15.77,11.66-39.98,12.1-54.09-1.52-2.87,6.44-9.12,10.97-15.89,12.94s-14.02,1.65-20.96.4c-19.74-3.55-35.14-15.63-42.57-34.24-3.68,9.06-14.64,12.44-24.33,13.76-9.43,1.28-19.35,1.6-28.12-2.1s-16.02-12.33-15.51-21.83c-10.74,13.32-32.35,16.07-46.09,5.88s-17.37-31.67-7.74-45.82c-1.79,2.62-9.13,2.19-11.58,1.2-3.22-1.3-5.88-4.64-8.07-7.33-5.32-6.53-8.83-14.7-8.9-23.2-.08-11.34,6.7-22.87,17.32-26.84a23.186,23.186,0,0,1,.74-44.09c-5.59-7.05-3.33-18.43,3.74-23.99,4.16-3.27,10.83-5.45,16.14-4.22,4.3.99,7.27,5.08,10.5,7.83a15.935,15.935,0,0,1,1.4-15.12,14.445,14.445,0,0,1,21.18-3.06c2.49,2.03,6.15,5.56,5.92,9.01,2.99-7.61,4.33-13.58,10.7-19.26,6.77-6.03,15.06-10.16,23.42-13.52,10.79-4.34,23.04-4.97,34.56-4.04a43.257,43.257,0,0,1,15.33,3.83c2.93,1.41,10.54,5.77,10.76,9.62-.67-11.7,9.94-22.79,21.66-22.65s22.05,11.49,21.1,23.17c.47-6.67,4.68-12.78,10.35-16.34s12.63-4.71,19.29-4.06a38.292,38.292,0,0,1,24.29,12.03,36.257,36.257,0,0,1,9.47,25.32c5.08-3.67,9.76-7.87,16.31-8.82A32.482,32.482,0,0,1,385.76,197.59Z" transform="translate(-48 -155.21)" fill="#fff"/>
      </g>
    </g>
    <g id="camping-tent" transform="translate(1388 3624.949)">
      <g id="Group_1438" data-name="Group 1438" transform="translate(78.951 56.013)">
        <path id="Path_37990" data-name="Path 37990" d="M334.339,250.328,264.891,162.91a2.24,2.24,0,0,1,3.507-2.786l69.448,87.418a2.24,2.24,0,0,1-3.507,2.786Z" transform="translate(-264.405 -159.277)" fill="#dbedff"/>
      </g>
      <g id="Group_1439" data-name="Group 1439" transform="translate(0 56.013)">
        <path id="Path_37991" data-name="Path 37991" d="M.847,250.689a2.239,2.239,0,0,1-.36-3.146l69.448-87.418a2.24,2.24,0,0,1,3.507,2.786L3.994,250.329a2.24,2.24,0,0,1-3.147.36Z" transform="translate(0 -159.279)" fill="#dbedff"/>
      </g>
      <g id="Group_1441" data-name="Group 1441" transform="translate(74.2 35.869)">
        <g id="Group_1440" data-name="Group 1440">
          <path id="Path_37992" data-name="Path 37992" d="M250.732,105.886a2.24,2.24,0,0,1-2.24-2.239v-9.59a2.239,2.239,0,1,1,4.479,0v9.59A2.239,2.239,0,0,1,250.732,105.886Z" transform="translate(-248.493 -91.817)" fill="#ce775f"/>
        </g>
      </g>
      <g id="Group_1443" data-name="Group 1443" transform="translate(74.2 35.869)">
        <g id="Group_1442" data-name="Group 1442">
          <path id="Path_37993" data-name="Path 37993" d="M250.732,110.617a2.24,2.24,0,0,1-2.24-2.239V94.056a2.239,2.239,0,1,1,4.479,0v14.321A2.24,2.24,0,0,1,250.732,110.617Z" transform="translate(-248.493 -91.817)" fill="#ce775f"/>
        </g>
      </g>
      <g id="Group_1444" data-name="Group 1444" transform="translate(142.066 140.108)">
        <path id="Path_37994" data-name="Path 37994" d="M477.178,458.074a2.239,2.239,0,0,1-1.238-2.915l5.186-12.846a2.239,2.239,0,0,1,4.153,1.677l-5.186,12.846A2.239,2.239,0,0,1,477.178,458.074Z" transform="translate(-475.776 -440.911)" fill="#ce775f"/>
      </g>
      <path id="Path_37995" data-name="Path 37995" d="M100.512,143.447a4.639,4.639,0,0,0-7.876,0L28.707,246.12H164.441Z" transform="translate(-20.135 -90.627)" fill="#f4dd45"/>
      <path id="Path_37996" data-name="Path 37996" d="M96.574,141.26a4.6,4.6,0,0,0-3.938,2.187L28.707,246.12H40.819l55.755-89.546Z" transform="translate(-20.135 -90.627)" fill="#fcc101"/>
      <g id="Group_1445" data-name="Group 1445" transform="translate(1.146 140.108)">
        <path id="Path_37997" data-name="Path 37997" d="M9.185,456.836,4,443.99a2.239,2.239,0,0,1,4.153-1.677l5.186,12.846a2.239,2.239,0,0,1-4.153,1.677Z" transform="translate(-3.835 -440.912)" fill="#ce775f"/>
      </g>
      <g id="Group_1447" data-name="Group 1447" transform="translate(74.2 48.393)">
        <g id="Group_1446" data-name="Group 1446">
          <path id="Path_37998" data-name="Path 37998" d="M250.732,188.558a2.239,2.239,0,0,1-2.24-2.239V136a2.239,2.239,0,0,1,4.479,0v50.319A2.24,2.24,0,0,1,250.732,188.558Z" transform="translate(-248.493 -133.76)" fill="#f2ab08"/>
        </g>
      </g>
      <path id="Path_37999" data-name="Path 37999" d="M269.9,306.249h-15.9v55.595H274.78V311.133a4.9,4.9,0,0,0-4.884-4.884Z" transform="translate(-178.151 -206.351)" fill="#f87c68"/>
      <path id="Path_38000" data-name="Path 38000" d="M338.164,58.807a.988.988,0,0,0-1.385-1.216A17.614,17.614,0,1,0,359.2,83.478a.985.985,0,0,0-.993-1.537A17.638,17.638,0,0,1,338.164,58.807Z" transform="translate(-229.541 -31.861)" fill="#f4dd45"/>
      <path id="Path_38001" data-name="Path 38001" d="M348.984,88.158a17.611,17.611,0,0,1-13.148-28.524,17.611,17.611,0,1,0,22.845,26.045A17.534,17.534,0,0,1,348.984,88.158Z" transform="translate(-229.54 -33.375)" fill="#fcc101"/>
      <g id="Group_1448" data-name="Group 1448" transform="translate(113.745 12.051)">
        <path id="Path_38002" data-name="Path 38002" d="M427.594,60.612h-.439v-.439a2.24,2.24,0,0,0-4.479,0v.439h-.439a2.239,2.239,0,0,0,0,4.479h.439v.439a2.24,2.24,0,0,0,4.479,0v-.439h.439a2.239,2.239,0,1,0,0-4.479Z" transform="translate(-408.332 -44.233)" fill="#f4dd45"/>
        <path id="Path_38003" data-name="Path 38003" d="M393.339,18.256a2.24,2.24,0,0,0-2.239-2.239h-1.727V14.29a2.24,2.24,0,0,0-4.479,0v1.726h-1.727a2.239,2.239,0,0,0,0,4.479h1.727v1.726a2.24,2.24,0,0,0,4.479,0V20.5H391.1A2.239,2.239,0,0,0,393.339,18.256Z" transform="translate(-380.928 -12.051)" fill="#f4dd45"/>
      </g>
      <path id="Path_38004" data-name="Path 38004" d="M193.263,306.249a4.9,4.9,0,0,0-4.884,4.884v50.711h20.189V306.249Z" transform="translate(-132.129 -206.351)" fill="#ec625e"/>
      <path id="Path_38005" data-name="Path 38005" d="M202.76,306.249h-9.5a4.9,4.9,0,0,0-4.884,4.884v50.711h9.5V311.133A4.9,4.9,0,0,1,202.76,306.249Z" transform="translate(-132.129 -206.351)" fill="#df4854"/>
      <g id="Group_1449" data-name="Group 1449" transform="translate(3.739 153.253)">
        <path id="Path_38006" data-name="Path 38006" d="M155.682,489.414H14.761a2.239,2.239,0,0,1,0-4.479H155.682a2.239,2.239,0,0,1,0,4.479Z" transform="translate(-12.522 -484.935)" fill="#64d465"/>
      </g>
    </g>
  </g>
</svg>
