<svg xmlns="http://www.w3.org/2000/svg" width="24.155" height="37.354" viewBox="0 0 24.155 37.354">
  <path id="Path_38015" data-name="Path 38015" d="M24.985-52.1a3.76,3.76,0,0,0-.332-1.619q-.332-.706-1.494-.706a9.539,9.539,0,0,0-3.486.913,34.791,34.791,0,0,0-4.648,2.449Q12.534-49.529,10-47.62a46.649,46.649,0,0,0-4.565,3.9,26.69,26.69,0,0,0-3.32,3.86A6.053,6.053,0,0,0,.83-36.58a6.1,6.1,0,0,0,1.287,3.071,32.644,32.644,0,0,0,3.32,4.067q2.034,2.158,4.524,4.358t4.9,3.984a37.788,37.788,0,0,0,4.482,2.905,7.571,7.571,0,0,0,3.237,1.121,1.957,1.957,0,0,0,1.7-.747,2.77,2.77,0,0,0,.54-1.66,4.966,4.966,0,0,0-.955-2.49,22.824,22.824,0,0,0-2.49-3.154q-1.536-1.66-3.4-3.445t-3.694-3.4q-1.826-1.619-3.362-2.947T8.55-37l2.615-1.743q1.619-1.079,3.445-2.366T18.3-43.8a31.782,31.782,0,0,0,3.32-2.864,19.739,19.739,0,0,0,2.407-2.864A4.713,4.713,0,0,0,24.985-52.1Z" transform="translate(24.985 -17.073) rotate(180)" fill="#f50057"/>
</svg>
