<svg xmlns="http://www.w3.org/2000/svg" xmlns:xlink="http://www.w3.org/1999/xlink" width="624.129" height="470.679" viewBox="0 0 624.129 470.679">
  <defs>
    <filter id="Path_671" x="0" y="0" width="624.129" height="470.679" filterUnits="userSpaceOnUse">
      <feOffset dy="16" input="SourceAlpha"/>
      <feGaussianBlur stdDeviation="8" result="blur"/>
      <feFlood flood-opacity="0.102"/>
      <feComposite operator="in" in2="blur"/>
      <feComposite in="SourceGraphic"/>
    </filter>
  </defs>
  <g id="Group_2039" data-name="Group 2039" transform="translate(-254 -1188)">
    <g id="Group_1450" data-name="Group 1450" transform="translate(278 1196)">
      <g transform="matrix(1, 0, 0, 1, -24, -8)" filter="url(#Path_671)">
        <path id="Path_671-2" data-name="Path 671" d="M579.754,218.847c19.565,10.26,30.375,35.877,21.847,56.252,25.342,2.444,46.768,26.249,46.526,51.7s-22.138,48.856-47.513,50.8c15.665,3.2,27.9,17.7,29.857,33.6,1.942,15.875-5.729,32.22-18.3,42.092s-29.485,13.513-45.312,11.247c11.862,32.285-9.095,81.06-35.505,100.593-25.52,18.869-64.7,19.581-87.533-2.46-4.644,10.422-14.759,17.753-25.715,20.941s-22.688,2.67-33.919.647c-31.945-5.745-56.867-25.294-68.89-55.41-5.955,14.662-23.692,20.132-39.373,22.268-15.26,2.071-31.314,2.589-45.506-3.4-14.176-5.988-25.925-19.953-25.1-35.327-17.38,21.556-52.352,26.006-74.587,9.516-22.235-16.507-28.11-51.251-12.526-74.15-2.9,4.24-14.775,3.544-18.74,1.942-5.211-2.1-9.516-7.509-13.06-11.862C77.794,427.267,72.114,414.045,72,400.29c-.129-18.351,10.843-37.01,28.029-43.435-14.856-5.114-25.569-20.39-25.31-36.1s11.49-30.634,26.508-35.246c-9.046-11.409-5.389-29.825,6.052-38.823,6.732-5.292,17.526-8.82,26.119-6.829,6.959,1.6,11.765,8.221,16.992,12.671-3.269-7.978-2.735-17.283,2.266-24.468a23.375,23.375,0,0,1,34.275-4.952c4.03,3.285,9.952,9,9.58,14.581,4.839-12.315,7.007-21.976,17.316-31.168,10.956-9.758,24.371-16.442,37.9-21.879,17.461-7.023,37.285-8.043,55.928-6.538,8.5.68,17.089,2.476,24.808,6.2,4.742,2.282,17.057,9.338,17.413,15.568-1.084-18.934,16.086-36.881,35.052-36.654,18.95.227,35.683,18.594,34.146,37.5.761-10.794,7.574-20.682,16.749-26.443,9.176-5.745,20.439-7.622,31.217-6.57a61.967,61.967,0,0,1,39.308,19.468,58.674,58.674,0,0,1,15.325,40.975c8.221-5.939,15.794-12.736,26.394-14.273C558.813,212.342,570.044,213.766,579.754,218.847Z" transform="translate(-48 -155.21)" fill="#e6ecff"/>
      </g>
    </g>
    <g id="abc" transform="translate(452.775 1299.716)">
      <path id="Path_37951" data-name="Path 37951" d="M361.188,369.28h-97.1A8.091,8.091,0,0,1,256,361.188v-97.1A8.091,8.091,0,0,1,264.092,256h97.1a8.091,8.091,0,0,1,8.092,8.092v97.1A8.092,8.092,0,0,1,361.188,369.28Z" transform="translate(-142.72 -142.72)" fill="#8cd2ff"/>
      <path id="Path_37952" data-name="Path 37952" d="M337.077,283.429a44.513,44.513,0,0,0-8.907,88.128,46.188,46.188,0,0,0,8.929.88,44.22,44.22,0,0,0,25.423-7.99A16.183,16.183,0,1,0,344,337.9a12.09,12.09,0,0,1-6.952,2.159,13.652,13.652,0,0,1-2.621-.259,11.842,11.842,0,0,1-9.233-9.271,12.168,12.168,0,0,1,11.882-14.738c.173,0,.345,0,.517.011a16.183,16.183,0,0,0,31.85-4.056v-4.838a20.173,20.173,0,0,0-9.866-17.38,44.51,44.51,0,0,0-22.5-6.1Z" transform="translate(-163.114 -158.012)" fill="#69beff"/>
      <path id="Path_37953" data-name="Path 37953" d="M233.188,113.28h-97.1A8.091,8.091,0,0,1,128,105.188V8.092A8.091,8.091,0,0,1,136.092,0h97.1a8.091,8.091,0,0,1,8.091,8.092v97.1A8.091,8.091,0,0,1,233.188,113.28Z" transform="translate(-71.36)" fill="#f50057"/>
      <path id="Path_37954" data-name="Path 37954" d="M105.188,369.28H8.092A8.091,8.091,0,0,1,0,361.188v-97.1A8.091,8.091,0,0,1,8.092,256h97.1a8.091,8.091,0,0,1,8.092,8.092v97.1A8.092,8.092,0,0,1,105.188,369.28Z" transform="translate(0 -142.72)" fill="#4b44f2"/>
      <path id="Path_37955" data-name="Path 37955" d="M205.018,36.567a20.866,20.866,0,0,0-19.464,13.177L165.718,99.336a16.183,16.183,0,1,0,30.051,12.02l.786-1.965h16.927l.786,1.964a16.183,16.183,0,1,0,30.051-12.02L224.482,49.741a20.868,20.868,0,0,0-19.464-13.174Z" transform="translate(-91.738 -20.386)" fill="#d24146"/>
      <path id="Path_37956" data-name="Path 37956" d="M91.268,283.429H79.131A24.3,24.3,0,0,0,54.857,307.7v48.548A16.2,16.2,0,0,0,71.04,372.434H95.314a32.327,32.327,0,0,0,23.563-54.5,27.273,27.273,0,0,0,.711-6.186,28.351,28.351,0,0,0-28.319-28.32Z" transform="translate(-30.583 -158.012)" fill="#ffaf4b"/>
      <path id="Path_37957" data-name="Path 37957" d="M247.006,112.536l-19.835-49.6a12.873,12.873,0,0,0-23.9,0l-19.835,49.592a8.091,8.091,0,1,0,15.025,6.01l2.821-7.051h27.883l2.82,7.05a8.091,8.091,0,1,0,15.024-6.009ZM207.751,95.312,215.22,76.64l7.469,18.672Z" transform="translate(-101.94 -30.581)" fill="#ffc855"/>
      <path id="Path_37958" data-name="Path 37958" d="M119.674,330.59a20,20,0,0,0,2.017-8.648,20.252,20.252,0,0,0-20.228-20.228H89.326A16.2,16.2,0,0,0,73.143,317.9v48.549a8.092,8.092,0,0,0,8.092,8.091h24.274a24.248,24.248,0,0,0,14.165-43.947ZM89.326,317.9h12.137a4.046,4.046,0,1,1,0,8.092H89.326Zm16.183,40.457H89.326V342.171h16.183a8.091,8.091,0,1,1,0,16.183Z" transform="translate(-40.777 -168.206)" fill="#e15050"/>
      <path id="SVGCleanerId_0" d="M347.294,374.539a38,38,0,0,1-7.363-.727,36.423,36.423,0,1,1,25.752-67.105,12.055,12.055,0,0,1,5.865,10.4v4.838a8.092,8.092,0,0,1-16.183,0v-2.361a20.256,20.256,0,0,0-27.917,22.694,20.011,20.011,0,0,0,15.616,15.661,20.419,20.419,0,0,0,15.762-3.2,8.091,8.091,0,1,1,9.261,13.271A36.15,36.15,0,0,1,347.294,374.539Z" transform="translate(-173.309 -168.206)" fill="#ffc855"/>
      <g id="Group_1430" data-name="Group 1430" transform="translate(80.912 24.272)">
        <path id="Path_37959" data-name="Path 37959" d="M298.416,189.907l-1.8-4.507a4.046,4.046,0,0,0-3.756-2.543h-5.35l2.82,7.05a8.084,8.084,0,0,0,10.517,4.509,7.923,7.923,0,0,0,1.067-.557A7.982,7.982,0,0,1,298.416,189.907Z" transform="translate(-241.198 -126.215)" fill="#ffaf4b"/>
        <path id="Path_37960" data-name="Path 37960" d="M261.35,104.089H256l7.469,18.672h4.072a2.72,2.72,0,0,0,2.525-3.73l-4.96-12.4A4.046,4.046,0,0,0,261.35,104.089Z" transform="translate(-223.633 -82.302)" fill="#ffaf4b"/>
        <path id="Path_37961" data-name="Path 37961" d="M191.524,112.536l19.835-49.592a12.8,12.8,0,0,1,7.907-7.432,12.846,12.846,0,0,0-16,7.432l-19.835,49.591a8.063,8.063,0,0,0,11.556,9.974A8.067,8.067,0,0,1,191.524,112.536Z" transform="translate(-182.853 -54.853)" fill="#ffaf4b"/>
      </g>
      <g id="Group_1431" data-name="Group 1431" transform="translate(32.366 133.509)">
        <path id="Path_37962" data-name="Path 37962" d="M141.189,342.332a4.051,4.051,0,0,1-4.046,4.046h8.092a4.046,4.046,0,0,0,0-8.092h-8.092A4.051,4.051,0,0,1,141.189,342.332Z" transform="translate(-108.823 -322.103)" fill="#d24146"/>
        <path id="Path_37963" data-name="Path 37963" d="M81.235,366.446V317.9a16.2,16.2,0,0,1,16.183-16.183H89.326A16.2,16.2,0,0,0,73.143,317.9v48.548a8.092,8.092,0,0,0,8.092,8.091h8.092A8.092,8.092,0,0,1,81.235,366.446Z" transform="translate(-73.143 -301.715)" fill="#d24146"/>
        <path id="Path_37964" data-name="Path 37964" d="M146.286,409.325h8.092a8.092,8.092,0,0,0,0-16.183h-8.092a8.092,8.092,0,0,1,0,16.183Z" transform="translate(-113.92 -352.686)" fill="#d24146"/>
      </g>
      <g id="Group_1432" data-name="Group 1432" transform="translate(137.559 133.509)">
        <path id="SVGCleanerId_0_1_" d="M347.294,374.539a38,38,0,0,1-7.363-.727,36.423,36.423,0,1,1,25.752-67.105,12.055,12.055,0,0,1,5.865,10.4v4.838a8.092,8.092,0,0,1-16.183,0v-2.361a20.256,20.256,0,0,0-27.917,22.694,20.011,20.011,0,0,0,15.616,15.661,20.419,20.419,0,0,0,15.762-3.2,8.091,8.091,0,1,1,9.261,13.271A36.15,36.15,0,0,1,347.294,374.539Z" transform="translate(-310.868 -301.715)" fill="#ffc855"/>
      </g>
      <g id="Group_1433" data-name="Group 1433" transform="translate(137.56 133.509)">
        <path id="Path_37965" data-name="Path 37965" d="M393.138,338.286a19.567,19.567,0,0,1,8.093,1.685v1.783a8.551,8.551,0,0,0,6.431,8.492,7.887,7.887,0,0,0,5.706-.944,8.057,8.057,0,0,1-4.046-6.969h0a4.046,4.046,0,0,0-4.046-4.046H393.138Z" transform="translate(-356.734 -322.103)" fill="#ffaf4b"/>
        <path id="Path_37966" data-name="Path 37966" d="M348.023,373.812a36.418,36.418,0,0,1,3.1-71.842,36.4,36.4,0,0,0-11.186,71.842,38,38,0,0,0,7.363.727,36.617,36.617,0,0,0,3.738-.282C350.03,374.141,349.027,374.01,348.023,373.812Z" transform="translate(-310.87 -301.715)" fill="#ffaf4b"/>
      </g>
    </g>
  </g>
</svg>
