<svg xmlns="http://www.w3.org/2000/svg" width="1714.683" height="836.062" viewBox="0 0 1714.683 836.062">
  <g id="XMLID_161_" transform="translate(305.464 83.775)">
    <g id="XMLID_519_" transform="translate(165.753 -83.775)">
      <g id="XMLID_530_" transform="translate(15.886 0)">
        <ellipse id="XMLID_538_" cx="53.667" cy="53.667" rx="53.667" ry="53.667" transform="translate(0 95.592) rotate(-62.953)" fill="#fcce00"/>
        <g id="XMLID_531_" transform="translate(18.546 39.314)">
          <path id="XMLID_535_" d="M238.483,140.827c-1.012-3.335,21.325-7.382,20.532-12.248S218.771,139.1,217.9,135.14c-.848-3.964,21.516-7.846,19.684-13.287-1.148-3.417-14.9.219-24.879,3.39a53.469,53.469,0,0,0-5.714,43.5c.3,1.012.656,2.023,1.012,3.007,12.986-2.269,39.4-7.464,37.728-12.221-2.214-6.288-26.6,2.98-27.777-.957-1.176-3.964,60.611-17.8,58.862-22.91C275.036,130.547,239.495,144.162,238.483,140.827Z" transform="translate(-204.721 -120.476)" fill="#d3ab05"/>
          <path id="XMLID_532_" d="M276.2,125.25c-13.752,4.292-31.44,10.28-30.784,12.521,1.094,3.636,21.68-6.151,23.047-1.586s-34.393,14.6-32.917,18.454,27.558-4.948,28.324-1.668c.793,3.281-42.4,15.5-40.6,19.93s36.854-10.362,38.494-4.894-15.31,7.573-13.943,12.139c.738,2.461,11.51.082,21.27-2.625a53.632,53.632,0,0,0,8.667-47.817C277.3,128.175,276.778,126.7,276.2,125.25Z" transform="translate(-172.644 -112.199)" fill="#d3ab05"/>
        </g>
      </g>
      <path id="XMLID_523_" d="M315.875,117.931a54.783,54.783,0,0,1,6.862,7.354c10.69.957,17.962,4.156,19.548,9.514,3.609,12.084-22.446,30.538-58.233,41.255s-67.692,9.6-71.329-2.461c-1.8-5.987,3.745-13.56,14.134-20.969a52.649,52.649,0,0,1,1.859-9.459c-25.125,14.025-39.916,31.03-35.951,44.317,5.8,19.384,49.43,23.457,97.41,9.1,48.008-14.353,82.21-41.72,76.414-61.131C362.816,122.742,342.749,116.618,315.875,117.931Z" transform="translate(-192.126 -85.878)" fill="#ff212b"/>
    </g>
    <g id="XMLID_495_" transform="translate(25.677 549.873)">
      <g id="XMLID_507_">
        <path id="XMLID_516_" d="M249.313,248.825l-8.863,4.323,48.473,99.664a9.867,9.867,0,1,0,17.752-8.618L258.2,244.53Z" transform="translate(-233.51 -237.427)" fill="#80dadd"/>
        <path id="XMLID_512_" d="M262.318,242.224l-11.336,5.519-11.337,5.519a3.113,3.113,0,1,0,2.719,5.6l11.337-5.519,11.337-5.519a3.113,3.113,0,0,0-2.719-5.6Z" transform="translate(-237.897 -241.917)" fill="#80dadd"/>
        <path id="XMLID_508_" d="M259.062,246.3l-.87-1.767-8.618,4.187-.136.054-.109.054-8.89,4.323.87,1.794Z" transform="translate(-233.527 -237.427)" fill="#01b5cc"/>
      </g>
      <path id="XMLID_504_" d="M251.828,255.8l-7.068,3.425L283.31,338.5a7.848,7.848,0,1,0,14.109-6.878L258.87,252.35Z" transform="translate(-226.103 -223.988)" fill="#ff212b"/>
      <g id="XMLID_496_" transform="translate(27.755 32.801)">
        <path id="XMLID_503_" d="M256.462,256.45a4.4,4.4,0,1,1-5.872-2.039A4.383,4.383,0,0,1,256.462,256.45Z" transform="translate(-248.106 -253.983)" fill="#fff"/>
        <path id="XMLID_502_" d="M260.4,266.06a4.4,4.4,0,1,1-5.872-2.039A4.429,4.429,0,0,1,260.4,266.06Z" transform="translate(-241.335 -237.467)" fill="#fff"/>
        <path id="XMLID_501_" d="M260.9,270.81a4.4,4.4,0,1,1-5.872-2.039A4.382,4.382,0,0,1,260.9,270.81Z" transform="translate(-240.476 -229.331)" fill="#fff"/>
        <path id="XMLID_500_" d="M256.5,261.757a4.4,4.4,0,1,1-5.872-2.039A4.383,4.383,0,0,1,256.5,261.757Z" transform="translate(-248.038 -244.881)" fill="#fff"/>
        <path id="XMLID_499_" d="M265.832,275.72a4.4,4.4,0,1,1-5.872-2.039A4.382,4.382,0,0,1,265.832,275.72Z" transform="translate(-232.003 -220.893)" fill="#fff"/>
        <path id="XMLID_497_" d="M266.722,282.76a4.4,4.4,0,1,1-5.872-2.039A4.383,4.383,0,0,1,266.722,282.76Z" transform="translate(-230.474 -208.794)" fill="#fff"/>
      </g>
    </g>
    <g id="XMLID_479_" transform="translate(-305.464 345.857)">
      <g id="XMLID_492_" transform="translate(4.019 0)">
        <rect id="XMLID_494_" width="81.64" height="99.528" transform="translate(46.868 0) rotate(28.092)" fill="#ff212b"/>
        <rect id="XMLID_493_" width="56.492" height="34.825" transform="translate(56.57 18.565) rotate(28.092)" fill="#fff"/>
      </g>
      <g id="XMLID_481_" transform="translate(0 2.051)">
        <path id="XMLID_491_" d="M562.616,173.991l-10.793-5.763a2.471,2.471,0,0,1-1.006-3.344h0a2.471,2.471,0,0,1,3.344-1.006l10.793,5.763a2.47,2.47,0,0,1,1.006,3.344h0A2.512,2.512,0,0,1,562.616,173.991Z" transform="translate(-511.482 -163.581)" fill="#fff"/>
        <path id="XMLID_490_" d="M560.826,177.351l-10.793-5.763a2.471,2.471,0,0,1-1.006-3.344h0a2.47,2.47,0,0,1,3.344-1.006L563.164,173a2.47,2.47,0,0,1,1.006,3.344h0A2.47,2.47,0,0,1,560.826,177.351Z" transform="translate(-514.558 -157.806)" fill="#fff"/>
        <path id="XMLID_489_" d="M559.026,180.711l-10.793-5.763a2.471,2.471,0,0,1-1.006-3.344h0a2.471,2.471,0,0,1,3.344-1.006l10.793,5.763a2.471,2.471,0,0,1,1.006,3.344h0A2.471,2.471,0,0,1,559.026,180.711Z" transform="translate(-517.652 -152.032)" fill="#fff"/>
        <path id="XMLID_488_" d="M557.226,184.071l-10.793-5.763a2.471,2.471,0,0,1-1.006-3.344h0a2.471,2.471,0,0,1,3.344-1.006l10.793,5.763a2.471,2.471,0,0,1,1.006,3.344h0A2.456,2.456,0,0,1,557.226,184.071Z" transform="translate(-520.745 -146.257)" fill="#fff"/>
        <path id="XMLID_487_" d="M555.436,187.441l-10.793-5.763a2.471,2.471,0,0,1-1.006-3.344h0a2.47,2.47,0,0,1,3.344-1.006l10.793,5.763a2.47,2.47,0,0,1,1.006,3.344h0A2.494,2.494,0,0,1,555.436,187.441Z" transform="translate(-523.821 -140.466)" fill="#fff"/>
        <path id="XMLID_486_" d="M553.636,190.8l-10.793-5.763a2.47,2.47,0,0,1-1.006-3.344h0a2.47,2.47,0,0,1,3.344-1.006l10.793,5.763a2.47,2.47,0,0,1,1.006,3.344h0A2.456,2.456,0,0,1,553.636,190.8Z" transform="translate(-526.915 -134.691)" fill="#fff"/>
        <path id="XMLID_485_" d="M551.846,194.161,541.054,188.4a2.47,2.47,0,0,1-1.006-3.344h0a2.47,2.47,0,0,1,3.344-1.006l10.793,5.763a2.471,2.471,0,0,1,1.006,3.344h0A2.471,2.471,0,0,1,551.846,194.161Z" transform="translate(-529.991 -128.917)" fill="#fff"/>
        <path id="XMLID_483_" d="M550.046,197.531l-10.793-5.763a2.471,2.471,0,0,1-1.006-3.344h0a2.47,2.47,0,0,1,3.344-1.006l10.793,5.763a2.471,2.471,0,0,1,1.006,3.344h0A2.48,2.48,0,0,1,550.046,197.531Z" transform="translate(-533.084 -123.125)" fill="#fff"/>
        <path id="XMLID_482_" d="M548.256,200.891l-10.793-5.763a2.471,2.471,0,0,1-1.006-3.344h0a2.471,2.471,0,0,1,3.344-1.006l10.793,5.763a2.471,2.471,0,0,1,1.006,3.344h0A2.471,2.471,0,0,1,548.256,200.891Z" transform="translate(-536.161 -117.351)" fill="#fff"/>
      </g>
    </g>
    <g id="XMLID_465_" transform="translate(360.684 67.176)">
      <rect id="XMLID_474_" width="12.152" height="8.754" transform="translate(3.653 12.245) rotate(-45)" fill="#fff"/>
      <path id="XMLID_473_" d="M280.871,133.451h0a6.088,6.088,0,0,0,0,8.591l1.876,1.876,8.591-8.591-1.876-1.876A6.088,6.088,0,0,0,280.871,133.451Z" transform="translate(-279.098 -131.677)" fill="#ff212b"/>
      <path id="XMLID_470_" d="M303.76,164.931l17.181,8.591-8.591-17.182-.245,3.425-2.664-.517.381,3.154-2.773-.761.109,3.235Z" transform="translate(-236.713 -89.293)" fill="#d3ab05"/>
      <path id="XMLID_469_" d="M307.74,163.5l6.362,3.181-3.181-6.362Z" transform="translate(-229.873 -82.453)" fill="#ff212b"/>
      <path id="XMLID_466_" d="M282.72,143.891l57.2,57.2,3.4-.054-.109-3.235,2.773.761-.381-3.154,2.664.517.245-3.425-57.2-57.2Z" transform="translate(-272.872 -125.452)" fill="#fcce00"/>
    </g>
    <g id="XMLID_376_" transform="translate(-78 119.975)">
      <rect id="XMLID_422_" width="66.823" height="95.368" transform="translate(0 27.965) rotate(-24.74)" fill="#01b5cc"/>
      <g id="XMLID_377_" transform="translate(8.16 9.248)">
        <rect id="XMLID_419_" width="55.976" height="16.583" transform="translate(0 23.426) rotate(-24.74)" fill="#262537"/>
        <rect id="XMLID_416_" width="9.787" height="9.787" transform="translate(10.047 45.259) rotate(-24.74)" fill="#262537"/>
        <rect id="XMLID_413_" width="9.787" height="9.787" transform="translate(24.086 38.778) rotate(-24.746)" fill="#262537"/>
        <rect id="XMLID_410_" width="9.787" height="9.787" transform="translate(38.022 32.369) rotate(-24.74)" fill="#262537"/>
        <rect id="XMLID_407_" width="9.787" height="9.787" transform="translate(52.036 25.898) rotate(-24.746)" fill="#262537"/>
        <rect id="XMLID_404_" width="9.787" height="9.787" transform="translate(16.31 58.677) rotate(-24.746)" fill="#fcce00"/>
        <rect id="XMLID_401_" width="9.787" height="9.787" transform="translate(30.247 52.26) rotate(-24.74)" fill="#fcce00"/>
        <rect id="XMLID_398_" width="9.787" height="9.787" transform="translate(44.22 45.828) rotate(-24.74)" fill="#fcce00"/>
        <rect id="XMLID_397_" width="9.787" height="9.787" transform="translate(58.219 39.379) rotate(-24.74)" fill="#ff212b"/>
        <rect id="XMLID_394_" width="9.787" height="9.787" transform="translate(22.466 72.166) rotate(-24.74)" fill="#fcce00"/>
        <rect id="XMLID_391_" width="9.787" height="9.787" transform="translate(36.444 65.72) rotate(-24.74)" fill="#fcce00"/>
        <rect id="XMLID_388_" width="9.787" height="9.787" transform="translate(50.457 59.257) rotate(-24.746)" fill="#fcce00"/>
        <rect id="XMLID_385_" width="9.787" height="9.787" transform="translate(28.663 85.625) rotate(-24.74)" fill="#fcce00"/>
        <rect id="XMLID_382_" width="9.787" height="9.787" transform="translate(42.68 79.156) rotate(-24.746)" fill="#fcce00"/>
        <rect id="XMLID_379_" width="9.787" height="9.787" transform="translate(56.637 72.737) rotate(-24.74)" fill="#fcce00"/>
        <rect id="XMLID_378_" width="9.787" height="24.603" transform="translate(64.414 52.84) rotate(-24.74)" fill="#ff212b"/>
      </g>
    </g>
    <g id="XMLID_365_" transform="translate(51.65 359.996)">
      <ellipse id="XMLID_373_" cx="48.5" cy="48.5" rx="48.5" ry="48.5" fill="#ff212b"/>
      <g id="XMLID_366_" transform="translate(0.005 8.471)">
        <path id="XMLID_370_" d="M263.8,210.457c-5.845-5.763-34.472,26.533-36.783,22.755-2.311-3.806,20.335-19.112,17.263-22.755-2.474-2.936-32.161,21.749-43.633,31.454a48.476,48.476,0,0,0,20.933,48.282c17.209-15.469,56.764-51.9,52.822-56.085-5.029-5.356-51.028,30.883-51.028,30.883,7.83-9.406-2.474-9.135-2.474-9.135S269.647,216.22,263.8,210.457Z" transform="translate(-200.002 -209.766)" fill="#e21726"/>
        <path id="XMLID_367_" d="M221.266,284.9A48.5,48.5,0,0,0,263.35,217.53c-12.261,11.445-41.948,39.637-39.474,41.785,3.1,2.691,19.112-15.251,21.83-12.56,2.719,2.719-31.7,26.289-28.11,29.633,3.589,3.371,27.7-23.081,29.85-20.553C249.159,257.847,229.2,277.312,221.266,284.9Z" transform="translate(-170.216 -196.422)" fill="#e21726"/>
      </g>
    </g>
    <g id="XMLID_351_" transform="translate(1311.567 23.628)">
      <ellipse id="XMLID_362_" cx="48.826" cy="48.826" rx="48.826" ry="48.826" transform="translate(0 0.027)" fill="#01b5cc"/>
      <g id="XMLID_352_" transform="translate(0.299)">
        <path id="XMLID_359_" d="M554.243,117.7c-11.255.816-18.867-.816-24.9-6.824-3.262-3.262-10.032-4.758-15.578-5.437a48.794,48.794,0,0,0-12.043,19.6c7.966,5.084,21.368,8.455,26.805,8.727,7.639.408,19.275,4.4,29.687,8.835,10.44,4.4,15.659,2.012,25.718,3.616,3.616.571,8.1,1.359,12.37,2.148a49.189,49.189,0,0,0-.381-18.6c-4.4-1.223-8.618-2.637-10.793-4.024C579.526,122.132,565.471,116.913,554.243,117.7Z" transform="translate(-499.681 -91.222)" fill="#009ca8"/>
        <path id="XMLID_356_" d="M589.623,142.51c-15.632.625-28.3-6.552-35.043-8.4-7.367-2.012-23.951,2.8-33.194-4.812-5.41-4.459-14.137-7.422-20.417-9.107A48.934,48.934,0,0,0,508.2,140.8c5.41,1.223,11.065,2.855,13.593,5.356,4.812,4.812,24.087,10.439,32.786,9.624,4.975-.462,10.195,1.3,15.088,3.371A48.554,48.554,0,0,0,589.623,142.51Z" transform="translate(-500.97 -65.872)" fill="#009ca8"/>
        <path id="XMLID_353_" d="M573.5,123.128a48.84,48.84,0,0,0-62.419-18.16c2.42,3.262,6.008,6.47,11.01,6.851,10.44.816,24.875,1.6,31.916,6.824C558.057,121.687,566.7,123.862,573.5,123.128Z" transform="translate(-483.595 -100.21)" fill="#009ca8"/>
      </g>
    </g>
    <g id="XMLID_335_" transform="translate(444.438 0)">
      <g id="XMLID_346_" transform="translate(0 1.541)">
        <path id="XMLID_350_" d="M373.621,141c14.245,27.295,18.106,53.42,8.672,58.341-9.461,4.948-28.654-13.185-42.9-40.48s-18.106-53.42-8.672-58.341C340.182,95.576,359.375,113.709,373.621,141Z" transform="translate(-302.997 -90.981)" fill="none" stroke="#fff" stroke-miterlimit="10" stroke-width="0.521"/>
        <path id="XMLID_349_" d="M359.749,120.633c27.295-14.245,53.42-18.106,58.341-8.672,4.921,9.461-13.185,28.681-40.48,42.9-27.295,14.245-53.42,18.106-58.341,8.672C314.349,154.072,332.482,134.879,359.749,120.633Z" transform="translate(-315.197 -78.793)" fill="none" stroke="#fff" stroke-miterlimit="10" stroke-width="0.521"/>
        <ellipse id="XMLID_348_" cx="55.731" cy="19.302" rx="55.731" ry="19.302" transform="translate(18.374 106.335) rotate(-72.554)" fill="none" stroke="#fff" stroke-miterlimit="10" stroke-width="0.521"/>
        <path id="XMLID_347_" d="M376.549,115.489c29.361,9.243,50.593,24.957,47.385,35.124s-29.606,10.956-58.966,1.713S314.375,127.37,317.583,117.2,347.188,106.246,376.549,115.489Z" transform="translate(-317.262 -74.954)" fill="none" stroke="#fff" stroke-miterlimit="10" stroke-width="0.521"/>
      </g>
      <g id="XMLID_336_" transform="translate(28.9)">
        <ellipse id="XMLID_343_" cx="16.148" cy="16.148" rx="16.148" ry="16.148" transform="matrix(0.877, -0.481, 0.481, 0.877, 2.709, 54.143)" fill="#ff212b"/>
        <path id="XMLID_340_" d="M340.988,106.691a7.357,7.357,0,1,1,9.923,3.126A7.351,7.351,0,0,1,340.988,106.691Z" transform="translate(-306.823 -95.933)" fill="#fcce00"/>
        <path id="XMLID_337_" d="M328.728,145.881a7.357,7.357,0,1,1,9.923,3.126A7.351,7.351,0,0,1,328.728,145.881Z" transform="translate(-327.893 -28.581)" fill="#01b5cc"/>
      </g>
    </g>
    <g id="XMLID_316_" transform="translate(149.614 158.735)">
      <g id="XMLID_325_">
        <path id="XMLID_332_" d="M291.422,212.832c0-15.985,17.263-28.056,17.263-28.056l-10.358-10.358L287.97,164.06s-12.1,17.263-28.056,17.263c-15.985,0-52.8,13.919-17.589,49.125C277.5,265.6,291.422,228.79,291.422,212.832Z" transform="translate(-227.574 -156.584)" fill="#80dadd"/>
        <path id="XMLID_329_" d="M277.416,183.113l-10.249-10.249-10.249-10.249a4.421,4.421,0,0,0-6.253,6.253l10.249,10.249,10.249,10.249a4.4,4.4,0,0,0,6.253,0A4.447,4.447,0,0,0,277.416,183.113Z" transform="translate(-190.134 -161.31)" fill="#80dadd"/>
        <path id="XMLID_326_" d="M269.837,185.772c.815-.652,1.3-1.006,1.3-1.006l-10.195-10.195-.082-.082-.082-.082L250.426,164.05s-.353.489-1.006,1.3Z" transform="translate(-190.031 -156.601)" fill="#01b5cc"/>
      </g>
      <path id="XMLID_324_" d="M286.1,199.855,257.74,171.5c-14.381.082-46.977,12.56-15.6,43.933S285.986,214.209,286.1,199.855Z" transform="translate(-225.211 -143.797)" fill="#01cc38"/>
      <g id="XMLID_317_" transform="translate(9.061 33.921)">
        <path id="XMLID_323_" d="M240.266,184.386a5.479,5.479,0,1,1,0-7.748A5.464,5.464,0,0,1,240.266,184.386Z" transform="translate(-230.907 -171.656)" fill="#fff"/>
        <path id="XMLID_322_" d="M242.846,191.466a5.479,5.479,0,1,1,0-7.748A5.464,5.464,0,0,1,242.846,191.466Z" transform="translate(-226.474 -159.489)" fill="#fff"/>
        <path id="XMLID_321_" d="M247.206,183.146a5.479,5.479,0,1,1,0-7.748A5.464,5.464,0,0,1,247.206,183.146Z" transform="translate(-218.98 -173.787)" fill="#fff"/>
        <path id="XMLID_320_" d="M247.956,189.216a5.479,5.479,0,1,1,0-7.748A5.464,5.464,0,0,1,247.956,189.216Z" transform="translate(-217.691 -163.356)" fill="#fff"/>
        <ellipse id="XMLID_319_" cx="5.492" cy="5.492" rx="5.492" ry="5.492" transform="translate(37.088 18.249)" fill="#fff"/>
        <path id="XMLID_318_" d="M249.826,196.8a5.479,5.479,0,1,1,0-7.748A5.464,5.464,0,0,1,249.826,196.8Z" transform="translate(-214.478 -150.329)" fill="#fff"/>
      </g>
    </g>
    <g id="XMLID_297_" transform="translate(595.536 642.585)">
      <g id="XMLID_306_">
        <path id="XMLID_313_" d="M615.049,134.387,594.769,111.17l-11.309,11.309L572.15,133.789l23.217,20.281a6.369,6.369,0,0,1,1.767,2.528l18.024,48.337a6.306,6.306,0,0,0,10.358,2.256l21.314-21.314,21.314-21.314a6.306,6.306,0,0,0-2.256-10.358l-48.337-18.024A7.326,7.326,0,0,1,615.049,134.387Z" transform="translate(-560.31 -99.331)" fill="#80dadd"/>
        <path id="XMLID_310_" d="M597.169,108.405,583.277,122.3l-13.892,13.892a5.447,5.447,0,0,0,0,7.694h0a5.448,5.448,0,0,0,7.694,0l13.892-13.892L604.863,116.1a5.447,5.447,0,0,0,0-7.694h0A5.448,5.448,0,0,0,597.169,108.405Z" transform="translate(-567.795 -106.815)" fill="#80dadd"/>
        <path id="XMLID_307_" d="M595.893,112.475l-1.142-1.3-11.282,11.309-.082.082L572.16,133.789l1.305,1.115Z" transform="translate(-560.293 -99.331)" fill="#01b5cc"/>
      </g>
      <path id="XMLID_303_" d="M600.786,121.88c-.136-.054-.3-.136-.435-.19L582.68,139.361c.054.136.136.272.19.435l15.8,42.356a5.538,5.538,0,0,0,9.08,1.985l18.677-18.677L645.1,146.783a5.529,5.529,0,0,0-1.984-9.08Z" transform="translate(-542.214 -81.251)" fill="#fcce00"/>
      <path id="XMLID_302_" d="M595.591,129.077a6.19,6.19,0,1,1-8.754,0A6.186,6.186,0,0,1,595.591,129.077Z" transform="translate(-538.188 -71.674)" fill="#fff"/>
      <path id="XMLID_301_" d="M604.291,127.247a6.19,6.19,0,1,1-8.754,0A6.186,6.186,0,0,1,604.291,127.247Z" transform="translate(-523.236 -74.819)" fill="#fff"/>
      <ellipse id="XMLID_300_" cx="6.198" cy="6.198" rx="6.198" ry="6.198" transform="translate(58.001 84.671)" fill="#fff"/>
      <ellipse id="XMLID_299_" cx="6.198" cy="6.198" rx="6.198" ry="6.198" transform="translate(63.031 66.81)" fill="#fff"/>
      <ellipse id="XMLID_298_" cx="6.198" cy="6.198" rx="6.198" ry="6.198" transform="translate(85.758 59.062)" fill="#fff"/>
    </g>
    <g id="XMLID_176_" transform="translate(830.85 30.633)">
      <path id="XMLID_296_" d="M533.922,159.284a23.568,23.568,0,0,0-18.4-6.851,19.549,19.549,0,0,0-23.733-11.309A13.287,13.287,0,0,0,488,133.267a13.439,13.439,0,0,0-16.638-1.876,9.008,9.008,0,0,0-2.556-5.111,9.172,9.172,0,0,0-5.682-2.61c1.088.979,1.713,1.522,1.713,1.522l-15.8,15.8-15.8,15.8s-.544-.625-1.522-1.713a8.958,8.958,0,0,0,2.61,5.709,9.178,9.178,0,0,0,5.111,2.555,13.353,13.353,0,0,0,9.733,20.417,19.549,19.549,0,0,0,11.309,23.733,23.622,23.622,0,0,0,39.936,18.731l.027.027A23.933,23.933,0,0,0,534.3,192.4l-.027-.027A23.676,23.676,0,0,0,533.922,159.284Z" transform="translate(-383.95 -75.896)" fill="#fff"/>
      <g id="XMLID_177_">
        <g id="XMLID_293_" transform="translate(4.904 49.568)">
          <path id="XMLID_295_" d="M450.478,151.434c-4.785-5.492-13.511-15.8-22.048-27.1l-8.89,31.509a171.461,171.461,0,0,1,13.348,13.212Z" transform="translate(-409.804 -124.33)" fill="#ff212b"/>
          <path id="XMLID_294_" d="M416.1,134.118c-2.093,4.975,20.063,24.495,20.063,24.495l2.2-2.2,2.2-2.2C440.593,154.209,421.073,132.025,416.1,134.118Z" transform="translate(-415.959 -107.748)" fill="#ff212b"/>
        </g>
        <g id="XMLID_290_" transform="translate(49.547 4.952)">
          <path id="XMLID_292_" d="M459.484,142.428c-5.492-4.785-15.8-13.511-27.1-22.048l31.509-8.89A171.463,171.463,0,0,0,477.1,124.838Z" transform="translate(-432.38 -101.781)" fill="#ff212b"/>
          <path id="XMLID_291_" d="M442.168,108.058c4.975-2.093,24.495,20.063,24.495,20.063l-2.2,2.2-2.2,2.2S440.075,113.006,442.168,108.058Z" transform="translate(-415.798 -107.919)" fill="#ff212b"/>
        </g>
        <g id="XMLID_284_">
          <path id="XMLID_287_" d="M415.855,107.8C403.4,120.256,463.43,186.97,463.43,186.97l15.8-15.8,15.8-15.8S428.279,95.354,415.855,107.8Z" transform="translate(-414.155 -106.084)" fill="#eae4c4"/>
          <path id="XMLID_286_" d="M430.92,153.944c2.311,2.664,3.7,4.214,3.7,4.214l15.8-15.8,15.8-15.8s-1.55-1.387-4.214-3.7Z" transform="translate(-385.342 -77.271)" fill="#ff212b"/>
          <path id="XMLID_285_" d="M436.4,111.488c-9.352-4.975-17.073-7.177-20.553-3.7s-1.278,11.228,3.7,20.553Z" transform="translate(-414.151 -106.097)" fill="#ff212b"/>
        </g>
        <g id="XMLID_186_" transform="translate(15.449 15.443)">
          <g id="XMLID_216_" transform="translate(9.44 9.468)">
            <g id="XMLID_222_">
              <ellipse id="XMLID_226_" cx="11.5" cy="11.5" rx="11.5" ry="11.5" fill="#009ca8"/>
              <path id="XMLID_223_" d="M426.88,131.434a8.92,8.92,0,1,1,12.614,0A8.926,8.926,0,0,1,426.88,131.434Z" transform="translate(-421.66 -113.627)" fill="#80dadd"/>
            </g>
            <g id="XMLID_217_" transform="translate(7.558 4.676)">
              <g id="XMLID_220_" transform="translate(0 0)">
                <path id="XMLID_221_" d="M426.8,127.256a.409.409,0,0,1-.3.109.418.418,0,0,1-.408-.408v-9.569a.408.408,0,0,1,.816,0v9.569A.323.323,0,0,1,426.8,127.256Z" transform="translate(-426.09 -116.98)" fill="#fff"/>
              </g>
              <g id="XMLID_218_" transform="translate(3.806)">
                <path id="XMLID_219_" d="M428.2,131.008a.409.409,0,0,1-.3.109.418.418,0,0,1-.408-.408V117.388a.408.408,0,1,1,.816,0v13.321A.409.409,0,0,1,428.2,131.008Z" transform="translate(-427.49 -116.98)" fill="#fff"/>
              </g>
            </g>
          </g>
          <g id="XMLID_200_">
            <g id="XMLID_206_">
              <path id="XMLID_213_" d="M421.611,122.142a6.075,6.075,0,1,1,8.591,0A6.088,6.088,0,0,1,421.611,122.142Z" transform="translate(-419.837 -111.777)" fill="#009ca8"/>
              <ellipse id="XMLID_207_" cx="4.594" cy="4.594" rx="4.594" ry="4.594" transform="translate(1.475 1.475)" fill="#80dadd"/>
            </g>
            <g id="XMLID_201_" transform="translate(3.894 2.59)">
              <g id="XMLID_204_">
                <path id="XMLID_205_" d="M421.6,117.379a.207.207,0,0,1-.136.054.186.186,0,0,1-.19-.19V112.92a.19.19,0,1,1,.381,0v4.323C421.651,117.3,421.651,117.352,421.6,117.379Z" transform="translate(-421.27 -112.73)" fill="#fff"/>
              </g>
              <g id="XMLID_202_" transform="translate(1.713 0.027)">
                <path id="XMLID_203_" d="M422.226,119.074a.208.208,0,0,1-.136.054.186.186,0,0,1-.19-.19V112.93a.19.19,0,1,1,.381,0v6.008C422.281,118.993,422.253,119.02,422.226,119.074Z" transform="translate(-421.9 -112.74)" fill="#fff"/>
              </g>
            </g>
          </g>
          <g id="XMLID_187_" transform="translate(29.775 29.803)">
            <g id="XMLID_193_">
              <ellipse id="XMLID_197_" cx="6.062" cy="6.062" rx="6.062" ry="6.062" fill="#009ca8"/>
              <path id="XMLID_194_" d="M432.681,131.118a4.594,4.594,0,1,1,6.5,0A4.594,4.594,0,0,1,432.681,131.118Z" transform="translate(-429.853 -121.821)" fill="#80dadd"/>
            </g>
            <g id="XMLID_188_" transform="translate(3.915 2.583)">
              <g id="XMLID_191_" transform="translate(0 0)">
                <path id="XMLID_192_" d="M432.556,128.339a.207.207,0,0,1-.136.054.186.186,0,0,1-.19-.19V123.88a.19.19,0,1,1,.381,0V128.2C432.611,128.257,432.583,128.284,432.556,128.339Z" transform="translate(-432.23 -123.69)" fill="#fff"/>
              </g>
              <g id="XMLID_189_" transform="translate(1.713)">
                <path id="XMLID_190_" d="M433.186,130.024a.207.207,0,0,1-.136.054.186.186,0,0,1-.19-.19V123.88a.19.19,0,0,1,.381,0v6.008A.209.209,0,0,1,433.186,130.024Z" transform="translate(-432.86 -123.69)" fill="#fff"/>
              </g>
            </g>
          </g>
        </g>
        <g id="XMLID_178_" transform="translate(55.447 55.413)">
          <path id="XMLID_185_" d="M453.852,126.48l-9.651,9.651-9.651,9.651c9.9,29.742,31.046,30.258,31.046,30.258-4.676-2.963-2.093-4.486-2.093-4.486,8.89,5.274,20.335,4.187,20.335,4.187s1.087-11.445-4.187-20.335c0,0,1.522-2.583,4.486,2.093C484.11,157.526,483.566,136.376,453.852,126.48Z" transform="translate(-434.55 -126.48)" fill="#ff212b"/>
          <path id="XMLID_182_" d="M451.668,126.98l-8.319,8.319-8.319,8.319c11.554,24.522,40.779,24.141,40.779,24.141S476.19,138.534,451.668,126.98Z" transform="translate(-433.725 -125.621)" fill="#d3ab05"/>
          <path id="XMLID_179_" d="M448.606,127.67l-6.443,6.443-6.443,6.443c8.971,19,31.617,18.7,31.617,18.7S467.636,136.614,448.606,127.67Z" transform="translate(-432.539 -124.435)" fill="#fcce00"/>
        </g>
      </g>
    </g>
    <g id="XMLID_162_" transform="translate(856.986 328.047)">
      <g id="XMLID_174_">
        <path id="XMLID_175_" d="M558.359,245.732h0c-5.6-.054-13.892-.489-21.5-3.561-7.53-3.045-13.43-8.4-16.2-14.762a49.154,49.154,0,0,1-1.74-4.975c-.381-1.223-.761-2.474-1.223-3.67-4.051-10.548-14.626-18.7-31.427-24.223-3.153-1.033-6.389-1.985-9.6-2.936-10.358-3.018-21.042-6.144-29.9-12.641a1.362,1.362,0,0,1,1.6-2.2c8.482,6.2,18.949,9.27,29.062,12.207,3.262.952,6.5,1.9,9.705,2.963,17.644,5.791,28.763,14.49,33.112,25.854.489,1.251.87,2.556,1.278,3.86a41.128,41.128,0,0,0,1.631,4.676c2.5,5.682,7.857,10.548,14.735,13.321,7.177,2.909,15.143,3.317,20.5,3.371a1.33,1.33,0,0,1,1.332,1.386A1.358,1.358,0,0,1,558.359,245.732Z" transform="translate(-446.206 -176.506)" fill="#ff212b"/>
      </g>
      <g id="XMLID_163_" transform="translate(106.09 11.407)">
        <g id="XMLID_167_" transform="translate(12.071)">
          <path id="XMLID_171_" d="M527.82,181.023c2.42,2.121-5.057,13.946-15.5,25.8-5.573,6.307-9.542,10.276-12.043,12.614a4.718,4.718,0,0,1-6.362.082h0a4.733,4.733,0,0,1-.707-6.307c1.985-2.773,5.437-7.231,10.983-13.566C514.607,187.792,525.373,178.875,527.82,181.023Z" transform="translate(-485.111 -180.702)" fill="#fcce00"/>
          <path id="XMLID_168_" d="M498.451,198.967h0a4.747,4.747,0,0,0,6.362-.082l-6.878,7.83a4.727,4.727,0,0,1-6.661.435h0a4.727,4.727,0,0,1-.435-6.661l6.878-7.83h.027A4.736,4.736,0,0,0,498.451,198.967Z" transform="translate(-489.67 -160.151)" fill="#d3ab05"/>
        </g>
        <g id="XMLID_164_" transform="translate(0 41.969)">
          <path id="XMLID_166_" d="M491.945,200.734c1.74-3.589,3.833-4.594,5.6-4.594a4.729,4.729,0,0,0,1.359,5h0a4.753,4.753,0,0,0,3.507,1.169c-.027,2.691-1.25,5.927-5.981,8.074-9.406,4.268-11.2-4.948-11.2-4.948S488.112,208.673,491.945,200.734Z" transform="translate(-485.23 -196.14)" fill="#fff"/>
          <path id="XMLID_165_" d="M485.23,200.691s2.066,2.365,5.057-1.821a3.283,3.283,0,0,0,.489.136c.272.027.544,0,.815.054.87.19,1.305,1.142,1.5,2.012a4.273,4.273,0,0,0,.952,2.42c.924.816,2.392.489,3.48,1.033a1.553,1.553,0,0,1,.435.3c-.462.272-.979.544-1.522.816C487.024,209.935,485.23,200.691,485.23,200.691Z" transform="translate(-485.23 -191.448)" fill="#ff212b"/>
        </g>
      </g>
    </g>
  </g>
</svg>
