<svg id="Group_9" data-name="Group 9" xmlns="http://www.w3.org/2000/svg" width="233.834" height="217.437" viewBox="0 0 233.834 217.437">
  <path id="Path_22" data-name="Path 22" d="M339.665,74.524c-5.605-45.518-67.5-59.887-100.928-33.839-21.831,21.345-33.874,60.147-12.46,86.351,18.933,25.822,54.958,29.223,83.3,18.655C337.218,134.011,338.988,100.415,339.665,74.524Z" transform="translate(-152.686 5.121)" fill="gold"/>
  <g id="Group_6" data-name="Group 6">
    <path id="Path_23" data-name="Path 23" d="M238.62,90.17c-12.859,1.2-19.123,22.473-28.963,31.028.139-.174.26-.347.4-.521-3.627,5.015-9.579,9.215-11.436,15.184,1.128,8.312,9.822,3.367,12.286-1.51-.243.33-.5.642-.746.972C214.932,125.085,246.1,98.534,238.62,90.17Z" transform="translate(-164.767 51.01)" fill="#ff941b"/>
    <path id="Path_24" data-name="Path 24" d="M240.8,102.4c-4.408,3.939-3.176,13.605-6.976,19.089h0c-3.488,3.662-1.267,11.818,3.835,6.785C238.511,120.812,245.609,108.023,240.8,102.4Z" transform="translate(-140.121 60.004)" fill="#ff941b"/>
    <path id="Path_25" data-name="Path 25" d="M265.976,135.287c-2.395-4.755-3.176-36.581-10.412-30.021-1.093,15.254-1.319,33.058,4.928,47.548C269.36,164.51,267.469,140.389,265.976,135.287Zm-3.991,8.416c-.625-2.6-.954-5.258-1.336-7.9.607,2.672.972,5.4,1.388,8.121C262.02,143.843,262,143.773,261.985,143.7Z" transform="translate(-123.335 61.459)" fill="#ff941b"/>
    <path id="Path_26" data-name="Path 26" d="M291.542,112.055c-2.933-4.946-5.692-10.291-10.273-13.917.035.017.052.035.087.052-13.553-8.347.1,17.527,4.651,20.39C291.421,123.63,295.5,116.914,291.542,112.055Z" transform="translate(-108.225 55.693)" fill="#ff941b"/>
    <path id="Path_27" data-name="Path 27" d="M197.29,90.791c10.048.4,20.373-8.156,28.755-13.258C230.678,63.217,185.8,84.058,197.29,90.791ZM214.834,76.77h0Z" transform="translate(-167.134 38.103)" fill="#ff941b"/>
    <path id="Path_28" data-name="Path 28" d="M323.138,85.816c-10.933-3.505-21.709-9.614-32.885-11.436C270.158,83.091,338.93,104.054,323.138,85.816Z" transform="translate(-100.116 39.399)" fill="#ff941b"/>
    <path id="Path_29" data-name="Path 29" d="M330.239,48.846c-9.492-4.651-25.891,2.36-36.529,5.553-6.681,5.692,4.113,9.059,8.885,6.716C309.987,56.69,329.545,58.251,330.239,48.846Z" transform="translate(-96.405 19.485)" fill="#ff941b"/>
    <path id="Path_30" data-name="Path 30" d="M283.4,50.956c.85,7.288,9.232-2.2,12.217-3.8l-.017.017c4.72-6.681,47.548-22.559,29.744-29.293A158.551,158.551,0,0,0,283.4,50.956Z" transform="translate(-102.425 -2.148)" fill="#ff941b"/>
    <path id="Path_31" data-name="Path 31" d="M288.236,9.223C281.554,4.035,261.008,50,275.2,44.833,277.06,35.93,294.1,15.158,288.236,9.223Z" transform="translate(-112.05 -8.814)" fill="#ff941b"/>
    <path id="Path_32" data-name="Path 32" d="M258.749,10.867c-9.006-7.236-9.388,26.933-2.1,25.18,2.638-.711,2.291-3.523,1.649-5.588C257.413,24.038,262.255,16.732,258.749,10.867Z" transform="translate(-125.843 -8.046)" fill="#ff941b"/>
    <path id="Path_33" data-name="Path 33" d="M242.8,36.582c-3.627-6.681-7.028-14.178-10.5-21.223.121.3.243.59.364.868-.538-5.865-9.475-10.013-9.024-1.718,2.759,4.286,15.236,29.483,19.54,23.1l.017.017A6.806,6.806,0,0,1,242.8,36.582Zm.035.208v-.052c-.017,0-.017.035,0,.052Z" transform="translate(-146.383 -8.06)" fill="#ff941b"/>
    <path id="Path_34" data-name="Path 34" d="M204.361,34.362c6.612,2.985,20.3,14.733,25.648,6.525a2.833,2.833,0,0,0-2.829-2.846c-7.462-.85-13.223-6.612-19.384-10.447C202.608,23.846,198.478,32.21,204.361,34.362Z" transform="translate(-162.665 4.294)" fill="#ff941b"/>
    <path id="Path_35" data-name="Path 35" d="M213.624,59.417c61.726-2.568-16.937-13.05-32.4-9.735C170.032,64.311,206.614,57.421,213.624,59.417Z" transform="translate(-179.112 20.766)" fill="#ff941b"/>
  </g>
  <path id="Path_36" data-name="Path 36" d="M260.184,65.16c-3.592.486-10.291,4.928-7.479,8.9,3.87,1.8,16.364-8.434,7.479-8.9Z" transform="translate(-125.49 32.619)" fill="#f57696"/>
  <path id="Path_37" data-name="Path 37" d="M277.275,85.448c18.2,1.44,20.061-27.175,1.822-28.1-18.221-1.44-20.078,27.175-1.822,28.1Z" transform="translate(-116.343 26.839)" fill="#f57696"/>
  <path id="Path_38" data-name="Path 38" d="M247.1,99.427c18.2,1.44,20.061-27.175,1.822-28.1-18.2-1.44-20.061,27.193-1.822,28.1Z" transform="translate(-138.523 37.119)" fill="#f57696"/>
  <g id="Group_7" data-name="Group 7" transform="translate(85.791 124.74)" opacity="0.17">
    <path id="Path_39" data-name="Path 39" d="M302.892,81.709a1.627,1.627,0,0,0-.781-.451,1.764,1.764,0,0,0-2.169,1.232c0,.017,0,.017-.017.035-.174.347-.347.712-.5,1.059-.208.4-.434.8-.642,1.2-.486.937-.989,1.874-1.492,2.794-.486.885-1.041,1.718-1.562,2.551-.451.729-.972,1.458-1.492,2.152a.239.239,0,0,0-.052.069c.156-.364.295-.729.451-1.111.33-.816.659-1.631.972-2.447.156-.416.33-.833.469-1.267a7.24,7.24,0,0,0,.607-2.464,1.6,1.6,0,0,0-.729-1.336,1.466,1.466,0,0,0-1.77.191c-.3.3-.573.625-.833.937-.573.712-1.111,1.44-1.649,2.187-.33.451-.642.9-.954,1.371.278-.625.538-1.249.816-1.874l.729-1.718a6.5,6.5,0,0,0,.642-2.117,1.156,1.156,0,0,0-.85-1.128,1.172,1.172,0,0,0-.9.121,1.109,1.109,0,0,0-.416.434l-.017-.017c-.1.191-.191.382-.3.573-.364.659-.781,1.284-1.18,1.909-.486.746-.954,1.51-1.458,2.273-1.006,1.562-2.013,3.124-3.037,4.685-.017.035-.035.052-.052.087.868-1.614,1.787-3.193,2.6-4.842l.833-1.718c.139-.295.278-.573.416-.85.174-.347.312-.712.451-1.076a1.948,1.948,0,0,0,.139-.451,1.558,1.558,0,0,0-.017-.694,1.064,1.064,0,0,0-1.544-.642,3.839,3.839,0,0,0-1.059,1.18c-.26.347-.5.694-.746,1.059-.486.746-.954,1.492-1.44,2.239a2.439,2.439,0,0,1-.174.278c.191-.434.364-.85.555-1.284.243-.555.469-1.111.677-1.683a2.279,2.279,0,0,0,.035-1.874,1.217,1.217,0,0,0-.677-.538.923.923,0,0,0-.364-.035,1.492,1.492,0,0,0-.521.156,2.986,2.986,0,0,0-.954.85c-.347.416-.659.833-.989,1.267-.521.677-1.006,1.371-1.475,2.065-1.024,1.544-2.03,3.106-3.072,4.633-1.059,1.562-2.117,3.124-3.21,4.668-.833,1.18-1.718,2.343-2.6,3.505.659-1.041,1.319-2.1,1.944-3.176.954-1.649,1.857-3.315,2.777-5,.5-.954,1.024-1.909,1.544-2.846.243-.451.469-.885.729-1.319.139-.243.26-.486.4-.711.156-.3.312-.59.451-.885a2.97,2.97,0,0,0,.243-.85,1.119,1.119,0,0,0-1.683-.972,5.034,5.034,0,0,0-1.076,1.111c-.33.416-.642.85-.954,1.284-.486.677-.937,1.388-1.388,2.1-1.006,1.562-1.978,3.141-2.985,4.72-1.041,1.649-2.134,3.28-3.245,4.876-.989,1.44-1.961,2.881-2.985,4.286-.226.3-.434.59-.659.885a3.81,3.81,0,0,0-.243.312c.434-.816.885-1.631,1.319-2.429.868-1.614,1.718-3.228,2.516-4.876.816-1.683,1.614-3.367,2.412-5.05.434-.92.868-1.822,1.3-2.725.208-.416.4-.85.607-1.267.121-.243.226-.5.347-.764a2.962,2.962,0,0,0,.434-1.354,1.186,1.186,0,0,0-.33-.816,1.144,1.144,0,0,0-1.111-.3,2.483,2.483,0,0,0-1.215.972,15.118,15.118,0,0,0-.9,1.249c-.538.781-1.041,1.562-1.527,2.343-.538.833-1.007,1.718-1.492,2.568-.417.729-.833,1.44-1.267,2.152-.954,1.6-1.909,3.176-2.95,4.72-.33.486-.642.972-.972,1.458.33-.59.659-1.18.989-1.787.9-1.683,1.77-3.4,2.62-5.119.382-.8.729-1.631,1.076-2.429.191-.416.347-.868.521-1.284.087-.226.156-.434.243-.659a2.845,2.845,0,0,0,.26-1.562,1.407,1.407,0,0,0-.972-1.041,1.621,1.621,0,0,0-1.475.434,7.731,7.731,0,0,0-.954,1.163c-.521.729-1.007,1.51-1.475,2.273-.9,1.458-1.7,2.95-2.551,4.425-.937,1.614-1.909,3.176-2.95,4.7-.642.92-1.267,1.839-1.926,2.742-.122.174-.243.347-.382.521.035-.052.087-.121.122-.174,2.013-2.985,3.974-6,5.761-9.128.174-.3.33-.59.486-.885.087-.174.174-.364.26-.555a2.078,2.078,0,0,0,.208-.729,1.39,1.39,0,0,0-2.048-1.336,5.546,5.546,0,0,0-1.319,1.232c-.33.364-.677.729-.989,1.093-.781.937-1.527,1.891-2.291,2.863-.659.85-1.267,1.753-1.909,2.62-.677.92-1.371,1.822-2.082,2.724a.871.871,0,0,1,.121-.139c-.8,1.007-1.579,2.013-2.36,3.037q.625-.963,1.2-1.978a15.911,15.911,0,0,0,1.249-2.707,1.713,1.713,0,0,0-.052-1.371,1.272,1.272,0,0,0-1.423-.59A2.887,2.887,0,0,0,248.263,95c-1.163,1.423-2.239,2.9-3.349,4.356-.538.677-1.076,1.371-1.614,2.048-.26.33-.521.659-.8.989.035-.087.087-.174.121-.26.555-1.18,1.145-2.325,1.666-3.505a7.1,7.1,0,0,0,.538-1.544,1.346,1.346,0,0,0-.833-1.649,1.274,1.274,0,0,0-1.458.677c-.3.486-.573.972-.885,1.44-.312.486-.659.937-1.024,1.406a22.629,22.629,0,0,1-1.614,1.8,25.531,25.531,0,0,1-2.1,1.753.9.9,0,0,0-.017,1.267.917.917,0,0,0,1.267,0c.416-.312.833-.642,1.215-.989a10.1,10.1,0,0,0-.659,1.475,3.485,3.485,0,0,0-.156.712,1.535,1.535,0,0,0,.364,1.18,1.44,1.44,0,0,0,1.076.5,2.95,2.95,0,0,0,.781-.139,6.381,6.381,0,0,0,.85-.4,6.166,6.166,0,0,0,1.232-.989,5.973,5.973,0,0,0,.451-.486c-.069.121-.121.243-.191.364a7.039,7.039,0,0,0-.469,1.128,1.464,1.464,0,0,0-.052.9,1.147,1.147,0,0,0,1.076.9,1.8,1.8,0,0,0,.607-.121,4.677,4.677,0,0,0,.659-.33,7.345,7.345,0,0,0,.729-.555c.33-.278.642-.573.954-.885,1.284-1.354,2.464-2.811,3.627-4.252.434-.538.885-1.076,1.319-1.614-.434.677-.868,1.371-1.284,2.065-.954,1.6-1.944,3.176-2.811,4.842a7.717,7.717,0,0,0-.521,1.232,1.74,1.74,0,0,0-.121.937,1.018,1.018,0,0,0,.972.8,2.111,2.111,0,0,0,1.232-.59,8.6,8.6,0,0,0,1.024-.92c.312-.347.642-.712.937-1.076,1.2-1.423,2.36-2.846,3.505-4.321,1.562-2,3.158-3.974,4.651-6.022-.174.3-.347.607-.521.9-.885,1.527-1.787,3.037-2.638,4.581a52.384,52.384,0,0,0-2.377,4.98c-.156.382-.312.781-.469,1.18-.052.156-.121.33-.174.486a3.774,3.774,0,0,0-.121.416,1.3,1.3,0,0,0,.121.885,1.088,1.088,0,0,0,1.683.226,9.511,9.511,0,0,0,.954-1.249c.3-.416.59-.85.885-1.267.486-.694.972-1.388,1.475-2.082,1.093-1.475,2.239-2.915,3.315-4.408.312-.434.625-.868.937-1.284-.451.816-.9,1.631-1.336,2.447-.469.885-.92,1.753-1.388,2.62-.226.434-.451.85-.659,1.267a6.673,6.673,0,0,0-.33.816,2.09,2.09,0,0,0-.1.573,1.613,1.613,0,0,0,.191.85,1.175,1.175,0,0,0,1.041.607,1.554,1.554,0,0,0,.729-.174c.121-.069.226-.139.33-.208l-.052.052a1.329,1.329,0,0,1,.191-.139l.052-.052-.017.017a9.685,9.685,0,0,0,.989-.9c.173-.174.312-.347.486-.538.312-.364.625-.746.937-1.111.521-.625,1.024-1.267,1.527-1.892l-.052.1c-.243.469-.486.92-.729,1.388a7.907,7.907,0,0,0-.677,1.458,1.2,1.2,0,0,0,.538,1.336c.017.017.017.017.035.017a1.151,1.151,0,0,0,1.18,0,6.935,6.935,0,0,0,1.128-1.128l.989-1.145c.607-.712,1.18-1.458,1.77-2.2,1.128-1.44,2.291-2.846,3.419-4.286q3.436-4.347,6.612-8.9a3.513,3.513,0,0,1,.226-.312c0,.017-.017.017-.017.035-.382.729-.746,1.475-1.163,2.187q-1.458,2.473-3.019,4.894c-1.007,1.544-2.1,3.037-3.176,4.547-.538.781-1.076,1.562-1.6,2.36-.226.347-.451.712-.642,1.076a6.024,6.024,0,0,0-.347.764c-.052.121-.087.243-.139.364a1.9,1.9,0,0,0-.017.937,1.187,1.187,0,0,0,.833.833,1.329,1.329,0,0,0,.781.035,2.931,2.931,0,0,0,.625-.3,8.167,8.167,0,0,0,1.215-1.111q.625-.677,1.2-1.406c.035-.035.052-.087.087-.121a1.409,1.409,0,0,0,.382.659,1.291,1.291,0,0,0,1.683.069,7,7,0,0,0,1.18-1.2l.746-.85a.589.589,0,0,0-.017.174,2.468,2.468,0,0,0,.052.711,1.582,1.582,0,0,0,.469.764,1.808,1.808,0,0,0,1.683.434,3.862,3.862,0,0,0,1.579-1.111c.382-.382.746-.8,1.093-1.2v.052a1.669,1.669,0,0,0,.5,1.18,1.457,1.457,0,0,0,1.475.4,4.1,4.1,0,0,0,1.857-1.492c.278-.312.538-.625.816-.937.607-.694,1.215-1.371,1.8-2.082.4-.469.816-.954,1.215-1.423a1.91,1.91,0,0,0,3.176.85c.555-.625,1.111-1.232,1.631-1.874.642-.8,1.267-1.614,1.857-2.429a28.263,28.263,0,0,0,2.516-4.165c.729-1.544,1.423-3.089,2.117-4.633.347-.8.694-1.614,1.041-2.429.191-.434.364-.868.538-1.3C303.517,83.462,303.655,82.334,302.892,81.709Zm-50.6,21.206h0a.017.017,0,0,1,.017-.017A.017.017,0,0,0,252.289,102.915Zm2.6,7.219a.518.518,0,0,1-.069.139.349.349,0,0,0,.069-.139Zm.156-.382c.017-.017.017-.052.035-.069s.017-.052.035-.069A1.009,1.009,0,0,0,255.049,109.753Zm15.7-10.9c-.017.017-.035.035-.035.052.017-.017.035-.052.052-.069A.017.017,0,0,0,270.753,98.855Zm5.414,7.219-.052.1.052-.1ZM293.5,85.857c0,.017-.017.017-.017.035-.017.052-.052.1-.07.156l.1-.26A.13.13,0,0,1,293.5,85.857Zm6.386-3.262c0,.017-.017.035-.035.052.017-.017.035-.035.035-.052Zm2.69,1.77h0c.052-.052.087-.121.139-.174C302.666,84.243,302.632,84.312,302.58,84.364Z" transform="translate(-222.598 -80.696)" fill="#a61fb9"/>
    <path id="Path_40" data-name="Path 40" d="M240.281,91.348a3.434,3.434,0,0,0,.607-.954,1.051,1.051,0,0,0,.069-.416,1.351,1.351,0,0,0-.364-.9,1.461,1.461,0,0,0-.9-.382.836.836,0,0,0-.208,0,2.032,2.032,0,0,0-1.163.694,6.729,6.729,0,0,0-.677.729c-.434.486-.868.989-1.3,1.475-.469.5-.92,1.024-1.388,1.51-.538.59-1.093,1.2-1.579,1.839a1.342,1.342,0,0,0,.208,1.649,1.325,1.325,0,0,0,.954.4,1.476,1.476,0,0,0,.972-.4,25.323,25.323,0,0,0,2.777-2.846c.4-.451.781-.92,1.163-1.388C239.743,92.025,240.021,91.7,240.281,91.348Z" transform="translate(-225.149 -74.821)" fill="#a61fb9"/>
    <path id="Path_41" data-name="Path 41" d="M237.313,88.67a1.23,1.23,0,0,0-.989-.347,1.153,1.153,0,0,0-.746.347c-.607.642-1.215,1.3-1.839,1.926-.66.659-1.354,1.3-1.944,2.013a1.267,1.267,0,0,0-.364.868,1.166,1.166,0,0,0,.364.868,1.268,1.268,0,0,0,1.753.017c1.232-1.336,2.516-2.638,3.766-3.974A1.259,1.259,0,0,0,237.313,88.67Z" transform="translate(-226.432 -75.092)" fill="#a61fb9"/>
    <path id="Path_42" data-name="Path 42" d="M234.319,88.009a.977.977,0,0,0-.764-.278.837.837,0,0,0-.555.26c-.85.9-1.631,1.839-2.447,2.759a.948.948,0,0,0,0,1.319.932.932,0,0,0,1.319,0c.833-.9,1.614-1.857,2.447-2.742A.948.948,0,0,0,234.319,88.009Z" transform="translate(-227.273 -75.525)" fill="#a61fb9"/>
    <path id="Path_43" data-name="Path 43" d="M232.16,87.429a1.4,1.4,0,0,0-1.128-.416,1.69,1.69,0,0,0-.92.4,10.235,10.235,0,0,0-1.354,1.388,1.766,1.766,0,0,0-.208.729,1.5,1.5,0,0,0,.417,1.024,1.451,1.451,0,0,0,2.048,0,9.614,9.614,0,0,1,1.128-1.093A1.43,1.43,0,0,0,232.16,87.429Z" transform="translate(-228.55 -76.055)" fill="#a61fb9"/>
  </g>
  <g id="Group_8" data-name="Group 8" transform="translate(0.518 1.867)">
    <path id="Path_44" data-name="Path 44" d="M216.21,56.937v0Z" transform="translate(-152.351 24.693)" fill="#472954"/>
    <path id="Path_45" data-name="Path 45" d="M343.2,100.977c2.794-17.822-2.551-37.136-13.362-51.47l.035.035c-13.744-18.9-37.431-25.579-59.9-23.427-5.119.729-19.21,2.672-18.412,9.163h-.017a.459.459,0,0,1,.1.087l-.017-.017C308.706,7.893,364.861,73.888,328,126.1c-29.362,47.063-110.871,28.321-110.75-29.431a.339.339,0,0,0,.017.121c-.017-.087-.017-.174-.035-.26,0,.035.017.052.017.087a63.123,63.123,0,0,1-.069-16.677.064.064,0,0,1-.017.052c.017-.087.017-.156.035-.243v.017c2.082-14.75,9.909-28.13,20.685-38.247-.017-.017-.017-.035-.035-.052q1.171-1.093,2.395-2.082c-.017.017-.035.017-.052.035,2.638-5.692-7.861,5.241-8.625,6.629-21.1,22.178-20.512,56.694-7.41,82.845C254.875,178.755,334.771,157.376,343.2,100.977ZM260.237,28.11Zm-1.978.833c-.035.017-.052.017-.087.035C258.207,28.977,258.225,28.96,258.259,28.943Zm-18.464,9.8Zm-.382,1.024h0c-.017.017-.052.035-.069.052C239.361,39.806,239.4,39.789,239.413,39.771Z" transform="translate(-153.307 1.756)" fill="#472954"/>
    <path id="Path_46" data-name="Path 46" d="M216.21,56.925V56.89C216.227,56.89,216.21,56.907,216.21,56.925Z" transform="translate(-152.351 24.671)" fill="#472954"/>
    <path id="Path_47" data-name="Path 47" d="M235.314,98.071c-.139-.069-.3-.121-.434-.191C235.036,97.949,235.175,98,235.314,98.071Z" transform="translate(-138.622 54.813)" fill="#472954"/>
    <path id="Path_48" data-name="Path 48" d="M216.22,56.88Z" transform="translate(-152.344 24.664)" fill="#472954"/>
    <path id="Path_49" data-name="Path 49" d="M216.22,56.9v0Z" transform="translate(-152.344 24.642)" fill="#472954"/>
    <path id="Path_50" data-name="Path 50" d="M216.22,56.9Z" transform="translate(-152.344 24.666)" fill="#472954"/>
    <path id="Path_51" data-name="Path 51" d="M216.21,56.91Z" transform="translate(-152.351 24.686)" fill="#472954"/>
    <path id="Path_52" data-name="Path 52" d="M216.21,56.972v0Z" transform="translate(-152.351 24.693)" fill="#472954"/>
    <path id="Path_53" data-name="Path 53" d="M238.345,67.829c2.2,4.616,7.809.521,5.206-3.436C241.555,60.54,236.314,64.5,238.345,67.829Z" transform="translate(-136.412 29.021)" fill="#472954"/>
    <path id="Path_54" data-name="Path 54" d="M262.707,60.03c4.547,2.568,6.612-4.894,2.447-6.577C261.3,52.291,259.254,58.226,262.707,60.03Z" transform="translate(-119.456 22.034)" fill="#472954"/>
    <path id="Path_55" data-name="Path 55" d="M247.69,70.624c1.6,6.525,10.915,8.954,16,4.529l-.174.087a10.214,10.214,0,0,0,2.725-14.421c-1.926-.434-4.147.451-6.022,1.059h.035c-.1.035-.191.069-.295.1.035-.017.069-.017.1-.035-4.616,1.857-9.249,4.72-12.338,8.607.017-.017.017-.035.035-.035C247.742,70.554,247.707,70.589,247.69,70.624ZM266,70.1a10.422,10.422,0,0,1-5.831,5.275l.174-.069-.3.121h0a9.34,9.34,0,0,1-2.655.677h-.555a7.868,7.868,0,0,1,5.05-6.49h0a10.009,10.009,0,0,1,4.425-.5A5.088,5.088,0,0,1,266,70.1Z" transform="translate(-129.202 27.475)" fill="#472954"/>
    <path id="Path_56" data-name="Path 56" d="M254.328,32.519c2.013-4.286.59-11.419,1.458-16.625-.33-1.753,1.284-5.328-.781-6C253.478,15.964,252.784,26.445,254.328,32.519Z" transform="translate(-124.96 -9.89)" fill="#472954"/>
    <path id="Path_57" data-name="Path 57" d="M272.086,40.214c5.414-7.566,8.659-19.488,14.855-27.835C286.3,1.811,268.563,38.5,272.086,40.214Z" transform="translate(-111.603 -9.463)" fill="#472954"/>
    <path id="Path_58" data-name="Path 58" d="M285.06,49.991c2.221-1.076,4.009-3.072,6.126-4.39a1.054,1.054,0,0,0-.174.121c1.076-.781,2.152-1.544,3.228-2.325a.017.017,0,0,0-.017.017c5.553-3.974,11.054-8.035,16.555-12.078l-.208.156c2.256-3.019,19.609-9.44,15.41-12.182C312.478,27.6,293.494,39.162,285.06,49.991Z" transform="translate(-101.723 -2.963)" fill="#472954"/>
    <path id="Path_59" data-name="Path 59" d="M324.733,48.2c-7.462-1.319-52.112,14.473-19.193,6.959C310.156,52.785,324.126,53.062,324.733,48.2Z" transform="translate(-95.461 18.226)" fill="#472954"/>
    <path id="Path_60" data-name="Path 60" d="M226.564,14.248c8.711,22.091,19.314,35.783,3.419,2.325.017.035.035.087.052.121-.278-.764-.573-1.527-.868-2.291a.061.061,0,0,0,.017.035c-.174-.451-.347-.92-.521-1.388,0,.017.017.017.017.035C227.57,8.278,223.892,10.413,226.564,14.248Z" transform="translate(-145.438 -9.58)" fill="#472954"/>
    <path id="Path_61" data-name="Path 61" d="M209.813,32.634c2,2.065,22.212,10.933,12.547,4.894l.1.052C218.941,35.6,194.525,21.944,209.813,32.634Z" transform="translate(-160.722 3.86)" fill="#472954"/>
    <path id="Path_62" data-name="Path 62" d="M216.164,54.231c44.286.521-25.405-2.429-36.65-4.061C177.344,55.949,210.316,52.842,216.164,54.231Z" transform="translate(-179.411 19.73)" fill="#472954"/>
    <path id="Path_63" data-name="Path 63" d="M223.664,75.039c2.152-5.05-28.408,9.041-26.828,11.575,8.191.382,16.972-8.035,25.215-10.759l-.26.1C222.4,75.647,223.23,75.629,223.664,75.039Z" transform="translate(-166.642 37.22)" fill="#472954"/>
    <path id="Path_64" data-name="Path 64" d="M234.589,92.43c-1.215.59-1.874,2.082-2.863,3.019l.035-.035c-4.113,5.067-7.7,10.534-11.922,15.549h0c-1.614,3.627-25.232,23.375-18.776,23.045l-.017.017C212,121.254,229.383,106.5,234.589,92.43Z" transform="translate(-164.31 50.805)" fill="#472954"/>
    <path id="Path_65" data-name="Path 65" d="M241.5,102.48c-5.327,4.408-4.408,15.583-8.121,22.056C235.324,134.445,243.792,102.844,241.5,102.48Z" transform="translate(-139.725 58.196)" fill="#472954"/>
    <path id="Path_66" data-name="Path 66" d="M263.509,148.613c-1.2-10.672-4.113-21.084-4.963-31.809,0,.069.017.139.017.226-4.026-32.954-.52,19.228,2.169,27.158,0-.1-.017-.208-.017-.295C260.143,147.762,263.839,158.556,263.509,148.613Z" transform="translate(-122.549 60.947)" fill="#472954"/>
    <path id="Path_67" data-name="Path 67" d="M289.768,111.813c-1.18-1.874-17.232-20.39-12.789-12.165C278.575,101.817,295.633,125.244,289.768,111.813Z" transform="translate(-108.235 54.572)" fill="#472954"/>
    <path id="Path_68" data-name="Path 68" d="M317.741,85.97c-3.349-.295-32.833-13.466-28.876-7.306C292.231,81.129,336.638,96.469,317.741,85.97Z" transform="translate(-99.193 39.478)" fill="#472954"/>
  </g>
</svg>
