<svg xmlns="http://www.w3.org/2000/svg" width="674" height="646.2" viewBox="0 0 674 646.2">
  <g id="OBJECTS" transform="translate(-137.297 -29.276)">
    <g id="Group_1104" data-name="Group 1104" transform="translate(137.297 29.276)">
      <g id="Group_1065" data-name="Group 1065" transform="translate(32.062 531.898)">
        <g id="Group_1060" data-name="Group 1060">
          <g id="Group_1057" data-name="Group 1057" transform="translate(0 16.549)">
            <path id="Path_1743" data-name="Path 1743" d="M189.16,495.939l16.007-2.92A54.85,54.85,0,0,1,209.3,480.2c2.963-6.731,6.529-13.318,7.939-20.538.518-2.675.7-5.623-.7-7.953-1.668-2.776-5.307-3.955-8.471-3.308a13.324,13.324,0,0,0-7.766,5.422c-1.913,2.6-3.466,7-4.689,10a72.4,72.4,0,0,0-5.9-44.513,20.356,20.356,0,0,0-4.056-6.1,7.7,7.7,0,0,0-12.7,1.712,20.559,20.559,0,0,0-2.359,7.249,71.714,71.714,0,0,0,9.176,49.417c-2.92-1.913-4.6-5.163-6.817-7.853s-5.667-5.019-8.989-3.984c-3.178.992-4.775,4.818-4.286,8.112s2.56,6.127,4.717,8.658A78.637,78.637,0,0,0,189.16,495.939Z" transform="translate(-159.59 -410.612)" fill="#006064"/>
            <path id="Path_1744" data-name="Path 1744" d="M196.385,489.86a141.661,141.661,0,0,1-21.933-68.7c-.115-2.2-3.567-2.416-3.452-.2a145.481,145.481,0,0,0,21.76,69.552Z" transform="translate(-154.59 -406.762)" fill="#004d40"/>
            <path id="Path_1745" data-name="Path 1745" d="M194.294,476.8l5.465-.992a1.767,1.767,0,0,0-.863-.734,82.4,82.4,0,0,1-31.627-23.17c-1.438-1.7-4,.633-2.56,2.344A86.181,86.181,0,0,0,194.294,476.8Z" transform="translate(-157.532 -392.777)" fill="#004d40"/>
            <path id="Path_1746" data-name="Path 1746" d="M189.639,479.4a81.694,81.694,0,0,1,9.061-33.352c1.021-1.956-1.884-3.854-2.92-1.87a85.842,85.842,0,0,0-9.65,35.855Z" transform="translate(-147.959 -396.272)" fill="#004d40"/>
          </g>
          <g id="Group_1058" data-name="Group 1058" transform="translate(94.533 40.309)">
            <path id="Path_1747" data-name="Path 1747" d="M225.651,482.357l12.239,4.171a63.014,63.014,0,0,1,9.881-.489c7.349.129,14.8.863,22-.618,2.675-.547,5.451-1.525,7.062-3.725,1.913-2.6,1.6-6.429-.23-9.09a13.252,13.252,0,0,0-8.011-5.063c-3.15-.762-7.8-.489-11.031-.46a72.42,72.42,0,0,0,38.76-22.666,20.537,20.537,0,0,0,4.056-6.1,7.706,7.706,0,0,0-6.486-11.046,20.563,20.563,0,0,0-7.594.633,71.758,71.758,0,0,0-42.025,27.585c.633-3.423,2.977-6.242,4.6-9.32s2.445-7.177.187-9.837c-2.143-2.546-6.3-2.531-9.147-.805s-4.66,4.732-6.156,7.709a79.057,79.057,0,0,0-8.428,32.633A48.156,48.156,0,0,0,225.651,482.357Z" transform="translate(-225.318 -427.133)" fill="#006064"/>
            <path id="Path_1748" data-name="Path 1748" d="M230.921,482.476a141.549,141.549,0,0,1,55.213-47.318c2-.964.849-4.228-1.151-3.265a145.7,145.7,0,0,0-57.414,49.432Z" transform="translate(-224.332 -425.123)" fill="#004d40"/>
            <path id="Path_1749" data-name="Path 1749" d="M228.165,478.878l2.848.978a1.724,1.724,0,0,0,.59-1.338,82.5,82.5,0,0,1,9.118-38.127c1.007-1.985-2.129-3.437-3.15-1.453a86.122,86.122,0,0,0-9.42,39.868A.622.622,0,0,1,228.165,478.878Z" transform="translate(-224.078 -422.374)" fill="#004d40"/>
            <path id="Path_1750" data-name="Path 1750" d="M228.017,468.744l2.1.719a81.635,81.635,0,0,1,35.28-4.9c2.2.187,2.819-3.222.59-3.409a85.558,85.558,0,0,0-37.106,5.091A1.681,1.681,0,0,0,228.017,468.744Z" transform="translate(-224.247 -412.355)" fill="#004d40"/>
          </g>
          <g id="Group_1059" data-name="Group 1059" transform="translate(38.772)">
            <path id="Path_1751" data-name="Path 1751" d="M200.775,497.846l30.907.834c1.107-.906,2.229-1.769,3.351-2.632,7.493-5.652,15.562-10.744,21.645-17.891,2.244-2.646,4.286-5.811,4.171-9.291-.129-4.128-3.437-7.709-7.364-8.974s-8.27-.5-12.038,1.194-8.227,5.623-11.448,8.2a92.344,92.344,0,0,0,21.185-53.214,26.265,26.265,0,0,0-.7-9.305,10.869,10.869,0,0,0-5.81-6.99c-3.006-1.266-6.544-.618-9.392.978a26.4,26.4,0,0,0-7.148,6.587,91.485,91.485,0,0,0-20.6,60.707c-2.042-3.941-1.9-8.615-2.689-12.987s-3.178-9.118-7.522-10.039c-4.156-.877-8.327,2.387-9.823,6.357s-.964,8.414-.144,12.584A100.815,100.815,0,0,0,200.775,497.846Z" transform="translate(-186.548 -399.105)" fill="#00838f"/>
            <path id="Path_1752" data-name="Path 1752" d="M209.441,494.2a180.463,180.463,0,0,1,18.7-82.252c1.251-2.531-2.459-4.919-3.725-2.373a185.733,185.733,0,0,0-19.33,84.51Z" transform="translate(-178.43 -394.996)" fill="#004d40"/>
            <path id="Path_1753" data-name="Path 1753" d="M205.713,480.139l5.321.144a105.558,105.558,0,0,1-15.82-38.688c-.532-2.79-4.832-1.783-4.3,1.007A109.212,109.212,0,0,0,205.713,480.139Z" transform="translate(-184.655 -381.211)" fill="#004d40"/>
            <path id="Path_1754" data-name="Path 1754" d="M213.553,476.727A103.667,103.667,0,0,1,239.1,452.938c2.359-1.553.3-5.465-2.085-3.9a109.572,109.572,0,0,0-28.851,27.542Z" transform="translate(-177.077 -377.382)" fill="#004d40"/>
          </g>
        </g>
        <g id="Group_1064" data-name="Group 1064" transform="translate(450.653)">
          <g id="Group_1061" data-name="Group 1061" transform="translate(0 16.549)">
            <path id="Path_1755" data-name="Path 1755" d="M502.514,495.939l15.993-2.92a54.852,54.852,0,0,1,4.128-12.815c2.963-6.731,6.529-13.318,7.939-20.538.518-2.675.7-5.623-.7-7.953-1.668-2.776-5.307-3.955-8.471-3.308a13.324,13.324,0,0,0-7.766,5.422c-1.913,2.6-3.466,7-4.689,10a72.4,72.4,0,0,0-5.9-44.513,20.356,20.356,0,0,0-4.056-6.1,7.7,7.7,0,0,0-12.7,1.712,20.854,20.854,0,0,0-2.359,7.249,71.714,71.714,0,0,0,9.176,49.417c-2.92-1.913-4.6-5.163-6.817-7.853s-5.667-5.019-8.989-3.984c-3.178.992-4.775,4.818-4.286,8.112s2.56,6.127,4.717,8.658A78.855,78.855,0,0,0,502.514,495.939Z" transform="translate(-472.93 -410.612)" fill="#006064"/>
            <path id="Path_1756" data-name="Path 1756" d="M509.735,489.86a141.661,141.661,0,0,1-21.933-68.7c-.115-2.2-3.567-2.416-3.452-.2a145.481,145.481,0,0,0,21.76,69.552Z" transform="translate(-467.926 -406.762)" fill="#004d40"/>
            <path id="Path_1757" data-name="Path 1757" d="M507.644,476.8l5.465-.992a1.766,1.766,0,0,0-.863-.734,82.4,82.4,0,0,1-31.626-23.17c-1.438-1.7-4,.633-2.56,2.344A86.181,86.181,0,0,0,507.644,476.8Z" transform="translate(-470.868 -392.777)" fill="#004d40"/>
            <path id="Path_1758" data-name="Path 1758" d="M502.989,479.4a81.694,81.694,0,0,1,9.061-33.352c1.021-1.956-1.884-3.854-2.92-1.87a85.841,85.841,0,0,0-9.65,35.855Z" transform="translate(-461.295 -396.272)" fill="#004d40"/>
          </g>
          <g id="Group_1062" data-name="Group 1062" transform="translate(94.546 40.309)">
            <path id="Path_1759" data-name="Path 1759" d="M539,482.357l12.239,4.171a63.014,63.014,0,0,1,9.881-.489c7.349.129,14.8.863,22-.618,2.675-.547,5.451-1.525,7.062-3.725,1.913-2.6,1.6-6.429-.23-9.09a13.358,13.358,0,0,0-8.011-5.063c-3.15-.762-7.8-.489-11.031-.46a72.42,72.42,0,0,0,38.76-22.666,20.536,20.536,0,0,0,4.056-6.1,7.706,7.706,0,0,0-6.486-11.046,20.563,20.563,0,0,0-7.594.633,71.758,71.758,0,0,0-42.025,27.585c.633-3.423,2.977-6.242,4.6-9.32s2.445-7.177.187-9.837c-2.143-2.546-6.3-2.531-9.147-.805s-4.66,4.732-6.156,7.709a79.056,79.056,0,0,0-8.428,32.633A45.884,45.884,0,0,0,539,482.357Z" transform="translate(-538.668 -427.133)" fill="#006064"/>
            <path id="Path_1760" data-name="Path 1760" d="M544.271,482.476a141.549,141.549,0,0,1,55.214-47.318c2-.964.849-4.228-1.151-3.265a145.7,145.7,0,0,0-57.414,49.432Z" transform="translate(-537.681 -425.123)" fill="#004d40"/>
            <path id="Path_1761" data-name="Path 1761" d="M541.515,478.878l2.848.978a1.724,1.724,0,0,0,.59-1.338,82.5,82.5,0,0,1,9.118-38.127c1.007-1.985-2.129-3.437-3.15-1.453a86.121,86.121,0,0,0-9.42,39.868A.623.623,0,0,1,541.515,478.878Z" transform="translate(-537.427 -422.374)" fill="#004d40"/>
            <path id="Path_1762" data-name="Path 1762" d="M541.367,468.744l2.1.719a81.635,81.635,0,0,1,35.28-4.9c2.2.187,2.819-3.222.59-3.409a85.558,85.558,0,0,0-37.106,5.091A1.681,1.681,0,0,0,541.367,468.744Z" transform="translate(-537.596 -412.355)" fill="#004d40"/>
          </g>
          <g id="Group_1063" data-name="Group 1063" transform="translate(38.801)">
            <path id="Path_1763" data-name="Path 1763" d="M514.12,497.846l30.907.834c1.108-.906,2.229-1.769,3.351-2.632,7.493-5.652,15.562-10.744,21.645-17.891,2.244-2.646,4.286-5.811,4.171-9.291-.13-4.128-3.437-7.709-7.364-8.974s-8.27-.5-12.024,1.194-8.227,5.623-11.448,8.2a92.345,92.345,0,0,0,21.185-53.214,26.262,26.262,0,0,0-.7-9.305,10.869,10.869,0,0,0-5.81-6.99c-3.006-1.266-6.544-.618-9.392.978a26.612,26.612,0,0,0-7.148,6.587,91.485,91.485,0,0,0-20.6,60.707c-2.042-3.941-1.9-8.615-2.69-12.987s-3.178-9.118-7.522-10.039c-4.156-.877-8.327,2.387-9.823,6.357s-.964,8.414-.144,12.584A100.486,100.486,0,0,0,514.12,497.846Z" transform="translate(-499.908 -399.105)" fill="#00838f"/>
            <path id="Path_1764" data-name="Path 1764" d="M522.791,494.2a180.464,180.464,0,0,1,18.7-82.252c1.251-2.531-2.459-4.919-3.725-2.373a185.735,185.735,0,0,0-19.33,84.51Z" transform="translate(-491.795 -394.996)" fill="#004d40"/>
            <path id="Path_1765" data-name="Path 1765" d="M519.063,480.139l5.321.144a105.558,105.558,0,0,1-15.82-38.688c-.532-2.79-4.832-1.783-4.3,1.007A109.213,109.213,0,0,0,519.063,480.139Z" transform="translate(-498.019 -381.211)" fill="#004d40"/>
            <path id="Path_1766" data-name="Path 1766" d="M526.9,476.727a103.667,103.667,0,0,1,25.543-23.788c2.359-1.553.3-5.465-2.086-3.9a109.571,109.571,0,0,0-28.851,27.542Z" transform="translate(-490.442 -377.382)" fill="#004d40"/>
          </g>
        </g>
      </g>
      <g id="Group_1067" data-name="Group 1067" transform="translate(9.75 417.911)">
        <path id="Path_1767" data-name="Path 1767" d="M152,378.68l132.072,27.585s111.319,23.616,185.042,93.413H418.388Z" transform="translate(-140.604 -294.069)" fill="#a40057"/>
        <path id="Path_1768" data-name="Path 1768" d="M694.264,378.68,562.192,406.265S450.873,429.881,377.15,499.678h50.726Z" transform="translate(-41.937 -294.069)" fill="#a40057"/>
        <ellipse id="Ellipse_84" data-name="Ellipse 84" cx="323.917" cy="12.498" rx="323.917" ry="12.498" transform="translate(16.416 203.293)" fill="#1b2c4f"/>
        <g id="Group_1066" data-name="Group 1066" transform="translate(7.556)">
          <path id="Path_1769" data-name="Path 1769" d="M467.457,520.856c-41.536-87.444-120.149-155.443-214.9-185.89a374.916,374.916,0,0,0-69.351-15.116q-7.27,6.623-13.936,13.706c95.973,8.471,185.171,55.774,243.894,129.354a334.907,334.907,0,0,1,40.63,65.439C458.008,537.18,471.642,529.672,467.457,520.856Z" transform="translate(-140.592 -319.85)" fill="#4b44f2"/>
          <path id="Path_1770" data-name="Path 1770" d="M662.386,328.609c-98.6-4.66-194.908,41.205-253.573,121.4a297.689,297.689,0,0,0-39.781,75.421c-3.394,9.478,11.635,13.749,15.015,4.329C417.729,435.742,500.47,365.945,598.672,348.2a282.069,282.069,0,0,1,73.882-3.308Q667.829,336.584,662.386,328.609Z" transform="translate(-53.269 -316.154)" fill="#4b44f2"/>
          <path id="Path_1771" data-name="Path 1771" d="M235.35,362c-22.652-7.824-45.563-14.828-68.56-21.588-3.092,4.056-5.983,8.227-8.73,12.469a128.51,128.51,0,0,1,14.526,4.387,4.181,4.181,0,0,1,2.6,2.661c21.487,5.336,43.147,10.715,65.094,15.662,34.474,7.953,66.3,17.244,98.13,34.474,14.6,7.752,29.023,15.36,43.132,23.285C337.033,402.311,285.947,379.458,235.35,362Z" transform="translate(-145.504 -310.84)" fill="#4b44f2"/>
          <path id="Path_1772" data-name="Path 1772" d="M474.973,517.51q-2.287-3.538-4.689-6.99c-22.81-32.921-52.064-60.247-84.9-83.129-14.123-7.925-28.549-15.533-43.132-23.285-31.828-17.244-63.656-26.521-98.13-34.474-21.947-4.947-43.607-10.326-65.094-15.662,1.007,2.977-1.151,6.875-4.861,5.494a132.293,132.293,0,0,0-16.942-4.948,157.994,157.994,0,0,0-7.9,15.461c95.4,27.9,194.477,60.19,263.238,133.036.964,1.036,1.942,2.071,2.876,3.107,1.381,1.481,2.718,2.977,4.041,4.5,3.02,3.437,5.911,6.889,8.687,10.427,2.114,2.632,4.157,5.321,6.112,8.04h47.821Q478.654,523.177,474.973,517.51Z" transform="translate(-149.33 -304.898)" fill="gold"/>
          <path id="Path_1773" data-name="Path 1773" d="M670.633,364.573a4.187,4.187,0,0,1-5.149-3.423c-90.435,5.336-179.1,35.912-250.467,91.744-1.165,1.266-2.359,2.517-3.495,3.8-13.332,15.058-24.838,32.015-32.216,50.683q-1.4,3.452-2.56,6.99-1.9,5.7-3.236,11.578h40.673c.748-2.244,1.539-4.387,2.387-6.472.949-2.316,1.985-4.545,3.078-6.645.935-1.783,1.956-3.61,2.991-5.422l1.079-1.812a140.054,140.054,0,0,1,12.326-17.532c14.023-16.583,30.936-30.951,48.166-42.917a357.141,357.141,0,0,1,127.427-55.8,338.2,338.2,0,0,1,77.376-8.227,20.375,20.375,0,0,0,2.114-.115q-3.387-9.579-7.508-18.8A125.55,125.55,0,0,0,670.633,364.573Z" transform="translate(-51.089 -301.751)" fill="gold"/>
          <path id="Path_1774" data-name="Path 1774" d="M655.742,362.181c3.8-.906,7.608-1.611,11.434-2.186-2.042-4.07-4.2-8.083-6.544-11.995A399.967,399.967,0,0,0,523.08,378.332c-44.139,18.237-88.019,44.93-120.71,80.325,71.365-55.817,160.031-86.394,250.467-91.744A3.778,3.778,0,0,1,655.742,362.181Z" transform="translate(-38.442 -307.514)" fill="#4b44f2"/>
        </g>
        <path id="Path_1775" data-name="Path 1775" d="M791.4,378.864a2052.769,2052.769,0,0,0-270.516,121H425.988a2051.734,2051.734,0,0,0-270.516-121c-11.247-4.085-16.309,13.778-5.134,17.848q94.038,34.151,184.38,77.535c27.024,12.973,53.775,26.506,80.109,40.831a31.409,31.409,0,0,0,5.278,2.459c6.386,2.071,14.051.92,20.71.92q12.1,0,24.22.014,23.688,0,47.39.014a62.879,62.879,0,0,0,10.916-.633c12.915-2.3,24.579-11.765,36.243-17.388,15.116-7.277,29.915-15.216,45-22.537q45.3-21.983,91.687-41.694,49.619-21.077,100.3-39.494C807.721,392.656,802.659,374.779,791.4,378.864Z" transform="translate(-144.076 -294.253)" fill="#f50057"/>
      </g>
      <g id="Group_1088" data-name="Group 1088" transform="translate(150.879 91.822)">
        <g id="Group_1068" data-name="Group 1068" transform="translate(3.491 91.289)">
          <path id="Path_1776" data-name="Path 1776" d="M325.525,167.432a51.571,51.571,0,0,1,13.045-8.816,78.027,78.027,0,0,0-44.484,5.091c-8.428,3.7-16.611,9.42-20.034,17.949-3.481,8.644-1.51,18.6-4.156,27.528-3.394,11.477-13.764,19.488-19.171,30.174a37.931,37.931,0,0,0,32.245,55,54.783,54.783,0,0,1,10.528,1.582C283.241,251.136,291.871,202.812,325.525,167.432Z" transform="translate(-243.706 -156.232)" fill="#f50057"/>
          <path id="Path_1777" data-name="Path 1777" d="M372.5,213.085c-.992-15.677-4.832-34.863-17.949-43.506a76.467,76.467,0,0,0-28.995-11.319,51.2,51.2,0,0,0-13.045,8.816c-33.654,35.38-42.284,83.7-32.029,128.505,10.571,2.517,20.969,7.148,31.67,7.968,14.238,1.093,29.512-2.459,39.537-12.642,8.184-8.327,11.952-19.948,14.886-31.253C370.549,244.438,373.5,228.762,372.5,213.085Z" transform="translate(-230.697 -155.862)" fill="#a90057"/>
          <path id="Path_1778" data-name="Path 1778" d="M284.914,218.019c-.719-1.9-2.416-2.92-4.674-3.8-4.832-1.87-10.959-2.316-16.094-2.689-4.329-.316-12.282-2.359-15.864,1.05-3.049,2.905-3.193,12.268-3.495,16.209a46.287,46.287,0,0,0,2.085,18.337c3.725,11.017,12.527,20.682,23.817,23.443,3.84.935,8.313.935,11.29-1.683,3.063-2.689,3.567-7.205,3.811-11.276.388-6.918.388-13.864.216-20.8-.144-5.523-.719-11.031-.7-16.54A6.675,6.675,0,0,0,284.914,218.019Z" transform="translate(-244.631 -132.909)" fill="#1b2c4f"/>
          <path id="Path_1779" data-name="Path 1779" d="M326,156.905c-24.45-3.423-44.254,22-54.235,41.162-.863,1.64,1.783,2.8,2.632,1.165,9.363-17.978,28.218-42.7,51.172-39.479A1.441,1.441,0,0,0,326,156.905Z" transform="translate(-232.816 -156.593)" fill="#1b2c4f"/>
          <path id="Path_1780" data-name="Path 1780" d="M273.181,223.265a25.9,25.9,0,0,1-26.046-2.546c-1.525-1.064-2.992,1.409-1.481,2.474a28.859,28.859,0,0,0,28.951,2.574C276.287,225.005,274.849,222.5,273.181,223.265Z" transform="translate(-244.461 -128.605)" fill="#f50057"/>
        </g>
        <g id="Group_1074" data-name="Group 1074" transform="translate(77.778)">
          <path id="Path_1781" data-name="Path 1781" d="M330.307,210.22a126.938,126.938,0,0,1-22.062-54.537c-4.717-2.92-8.917-6.817-10.945-11.98s-1.079-11.779,3.337-15.13c4.617-3.48,11.2-2.531,16.511-4.832,6.9-2.992,10.2-10.643,14.21-17,3.322-5.278,7.738-10.183,13.562-12.455s13.217-1.294,17.144,3.567c2.157,2.661,3.25,6.314,6.17,8.083,3.365,2.028,7.666.719,11.3-.719,6.041-2.387,12.139-5.063,18.625-5.451s13.606,2.042,16.813,7.68a15.716,15.716,0,0,1,.992,12.282,26.032,26.032,0,0,1-6.832,10.528c-2.2,2.157-4.9,4.861-3.926,7.781.489,1.467,1.812,2.459,2.747,3.7,2.431,3.236,1.913,7.968-.173,11.448s-5.451,5.954-8.759,8.3c-13.318,9.464-27.4,18.711-36.488,32.288-2.848,4.257-5.163,8.874-8.27,12.944s-7.22,7.666-12.225,8.8C337.052,216.621,333.284,214.391,330.307,210.22Z" transform="translate(-296.283 -93.119)" fill="#bf360c"/>
          <g id="Group_1069" data-name="Group 1069" transform="translate(15.674 49.282)">
            <path id="Path_1782" data-name="Path 1782" d="M352.843,205.574c8.788,1.9,17.848,3.811,26.722,2.272s17.59-7.407,19.747-16.137c1.223-4.976.216-10.211-.805-15.231-2.776-13.649-5.063-27.873-8.255-41.55a9.278,9.278,0,0,0-8.227-7.1,126.093,126.093,0,0,0-31.6,1.4,16.219,16.219,0,0,0-13.591,17.388h0a.31.31,0,0,1-.072.245c-4.2,5.839-8.457,12.5-10.6,19.358-4.214-3.739-10.787-5.192-15.576-1.467a8.744,8.744,0,0,0-2.948,4.185c-1.726,5.206,1.683,9.147,5.71,10.988a31.031,31.031,0,0,0,8.486,2.057c1.956,11.578,2.905,19.143.978,29.081a14.365,14.365,0,0,0,9.09,16.3l.475.173a14.257,14.257,0,0,0,18.51-10.931C351.535,213.369,352.167,210.076,352.843,205.574Z" transform="translate(-307.181 -127.385)" fill="#ffccbc"/>
            <path id="Path_1783" data-name="Path 1783" d="M321.79,158.656a11.84,11.84,0,0,0-9.507-4.876c-2.229,0-2.632,3.48-.374,3.48a8.532,8.532,0,0,1,7.148,3.6C320.4,162.683,323.113,160.468,321.79,158.656Z" transform="translate(-305.769 -115.818)" fill="#ffab91"/>
            <path id="Path_1784" data-name="Path 1784" d="M359.213,177.495a7,7,0,0,0,1.812-1.913c.992-1.582,2.7-4.746.863-6.213a2.92,2.92,0,0,0-.518-.331,7.112,7.112,0,0,0-2.2-.5,19.036,19.036,0,0,1-5.868-1.668c-1.87-.92-3.25-2.445-5.019-3.495-2.531-1.5-3.107.043-3.538,2.258a14.168,14.168,0,0,0-.273,3.193C350.6,169.369,355.517,172.806,359.213,177.495Z" transform="translate(-290.841 -111.876)" fill="#561c1c"/>
            <path id="Path_1785" data-name="Path 1785" d="M360.322,168.911a2.922,2.922,0,0,0-.518-.331,7.112,7.112,0,0,0-2.2-.5,19.037,19.037,0,0,1-5.868-1.668,23.667,23.667,0,0,1-3.7-2.589c.633,5.94,7,7.1,12.153,5.825.2-.072.374-.173.561-.244A1.991,1.991,0,0,0,360.322,168.911Z" transform="translate(-289.275 -111.419)" fill="#fff"/>
            <path id="Path_1786" data-name="Path 1786" d="M344.46,166.98a10.187,10.187,0,0,0,1.366,4.832,10.709,10.709,0,0,0,7.536,5.12,7.949,7.949,0,0,0,5.854-1.28C355.52,170.964,350.6,167.527,344.46,166.98Z" transform="translate(-290.844 -110.034)" fill="#a41c1c"/>
            <path id="Path_1787" data-name="Path 1787" d="M366.93,156.775a6.181,6.181,0,0,0-9.881-2.33c-1.711,1.467.475,4.2,2.2,2.733,1.783-1.525,4.574-.733,4.574,1.87,0,2.157-1.855,3.524-3.653,4.3-2.071.906-.633,4.1,1.438,3.193C365.333,164.915,368.526,161.046,366.93,156.775Z" transform="translate(-285.599 -116.21)" fill="#ffab91"/>
            <path id="Path_1788" data-name="Path 1788" d="M348.517,154.625l-1.165-6.645c-.388-2.215-3.854-1.668-3.452.561l1.165,6.645C345.453,157.4,348.919,156.84,348.517,154.625Z" transform="translate(-291.104 -118.979)" fill="#37474f"/>
            <path id="Path_1789" data-name="Path 1789" d="M367.187,152.965l-1.165-6.645c-.388-2.215-3.854-1.668-3.452.561l1.165,6.645C364.123,155.755,367.589,155.194,367.187,152.965Z" transform="translate(-282.922 -119.706)" fill="#37474f"/>
            <path id="Path_1790" data-name="Path 1790" d="M351.255,133.393a15.078,15.078,0,0,0-14.282,5.278c-1.453,1.726,1.366,3.8,2.819,2.085a11.573,11.573,0,0,1,11.089-3.883C353.1,137.262,353.455,133.781,351.255,133.393Z" transform="translate(-294.302 -124.857)" fill="#bf360c"/>
            <path id="Path_1791" data-name="Path 1791" d="M368.683,136.018a8.936,8.936,0,0,0-10.5-3.02c-2.1.805-.676,4,1.438,3.193a5.4,5.4,0,0,1,6.343,2.028C367.259,140.046,369.992,137.845,368.683,136.018Z" transform="translate(-285.282 -125.196)" fill="#bf360c"/>
          </g>
          <g id="Group_1073" data-name="Group 1073" transform="translate(33.438 66.662)">
            <g id="Group_1072" data-name="Group 1072" transform="translate(25.583)">
              <g id="Group_1070" data-name="Group 1070" transform="translate(0 2.402)">
                <path id="Path_1792" data-name="Path 1792" d="M349.962,166.424A12.642,12.642,0,1,1,362.6,153.782,12.65,12.65,0,0,1,349.962,166.424Zm0-22.839a10.183,10.183,0,1,0,10.183,10.183A10.192,10.192,0,0,0,349.962,143.585Z" transform="translate(-337.32 -141.14)" fill="#fff"/>
              </g>
              <g id="Group_1071" data-name="Group 1071" transform="translate(32.36)">
                <path id="Path_1793" data-name="Path 1793" d="M370.549,160.928A10.729,10.729,0,1,1,381.278,150.2,10.748,10.748,0,0,1,370.549,160.928Zm0-19a8.27,8.27,0,1,0,8.27,8.27A8.28,8.28,0,0,0,370.549,141.929Z" transform="translate(-359.82 -139.47)" fill="#fff"/>
              </g>
              <path id="Path_1794" data-name="Path 1794" d="M364.62,145.841a9.55,9.55,0,0,0-11.736.431c-1.179.935.46,2.589,1.625,1.668a7.215,7.215,0,0,1,8.917-.1C364.649,148.7,365.843,146.7,364.62,145.841Z" transform="translate(-330.678 -137.471)" fill="#fff"/>
            </g>
            <path id="Path_1795" data-name="Path 1795" d="M346.294,149.4q-12.793,1.251-25.572,2.488c-1.553.158-1.611,2.618-.029,2.459q12.793-1.251,25.572-2.488C347.819,151.717,347.862,149.258,346.294,149.4Z" transform="translate(-319.532 -135.12)" fill="#fff"/>
          </g>
        </g>
        <g id="Group_1083" data-name="Group 1083" transform="translate(0 12.571)">
          <path id="Path_1796" data-name="Path 1796" d="M310.533,301.444c3.164,2.057,7.263,1.755,11.017,1.251,29.556-3.955,58.378-15.533,80.929-35.035,2.287-1.985,4.631-4.243,5.264-7.191.762-3.552-1.237-7.249-4.156-9.42s-6.573-3.035-10.154-3.552c-17.863-2.574-35.9,2.574-52.84,8.773-7.953,2.905-15.921,6.112-22.71,11.175-5.393,4.027-11.635,10.4-13,17.273C303.888,289.68,306.146,298.582,310.533,301.444Z" transform="translate(-214.838 -38.336)" fill="gold"/>
          <path id="Path_1797" data-name="Path 1797" d="M306.55,271.122a81.565,81.565,0,0,0,13.893,29.1c22.019-18.395,52.006-28.074,80.6-25.7-4.6-8.27-9.564-15.216-14.167-23.486C360.268,241.294,326.541,251.03,306.55,271.122Z" transform="translate(-214.005 -38.159)" fill="#ffccbc"/>
          <g id="Group_1077" data-name="Group 1077" transform="translate(144.824 31.062)">
            <g id="Group_1076" data-name="Group 1076" transform="translate(41.608)">
              <g id="Group_1075" data-name="Group 1075" transform="translate(11.495)">
                <path id="Path_1798" data-name="Path 1798" d="M398.818,200.829a27.85,27.85,0,0,0,4.128-7.263c5.365-12.153,14.6-32.892,20.236-44.916.69-1.467,1.4-3.078,1.021-4.66-.489-2.014-2.531-3.207-4.415-4.07-7.651-3.538-21.156-12.584-25.413-.273-3.02,8.759-18.265,48.094-13.706,55.933,3.322,5.724,13.088,10.557,17.676,5.767Z" transform="translate(-379.823 -119.105)" fill="#ffccbc"/>
                <path id="Path_1799" data-name="Path 1799" d="M416.209,155.332c2-2.718,4.559-4.991,6.659-7.637s3.8-5.854,3.61-9.233-2.8-6.76-6.184-6.846a8.022,8.022,0,0,0-4.041-4.013,7.187,7.187,0,0,0-5.408-.23,7.858,7.858,0,0,0-7.421-3.883,7.4,7.4,0,0,0-6.213,5.192,11.132,11.132,0,0,0-4.717,17.719Z" transform="translate(-375.439 -123.457)" fill="#ffccbc"/>
              </g>
              <path id="Path_1800" data-name="Path 1800" d="M401.788,178.094l-17.676-8.514L371.83,180.309c7.378,6.271,11.952,14.526,15.173,23.587l16.007-20.624A3.424,3.424,0,0,0,401.788,178.094Z" transform="translate(-371.83 -103.245)" fill="#ffccbc"/>
            </g>
            <path id="Path_1801" data-name="Path 1801" d="M399.038,126.059c-1.87-.647-3.063,2.186-1.179,2.848s8.557,3.409,7.177,6.328c-.547,1.165-2.776,1.553-3.869,1.438a5.5,5.5,0,0,1-4.228-3.006c-.992-1.712-3.437.158-2.459,1.855,2.546,4.415,9.593,6.1,13,1.582C411.349,132,402.821,127.382,399.038,126.059Z" transform="translate(-320.396 -122.359)" fill="#ffab91"/>
            <path id="Path_1802" data-name="Path 1802" d="M400.73,133.86c-1.453-1.352-3.322,1.107-1.87,2.445a4.91,4.91,0,0,1,.2,6.99c-1.294,1.5,1.151,3.365,2.445,1.87A8.016,8.016,0,0,0,400.73,133.86Z" transform="translate(-318.607 -119.071)" fill="#ffab91"/>
            <path id="Path_1803" data-name="Path 1803" d="M409.582,134.319a3.365,3.365,0,0,1-6.2-.086c-.777-1.827-3.653-.69-2.862,1.136a6.475,6.475,0,0,0,11.908.129C413.264,133.7,410.416,132.521,409.582,134.319Z" transform="translate(-317.708 -119.141)" fill="#ffab91"/>
            <path id="Path_1804" data-name="Path 1804" d="M416.1,133.617c.374,2.474.216,3.61-1.481,5.523-.719.805-1.884,1.8-3.063,1.625-2.114-.316-2.042-3.107-1.625-4.631.518-1.884-2.315-3.092-2.848-1.179-.662,2.416-.82,5.005.877,7.076a4.985,4.985,0,0,0,5.422,1.568c4.76-1.467,6.458-5.81,5.782-10.341C418.876,131.287,415.812,131.661,416.1,133.617Z" transform="translate(-314.978 -119.734)" fill="#ffab91"/>
            <path id="Path_1805" data-name="Path 1805" d="M384.508,177.05l-40.155,35.107a6.872,6.872,0,0,0-.791,7.162c4.257,8.9,4.818,26.492,11.319,28.851,3.452,1.251,10.283-3.869,14.44-8.342a91.244,91.244,0,0,1,10.945-10.139l23.4-18.208C403.09,196.236,392.706,181.437,384.508,177.05Z" transform="translate(-342.9 -99.971)" fill="#f25c05"/>
          </g>
          <path id="Path_1806" data-name="Path 1806" d="M378.528,201.84a148.148,148.148,0,0,1-56.939-22.364,12.905,12.905,0,0,0-19.215,6.228c-16.353,43.506-10.945,101.121,10.2,142.83-5.681-23.429,52.15-40.5,82.252-44.556,3.768-.5,7.723-.877,11.276.475s6.544,4.948,5.925,8.7c3.926-4.171,3.078-10.4-.115-15.144s-8.025-8.126-11.851-12.383c-7.062-7.881-10.427-18.51-11.319-29.052a116.144,116.144,0,0,1,.532-20.754A12.859,12.859,0,0,0,378.528,201.84Z" transform="translate(-220.026 -68.79)" fill="#f25c05"/>
          <path id="Path_1807" data-name="Path 1807" d="M389.792,246.613a148.959,148.959,0,0,1-71.71-11.132c-1.453-.618-2.129,1.755-.676,2.359a150.437,150.437,0,0,0,72.371,11.233C391.317,248.928,391.36,246.469,389.792,246.613Z" transform="translate(-209.602 -43.349)" fill="gold"/>
          <path id="Path_1808" data-name="Path 1808" d="M377.772,257.884c-14.08-13.807-20.624-32.619-15.734-52.092.388-1.539-1.985-2.215-2.359-.676A55.545,55.545,0,0,0,364.526,245c3.322,6.17,7.838,10.931,12.757,15.835,3.178,3.164,6.458,6.659,7.134,11.276.849,5.767-2.431,10.542-7.637,12.786-1.453.633-.23,2.761,1.222,2.143a14.6,14.6,0,0,0,9.118-13.447C386.962,267.059,382.144,262.169,377.772,257.884Z" transform="translate(-191.469 -56.992)" fill="gold"/>
          <path id="Path_1809" data-name="Path 1809" d="M356.69,213.431a117.141,117.141,0,0,0-48.626-36.5c-1.467-.59-2.129,1.783-.676,2.359a114.834,114.834,0,0,1,47.548,35.855C355.9,216.393,357.653,214.667,356.69,213.431Z" transform="translate(-213.994 -69.004)" fill="gold"/>
          <g id="Group_1082" data-name="Group 1082">
            <g id="Group_1080" data-name="Group 1080" transform="translate(8.97 12.609)">
              <g id="Group_1079" data-name="Group 1079">
                <g id="Group_1078" data-name="Group 1078">
                  <path id="Path_1810" data-name="Path 1810" d="M278.5,188a27.848,27.848,0,0,1-4.128-7.263c-5.365-12.153-14.6-32.892-20.236-44.916-.69-1.467-1.4-3.078-1.021-4.66.489-2.014,2.531-3.207,4.415-4.07,7.651-3.538,21.156-12.584,25.413-.273,3.02,8.759,18.265,48.094,13.706,55.933-3.322,5.724-13.088,10.557-17.676,5.767C278.8,188.344,278.654,188.171,278.5,188Z" transform="translate(-246.439 -106.275)" fill="#ffccbc"/>
                  <path id="Path_1811" data-name="Path 1811" d="M258.723,142.5c-2-2.718-4.559-5.005-6.659-7.637s-3.8-5.854-3.61-9.233,2.8-6.76,6.184-6.846a8.022,8.022,0,0,1,4.041-4.013,7.187,7.187,0,0,1,5.408-.23,7.858,7.858,0,0,1,7.421-3.883,7.4,7.4,0,0,1,6.213,5.192,11.132,11.132,0,0,1,4.717,17.719Z" transform="translate(-248.44 -110.627)" fill="#ffccbc"/>
                </g>
                <path id="Path_1812" data-name="Path 1812" d="M271.692,165.264l17.676-8.514,12.282,10.729c-7.378,6.271-11.952,14.526-15.173,23.587L270.47,170.442A3.416,3.416,0,0,1,271.692,165.264Z" transform="translate(-239.102 -90.415)" fill="#ffccbc"/>
              </g>
              <path id="Path_1813" data-name="Path 1813" d="M269.052,113.229c1.87-.647,3.063,2.186,1.179,2.848s-8.557,3.409-7.177,6.328c.547,1.165,2.776,1.553,3.869,1.438a5.5,5.5,0,0,0,4.228-3.006c.992-1.711,3.437.158,2.459,1.855-2.546,4.415-9.593,6.1-13,1.582C256.741,119.155,265.27,114.552,269.052,113.229Z" transform="translate(-243.538 -109.529)" fill="#ffab91"/>
              <path id="Path_1814" data-name="Path 1814" d="M257.882,121.489a3.365,3.365,0,0,0,6.2-.086c.777-1.827,3.653-.69,2.862,1.136a6.475,6.475,0,0,1-11.908.129C254.215,120.87,257.063,119.691,257.882,121.489Z" transform="translate(-245.615 -106.311)" fill="#ffab91"/>
              <path id="Path_1815" data-name="Path 1815" d="M299.422,161.12l40.155,35.107a6.872,6.872,0,0,1,.791,7.162c-4.257,8.9-33.467,28.649-37.394,25.586L280.25,195.537C280.84,180.32,291.224,165.507,299.422,161.12Z" transform="translate(-234.5 -88.5)" fill="#f25c05"/>
            </g>
            <g id="Group_1081" data-name="Group 1081">
              <rect id="Rectangle_153" data-name="Rectangle 153" width="68.258" height="9.348" transform="translate(1.991 43.287) rotate(-37.982)" fill="#f9a825"/>
              <path id="Path_1816" data-name="Path 1816" d="M244.2,131.97l-.417.331c-1.553,1.208-2.042,3.178-1.093,4.387L245,139.665c.949,1.208,2.977,1.208,4.516,0l.417-.331Z" transform="translate(-242.203 -88.665)" fill="#d84315"/>
              <path id="Path_1817" data-name="Path 1817" d="M285.976,102.28l-4.976.7,5.753,7.364,1.884-4.66Z" transform="translate(-225.202 -101.676)" fill="#ffcb73"/>
              <path id="Path_1818" data-name="Path 1818" d="M288.76,101.86l-4.3.6,2.661,3.409Z" transform="translate(-223.685 -101.86)" fill="#212121"/>
              <rect id="Rectangle_154" data-name="Rectangle 154" width="3.912" height="68.258" transform="translate(57.49 3.442) rotate(52.018)" fill="#fdd835"/>
            </g>
            <path id="Path_1819" data-name="Path 1819" d="M278.082,119.543a10.742,10.742,0,0,0-17.359-3.15,2.842,2.842,0,0,0-1.064,2.344,2.757,2.757,0,0,0,1.783,1.783,9.267,9.267,0,0,0,7.277.029,21.978,21.978,0,0,0-3.437,5.465,8.67,8.67,0,0,0-.115,6.357,5.47,5.47,0,0,0,5.048,3.437,6.873,6.873,0,0,0,4.156-2.085C278.182,130.157,280.225,124.26,278.082,119.543Z" transform="translate(-234.566 -96.862)" fill="#ffccbc"/>
            <path id="Path_1820" data-name="Path 1820" d="M248.87,124.96a22.282,22.282,0,0,0,1.74,4.343,7.25,7.25,0,0,0,3.337,3.164,4.5,4.5,0,0,0,4.444-.431,4.727,4.727,0,0,0,1.582-3.984,10.819,10.819,0,0,0-1.309-4.228,8.642,8.642,0,0,0,2.934,3.437,4.293,4.293,0,0,0,4.2.173c1.668-.964,2.215-3.15,2.172-5.091a5.3,5.3,0,0,0-1.151-3.624,4.391,4.391,0,0,0-3.193-1.208,12.928,12.928,0,0,0-3.452.633C255.946,119.308,251.516,121.422,248.87,124.96Z" transform="translate(-239.282 -95.002)" fill="#ffccbc"/>
            <path id="Path_1821" data-name="Path 1821" d="M271.684,117.6a8.474,8.474,0,0,1-5.063,1.5c-1.611-.058-5.134-.777-5.034-3.02.086-1.855-2.79-1.884-2.876-.029-.144,3.049,2.689,4.861,5.35,5.566a11.287,11.287,0,0,0,9.046-1.51C274.647,119.1,273.238,116.6,271.684,117.6Z" transform="translate(-234.971 -96.245)" fill="#ffab91"/>
            <path id="Path_1822" data-name="Path 1822" d="M266.338,118.221a11.429,11.429,0,0,0-2.2,14.353,1.44,1.44,0,0,0,2.5-1.424,8.524,8.524,0,0,1,1.711-10.873C269.718,119.012,267.7,116.955,266.338,118.221Z" transform="translate(-233.292 -94.864)" fill="#ffab91"/>
            <path id="Path_1823" data-name="Path 1823" d="M268.175,118.068c-.575-1.755-3.365-1.036-2.776.734s1.266,3.84.575,5.724c-1.64,4.487-5.249,1.381-6.63-1.151a1.44,1.44,0,0,0-2.5,1.424c.849,1.553,2.359,4.444.518,6.012-2.718,2.316-4.76-2.258-5.508-3.8-.82-1.668-3.308-.23-2.5,1.424,1.582,3.236,4.962,7.608,9.09,5.163a5.017,5.017,0,0,0,2.517-4.286,4.866,4.866,0,0,0,4.732-.1C269.785,127.028,269.411,121.821,268.175,118.068Z" transform="translate(-239.142 -95.2)" fill="#ffab91"/>
          </g>
        </g>
        <g id="Group_1084" data-name="Group 1084" transform="translate(56.264 98.706)">
          <path id="Path_1824" data-name="Path 1824" d="M376.032,264.987a59.9,59.9,0,0,1-5.336-6.832c16.151-9.665,32.6-24.349,21.056-44.211-7.565-12.987-21.717-22.652-36.272-29.311.978-.086,1.942-.2,2.92-.374a28.511,28.511,0,0,0,8.744-3.049,126.7,126.7,0,0,1,11.348,7.392c9.334,6.86,18.654,15.044,23.184,25.974C411.1,237.286,393.952,253.941,376.032,264.987Z" transform="translate(-248.827 -153.222)" fill="#1b2c4f"/>
          <path id="Path_1825" data-name="Path 1825" d="M348.21,200.323c-7.321-14.871-18.855-27.01-30.562-38.573a46.449,46.449,0,0,0-7.321,4.9c20.092,19.876,39.379,41.881,36.531,72.184-1.28,13.721-5.149,31.483-17.244,39.781-5.408,3.711-11.822,5.595-18.064,7.306-7.666,2.114-16.266,4.746-23.688.575-4.847-2.733-9.291,4.674-4.444,7.407,13.174,7.421,31.67,1.4,44.484-4.5,15.806-7.277,22.537-22.666,25.874-38.9C357.3,233.287,356.02,216.216,348.21,200.323Z" transform="translate(-281.324 -161.75)" fill="#1b2c4f"/>
        </g>
        <g id="Group_1087" data-name="Group 1087" transform="translate(104.151 226.652)">
          <g id="Group_1085" data-name="Group 1085">
            <path id="Path_1826" data-name="Path 1826" d="M377.52,268.5l28.2-15.662a16.969,16.969,0,0,1,14.857-.777l59.485,25.313-4.142,21.645-50.7-2.618-8.169-4.3-18.812,11.592Z" transform="translate(-287.056 -250.711)" fill="#ffccbc"/>
            <path id="Path_1827" data-name="Path 1827" d="M314.62,297.372s17.144,35.682,42.428,41.565c21.315,4.962,61.125-27.312,71.8-36.79,1.812-1.611,5.178-4.732,3.912-6.788l-21.588-35.366-11.017,5.969,1.611-.877c-.949-1.251-2.315-4.746-4.545-5.94-3.883-2.085-11.822-.6-21.847.245a77.63,77.63,0,0,0-55.314,31.066Z" transform="translate(-314.62 -247.482)" fill="#1b2c4f"/>
            <path id="Path_1828" data-name="Path 1828" d="M445.94,297.779l21.1,4.832a2.383,2.383,0,0,0,2.92-2.2l2.229-44.4a2.379,2.379,0,0,0-2.905-2.445h0a14.607,14.607,0,0,0-10.226,8.457l-3.524,8.1-5.451,6.055Z" transform="translate(-257.072 -249.485)" fill="#162440"/>
          </g>
          <g id="Group_1086" data-name="Group 1086" transform="translate(45.635 43.504)">
            <path id="Path_1829" data-name="Path 1829" d="M382.357,282.38l32.216,1.625a16.942,16.942,0,0,1,13.03,7.206L464.7,344.152l-14.957,16.18L408.1,331.294l-4.66-7.968-22.091-.115Z" transform="translate(-331.012 -280.338)" fill="#ffccbc"/>
            <path id="Path_1830" data-name="Path 1830" d="M380.707,281.075h0l-1.827-.115Z" transform="translate(-332.095 -280.96)" fill="#1b2c4f"/>
            <path id="Path_1831" data-name="Path 1831" d="M396.99,281.12c-20.984,9.233-39.882,30.217-50.64,48.18,15.619,2.92,44.944-1.323,51.992-2.517,2.387-.4,6.9-1.266,6.918-3.7l.388-41.435Z" transform="translate(-346.35 -280.89)" fill="#1b2c4f"/>
            <path id="Path_1832" data-name="Path 1832" d="M428.89,344.5l15.346,15.26a2.378,2.378,0,0,0,3.639-.331l25.385-36.5a2.381,2.381,0,0,0-1.165-3.61h0a14.661,14.661,0,0,0-13.16,1.755l-7.263,5.005-7.824,2.258Z" transform="translate(-310.179 -264.516)" fill="#162440"/>
          </g>
        </g>
      </g>
      <g id="Group_1103" data-name="Group 1103">
        <g id="Group_1090" data-name="Group 1090" transform="translate(55.244 41.353)">
          <g id="Group_1089" data-name="Group 1089" transform="translate(0.31 0)">
            <circle id="Ellipse_85" data-name="Ellipse 85" cx="30.404" cy="30.404" r="30.404" transform="matrix(0.94, -0.341, 0.341, 0.94, 0, 20.711)" fill="#0288d1"/>
            <path id="Path_1833" data-name="Path 1833" d="M231.642,99.193c-3.15.662-8.3-8.1-11.448-7.436-6.285,1.338-4.286,10.772-9.219,9.19-6.069-.69-7.177-9-13-11.707-7.119-1.611-10.715,5.523-12.254,11.578.36.5.69,1.021,1.079,1.51a30.346,30.346,0,0,0,51.215-5.954C236.23,98.661,233.944,99.926,231.642,99.193Z" transform="translate(-171.63 -44.452)" fill="#44c5c7"/>
            <path id="Path_1834" data-name="Path 1834" d="M193.88,66.947c.173,3.365,1.927,6.328,4.6,6.1,12.354-.647,16.842,4.976,21.99,13.735,1.8,2.244,5.839,2.7,8.975,2.042a33.321,33.321,0,0,0,6.256-4.43A30.34,30.34,0,0,0,193.88,66.947Z" transform="translate(-168.054 -55.424)" fill="#44c5c7"/>
          </g>
          <path id="Path_1835" data-name="Path 1835" d="M250.369,90.819c-3.754,16.122-18.337,28.937-35.15,29.225-15.619.259-29.757-10.01-35.366-24.364-1.007-2.589-4.991-.935-3.984,1.654,6.4,16.353,22.882,27.844,40.659,27.01,18.6-.877,33.985-15.231,38.127-32.978C255.288,88.647,251,88.144,250.369,90.819Z" transform="translate(-175.708 -44.434)" fill="#1b2c4f"/>
          <path id="Path_1836" data-name="Path 1836" d="M221.339,106.87c-1.827-2.071-5.25.561-3.409,2.646q6.3,7.119,12.6,14.253c1.827,2.071,5.25-.561,3.409-2.646Q227.617,114,221.339,106.87Z" transform="translate(-157.436 -36.955)" fill="#1b2c4f"/>
          <path id="Path_1837" data-name="Path 1837" d="M237.324,111.77l-14.8,15.015c-1.927,1.956.7,5.379,2.646,3.409l14.8-15.015C241.9,113.237,239.266,109.8,237.324,111.77Z" transform="translate(-155.486 -34.736)" fill="#1b2c4f"/>
        </g>
        <g id="Group_1091" data-name="Group 1091" transform="translate(224.023)">
          <path id="Path_1838" data-name="Path 1838" d="M334.6,29.368c-9.766,9.852-31.281,22.35-41.536,36.171,21.056,2.574,39.163,7.464,60.218,10.039,12.944-14.023,26.794-28.06,39.753-42.082C370.983,28.29,358.355,29.368,334.6,29.368Z" transform="translate(-293.06 -29.276)" fill="#1b2c4f"/>
          <path id="Path_1839" data-name="Path 1839" d="M313.05,58.847q3.107,9.3,6.2,18.6A34.8,34.8,0,0,0,343.181,81a35.588,35.588,0,0,0,20.7-13.059c-3.365-9.018-4.732-16.813-3.61-26.377Z" transform="translate(-284.3 -23.892)" fill="#1b2c4f"/>
          <path id="Path_1840" data-name="Path 1840" d="M379.4,71.265c-3.25-.129-4.458-14.483-6.242-17.805a25.7,25.7,0,0,0-9.018-9.32c-10.039-6.3-22.379-5.379-33.669-4.343-3.135.288-3.222,5.235-.058,4.933,13.347-1.222,33.352-2.574,39.148,13.03,2.5,6.745-.748,18.035,9.766,18.438C382.518,76.313,382.576,71.38,379.4,71.265Z" transform="translate(-277.715 -24.991)" fill="#bf360c"/>
          <path id="Path_1841" data-name="Path 1841" d="M374.583,67.49a9.087,9.087,0,0,1-9.622-4.559c-1.553-2.761-5.854-.331-4.3,2.445a14.151,14.151,0,0,0,15.173,6.889C378.956,71.66,377.7,66.871,374.583,67.49Z" transform="translate(-263.581 -15.06)" fill="#bf360c"/>
          <path id="Path_1842" data-name="Path 1842" d="M373.95,60.88c-3.164.086-6.343.187-9.507.273s-3.236,5.034-.058,4.933,6.343-.187,9.507-.273S377.129,60.78,373.95,60.88Z" transform="translate(-262.833 -15.426)" fill="#bf360c"/>
          <path id="Path_1843" data-name="Path 1843" d="M377.076,65.509q-7.227-2.071-14.454-4.156c-3.063-.877-4.43,3.869-1.366,4.746q7.227,2.071,14.454,4.156C378.773,71.133,380.139,66.387,377.076,65.509Z" transform="translate(-263.931 -15.266)" fill="#bf360c"/>
        </g>
        <g id="Group_1092" data-name="Group 1092" transform="translate(400.597 36.163)">
          <path id="Path_1844" data-name="Path 1844" d="M475.914,68.543,435.845,54.42a110.437,110.437,0,0,0-6.817,26.708c-.964,7.666-.877,16.166,3.941,22.192,5.005,6.256,14.238,8.083,21.875,5.681s13.735-8.4,17.877-15.26,6.587-14.569,8.974-22.206Z" transform="translate(-410.263 -54.42)" fill="#f9a825"/>
          <path id="Path_1845" data-name="Path 1845" d="M442.214,89.918c.791-2.646-3.25-4.142-4.056-1.481q-2.546,8.435-5.077,16.856c-.791,2.646,3.25,4.142,4.056,1.481Q439.682,98.338,442.214,89.918Z" transform="translate(-408.319 -40.126)" fill="#f9a825"/>
          <path id="Path_1846" data-name="Path 1846" d="M447.857,106.9c-4.171-9.694-16.9-11.175-24.061-4.128A2.166,2.166,0,0,0,423.22,105a2.069,2.069,0,0,0,1.309,2.229l10.528,4.315c2.632,1.079,8.816,4.214,11.721,4.156C451.021,115.6,449.281,110.2,447.857,106.9Z" transform="translate(-412.639 -35.157)" fill="#f9a825"/>
          <path id="Path_1847" data-name="Path 1847" d="M434.914,80.539a9.689,9.689,0,0,1-14.814-9.2c.4-4.171,3.783-8.227,8.255-7.9a5.555,5.555,0,0,1,5.278,4.415,4.725,4.725,0,0,1-.777,3.754c-1.956,2.215-3.6,1.755-4.9-1.352.288-2.761-4.013-3.121-4.3-.345-.849,8.212,10.082,9.708,13.447,2.992,3.768-7.493-3.682-14.929-11.233-13.606-8.255,1.453-11.952,11.161-9.061,18.438a13.852,13.852,0,0,0,19.934,6.76C439.1,83.042,437.3,79.116,434.914,80.539Z" transform="translate(-415.833 -52.35)" fill="#f9a825"/>
          <path id="Path_1848" data-name="Path 1848" d="M478.874,80.352c-2.431-6.673-11.923-9-15.935-2.431-3.409,5.58,1.769,12.771,8.169,10.772,2.618-.82,1.884-5.077-.762-4.243-5.882,1.841-4.832-7.781,1.151-5.954,5.149,1.568,4.185,8.155,1.553,11.276-4.487,5.35-15.389,6.673-17.474-1.668-.676-2.675-4.919-1.942-4.243.762C455.733,106.484,484.814,96.618,478.874,80.352Z" transform="translate(-400.308 -45.834)" fill="#f9a825"/>
          <path id="Path_1849" data-name="Path 1849" d="M450.543,62.672l-9.607,5.422c-2.4,1.352-.6,5.278,1.812,3.912l4.372-2.474q-4.056,9.945-8.1,19.876c-1.05,2.574,3.006,4.056,4.056,1.481q5.2-12.771,10.4-25.528C454.152,63.721,452.168,61.751,450.543,62.672Z" transform="translate(-405.746 -50.907)" fill="#fdd835"/>
          <path id="Path_1850" data-name="Path 1850" d="M446.756,84.061c-3.365-1.424-6.731-2.862-10.111-4.286-2.56-1.079-4.027,2.977-1.481,4.056,3.365,1.424,6.731,2.862,10.111,4.286C447.835,89.21,449.316,85.154,446.756,84.061Z" transform="translate(-407.942 -43.388)" fill="#fdd835"/>
        </g>
        <g id="Group_1093" data-name="Group 1093" transform="translate(16.688 184.358)">
          <path id="Path_1851" data-name="Path 1851" d="M158.622,174.028c7.134,1.985,16.928,19.258,20.365,23.716-6.63,8.486-5.983,23.788.043,32.705S196.606,244,207.22,242.258s19.9-9.535,23.975-19.5c4.559-11.132,2.258-25.14-6.659-33.194s-25.5-9.823-33.913-1.237c-6.357-6.99-11.391-12.067-17.733-18.927a4.7,4.7,0,0,1-.144-6.371,3.889,3.889,0,0,1,.446-.4c-1.251-1.438-2.129-3.725-3.38-5.163-7.436,2.057-16.108,7.1-20.912,13.174,1.453,1.97,3.452,3.107,5.595,4.516A3.845,3.845,0,0,1,158.622,174.028Z" transform="translate(-148.9 -157.46)" fill="#fff"/>
          <path id="Path_1852" data-name="Path 1852" d="M182.473,195.987a14.945,14.945,0,0,0-10.643,7.436,6.639,6.639,0,0,0,.187,6.6c0,.014.014.014.014.029a24.533,24.533,0,0,0,9.492,8.931c8.687,4.473,19.876,3.279,27.671-2.6a28.952,28.952,0,0,0,11.046-20.811,20.116,20.116,0,0,1-5.508,5.321C202.076,207.565,193.72,195.527,182.473,195.987Z" transform="translate(-139.197 -140.759)" fill="#f50057"/>
          <path id="Path_1853" data-name="Path 1853" d="M188.934,196.845c-.964,1.453-1.827,2.876-2.7,4.257,6.788,2.948,13.361,6.875,21.861,2.387a19.713,19.713,0,0,0,5.508-5.321c.029-.173.043-.331.072-.518a11.482,11.482,0,0,0-10.111-7.953A15.714,15.714,0,0,0,188.934,196.845Z" transform="translate(-132.541 -143.372)" fill="#a90057"/>
          <path id="Path_1854" data-name="Path 1854" d="M179.412,190.327l-.2-.086a2.664,2.664,0,1,0-2.244,4.832l.2.086a2.664,2.664,0,1,0,2.244-4.832Z" transform="translate(-137.272 -143.196)" fill="#f50057"/>
          <path id="Path_1855" data-name="Path 1855" d="M180.87,182.8l-.144.058a2.666,2.666,0,1,0,1.841,5.005l.144-.058a2.666,2.666,0,1,0-1.841-5.005Z" transform="translate(-135.724 -146.428)" fill="#f50057"/>
          <path id="Path_1856" data-name="Path 1856" d="M172.681,179.328c-3.207,1.223-1.381,6.228,1.827,5.005S175.9,178.106,172.681,179.328Z" transform="translate(-139.214 -147.961)" fill="#f50057"/>
        </g>
        <g id="Group_1100" data-name="Group 1100" transform="translate(427.87 148.805)">
          <g id="Group_1095" data-name="Group 1095" transform="translate(26.029)">
            <g id="Group_1094" data-name="Group 1094" transform="translate(4.24 4.22)">
              <path id="Path_1857" data-name="Path 1857" d="M471.947,147.792q-7.378-5.976-14.756-11.937c-.748-.6-1.855.446-1.093,1.064q7.378,5.976,14.756,11.937C471.617,149.475,472.71,148.411,471.947,147.792Z" transform="translate(-455.842 -135.674)" fill="#1b2c4f"/>
              <path id="Path_1858" data-name="Path 1858" d="M467.59,144.58c-.144-.964-1.611-.575-1.467.388q1.381,9.773,2.761,19.56c.144.964,1.611.575,1.467-.388Q468.971,154.345,467.59,144.58Z" transform="translate(-451.34 -132.016)" fill="#1b2c4f"/>
              <path id="Path_1859" data-name="Path 1859" d="M479.313,139.428q-6.3,3.236-12.584,6.486c-.877.446-.115,1.769.748,1.323q6.3-3.236,12.584-6.486C480.938,140.3,480.176,138.982,479.313,139.428Z" transform="translate(-451.241 -134.069)" fill="#1b2c4f"/>
            </g>
            <path id="Path_1860" data-name="Path 1860" d="M457.361,132.74c-5.882,0-6,9.133-.1,9.133C463.129,141.887,463.258,132.74,457.361,132.74Z" transform="translate(-452.893 -132.74)" fill="#f50057"/>
            <path id="Path_1861" data-name="Path 1861" d="M469.641,154.94c-5.882,0-6,9.133-.1,9.133C475.409,164.087,475.538,154.94,469.641,154.94Z" transform="translate(-447.512 -123.011)" fill="#f50057"/>
            <path id="Path_1862" data-name="Path 1862" d="M478.141,136.52c-5.882,0-6,9.133-.1,9.133S484.038,136.52,478.141,136.52Z" transform="translate(-443.787 -131.084)" fill="#f50057"/>
          </g>
          <g id="Group_1097" data-name="Group 1097" transform="translate(0 21.607)">
            <g id="Group_1096" data-name="Group 1096" transform="translate(3.793 4.244)">
              <path id="Path_1863" data-name="Path 1863" d="M452.3,167.363q5.609-7.659,11.2-15.331c.575-.777-.532-1.827-1.122-1.036q-5.609,7.659-11.2,15.331C450.616,167.1,451.723,168.154,452.3,167.363Z" transform="translate(-431.477 -150.715)" fill="#1b2c4f"/>
              <path id="Path_1864" data-name="Path 1864" d="M457.823,162.848c.964-.187.489-1.64-.46-1.453l-19.4,3.711c-.964.187-.489,1.64.46,1.453Q448.129,164.7,457.823,162.848Z" transform="translate(-437.433 -146.041)" fill="#1b2c4f"/>
              <path id="Path_1865" data-name="Path 1865" d="M459.6,174.213q-3.538-6.127-7.09-12.254c-.489-.849-1.783-.029-1.28.82q3.538,6.127,7.09,12.254C458.8,175.867,460.084,175.061,459.6,174.213Z" transform="translate(-431.439 -145.944)" fill="#1b2c4f"/>
            </g>
            <path id="Path_1866" data-name="Path 1866" d="M465.5,152c-.288-5.868-9.42-5.537-9.133.345C456.66,158.2,465.792,157.883,465.5,152Z" transform="translate(-425.343 -147.764)" fill="#f50057"/>
            <path id="Path_1867" data-name="Path 1867" d="M443.935,165.351c-.288-5.868-9.42-5.537-9.133.345C435.09,171.55,444.222,171.233,443.935,165.351Z" transform="translate(-434.795 -141.913)" fill="#f50057"/>
            <path id="Path_1868" data-name="Path 1868" d="M462.745,172.941c-.288-5.868-9.42-5.537-9.133.345S463.032,178.823,462.745,172.941Z" transform="translate(-426.552 -138.587)" fill="#f50057"/>
          </g>
          <g id="Group_1099" data-name="Group 1099" transform="translate(43.244 28.392)">
            <g id="Group_1098" data-name="Group 1098" transform="translate(5.34 3.711)">
              <path id="Path_1869" data-name="Path 1869" d="M478.571,169.764q5.35,7.831,10.715,15.677c.547.805,1.9.1,1.352-.7q-5.35-7.831-10.715-15.677C479.362,168.254,478.01,168.944,478.571,169.764Z" transform="translate(-464.255 -149.084)" fill="#1b2c4f"/>
              <path id="Path_1870" data-name="Path 1870" d="M478.533,175.281c-.144.964,1.381,1.007,1.525.058q1.489-9.773,2.963-19.531c.144-.964-1.381-1.007-1.524-.058Q480.007,165.523,478.533,175.281Z" transform="translate(-464.217 -155.061)" fill="#1b2c4f"/>
              <path id="Path_1871" data-name="Path 1871" d="M469.488,172.81c4.645-.863,9.277-1.74,13.922-2.6.964-.187.618-1.668-.345-1.481-4.646.863-9.277,1.74-13.922,2.6C468.193,171.5,468.524,172.982,469.488,172.81Z" transform="translate(-468.576 -149.08)" fill="#1b2c4f"/>
            </g>
            <path id="Path_1872" data-name="Path 1872" d="M486.8,186.2c5.623,1.683,8.37-7.033,2.718-8.73C483.89,175.806,481.157,184.522,486.8,186.2Z" transform="translate(-456.611 -141.621)" fill="#f50057"/>
            <path id="Path_1873" data-name="Path 1873" d="M481.4,161.425c5.623,1.683,8.37-7.033,2.718-8.73S475.746,159.728,481.4,161.425Z" transform="translate(-458.981 -152.481)" fill="#f50057"/>
            <path id="Path_1874" data-name="Path 1874" d="M467.965,176.635c5.623,1.683,8.37-7.033,2.718-8.73C465.06,166.223,462.327,174.953,467.965,176.635Z" transform="translate(-464.863 -145.815)" fill="#f50057"/>
          </g>
        </g>
        <g id="Group_1101" data-name="Group 1101" transform="translate(494.496 247.377)">
          <path id="Path_1875" data-name="Path 1875" d="M530.063,201.684c-27.312-3.754-50.669,19.042-48.842,46.311.633,9.449,15.446,9.694,14.814.173-1.223-18.28,12.858-34.388,31.885-31.857,18.985,2.531,28.506,21.732,22.465,39.062-3.15,9.018,11.1,13.073,14.238,4.1C573.612,233.7,557.446,205.438,530.063,201.684Z" transform="translate(-481.12 -201.278)" fill="#44c5c7"/>
          <path id="Path_1876" data-name="Path 1876" d="M556.06,237.343q-32.468-4.358-64.95-8.73c-9.42-1.266-9.507,13.562-.173,14.814q32.468,4.358,64.95,8.73C565.307,253.423,565.394,238.609,556.06,237.343Z" transform="translate(-479.863 -189.332)" fill="#44c5c7"/>
          <path id="Path_1877" data-name="Path 1877" d="M488.13,232.9c-.331,2.56-.647,5.12-.978,7.666-.144,1.179,1.7,1.194,1.855.014.331-2.56.647-5.12.978-7.666C490.13,231.753,488.274,231.739,488.13,232.9Z" transform="translate(-478.48 -187.798)" fill="#37474f"/>
          <path id="Path_1878" data-name="Path 1878" d="M490.02,237.431v1.381a.928.928,0,0,0,1.855.014v-1.381A.928.928,0,0,0,490.02,237.431Z" transform="translate(-477.22 -185.824)" fill="#37474f"/>
          <path id="Path_1879" data-name="Path 1879" d="M493.3,238.249v.978a.928.928,0,0,0,1.855.014v-.978A.928.928,0,0,0,493.3,238.249Z" transform="translate(-475.783 -185.463)" fill="#37474f"/>
          <path id="Path_1880" data-name="Path 1880" d="M498.265,233.9l-1.122,7.68c-.173,1.165,1.611,1.683,1.783.518l1.122-7.68C500.221,233.242,498.438,232.724,498.265,233.9Z" transform="translate(-474.104 -187.272)" fill="#37474f"/>
          <path id="Path_1881" data-name="Path 1881" d="M500.115,239.1c-.072.46-.129.92-.2,1.381-.173,1.165,1.611,1.683,1.783.518.072-.46.129-.92.2-1.381C502.071,238.453,500.288,237.935,500.115,239.1Z" transform="translate(-472.89 -184.991)" fill="#37474f"/>
          <path id="Path_1882" data-name="Path 1882" d="M502.46,239.621v.791a.928.928,0,0,0,1.855.014v-.791A.928.928,0,0,0,502.46,239.621Z" transform="translate(-471.769 -184.864)" fill="#37474f"/>
          <path id="Path_1883" data-name="Path 1883" d="M507.528,234.73c-.532,2.891-1.05,5.767-1.582,8.658-.216,1.165,1.568,1.683,1.783.518.518-2.891,1.05-5.767,1.582-8.658C509.527,234.083,507.743,233.565,507.528,234.73Z" transform="translate(-470.249 -186.906)" fill="#37474f"/>
          <path id="Path_1884" data-name="Path 1884" d="M510.076,240.062c-.072.388-.129.791-.2,1.179-.187,1.165,1.582,1.683,1.783.518.072-.388.129-.791.2-1.179C512.046,239.415,510.277,238.883,510.076,240.062Z" transform="translate(-468.526 -184.572)" fill="#37474f"/>
          <path id="Path_1885" data-name="Path 1885" d="M512.754,240.521c-.072.129-.13.259-.2.388-.532,1.064,1.05,2.013,1.582.949l.2-.388C514.883,240.42,513.3,239.457,512.754,240.521Z" transform="translate(-467.393 -184.283)" fill="#37474f"/>
          <path id="Path_1886" data-name="Path 1886" d="M518.283,235.81c-.69,3.15-1.4,6.3-2.085,9.464-.259,1.165,1.524,1.683,1.783.518.69-3.15,1.4-6.3,2.085-9.464C520.326,235.163,518.542,234.645,518.283,235.81Z" transform="translate(-465.76 -186.432)" fill="#37474f"/>
          <path id="Path_1887" data-name="Path 1887" d="M519.56,241.671v1.381a.928.928,0,0,0,1.855.014v-1.381A.928.928,0,0,0,519.56,241.671Z" transform="translate(-464.275 -183.966)" fill="#37474f"/>
          <path id="Path_1888" data-name="Path 1888" d="M522.095,241.972c-.072.46-.129.92-.2,1.381-.173,1.165,1.611,1.683,1.783.518.072-.46.13-.92.2-1.381C524.051,241.325,522.268,240.793,522.095,241.972Z" transform="translate(-463.258 -183.735)" fill="#37474f"/>
          <path id="Path_1889" data-name="Path 1889" d="M527.312,236.358q-1.273,4.746-2.56,9.492a.929.929,0,0,0,1.783.518q1.273-4.746,2.56-9.492A.929.929,0,0,0,527.312,236.358Z" transform="translate(-462.017 -186.189)" fill="#37474f"/>
          <path id="Path_1890" data-name="Path 1890" d="M528.188,242.25c-.129.518-.259,1.05-.388,1.568-.288,1.151,1.5,1.668,1.783.518l.388-1.568C530.259,241.6,528.475,241.085,528.188,242.25Z" transform="translate(-460.678 -183.61)" fill="#37474f"/>
          <path id="Path_1891" data-name="Path 1891" d="M530.314,242.363c-.2.46-.388.92-.59,1.381-.475,1.093,1.323,1.6,1.783.518.2-.46.388-.921.59-1.381C532.572,241.787,530.788,241.284,530.314,242.363Z" transform="translate(-459.856 -183.536)" fill="#37474f"/>
        </g>
        <g id="Group_1102" data-name="Group 1102" transform="translate(0 305.276)">
          <path id="Path_1892" data-name="Path 1892" d="M220.949,270.9q-37.883-14.454-75.751-28.908c-5.48-2.085-8.845,3.452-7.666,7.953a7.038,7.038,0,0,0,.82,2.229q19.308,33.266,38.616,66.518c3.02,5.192,9.722,3.322,11.65-.849l33.05-33.956a8,8,0,0,0,.719-.877C226.227,280.547,226.7,273.1,220.949,270.9Zm-37.293,33.5q-12.642-21.789-25.3-43.564,24.68,9.428,49.374,18.841Z" transform="translate(-137.297 -241.535)" fill="#fdd835"/>
          <path id="Path_1893" data-name="Path 1893" d="M145.533,242.953c-1.194,1.611-2.387,3.222-3.581,4.818-.547.748.69,1.481,1.237.733,1.194-1.611,2.387-3.222,3.581-4.818C147.316,242.939,146.079,242.22,145.533,242.953Z" transform="translate(-135.316 -241.048)" fill="#37474f"/>
          <path id="Path_1894" data-name="Path 1894" d="M146.136,244.3c-.4.6-.805,1.194-1.208,1.8-.518.762.719,1.51,1.237.733.4-.6.805-1.194,1.208-1.8C147.891,244.269,146.654,243.536,146.136,244.3Z" transform="translate(-134.007 -240.465)" fill="#37474f"/>
          <path id="Path_1895" data-name="Path 1895" d="M147.593,244.9c-.273.4-.532.805-.805,1.208-.518.777.719,1.51,1.237.733.273-.4.532-.805.805-1.208C149.348,244.858,148.111,244.124,147.593,244.9Z" transform="translate(-133.192 -240.205)" fill="#37474f"/>
          <path id="Path_1896" data-name="Path 1896" d="M151.167,245.841c-1.179,1.884-2.373,3.754-3.552,5.638a.719.719,0,0,0,1.237.733c1.179-1.884,2.373-3.754,3.552-5.638C152.893,245.8,151.656,245.064,151.167,245.841Z" transform="translate(-132.825 -239.793)" fill="#37474f"/>
          <path id="Path_1897" data-name="Path 1897" d="M152.036,246.436c-.273.46-.532.935-.805,1.4a.719.719,0,0,0,1.237.733c.273-.46.532-.935.805-1.4A.719.719,0,0,0,152.036,246.436Z" transform="translate(-131.234 -239.54)" fill="#37474f"/>
          <path id="Path_1898" data-name="Path 1898" d="M154.368,247.554l-.805,1.007c-.575.719.431,1.755,1.007,1.036.273-.331.532-.662.805-1.007C155.95,247.871,154.943,246.835,154.368,247.554Z" transform="translate(-130.244 -239.004)" fill="#37474f"/>
          <path id="Path_1899" data-name="Path 1899" d="M157.6,248.344c-1.079,1.855-2.157,3.725-3.236,5.58a.719.719,0,0,0,1.237.733c1.079-1.855,2.157-3.725,3.236-5.58A.72.72,0,0,0,157.6,248.344Z" transform="translate(-129.863 -238.7)" fill="#37474f"/>
          <path id="Path_1900" data-name="Path 1900" d="M159.1,248.944l-.805,1.007c-.575.719.431,1.755,1.007,1.035.273-.331.532-.662.805-1.007C160.68,249.26,159.687,248.225,159.1,248.944Z" transform="translate(-128.171 -238.395)" fill="#37474f"/>
          <path id="Path_1901" data-name="Path 1901" d="M160.617,250.043c-.2.273-.4.532-.6.805-.561.748.69,1.467,1.237.733.2-.273.4-.532.6-.805C162.415,250.043,161.178,249.309,160.617,250.043Z" transform="translate(-127.404 -237.94)" fill="#37474f"/>
          <path id="Path_1902" data-name="Path 1902" d="M164.157,250.041q-2.028,3.193-4.041,6.386c-.5.777.733,1.525,1.237.733q2.028-3.193,4.041-6.386C165.883,250,164.646,249.264,164.157,250.041Z" transform="translate(-127.348 -237.952)" fill="#37474f"/>
          <path id="Path_1903" data-name="Path 1903" d="M164.986,251.166c-.273.46-.532.935-.805,1.4a.719.719,0,0,0,1.237.733c.273-.46.532-.935.805-1.4C166.683,251.108,165.446,250.36,164.986,251.166Z" transform="translate(-125.559 -237.466)" fill="#37474f"/>
          <path id="Path_1904" data-name="Path 1904" d="M166.757,252.571c-.072.129-.129.273-.2.4-.417.82.82,1.568,1.237.733.072-.129.129-.273.2-.4C168.411,252.485,167.174,251.737,166.757,252.571Z" transform="translate(-124.512 -236.858)" fill="#37474f"/>
          <path id="Path_1905" data-name="Path 1905" d="M170.171,253.511l-3.725,5.724c-.5.777.733,1.51,1.237.734,1.237-1.913,2.488-3.811,3.725-5.724C171.911,253.468,170.674,252.734,170.171,253.511Z" transform="translate(-124.574 -236.432)" fill="#37474f"/>
          <path id="Path_1906" data-name="Path 1906" d="M170.907,254.5c-.2.331-.4.662-.6,1.007a.719.719,0,0,0,1.237.734c.2-.331.4-.662.6-1.007A.719.719,0,0,0,170.907,254.5Z" transform="translate(-122.879 -236.001)" fill="#37474f"/>
          <path id="Path_1907" data-name="Path 1907" d="M172.519,255.071c-.129.273-.273.532-.4.805-.417.82.82,1.568,1.237.733.129-.273.273-.532.4-.805C174.158,254.985,172.921,254.237,172.519,255.071Z" transform="translate(-122.075 -235.763)" fill="#37474f"/>
          <path id="Path_1908" data-name="Path 1908" d="M176.749,255.331c-1.424,2.114-2.848,4.243-4.272,6.357-.518.777.719,1.51,1.237.733,1.424-2.114,2.848-4.243,4.272-6.357C178.5,255.288,177.267,254.554,176.749,255.331Z" transform="translate(-121.934 -235.634)" fill="#37474f"/>
          <path id="Path_1909" data-name="Path 1909" d="M177.821,256.182c-.331.4-.662.805-1.007,1.208-.59.7.417,1.74,1.007,1.036.331-.4.662-.805,1.007-1.208C179.4,256.512,178.411,255.477,177.821,256.182Z" transform="translate(-120.057 -235.22)" fill="#37474f"/>
          <path id="Path_1910" data-name="Path 1910" d="M179.439,256.855l-.4.4a.723.723,0,0,0,1.007,1.036l.4-.4C181.093,257.229,180.086,256.193,179.439,256.855Z" transform="translate(-119.1 -234.915)" fill="#37474f"/>
          <path id="Path_1911" data-name="Path 1911" d="M182.349,258.371c-1.338,2.071-2.675,4.128-4.013,6.2-.5.777.733,1.51,1.237.734,1.338-2.071,2.675-4.128,4.013-6.2C184.089,258.328,182.852,257.594,182.349,258.371Z" transform="translate(-119.364 -234.302)" fill="#37474f"/>
          <path id="Path_1912" data-name="Path 1912" d="M183.408,259.075c-.331.46-.676.935-1.007,1.4-.547.748.69,1.481,1.237.734.331-.46.676-.935,1.007-1.4C185.177,259.061,183.94,258.327,183.408,259.075Z" transform="translate(-117.59 -233.985)" fill="#37474f"/>
          <path id="Path_1913" data-name="Path 1913" d="M184.687,259.661c-.072.129-.129.259-.2.4-.417.82.82,1.568,1.237.734.072-.129.129-.259.2-.4C186.341,259.575,185.119,258.827,184.687,259.661Z" transform="translate(-116.654 -233.751)" fill="#37474f"/>
          <path id="Path_1914" data-name="Path 1914" d="M188.6,260.471c-1.467,2.344-2.934,4.674-4.387,7.019a.719.719,0,0,0,1.237.733c1.467-2.344,2.934-4.674,4.387-7.019C190.327,260.428,189.1,259.694,188.6,260.471Z" transform="translate(-116.785 -233.382)" fill="#37474f"/>
          <path id="Path_1915" data-name="Path 1915" d="M189.766,261.606c-.273.46-.532.935-.805,1.4a.719.719,0,0,0,1.237.733c.273-.46.532-.935.805-1.4C191.449,261.548,190.226,260.8,189.766,261.606Z" transform="translate(-114.7 -232.891)" fill="#37474f"/>
          <path id="Path_1916" data-name="Path 1916" d="M192.3,262.3l-1.007,1.007a.723.723,0,0,0,1.007,1.036l1.007-1.007C193.971,262.679,192.964,261.643,192.3,262.3Z" transform="translate(-113.727 -232.526)" fill="#37474f"/>
        </g>
      </g>
    </g>
  </g>
</svg>
