<svg xmlns="http://www.w3.org/2000/svg" width="114.622" height="49.821" viewBox="0 0 114.622 49.821">
  <g id="Group_1397" data-name="Group 1397" transform="matrix(0.998, -0.07, 0.07, 0.998, -1.22, 6.663)">
    <g id="Group_43" data-name="Group 43" transform="translate(1.137 1.229)">
      <path id="Path_304" data-name="Path 304" d="M564.67,141.021c.043-.029.072-.072.115-.1A.72.72,0,0,0,564.67,141.021Z" transform="translate(-512.807 -109.717)" fill="#f50057"/>
      <path id="Path_305" data-name="Path 305" d="M636.712,140.734c-1.668-8.2-3.961-4.414-9.654,2.216,12.508-16.407-.795-7.363-6.905,1.573,4.156-3.968,11.739-18.98,2.462-8.436.078-.089.156-.179.221-.268-.625.751-1.251,1.5-1.876,2.234a.246.246,0,0,0,.052-.071c-10.11,10.83,5.016-3.557,2.006-6.97-2.358.661-3.948,4.325-5.928,6.2,7.791-13.35-5.12-4.057-9.355,4.325,14.762-20.088,1.59-10.276-5.589,1.984,11.8-18.247-.652-13.922-9.485-4.379,12.964-14.351.717-8.775-5.824.643,2.072-2.556,4.169-5.094,6.254-7.631l-.013.018c5.264-10.562-10.527,6.309-13.029,9.454q3.967-5.388,8.065-10.634a2.694,2.694,0,0,0-.2.232c3.114-6.684-4.143-.572-5.485,1.751,3.557-5.272-2.163-2.824-3.57.089,9.2-10.866-1.225-5.522-5.159.894,6.345-7.917.052-7.006-3.518-1.162,6.814-12.314-6.853,2.663-9.433,6.684,12.911-16.389,6.28-13.154-3.27-.84,12.26-17,5.655-14.566-3.713-1.591,8.69-12.546,1.616-10.366-4-.84,10.788-16.657-1.12-5.9-6.045,3.02,4.782-6.059,9.576-19.087.873-6.738,5.837-9.24-.287-6.488-3.283.054,4.99-7.846.274-5.719-2.371.179,7.387-14.53-4.6.411-7.413,6.112,2.971-4.307,11.218-21.786,2.684-10.848,1.094-1.18,2.723-5.862.039-4.146.039-.036.078-.089.117-.125-4.638,3.5-8.534,10.741-6.006,14.959,6.345-6.505-3.622,6.666-3.5,11.081,4.808-1.751,8.065-12.493,12.442-17.05-32.533,40.534,34.813,23.073,53.105,31.026C614.355,160.536,638.6,179.409,636.712,140.734Zm-1.655-3c-.091.089-.052.036,0,0C635.005,137.767,634.979,137.82,635.057,137.731ZM614.211,129.3ZM526.1,149.652c.013-.018.013,0,0,0C526.111,149.652,526.111,149.634,526.1,149.652Zm95.6,3.986c-3.909,4.647,1.277-2.091,2.866-3.789C623.605,151.117,622.654,152.386,621.7,153.637Zm-2.645-3.914a.244.244,0,0,0,.052-.071c-.026.036-.052.054-.078.089C619.045,149.741,619.058,149.723,619.058,149.723Zm-2.332,2.788a.127.127,0,0,0,.052-.071l-.039.054a.773.773,0,0,0,.1-.125c-.013.018-.026.036-.039.036l2.384-2.842c-.026.036-.052.054-.078.089.026-.018.039-.054.065-.071,0,0-.013,0-.013.018.013-.018.026-.018.026-.036a.383.383,0,0,0-.065.089.669.669,0,0,1,.091-.107l-.013.018.026-.036a.2.2,0,0,1-.052.054c1.564-1.859,3.127-3.717,4.716-5.522C621.925,147.6,611.189,160.893,616.726,152.511Zm-9.667,1.43c-.417.447-.664,1.394-1.185,1.466C606.264,154.924,606.655,154.441,607.059,153.941Zm-.847-22.7c-.026.089-.013.036,0,0C606.2,131.3,606.2,131.333,606.212,131.244ZM594.069,150.1c1.954-2.842,4.1-5.415,6.254-7.971-.013,0-.013.018-.026.018.065-.071.13-.161.2-.232a2.675,2.675,0,0,1-.182.214C609,133.21,584.61,168.489,594.069,150.1Zm-7.153,4.557c.964-1.019,1.941-2.02,2.879-3.092C588.936,152.386,587.516,155.442,586.916,154.656Zm-2.228-3.431c.339-.34.678-.7,1.016-1.037C582.773,154.727,579.594,156.193,584.688,151.224Zm-6.462,1.751c-.3.357-.6.715-.886,1.054.013-.018.026-.036.039-.036C575.907,155.621,577.314,153.834,578.226,152.976ZM572.871,144c.026-.036.052-.054.078-.089-.026.036-.065.072-.091.107Zm3.088,6.309.2-.214C572.363,155.514,571.308,155.049,575.959,150.313Zm-7.648,3.807c-.143.143-.221.483-.417.447C568.038,154.424,568.168,154.263,568.311,154.12ZM563.842,139.3l.026-.036c-.013,0-.026.018-.026.036Zm-30.526,14.852c-.508.036-.221-.268.026-.625A1.69,1.69,0,0,0,533.316,154.155Zm-4.821-2.323c.013-.018.013-.036.026-.036a.1.1,0,0,0-.026.054C528.482,151.85,528.482,151.85,528.5,151.832Zm-.691,1.233c-.039,0-.091.036-.13.036,2.684.393,4.638-2.86,6.8-6.416C532.169,149.92,531.518,155.585,527.8,153.065Zm7.817,1.34c.7-.822,1.355-1.716,2.019-2.627C536.573,152.922,537.107,155.067,535.622,154.406Zm3.453.375c1.837-3.7,6.918-9.436,9.9-13.779C545.55,144.987,543.244,153.53,539.075,154.781Zm4.495-.018c3.7-5.522,7.57-10.848,11.609-15.888C551.035,143.539,547.726,153.28,543.57,154.763Zm6.4-2.609c-4.495,6.631.117-1.769,2.71-4.111C551.778,149.4,550.866,150.778,549.967,152.154Zm1.133,2.574c2.319-2.663,4.547-5.5,6.814-8.257C555.217,148.99,553.953,155,551.1,154.727Zm7.387-.3c-6.827,1.644,4.13-7.721,6.032-11.206-3.14,2.806-9.85,16.1-2.241,8.364C561.145,153.262,560.311,154.96,558.487,154.424Z" transform="translate(-524.859 -123.471)" fill="#f50057"/>
      <path id="Path_306" data-name="Path 306" d="M595.578,139.56a.2.2,0,0,1-.058.043A.2.2,0,0,1,595.578,139.56Z" transform="translate(-505.583 -110.799)" fill="#f50057"/>
      <path id="Path_307" data-name="Path 307" d="M595.564,139.59c-.014.014-.043.029-.058.043l.043-.043c-.029.029-.057.043-.072.072.015,0,.015-.014.029-.014a.384.384,0,0,1-.086.072A1.283,1.283,0,0,1,595.564,139.59Z" transform="translate(-505.627 -110.761)" fill="#f50057"/>
    </g>
  </g>
</svg>
