<svg xmlns="http://www.w3.org/2000/svg" width="1411.931" height="520.319" viewBox="0 0 1411.931 520.319">
  <g id="Group_2015" data-name="Group 2015" transform="translate(-202 -6648.818)">
    <g id="Group_1552" data-name="Group 1552" transform="translate(1085.125 6909.133)">
      <path id="Path_38367" data-name="Path 38367" d="M612.181,611.743a22.825,22.825,0,0,0-3.354-.464,39.517,39.517,0,0,0,3.081-23.937c-3.336-17.267-18-30.316-33.748-36.568-32.919-13.065-70.037,4.555-81.81,37.688-3.218,9.055-3.814,18.692-1.243,27.285a19.32,19.32,0,0,0-4.392,5.044c-3.982,6.475,4.579,14.278,10.269,10.406,8.322,11.174,26.474,17.427,38.479,19.426,19.352,3.222,36.978-5.839,51.84-17.551a66.092,66.092,0,0,0,8.448-7.973c.281.04.588.086.859.133.032.038.381.185.753.393,1.357.757,2.68,1.455,4,2.286,4.516,2.832,10.564.472,12.549-4.231C619.857,619.075,617.43,612.871,612.181,611.743Z" transform="translate(-429.925 -529.439)" fill="#f4d9bf"/>
      <path id="Path_38368" data-name="Path 38368" d="M591.723,651.539a74.581,74.581,0,0,1-22.564-29.832c-1.022-2.525-1.387-6.467-2.836-8.683-.006-.271-.022-.5-.04-.719,1.375-.141,2.752-.253,4.133-.307,5.259-.273,12,1.379,16.8-1.293a7.824,7.824,0,0,0,3.475-10.333c-2.244-4.47-7.884-5.452-12.411-5.458-6.734-.01-13.284,2.5-19.617,4.48l-20.307,6.339c-.514-.134-1.036-.285-1.576-.476a6.368,6.368,0,0,0-5.558.779l-.034-.012a33.4,33.4,0,0,1-9.338-3.765,25.152,25.152,0,0,0-7.947-2.877c-6.188-1.02-11.474,1.819-13.838,7.553-1.006,2.445.683,5.53,2.762,6.787,1.3.785,2.537,1.7,3.82,2.391a3.3,3.3,0,0,0,2.266,1.915c5.217,1.305,11.2.935,16.512-.038a228.768,228.768,0,0,1-14.091,31.883c-3.172,6.038,2.417,11.006,7.5,9.886a6.525,6.525,0,0,0,4.015,1.257c21.369-.243,43.216-.689,64.526,1.012C592.454,662.434,595.812,654.843,591.723,651.539Z" transform="translate(-419.923 -481.318)" fill="#f50057"/>
      <path id="Path_38369" data-name="Path 38369" d="M583.154,663.12l-5.966-21.994c-1.116-4.113-1.787-9.2-5.7-11.692-4.163-2.654-11.632-1.574-16.321-1.5-5.849.086-12.563-.317-18.31,1.339q-8.971-.356-17.937-.672c-3.449-.125-5.343,3.378-4.962,6.289l-.02.03c-2.029,4.018-1.947,9.844-2.459,14.215-.7,5.954-1.3,11.9-1.477,17.9a3.83,3.83,0,0,0,1.744,3.364,5.327,5.327,0,0,0,5.183,2.919,153.973,153.973,0,0,1,20.291.588c3.38.265,5.576-2.917,5.867-5.867.831-8.418,1.905-16.805,2.87-25.2.355,2.852.873,5.693,1.381,8.5,1.074,5.919,1.941,12.7,4.424,18.188,4.818,10.647,18.728,3.515,26.968,1.407A6.434,6.434,0,0,0,583.154,663.12Z" transform="translate(-409.768 -448.814)" fill="#ee7c3d"/>
      <path id="Path_38370" data-name="Path 38370" d="M631.283,620.612a43.279,43.279,0,0,0,3.256-22.206c-3.561-28.315-31.3-44.423-58.04-42.5-.672-.14-1.347-.251-2.025-.351a39.223,39.223,0,0,1,3.181-15.586c.769-1.893-2.1-2.81-3.123-1.315a22.484,22.484,0,0,0-3.284,16.572c-1.371-.082-2.748-.1-4.125-.048-.52-5.391-2.965-10.849-7.307-14.119-1.285-.97-3.065.917-2.2,2.2a63.39,63.39,0,0,1,4.637,6.891,34.393,34.393,0,0,1,2.068,5.237,47.246,47.246,0,0,0-8.952,1.855A22.179,22.179,0,0,0,543.7,545.626c-1.941-.751-2.949,2.182-1.357,3.22a31.327,31.327,0,0,1,9.89,9.486c-13.756,5.237-25.952,16.281-31.911,28.575a54.086,54.086,0,0,0-3.792,36.57c-4.633.787-8.278,5.683-6.692,10.556s8.989,7.782,13.069,4.2a47.291,47.291,0,0,0,9.3,10.646,53.869,53.869,0,0,0,8.125,5.622,87.153,87.153,0,0,0-10.486.865,2.17,2.17,0,0,0-1.847,3.218c.863,1.58,1.7,3.172,2.547,4.759-21.634,3.161-50.1-12.134-58.472-32.182a1.476,1.476,0,0,0-2.844.785c2.848,14.219,16.219,23.81,28.73,29.447a76.171,76.171,0,0,0,20.542,5.99c4.53.65,10.121,1.971,13.459-1.4.576,1.084,1.166,2.162,1.738,3.246,1.1,2.073,2.09,5.028,4.28,6.253,2.377,1.331,5.855.725,8.408.718,2.69-.01,5.4.09,8.077-.1-4.6,13.035-9.6,25.725-16.883,37.931a2.165,2.165,0,0,0,1.849,3.222q7.389.356,14.781.622c-2.491,4.526-2.338,11.845-3.031,16.3-1.377,8.836-2.549,17.7-3.647,26.574-.159,1.281,1.194,2.278,2.322,2.322q16.491.652,32.981.225a2.361,2.361,0,0,0,2.3-2.3c.64-8.9,1.991-18.359,2.5-27.646q.2,3.9.454,7.782c.337,5.293-.59,13.266,1.736,18.138,1.69,3.539,5.064,3.059,8.473,2.918,8.338-.347,16.672-.815,25.008-1.224a2.2,2.2,0,0,0,2.1-2.752c-3.561-12.971-6.168-26.964-11.2-39.5,4.273-.036,8.545-.058,12.818-.135a2.259,2.259,0,0,0,1.578-3.81c-12.387-13.507-21.49-28.433-28.921-44.732,2.878.57,5.849.193,8.788.277a97.9,97.9,0,0,1,11.423,1.014,2.2,2.2,0,0,0,2.742-2.09q-.036-8.322-.076-16.642a2.27,2.27,0,0,0-2.216-2.218c-4.578-.373-9.147-.58-13.726-.721a75.627,75.627,0,0,0,16.478-15.3c.012.006.02.014.032.02,5.664,2.14,14.153.674,14.844-6.64C638.31,624.112,634.577,620.074,631.283,620.612ZM520.57,635.353a5.736,5.736,0,0,1-5.343-.592c-3.593-2.539-1.248-7.08,2.148-8.366a49.6,49.6,0,0,0,3.711,8.8C520.916,635.242,520.745,635.3,520.57,635.353Zm20.958,36.582c-2.844-.761-3.884-4.266-5.139-6.606-1.064-1.983-2.106-3.978-3.151-5.968,4.051-.339,8.266-.823,11.927-2.385a56.837,56.837,0,0,0,14.45,4.2c-1.261,3.657-2.5,7.29-3.749,10.9C551.161,671.759,545.894,673.1,541.528,671.935Zm39.148,86.788q-14.1.29-28.184-.211c.859-5.982,1.684-11.969,2.423-17.967.474-3.842.915-7.69,1.3-11.544.333-3.34.04-7.72,1.325-11.006q13.353.46,26.709.657C581.21,731.382,581.485,745.572,580.676,758.723Zm39.782-1.959-13.822.735c-2.435.13-5.913.979-8.336.444q-4.675,1.518-5.127-4.362-.179-2.074-.377-4.151c-.929-10.229-1.495-20.544-2.846-30.733q10.2.1,20.406.046C612.264,731.523,616.841,744.3,620.458,756.764Zm-2.316-102.144q.063,6.029.127,12.062c-6.142-1.03-13.635-2.234-19.143-.337a1.876,1.876,0,0,0-.829.6q-1.74-3.967-3.37-8.041c-.978-2.443-4.854-1.536-4.051,1.116,6.052,19.992,17.507,38.447,31.227,54.166q-39.529.658-79.036-1.058c9.059-15.733,17.02-33.5,19.242-51.583a63.822,63.822,0,0,0,33.258-5.592c2.019-.927,4.027-2,6.016-3.155C607.1,653.511,612.6,654.165,618.143,654.619Zm-51.677,2.618c-27.923-1.152-50.581-24.681-46.113-53.138a50.813,50.813,0,0,1,21.337-33.8c10.074-7,21.124-9.065,32.706-11.5a1.59,1.59,0,0,0,1.463.771c14.48-.207,29.292,3.384,40.228,13.375,10.641,9.721,16.353,24.667,12.987,38.911C622.83,638.3,592.944,658.328,566.466,657.238ZM633.1,629.456c-2.007,2.559-5.293,2.76-8.338,2.676a59.6,59.6,0,0,0,4.888-7.989c.022,0,.044,0,.066,0C633.029,623.643,635.3,626.651,633.1,629.456Z" transform="translate(-450.284 -537.91)" fill="#3c3c3b"/>
      <path id="Path_38371" data-name="Path 38371" d="M555,576.98c-.741-1.748-3.772-.871-3.6.974.907,9.593-2.132,20.089-12.3,23.527-11.359,3.84-21.153-5.205-24.563-15.183-.578-1.688-3.328-1.521-3.254.44.51,13.523,15.442,23.278,28.222,19.784C551.528,603.237,560,588.8,555,576.98Z" transform="translate(-408.496 -500.061)" fill="#3c3c3b"/>
      <path id="Path_38372" data-name="Path 38372" d="M527.643,573.739a6.471,6.471,0,0,0-8.979-1.881,1.214,1.214,0,0,0,1.225,2.094,3.63,3.63,0,0,1,4.839,1.483c.827,1.869-.393,3.2-1.562,4.46-1.142,1.228-.034,3.7,1.764,3.031C528.445,581.619,529.5,576.782,527.643,573.739Z" transform="translate(-401.731 -505.261)" fill="#3c3c3b"/>
      <path id="Path_38373" data-name="Path 38373" d="M510.492,567.719c-1.269-.973-3.011-.094-3.8,1-1.682,2.328-2.174,7.6,1.329,8.577a2.535,2.535,0,0,0,3.031-1.72l.012-.042a5.025,5.025,0,0,0,1.513-3.1A4.815,4.815,0,0,0,510.492,567.719Z" transform="translate(-414.332 -508.733)" fill="#3c3c3b"/>
      <path id="Path_38374" data-name="Path 38374" d="M539.388,569.224a6.866,6.866,0,0,0-1.521-5.907,2.763,2.763,0,0,0-3.332-.43,2.865,2.865,0,0,0-1.265,3.1c.365,2.045.65,4.123,1.124,6.144a2.717,2.717,0,0,0,5.329-.721C539.635,570.683,539.508,569.953,539.388,569.224Z" transform="translate(-386.721 -513.474)" fill="#3c3c3b"/>
      <path id="Path_38375" data-name="Path 38375" d="M472.837,584.24c-3.342-.518-6.554-1.2-9.179-3.5a2.311,2.311,0,0,0-2.252-.6l-.424.163a1.781,1.781,0,0,0-1.236,1.622l-.04.446a2.256,2.256,0,0,0,1.146,2c3.687,1.941,7.784,3.264,11.985,2.533A1.393,1.393,0,0,0,472.837,584.24Z" transform="translate(-459.701 -496.088)" fill="#3c3c3b"/>
      <path id="Path_38376" data-name="Path 38376" d="M473.862,584.261c-1.058-1.957-2.236-3.836-3.458-5.693-1.174-1.784-2.037-3.924-4.416-4.033a2.014,2.014,0,0,0-1.911,1.457c-.668,2.228,1.3,3.916,2.551,5.556,1.331,1.742,2.7,3.45,4.181,5.07C472.335,588.292,474.884,586.156,473.862,584.261Z" transform="translate(-455.49 -501.552)" fill="#3c3c3b"/>
      <path id="Path_38377" data-name="Path 38377" d="M475.225,573.395c-.371-1.941-3.555-1.943-3.926,0-.977,5.131-.03,11.174.241,16.375a1.723,1.723,0,0,0,3.444,0C475.255,584.564,476.2,578.522,475.225,573.395Z" transform="translate(-448.615 -504.128)" fill="#3c3c3b"/>
      <path id="Path_38378" data-name="Path 38378" d="M531.213,667.525c-.161-5.094.078-10.444-1.251-15.39a1,1,0,0,0-1.913,0c-1.166,4.267-1.066,8.828-1.24,13.23q-.129,3.24-.229,6.483c-.024.767.018,1.544.046,2.306-4.711-2.638-14.448-7.469-19.236-2.844-4.364,4.217-.456,10.255,4.127,12.078,4.651,1.853,16.369,3.643,19.306-1.855C532.777,677.875,531.338,671.514,531.213,667.525ZM525.176,678.9c-2.443,1.793-17.774-.138-13.475-4.852,1.632-1.79,12.345,2.911,14.039,3.2a1.668,1.668,0,0,0,.606-.006A3.241,3.241,0,0,1,525.176,678.9Z" transform="translate(-414.244 -425.212)" fill="#3c3c3b"/>
      <path id="Path_38379" data-name="Path 38379" d="M559.81,668.69c-5.747-4.593-12.359-.7-17.162,3.222-.395-2.585-.339-5.454-.576-7.812-.385-3.8-.8-7.6-1.437-11.371-.279-1.652-2.814-1.2-2.846.385-.114,5.845.163,11.747.58,17.578.233,3.286.476,6.69,2.525,9.422,3.88,5.177,12.072,4.749,17.142,1.654C562.809,678.854,564.671,672.574,559.81,668.69Zm-3.928,8.671c-3.286,3.354-9.344,2.248-11.8-1.258a2.406,2.406,0,0,0,1.2-.5c1.73-1.361,4.013-3.3,6.2-3.91C554.954,670.715,559.158,674.019,555.882,677.361Z" transform="translate(-382.201 -424.951)" fill="#3c3c3b"/>
      <path id="Path_38380" data-name="Path 38380" d="M593.658,615.38c-6.877-2.451-14.181-3.689-21.109-6.11a200.147,200.147,0,0,1-22.124-9.547,1.385,1.385,0,0,0-1.4,2.389c12.583,8.041,29.055,15.827,44.182,16.574C595.2,618.786,595.36,615.988,593.658,615.38Z" transform="translate(-371.68 -476.707)" fill="#3c3c3b"/>
      <path id="Path_38381" data-name="Path 38381" d="M578.189,617.2a19.967,19.967,0,0,1-4.836-5.012,1.5,1.5,0,0,0-2.591,1.514,18.841,18.841,0,0,0,4.753,6.174,1.95,1.95,0,0,0,2.674,0A1.906,1.906,0,0,0,578.189,617.2Z" transform="translate(-349.624 -464.886)" fill="#3c3c3b"/>
      <path id="Path_38382" data-name="Path 38382" d="M585.063,611.733c-1.24-1.636-2.66-1.329-4.593-1.544-2.136-.239-4.266-.536-6.4-.8-1.572-.2-1.917,2.441-.375,2.768,1.985.419,3.974.819,5.954,1.258,1.71.381,3.328,1.3,4.91.233A1.412,1.412,0,0,0,585.063,611.733Z" transform="translate(-347.517 -466.961)" fill="#3c3c3b"/>
      <path id="Path_38383" data-name="Path 38383" d="M585,605.579c-1.57-.642-3.175.259-4.767.54a26.031,26.031,0,0,1-5.556.259c-1.819-.072-2.278,2.88-.436,3.228a22.552,22.552,0,0,0,6.506.309c1.965-.2,4.037-.251,5.2-2.017A1.6,1.6,0,0,0,585,605.579Z" transform="translate(-347.158 -470.954)" fill="#3c3c3b"/>
    </g>
    <g id="Group_1554" data-name="Group 1554" transform="translate(1324.408 6651.513)">
      <path id="Path_38384" data-name="Path 38384" d="M651.363,539.895a8.043,8.043,0,0,0-9.745-5.532,12.419,12.419,0,0,0-5.654,3.149,7.917,7.917,0,0,0-13.441-1.186,14.168,14.168,0,0,0-3.968-5.8,9.693,9.693,0,0,0-13.882,2.154c-3.6,4.97-1.642,10.462.941,15.372.652,1.241,1.337,2.467,2,3.7a12.163,12.163,0,0,0-6.9,1.389c-3.934,1.788-4.117,6.787-2.658,10.135.032.112.08.215.116.323-2.4.329-4.795.743-5.349.813-9.053,1.15-9.434,13.647,0,14.392l2.734.379c-.777,1.393-1.516,2.82-2.284,4.181-3.732,6.616,2.975,12.212,8.88,10.287a7.646,7.646,0,0,0,2.11.7c7.423,5.167,20.978-.676,16.969-12.242l-.114.088a6.358,6.358,0,0,0-9.645-3.426c-.135-.084-.271-.163-.41-.239a10.964,10.964,0,0,0,.088-1.8,10.03,10.03,0,0,0,3.938-3.151,11.726,11.726,0,0,0,1.128-1.931,30.227,30.227,0,0,0,8.708-.233c5.028-.713,6.484-7.216,4.47-10.986-.13-.239-.257-.48-.385-.719.187-.08.363-.181.546-.271a10.08,10.08,0,0,0,8.615,2.252c3.629,4.641,13.766,2.945,14.665-5.018A42.9,42.9,0,0,0,651.363,539.895Z" transform="translate(-573.702 -299.626)" fill="#936037"/>
      <path id="Path_38385" data-name="Path 38385" d="M700.286,578.392c5.909-5.359,8.962-12.81,4.085-21.43a14.814,14.814,0,0,0-12.991-7.457c.122-.343.245-.684.367-1.026,2.784-7.786-8.328-13.85-13.746-8-.331.359-.622.737-.941,1.1-.309-3.057-1.174-5.95-3.535-8.055a9.224,9.224,0,0,0-13.24.993,11.167,11.167,0,0,0-2.27,4.3c-.139-.15-.283-.313-.42-.454-5.584-5.516-13.4-.552-13.984,5.425a8.814,8.814,0,0,0-6.275,7.947c-.668,11.761,12.264,16.4,19.31,8.631a21.627,21.627,0,0,0,2.3,1.513,8.772,8.772,0,0,0,2.467.9l.171,9.085c.107,5.853,4.8,8.42,9.185,7.682-2.977,4.1-1.943,8.4-1.094,12.867a9,9,0,0,0-.12,4.56l1.02,4.629c2.232,10.141,16.716,7.162,17.311-2.344a31.815,31.815,0,0,0-.379-6.895c1.206.4,2.349.791,2.947,1,.839.365,1.69.718,2.561,1.052C702.242,597.962,708.623,583.153,700.286,578.392Z" transform="translate(-522.656 -296.973)" fill="#936037"/>
      <path id="Path_38386" data-name="Path 38386" d="M706.08,604.431c-1.042-.207-2.11-.385-3.192-.534,4.645-15.609.793-33.728-11.678-45.784-21.265-20.556-55.324-17.551-74.833,3.916-10.213,11.237-16.909,27.4-8.344,41.512q-2.935,1.749-5.869,3.5c-8.4,5-1.05,16.925,7.545,12.909l.289-.135c5.484,8,17.642,12.242,26.917,13.683,14.934,2.32,33.375,2.744,46.849-5.08A41.253,41.253,0,0,0,695.989,617.6a38.349,38.349,0,0,0,3.7,1.983c4.5,2.051,9.687.953,11.764-3.966C713.25,611.365,711.026,605.407,706.08,604.431Z" transform="translate(-561.224 -284.04)" fill="#f4d9bf"/>
      <path id="Path_38387" data-name="Path 38387" d="M706.519,661.344c-14.131-20.424-23.083-43.714-31.831-66.792-1.106-2.921-4.1-5.343-7.435-4.223a43.686,43.686,0,0,1-28.042.375c-3.679-1.2-6.724,1.955-7.013,5.343A196.745,196.745,0,0,1,621.943,643.4c-5.3,15.484-12.963,29.348-19.832,44.1a6.168,6.168,0,0,0-.08,4.824,6.46,6.46,0,0,0,3.924,6.925c9.994,4.86,17.022.124,26.741-2.3,4.974-1.242,6.853,1.036,10.711,4.013,3.685,2.846,7.682,5.04,12.463,5.1,12.4.159,17.6-10.624,26.229-17.154,5.8-4.388,8.432-1.511,12.449,3.266,2.89,3.436,5.823,6.357,10.129,7.985,8.158,3.085,17.766-.4,18.945-9.844C725.006,679.251,712.139,669.465,706.519,661.344Zm-42.267-10.693c-4.492,5.034-8.242,5.257-13.8,1.736a92.763,92.763,0,0,1-13.477-10.944,3.165,3.165,0,0,0-.415-.317c.243-.949.464-1.9.694-2.854a4.569,4.569,0,0,0,1.022-1.877c1.536-5.664,8.292-6.431,12.04-2.393a3.316,3.316,0,0,0,1.1.783c2.706,1.682,7.023.486,7.106-3.713.088-4.45,4.159-6.742,8.065-4.751,3.477,1.772,4.45,5.8,4.34,9.33C670.754,641.173,667.855,646.613,664.252,650.651Z" transform="translate(-558.129 -238.526)" fill="#4b44f2"/>
      <path id="Path_38388" data-name="Path 38388" d="M624.369,590.8a12.2,12.2,0,0,0-17.849.8c-4.434,5.173-4.362,12.891.927,17.483,4.6,3.994,10.715,4.211,16.311,2.505a3.938,3.938,0,0,0,2.744-5.2C629.427,601.568,628.247,594.761,624.369,590.8Z" transform="translate(-556.394 -241.262)" fill="#f50057"/>
      <path id="Path_38389" data-name="Path 38389" d="M638.2,612.98q-1.414,2.23-2.826,4.458c-.285-.353-.578-.688-.845-1.066-4.948-9.055-19.193-.8-13.862,8.1a34.829,34.829,0,0,0,12.539,12.15,8.333,8.333,0,0,0,11.16-2.926q4.047-6.19,8.1-12.381C658.281,612.414,643.891,604,638.2,612.98Z" transform="translate(-540.349 -219.574)" fill="#f50057"/>
      <path id="Path_38390" data-name="Path 38390" d="M665.573,597.469a13.283,13.283,0,0,0-6.55-9.4c-5.861-3.284-12.987-1.646-17.393,2.951a5.361,5.361,0,0,0-2.66,3.81l0,.006a7.812,7.812,0,0,0,.478,8.007c.247,1.327.534,2.627.809,3.832a14.591,14.591,0,0,0,4.8,8.258c6.682,5.48,14.948,1.084,18.13-5.907C664.87,605.317,666.217,601.6,665.573,597.469Z" transform="translate(-521.877 -242.209)" fill="#f50057"/>
      <path id="Path_38391" data-name="Path 38391" d="M625.1,665.344a9.545,9.545,0,0,0-5.871-2.433,12.764,12.764,0,0,0-10,3.065c-2.073,1.754-2.694,5.078-2,7.585.783,2.84,2.836,4.414,5.444,5.444,2.077.821,4.392.574,6.56.514,4.338-.12,8.507-3.734,8.3-8.3A8.391,8.391,0,0,0,625.1,665.344Z" transform="translate(-552.789 -166.276)" fill="#f99ec5"/>
      <path id="Path_38392" data-name="Path 38392" d="M674.856,669.273c-1.566-4.841-5.909-6.959-10.735-6.1-2.641.47-5.169,1.9-7.642,2.957a29.779,29.779,0,0,0-6.172,2.949c-2.16,1.594-3.563,3.732-3.141,6.552.351,2.326,2.152,5.078,4.711,5.466a34.031,34.031,0,0,0,8.155.01c2.872-.235,5.978-.227,8.728-1.1C673.1,678.625,676.349,673.88,674.856,669.273Z" transform="translate(-512.945 -166.113)" fill="#f99ec5"/>
      <path id="Path_38393" data-name="Path 38393" d="M627.682,548.934a22.133,22.133,0,0,0-6.891-7.186c-3.334-2.244-7.035,1.449-6.321,4.858,1.722,8.224-4.811,13.639-12.162,15.46-2.646.656-2.874,5.082,0,5.586,8.8,1.546,16.189-4.709,19.224-12.578C624.878,557.05,630.193,553.133,627.682,548.934Z" transform="translate(-559.462 -287.161)" fill="#f99ec5"/>
      <path id="Path_38394" data-name="Path 38394" d="M672.025,565.227q-1.889.688-3.782,1.373a6.068,6.068,0,0,0-2.911,2.094c-.355-.747-.721-1.491-1.108-2.22a14.126,14.126,0,0,0-2.85-4.023c-1.417-1.248-3.507-1.819-5.131-2.846a2.632,2.632,0,0,0-1.447-.43,4.327,4.327,0,0,0,1.339-4.406,6.868,6.868,0,0,1-.313-4.3c.2-.478.412-.957.664-1.423,2.86-5.321-4.99-9.938-8.109-4.739-.293.516-.562,1.044-.817,1.576l-.042.092a25.155,25.155,0,0,0-2.031,6.2,2.986,2.986,0,0,0-.508,2.766c.038.143.094.279.138.421-.016.341-.036.682-.036,1.026a4.749,4.749,0,0,0,4.675,4.677,4.47,4.47,0,0,0,2.583-.8c.132-.01.261-.034.391-.056a2.931,2.931,0,0,0-.395,3.3c.839,1.541.837,3.153,1.516,4.743a21.932,21.932,0,0,0,1.983,3.123,29.164,29.164,0,0,1,3.5,7.864c.939,3.19,5.456,4.835,7.85,2.073a25.1,25.1,0,0,1,3.83-3.631,6.676,6.676,0,0,0,1.612-.684l3.5-2.052-.072-.122C680.687,571.6,678.073,563.03,672.025,565.227Z" transform="translate(-515.17 -286.195)" fill="#f99ec5"/>
      <path id="Path_38395" data-name="Path 38395" d="M777.5,445.13c-1.893-11.078-8.362-21.751-18.4-27.214-10.651-5.8-23.862-4.884-35.228-1.971-24.527,6.287-46,24.9-51.213,50.294-2.776,13.537-.339,28.3,3.7,41.372a153.094,153.094,0,0,0,7.656,19.284c2.876,6.192,6.722,13.29,6.439,20.3a7.411,7.411,0,0,0-1.3,9.872c1.423,2.334,5.656,2.884,6.927,0A28.194,28.194,0,0,0,697.9,551.4a4.348,4.348,0,0,0,.484-3.208,32.141,32.141,0,0,0,.054-5.107c21.937,12.05,43.1-9.908,55.138-26.335C767.778,497.377,781.716,469.833,777.5,445.13Z" transform="translate(-488.741 -413.652)" fill="#ee7c3d"/>
      <path id="Path_38396" data-name="Path 38396" d="M701.552,496.093c-1.761-4.807-7.224-5.177-10.183-1.331a63.316,63.316,0,0,0-6.7,10.721,3.933,3.933,0,0,0-.676,1.5c-.209.458-.422.915-.62,1.379a2.8,2.8,0,0,0-1.6.676c-2.68.281-5.492,2.064-7.457,3.5-1.863,1.357-3.332,4.237-1.686,6.425,1.445,1.919,2.878,3.812,4.49,5.6,2.306,2.553,6.624,1.142,7.5-1.981a30.8,30.8,0,0,0,.95-5.53,4.474,4.474,0,0,0,.693-.705,5.964,5.964,0,0,0,.369-.566c2.4.811,5.229.331,6.534-2.3.269-.544.55-1.076.825-1.614a2.378,2.378,0,0,1,.43.154c2.3,1.323,5.837.67,7.084-1.857C703.658,505.778,703.2,500.592,701.552,496.093Z" transform="translate(-488.307 -335.719)" fill="#66c5ee"/>
      <path id="Path_38397" data-name="Path 38397" d="M715.546,527.934q-.951-7.028-1.9-14.055c-.638-4.771-6.477-7.1-9.4-2.545a80.159,80.159,0,0,1-8.274,10.753,9.671,9.671,0,0,0-9.484,16.02c1.927,2.083,5.038,1.678,7.021,0a103.071,103.071,0,0,0,9.185-8.856c1.27,1.317,2.567,2.616,3.816,3.938C710.628,537.531,716.206,532.8,715.546,527.934Z" transform="translate(-476.462 -319.109)" fill="#66c5ee"/>
      <path id="Path_38398" data-name="Path 38398" d="M702.331,539.744a31.541,31.541,0,0,1-4.54,1.9,13.2,13.2,0,0,0-2.471-1.481,13.522,13.522,0,0,0-1.833-.67,53.975,53.975,0,0,0-4.569-3.874c-2.09-1.582-5.863-.429-6.971,1.827q-1.874,3.814-3.746,7.63c-1.935,3.944,1.263,8.822,5.835,7.591a12.567,12.567,0,0,0,3.4-1.395c.646-.393,1.941-1.786,2.786-1.807,2.559-.064,3.96,4.765,4.6,6.516,1.475,4.043,7.509,5.674,9.813,1.283,1.744-3.32,3.525-6.614,5.309-9.912A5.605,5.605,0,0,0,702.331,539.744Z" transform="translate(-482.632 -293.293)" fill="#66c5ee"/>
      <path id="Path_38399" data-name="Path 38399" d="M728.062,736.913c-12.881-13.571-24.139-27.534-32.5-44.4-3.368-6.8-5.741-14.374-8.358-21.827a1.825,1.825,0,0,0,.259.114c9.187,2.387,17.515-7.6,18.124-15.928.524-7.158-3.954-15.55-11.106-16.429a47.93,47.93,0,0,0,6.73-7.485,6.927,6.927,0,0,0,9.472-.7c2.943-3.507.8-9.308-3.246-10.865a48.641,48.641,0,0,0,2.832-11.724c2.724,2.027,7.557,1.973,10.245.733a10.3,10.3,0,0,0,5.386-11.817c-.323-1.307-2.561-1.074-2.407.325.373,3.454-1.184,6.959-4.623,8.2a7.1,7.1,0,0,1-4.689-.022c-1.351-.46-2.29-1.447-3.623-1.867a47.238,47.238,0,0,0-.4-7.2c4.348-2.909,8.429-6.285,12.551-9.5,2.617-2.045,4.958-4.546,3.679-8.113-2.856-7.973-11.062-4.31-17.443-1.959.02-.042.046-.09.064-.131.877-2.023.813-4.635-.9-6.216a5.431,5.431,0,0,0-5.333-.935,69.434,69.434,0,0,0,1.6-8.878c.4-3.458.253-7.465-3.146-9.4-6.6-3.76-10.765,7.5-12.716,12.307a45.66,45.66,0,0,0-9.464-4.575c-1.128-2.1-2.344-4.554-2.282-6.993.09-3.458,2.967-7.756,7.188-5.947,1.778.761,3.625-1.218,2.154-2.794a4.3,4.3,0,0,1-1.2-4.372q.437-2.932,3.276-2.342c3.539-.4,4.255,1.53,5.072,4.6a1.486,1.486,0,0,0,2.842,0c1.658-5.51-5.151-10.518-10.231-8.509-3.976,1.57-5.327,5.922-4.266,9.629a8.778,8.778,0,0,0-6.893,4.488c-2.041,3.643-1.1,7.772.853,11.2a39.9,39.9,0,0,0-12.433-1.212,1.9,1.9,0,0,0-.5.121c-10.117-4.045-20.56-2.72-29.673,1.851-2.122-3.131-5.727-5.957-8.252-8.4-1.9-1.839-5.121-5.114-7.674-2.256-1.971,2.208-1.389,6.674-.865,9.294a17.259,17.259,0,0,0,1.523,4.376,5.317,5.317,0,0,0-4.237,2.011,5,5,0,0,0-.811,4.229,24.5,24.5,0,0,0-14.149,2.3,2.054,2.054,0,0,0-.412,3.188,23.621,23.621,0,0,0,12.7,7.654c-.03.062-.064.122-.094.181-5.524,11.221-8.485,26.227-5.566,39.148-3.485,1.106-5.873,5.006-4.484,8.653a6.934,6.934,0,0,0,9.543,3.432,30.679,30.679,0,0,0,6.134,6.771,14.938,14.938,0,0,0-6.56,3.031,14.494,14.494,0,0,0-5.066,14.671c2.32,10.739,14.623,16.895,24.683,13.926-1.893,8.647-3.87,17.274-6.492,25.785-5.239,17-12.7,32.755-19.836,48.979a2.439,2.439,0,0,0-.072,1.879c-1.544,5.355,5.492,10.721,9.924,12.485,9.539,3.8,15.454-1.082,23.818-4.876,9.625-4.37,12.254,3.161,18.421,7.6A18.1,18.1,0,0,0,667.31,765.9a11.425,11.425,0,0,0,8.34-4.641c1.542-1.977,2.256-4.508,3.563-6.638a38.821,38.821,0,0,1,7.065-7.963,1.749,1.749,0,0,0,.552-1.038c9.035-4.346,19.442,15.265,29.34,14.611,9.673-.636,11.855-11.763,11.4-19.6a2.131,2.131,0,0,0-.134-.556A1.922,1.922,0,0,0,728.062,736.913Zm-27.2-79.895c-1.937,7.063-7.537,8.115-13.4,10.361a1.954,1.954,0,0,0-1.07,1.042c-2.561-7.092-5.46-13.991-9.786-19.9a55.432,55.432,0,0,0,7.333-2.935,46.045,46.045,0,0,0,6.993-4.26C698.76,641.341,702.742,650.163,700.863,657.018Zm6.708-33.178a3.886,3.886,0,0,1,.693,3.607c-.835,2.22-3.717,2.511-5.618,1.435a48.86,48.86,0,0,0,3.376-6.088A3.993,3.993,0,0,1,707.571,623.84Zm4.922-45.487a16.937,16.937,0,0,1,5.66-1.534c2.744-.054,6.385,1.833,4.023,5.3-1.435,2.1-5.108,3.752-7.154,5.217-1.927,1.381-3.844,2.776-5.719,4.229a44.919,44.919,0,0,0-4.392-11.006,3.953,3.953,0,0,0,.584-.239A27.728,27.728,0,0,0,712.493,578.353Zm-11.016-4.729c.01-.028.018-.06.028-.088a1.169,1.169,0,0,0,1.1-1.064c.165-1.584,3.015-1.162,3.6-.1.536.968-.014,2.294-.618,3.083-.658.861-1.794,1.281-2.567,1.991-.674-1.014-1.371-2.011-2.12-2.973A1.851,1.851,0,0,0,701.477,573.624Zm-7.833-14.4c.62-.986,1.257-1.963,1.933-2.911q.664-.882,1.323-1.768,4.588.511,4.129,3.551c.4,4.193-1.5,9.191-2.636,13.4a49.145,49.145,0,0,0-7.746-6.867C691.57,562.779,692.547,560.972,693.643,559.224Zm-73.269-8.445c.586-.006,2.148,2.049,2.678,2.567q1.77,1.731,3.5,3.5c1.036,1.066,2.007,2.27,3.075,3.34a48.867,48.867,0,0,0-6.086,4.392,5.244,5.244,0,0,0-1.529-1.71,19.1,19.1,0,0,1-2.1-4.8C619.549,556.781,618.286,550.794,620.374,550.778Zm-4.382,14.143a3.085,3.085,0,0,1,3.085-.347,5.493,5.493,0,0,1,2.24,2c-.943.9-1.863,1.815-2.736,2.78a1.2,1.2,0,0,0-.251-.173,22.924,22.924,0,0,0-2.634-.935A2.815,2.815,0,0,1,615.992,564.921Zm-12.971,7.413a23.916,23.916,0,0,1,13.162-.859,4.565,4.565,0,0,0,.5.1,50.877,50.877,0,0,0-4.7,6.909A32.618,32.618,0,0,1,603.021,572.334Zm.965,55.2a3.67,3.67,0,0,1,1.875-4.593,35.956,35.956,0,0,0,2.567,6.271C606.735,629.579,604.806,629.334,603.985,627.535Zm5.825-28.184c4.394-25.581,25.352-44.481,51.956-40.43a1.712,1.712,0,0,0,1.361.841c22.7,2.19,43.05,18.69,42.9,42.887-.165,26.341-22.172,43.568-47.271,44.27-13.21.371-28.26-2.882-38.907-11.1C608.6,627.146,607.566,612.406,609.81,599.351Zm10.743,66.984a14.15,14.15,0,0,1-10.819-8.814,10.827,10.827,0,0,1,2.662-12.126c2.467-2.232,5.5-2.842,8.635-3.109a59.611,59.611,0,0,0,13.36,6.082c-1.391,5.554-2.616,11.134-3.83,16.711C627.333,666.133,624.174,666.976,620.553,666.334Zm103.2,74.3c-.853,7.82-2.4,17.592-13.049,13.579-5.03-1.9-8.083-8.168-12.776-10.9-4.225-2.463-9.039-2.692-12.4.106a1.728,1.728,0,0,0-1.64.149,25.582,25.582,0,0,0-6.991,6.431c-2.569,3.426-4.157,9.041-8.294,11.01-5.257,2.5-11.327-2.646-14.561-6.2-1.929-2.12-3.727-4.336-6.437-5.492-5.651-2.405-11.419.357-16.307,3.175-4.346,2.5-8.171,4.677-13.346,4.115-3.716-.4-10.962-3.324-12.268-7.887A2.229,2.229,0,0,0,607,747.642c8.9-14.956,15.157-32.126,20.332-48.68a252.7,252.7,0,0,0,8.063-31.616c.231-.191.464-.383.688-.59a1.719,1.719,0,0,0-.169-2.577,123.465,123.465,0,0,0,1.423-14.932,71.248,71.248,0,0,0,36.454.106c7.427,15.944,11.028,33.272,19.314,48.905,7.955,15.012,18.591,29.722,31.494,40.914A1.983,1.983,0,0,0,723.756,740.631Z" transform="translate(-562.166 -296.345)" fill="#3c3c3b"/>
      <path id="Path_38400" data-name="Path 38400" d="M664.018,572.992a2.194,2.194,0,0,0-4.227,1.166c4.209,24.631-39.282,27.1-39.051,1.317a1.716,1.716,0,0,0-3.356-.454C607.413,608.175,675.449,605.935,664.018,572.992Z" transform="translate(-543.432 -257)" fill="#3c3c3b"/>
      <path id="Path_38401" data-name="Path 38401" d="M633.836,573.527c-.992-.3-1.841.255-2.82.255a2.859,2.859,0,0,1-2.294-1.056c-1.463-1.963.935-4.36,2.846-4.637.956-.137.8-1.548,0-1.786-4.428-1.305-8.505,3.9-6.389,7.977a6.518,6.518,0,0,0,4.8,3.292c1.925.293,4.8-.263,4.922-2.648A1.467,1.467,0,0,0,633.836,573.527Z" transform="translate(-535.272 -262.305)" fill="#3c3c3b"/>
      <g id="Group_1553" data-name="Group 1553" transform="translate(57.914 297.277)">
        <path id="Path_38402" data-name="Path 38402" d="M618.133,564.262a2.972,2.972,0,0,0-2.676-1.327,5.68,5.68,0,0,0-2.646.1,2.42,2.42,0,0,0-.978.69,3.461,3.461,0,0,0-.438.163,4.465,4.465,0,0,0-2.415,2.917c-.781,2.921,1.823,5.5,4.609,5.7a5.088,5.088,0,0,0,5.295-4.56A5.538,5.538,0,0,0,618.133,564.262Z" transform="translate(-608.837 -562.828)" fill="#3c3c3b"/>
        <path id="Path_38403" data-name="Path 38403" d="M611.192,565.186Z" transform="translate(-606.5 -560.488)" fill="#3c3c3b"/>
      </g>
      <path id="Path_38404" data-name="Path 38404" d="M649.638,564.074a5.466,5.466,0,0,0-4.011-2.491,4.457,4.457,0,0,0-1.1.016,3.765,3.765,0,0,0-.8-.586,2.266,2.266,0,0,0-2.5.56,5.9,5.9,0,0,0-1.957,4.372,5.472,5.472,0,0,0,6.686,5.428C649.2,570.692,651.511,567.141,649.638,564.074Zm-4.291,2.967a1.26,1.26,0,0,1-1.809-.725,2.285,2.285,0,0,1-.137-.787c.855-.026,1.843-.456,2.455.411C646.182,566.4,645.929,566.792,645.347,567.041Z" transform="translate(-520.713 -267.537)" fill="#3c3c3b"/>
      <path id="Path_38405" data-name="Path 38405" d="M646.189,538.195c-4.087-3.2-9.438-2.469-13.18.51-1.807-3.737-4.7-7.228-9.223-6.879a7.238,7.238,0,0,0-5.667,3.356c-3.358-6.339-12.2-9.284-18.461-4.844-5.873,4.165-6.395,12.539-2.655,18.12-3.292.428-6.417,1.9-6.54,5.731-.106,3.268,2.929,6.993,6.2,4.892a1.32,1.32,0,0,0-.311-2.384q-2.454-.128.52-2.521.732-3.513,3.966-2.1c1.578.237,3.485-1.823,1.819-3.125-4.568-3.561-5.885-11.056-1.144-15.213,5.3-4.643,13.7-.209,15.5,5.705a1.189,1.189,0,0,0,2.3-.06,1.425,1.425,0,0,0,.8-.739c1.305-3.139,4.153-4.817,7.383-2.055,1.626,1.389,2.419,3.87,3.121,5.785a1.849,1.849,0,0,0,3.328.434c5.952-8.085,16.626,1.291,10.727,8.974-.99,1.289,1.174,2.943,2.254,1.738C650.814,549.185,651.069,542.015,646.189,538.195Z" transform="translate(-569.169 -299.919)" fill="#3c3c3b"/>
      <path id="Path_38406" data-name="Path 38406" d="M616.579,576.463c-2.178,2.278-4.617,4.4-8.037,3.523s-5.466-4.6-5.068-7.975c.024-.078.056-.146.078-.225.47-1.77-1.781-2.465-2.766-1.166-2.367,3.117-5.7-.2-5.3-3.087.257-1.867,1.935-3.464,3.254-4.613a2.012,2.012,0,0,0-1.409-3.4c-4.516.108-13.031-.954-7.951-7.578,2.4-3.123,6.584-4.075,10.3-4.067a.905.905,0,0,0,.239-1.77c-5.945-2.2-14.173.976-15.9,7.545-1.674,6.347,3.986,9.017,9.3,9.7-2.039,3.384-2.788,7.65.578,10.484a6.894,6.894,0,0,0,6.987,1.13,9.594,9.594,0,0,0,5.948,8.2c4.568,1.763,10.865-.235,12.519-5.086A1.669,1.669,0,0,0,616.579,576.463Z" transform="translate(-575.86 -282.844)" fill="#3c3c3b"/>
      <path id="Path_38407" data-name="Path 38407" d="M690.249,580.589c8.184-2.888,7.953-16.725,3.693-22.987a18.951,18.951,0,0,0-12.477-8.14,10.106,10.106,0,0,0-2.517-.038c1.6-3.814.8-8.822-2.684-11.281a8.027,8.027,0,0,0-8.844-.2c-1.712-4.34-5.377-8.063-10.369-7.81a8.707,8.707,0,0,0-8.232,10.47c.371,1.63,3.161,1.315,2.973-.4a5.569,5.569,0,0,1,9.063-4.928c2.312,1.774,3.3,4.454,3.695,7.25.233,1.64,2.941,1.957,3.615.472,1.815-4,6.176-2.228,7.288,1.152.763,2.32-.419,4.43-1.1,6.618a1.478,1.478,0,0,0,1.024,1.869,4.37,4.37,0,0,0,.076.759c.275,1.447,2.439,1.04,2.485-.337.064-1.905,8.164,2.136,8.854,2.662a16.558,16.558,0,0,1,5.649,7.493c2.26,6.48-.522,12-6.614,14.762-1.612.731-.7,3.127.857,3.161.03,0,.06,0,.09,0a1.415,1.415,0,0,0,.427.5c2.724,1.955,4.1,5.871,2.288,8.9-1.758,2.947-5.271,3.433-8.25,2.345-2.074-.757-3.561,2.686-1.518,3.6a10.139,10.139,0,0,0,13.041-4.452A9.66,9.66,0,0,0,690.249,580.589Z" transform="translate(-511.438 -298.026)" fill="#3c3c3b"/>
      <path id="Path_38408" data-name="Path 38408" d="M633.741,646.377a1.013,1.013,0,0,0-1.873-.506c-6.16,10.368-6.642,25.783-6.443,38.2-4.773-1.532-9.858-2.421-14.6-.291-2.965,1.331-6.658,4.342-5.841,8.043,1.939,8.78,19.187,4.725,23.784,1.176a1.8,1.8,0,0,0,.108-2.678,2.7,2.7,0,0,0,1.881-2.519,158.151,158.151,0,0,1,.458-20.886C631.854,660.081,633.943,653.24,633.741,646.377Zm-21.432,45.667c-1.578-2.786,3.892-4.372,5.5-4.312,3.155.118,6.441,1.457,9.408,2.527C624.256,691.309,614.019,695.063,612.309,692.044Z" transform="translate(-554.86 -183.588)" fill="#3c3c3b"/>
      <path id="Path_38409" data-name="Path 38409" d="M677.7,685.354c-6.371-8.466-17.13-3.537-24.707,1.869a85.208,85.208,0,0,0-5.865-42.315c-.7-1.7-3.453-1.062-2.844.783a89.79,89.79,0,0,1,2.864,46.785,2.553,2.553,0,0,0,4.231,2.463c4.334-3.868,10.817-10.143,17.234-8.659,7.282,1.686,4.426,5.141-.49,7.244a24.557,24.557,0,0,1-10.7,1.7c-2.84-.07-2.712,4.043,0,4.33C663.53,700.2,685.225,695.354,677.7,685.354Z" transform="translate(-515.816 -185.048)" fill="#3c3c3b"/>
      <path id="Path_38410" data-name="Path 38410" d="M614.817,598.605a32.052,32.052,0,0,1-9.992,17.313,29.869,29.869,0,0,1-9.011,5.61c-2.969,1.144-6.217,1.3-9.133,2.461a1.817,1.817,0,0,0,0,3.471c7.021,2.106,15.954-2.963,21.024-7.535a29.646,29.646,0,0,0,9.956-20.936A1.454,1.454,0,0,0,614.817,598.605Z" transform="translate(-574.191 -231.057)" fill="#3c3c3b"/>
      <path id="Path_38411" data-name="Path 38411" d="M591.813,612.758c-1.451-1.461-2.927-2.887-4.424-4.3-1.293-1.224-2.758-3.314-4.717-3.1a1.743,1.743,0,0,0-1.708,1.71c.07,2.186,2.232,3.232,3.792,4.462,1.66,1.311,3.332,2.6,5.034,3.856C591.343,616.528,593.114,614.069,591.813,612.758Z" transform="translate(-578.596 -223.349)" fill="#3c3c3b"/>
      <path id="Path_38412" data-name="Path 38412" d="M588.1,611.735a21.48,21.48,0,0,0-3.605-.464c-1.3-.114-2.531-.406-3.7.315a1.914,1.914,0,0,0,0,3.266c1.166.724,2.4.43,3.7.315a21.49,21.49,0,0,0,3.605-.462A1.552,1.552,0,0,0,588.1,611.735Z" transform="translate(-579.671 -217.613)" fill="#3c3c3b"/>
      <path id="Path_38413" data-name="Path 38413" d="M589.977,613.927c-1.686,1.437-3.244,3.013-4.944,4.436-1.61,1.347-3.842,2.431-4.972,4.215a2.056,2.056,0,0,0,2.3,2.989c2.142-.638,3.936-2.848,5.458-4.42a33.085,33.085,0,0,0,4.454-5.45C593.19,614.216,591.187,612.895,589.977,613.927Z" transform="translate(-579.776 -215.186)" fill="#3c3c3b"/>
      <path id="Path_38414" data-name="Path 38414" d="M703.368,579.337c-2.923,3.87-4.591,8.28-7.854,12.011a43.881,43.881,0,0,1-11.134,9.131A45.928,45.928,0,0,1,656.5,606.2c-1.532-.153-1.827,2.31-.361,2.664a42.618,42.618,0,0,0,31.458-4.882c8.216-4.761,18.111-13.748,19.151-23.734C706.955,578.245,704.309,578.093,703.368,579.337Z" transform="translate(-504.914 -249.951)" fill="#3c3c3b"/>
      <path id="Path_38415" data-name="Path 38415" d="M679.31,570.251a1.582,1.582,0,0,0-1.983,1.511c.082,1.606.97,2.65,1.66,4.033a14.164,14.164,0,0,1,1.267,4.3c.3,2.1,3.635,1.538,3.641-.492C683.9,576.515,682.875,571.106,679.31,570.251Z" transform="translate(-482.93 -258.224)" fill="#3c3c3b"/>
      <path id="Path_38416" data-name="Path 38416" d="M686.666,570.595c-2.009.281-3.007,2.78-3.691,4.45a13.917,13.917,0,0,0-1.06,6.186c.1,1.554,2.6,2.126,2.9.392a16.847,16.847,0,0,1,1.614-5.123c.787-1.463,2.266-2.628,2.254-4.37A1.621,1.621,0,0,0,686.666,570.595Z" transform="translate(-478.397 -257.862)" fill="#3c3c3b"/>
      <path id="Path_38417" data-name="Path 38417" d="M696.105,571.912c-2.443.387-4.753,2.561-6.544,4.169a26.479,26.479,0,0,0-4.984,6.092,1.559,1.559,0,0,0,2.439,1.881,47.772,47.772,0,0,1,5.2-4.818c1.831-1.433,4.237-2.32,5.807-4.031A1.988,1.988,0,0,0,696.105,571.912Z" transform="translate(-475.945 -256.563)" fill="#3c3c3b"/>
      <path id="Path_38418" data-name="Path 38418" d="M701,604.66c-4.482-7.7-14.3-11.395-10.323-21.773.556-1.447-1.331-2.7-2.549-1.959-4.828,2.929-4.2,9.115-1.81,13.619,1.726,3.25,4.466,5.59,7.094,8.095,5.7,5.432,6.345,10.034,5.743,17.654a.712.712,0,0,0,1.2.5C704.281,616.209,703.982,609.78,701,604.66Z" transform="translate(-475.805 -247.8)" fill="#3c3c3b"/>
      <path id="Path_38419" data-name="Path 38419" d="M693.313,559.25a1.407,1.407,0,0,0,.5-.709c.964.408,1.925.825,2.87,1.277a2.024,2.024,0,0,0,2.933-1.194,55.313,55.313,0,0,0,1.321-11.813c51.573-4.241,89.7-57.815,73.918-108.011-3.651-11.618-11.566-18.706-23.29-21.692-12.166-3.1-26.223-3.742-38.439-.7-22.383,5.576-38.2,26.016-42.666,48.026-5.759,28.411,7.073,57.115,26.283,77.6a54.081,54.081,0,0,1-4.605,4.536c-1.923,1.654-4.209,2.917-5.958,4.743a1.74,1.74,0,0,0,.474,2.65,1.3,1.3,0,0,0,.612,1.77c1.287.612,2.6,1.164,3.916,1.708-9.524,5.5-10.082,18.085-5.909,27.347.207.458.425.909.65,1.355a36.4,36.4,0,0,0-8.194.108c-2.645.339-5.582,1.12-5.775,4.29-.173,2.888,2.14,6.267,3.8,8.427a23.793,23.793,0,0,0,7.814,6.574,2.169,2.169,0,0,0,2.933-.769,31.969,31.969,0,0,0,3.346-12.2c6.056,8.465,14.231,15.418,18.651,24.442-.955-.291-1.9-.59-2.86-.873-2.236-.661-5.151-2.114-7.489-1.19-1.863.737-2.25,2.491-2.228,4.3a37.49,37.49,0,0,0,1.2,9.131c1.17,4.189,4.819,6.736,9.127,5.181a9.454,9.454,0,0,0,5.323-5.253c.062.937.094,1.889.068,2.876-.235,9.057-4.845,19.011-9.886,29.208-.668-1.485-1.4-2.941-2.21-4.376-1.136-2-2.531-5.536-4.831-6.471-4.864-1.981-6.2,8.123-7.1,10.8-1.11,3.292-4.669,10.185-.506,12.937,1.907,1.259,3.854.412,5.624-.588,1.367-.775,2.842-1.658,4.265-2.63-8.143,17.016-14.069,34.138.078,48.411a.97.97,0,0,0,1.517-1.17c-10.056-16.48-3.842-32.082,3.886-47.652a45.916,45.916,0,0,0,6.481,12.307,2.167,2.167,0,0,0,3.689,0,70.291,70.291,0,0,0,8.748-20.4,2.158,2.158,0,0,0-2.061-2.706,46.961,46.961,0,0,0-12.393,1.925c4.263-8.547,8.143-17.132,9.2-25.894a34.792,34.792,0,0,0-.341-10.677c4.155,2.778,10.269,6.038,13.868,3.613,2.276-1.532,2.019-4.512,1.933-6.885a92.579,92.579,0,0,0-1.313-12.066c-.751-4.45-2.613-11.353-8.29-6.811-4.049,3.236-6.889,8.711-8.744,13.978a56.473,56.473,0,0,0-9.988-14.621,144.342,144.342,0,0,1-9.541-11.319c2.222-.2,4.446-.506,6.644-.735,1.981-.205,4.679-.082,6.249-1.57,3.35-3.177-1.347-9.5-3.364-12.156-2.108-2.774-5.966-7.357-9.854-4.735-1.684,1.138-2.236,3.3-2.852,5.1-.666,1.953-1.271,3.916-1.861,5.887C684.931,574.021,684.516,565.793,693.313,559.25Zm-19.539-82.531c.44-20.295,11.1-41.177,29.18-51.189,10.372-5.741,22.353-6.668,33.965-5.667,12.858,1.11,26.383,3.988,31.713,17.236,8.408,20.892,4.4,46.9-6.785,65.953-12.913,21.992-36.006,35.7-60.993,38.995-.052.006-.094.024-.143.032a2.169,2.169,0,0,0-1.413-1.395C684.757,522.527,673.255,500.549,673.773,476.719Zm15.606,76.591a29.848,29.848,0,0,0,7.521-5.849,78.9,78.9,0,0,1-.815,8.055C693.844,554.795,691.631,554,689.379,553.31Zm-5.7,47.245a19.411,19.411,0,0,1-6.562-7.529c-1.531-3.156,2.951-3.149,5.155-3.4,1.192-.135,2.393-.237,3.6-.315C685.3,593.251,685.058,596.872,683.683,600.555Zm10.911,66c-.741.48-3.077,2.487-3.942,2.593-1.59.193-1.4-.028-1.032-1.63.532-2.28,1.529-4.534,2.288-6.748a60.49,60.49,0,0,1,2-6.5c1.343,1.487,2.728,4.506,3.362,5.53.809,1.307,1.592,2.632,2.383,3.95A26.867,26.867,0,0,0,694.594,666.55Zm10.2-.58a55.12,55.12,0,0,1,11.646-2.649,71.2,71.2,0,0,1-5.755,13.517C708.513,673.3,706.79,669.615,704.791,665.97Zm14.1-54.035c1.1-1.666,2.81-5.369,4.562-6.178,3.34-1.544,2.784,2.031,3.127,4.143.448,2.774,2.66,11.69.233,13.645-2.21,1.78-6.945-1.254-10-3.485a1.4,1.4,0,0,0-.69-.538l-.072-.024c-.42-.317-.8-.6-1.1-.837-.026-.02-.052-.03-.076-.046C716.124,616.342,717.449,614.106,718.888,611.936Zm-9.438,9.426c-.881,2.82-1.054,6.823-4.125,8.264-4.247,1.993-4.727-3.982-5.036-6.612-.155-1.327-.968-3.533.357-4.285.566-.321,3.44.855,4.005.993q2.517.619,5.038,1.194A1.766,1.766,0,0,0,709.45,621.362Zm-16.112-43.947c.815-2.011,1.481-4.179,4.111-2.63,1.321.777,2.549,2.927,3.338,4.151a27.633,27.633,0,0,1,2.035,3.764c1.084,2.455-.351,2.25-2.451,2.443-3.111.285-6.285.438-9.382.929q-.413-.667-.8-1.339C691.276,582.309,692.338,579.88,693.338,577.415Z" transform="translate(-491.117 -412.88)" fill="#3c3c3b"/>
      <path id="Path_38420" data-name="Path 38420" d="M655.093,612.058c-4.472-7.676-15.528-2.407-17.108,4.518-2.192-3.125-5.173-5.661-9.093-6.108-5.092-.578-8.94,2.808-9.874,7.676-2.276,11.855,10.277,21.321,21.044,21.072a1.252,1.252,0,0,0,.929-1.979C650.031,634.156,660.549,621.422,655.093,612.058Zm-17.409,22.218a1.971,1.971,0,0,0-.518,1.674c-5.823-2.011-11.4-6.094-13.192-12.158-.962-3.26-.817-8.45,3.6-8.9,4.948-.5,7.575,5.53,9.647,8.878,1.345,2.174,4.169.54,3.7-1.628a1.117,1.117,0,0,0,.327-1.277c-.982-2.746.719-5.739,3.208-7.073,1.525-.815,5.672-.811,6.969.406,2.589,2.431-.464,8.161-1.985,10.225C646.253,628.753,641.193,630.5,637.684,634.275Z" transform="translate(-541.085 -220.437)" fill="#3c3c3b"/>
    </g>
    <g id="Group_1555" data-name="Group 1555" transform="translate(662.014 6898.787)">
      <path id="Path_38421" data-name="Path 38421" d="M298.649,547.334c-6.684-8.5-19.679-13.689-28.29-4.95-3.655,3.709-5.289,8.926-5.943,13.964-.668,5.133.688,11.415-3.091,15.47a7.544,7.544,0,0,0-2.172,6.9c-.106.038-.225.086-.313.118-2.834,1.064-3.822,6.261,0,6.793a44.693,44.693,0,0,0,34.672-9.494C302.762,568.87,306.387,557.172,298.649,547.334Z" transform="translate(-238.493 -527.608)" fill="#f9b233"/>
      <path id="Path_38422" data-name="Path 38422" d="M377.326,560.793a7.513,7.513,0,0,0-1.57-1.521c-2.987-2.1-6.4-2.106-9.569-3.778-3.3-1.742-5.3-4.555-7.343-7.583-3.952-5.863-8.412-11.8-15.639-13.687-15.085-3.932-24.97,12.363-22.285,25.578,2.762,13.587,15.785,22.957,28.935,24.954A32.655,32.655,0,0,0,384.4,567.174,4.9,4.9,0,0,0,377.326,560.793Z" transform="translate(-174.809 -531.815)" fill="#f9b233"/>
      <path id="Path_38423" data-name="Path 38423" d="M386.181,616.962a8.918,8.918,0,0,0-6.327-.8l-.052-.006a52.184,52.184,0,0,0,3.834-36.492c-11.2-41.6-74.843-41.442-100.1-13.987-12.1,13.154-16.028,33.2-10.438,50.113a49.294,49.294,0,0,0,3.324,7.692,7.977,7.977,0,0,0-1.576,1.337c-2.822,3.147-3.336,8.368,0,11.431a8.225,8.225,0,0,0,11.3.108A55.919,55.919,0,0,0,312.177,650.5c7.094,1.66,13.435,1.945,19.607-.221,16.662-1.3,32.136-10.889,42.125-24.412.03.151.05.313.084.46a8.453,8.453,0,0,0,3.812,4.958c3.75,2.194,9.26.984,11.353-2.975C391.185,624.479,390.28,619.126,386.181,616.962Z" transform="translate(-224.327 -519.024)" fill="#f4d9bf"/>
      <path id="Path_38424" data-name="Path 38424" d="M387.558,664.1c-9.691-8.483-19.117-17.172-28.427-26.058A112.359,112.359,0,0,1,340.489,600.8a4.437,4.437,0,0,0-5.355-3.041,92.431,92.431,0,0,1-26.145,2.4c-1.544-3.071-6.548-2.35-7.068,1.72A117.9,117.9,0,0,1,277.1,661.419a5.12,5.12,0,0,0,.215,6.7c.052.118.094.241.157.357,4.31,7.893,10.6,16.058,20.235,17.028,11.461,1.154,20.376-8.356,31.974-7.029,6.335.723,10.078,4.609,15.649,6.805a9.321,9.321,0,0,0,9.864-1.5c4.29-3.623,5.853-7.3,11.56-9.217,5.506-1.849,11.724-2.11,17.479-2.453C387.993,671.889,390.825,666.953,387.558,664.1Z" transform="translate(-219.008 -468.278)" fill="#f50057"/>
      <path id="Path_38425" data-name="Path 38425" d="M285.079,557.386a4.274,4.274,0,0,0-1.016-1.933,5.448,5.448,0,0,0-2.953-2.039,6.687,6.687,0,0,0-4.974.656,7.156,7.156,0,0,0-3.123,5.8,5.088,5.088,0,0,0,1.417,3.422q1.722,1.372.456.307a6.051,6.051,0,0,0,.953.718,3.919,3.919,0,0,0,3.563.225,5.774,5.774,0,0,0,2.387-.446,6.4,6.4,0,0,0,2.718-2.328,5.638,5.638,0,0,0,.775-2.87Z" transform="translate(-221.933 -512.374)" fill="#82368c"/>
      <path id="Path_38426" data-name="Path 38426" d="M331.188,550.824a7.306,7.306,0,0,0-1.16-.532,6.653,6.653,0,0,0-.644-.317,6.018,6.018,0,0,0-4.195-.325,7.751,7.751,0,0,0-4.249,3.218,6.966,6.966,0,0,0-.927,4.643,6.351,6.351,0,0,0,1,2.971,8.122,8.122,0,0,0,2.893,2.8,7.4,7.4,0,0,0,7.282,0,7.215,7.215,0,0,0,0-12.457Z" transform="translate(-175.341 -516.157)" fill="#82368c"/>
      <path id="Path_38427" data-name="Path 38427" d="M436.684,561.734c-13.844.941-22.068-8.734-29.968-18.567-4.876-6.07-10.554-11.136-18.846-10.372-17.283,1.588-21.8,21.054-14.952,34.429a1.318,1.318,0,0,0,.424.48,7.4,7.4,0,0,0-2.431,2.728c-10.018-8.794-23.053-13.941-35.773-11.042a1.3,1.3,0,0,0-1.349-.885c-16.106,1.387-32.614,7.1-44.947,17.56-2.276-1.554-4.408-3.846-7.322-3.115a8.526,8.526,0,0,0-5.086,3.856c-2.019,3.358-1.2,8.451,2.2,10.488a53.347,53.347,0,0,0-4.858,8.673c-6.726,15.189-5.341,30.88,2.595,43.535-4.745,2.469-6.407,9.583-2.186,13.445a8.537,8.537,0,0,0,7.883,1.762,8.213,8.213,0,0,0,4.753-3.378,54.978,54.978,0,0,0,4.944,3.649A66,66,0,0,0,306.077,662c-2.9,25.964-11.3,49.752-30.071,68.606-1.19,1.2-.833,3.9,1.1,4.167,11.158,1.536,15.659,14.223,25.8,17.971a14.289,14.289,0,0,0,4.111.871,1.71,1.71,0,0,0-.263.422c-3.543,9.005-6.5,18.224-9.362,27.467-6.467-5.851-17.75-14.745-22.68-4.049-4.633,10.054,9.243,15.926,16.921,14.063,1.522-.369,1.3-2.4,0-2.868-1.869-.676-3.778-.793-5.65-1.377a5.716,5.716,0,0,1-3.7-1.871q-7.18-2.921,3.9-6.678c3.589.887,7.987,6.716,10.645,9.119a2.549,2.549,0,0,0,4.211-1.112c3.147-10.552,6.253-21.134,8.577-31.9a1.451,1.451,0,0,0-.267-1.266c10.4-1.084,18.515-12.881,29.806-6.672,9.4,5.169,19,11.668,26.723.383,3.6-5.257,7.168-7.8,13.84-7.808,3.017,0,5.97.442,8.982.06,4.87-.618,9.085-2.614,11.1-7.262a2.218,2.218,0,0,0-.335-2.593c-21.133-18.924-41.725-38.568-49.489-66.741a2.813,2.813,0,0,0-.146-.385,56.255,56.255,0,0,0,26.606-18.963c4.031,2.864,10.534,2.208,12.844-2.6,1.983-4.129-.949-9.3-5.086-10.474a54.127,54.127,0,0,0,3.631-32.522,48.065,48.065,0,0,0-7.818-17.4,4.73,4.73,0,0,0,2.776-1.481,1.967,1.967,0,0,0,.542,1.014c7.391,7.694,19.161,9.8,29.222,6.843,11.5-3.38,19.894-12.592,25.534-22.787A1.638,1.638,0,0,0,436.684,561.734ZM279.306,580.269a5.075,5.075,0,0,1,3.818-3.868l3.4,1.742a57.324,57.324,0,0,0-5.943,6.5A5.85,5.85,0,0,1,279.306,580.269Zm2.274,70.774a5.334,5.334,0,0,1-4.719-.765c-2.686-2.27-1.558-6.662,1.138-8.352a49.524,49.524,0,0,0,6.387,7.26A6.913,6.913,0,0,1,281.58,651.043Zm113.679,80.6c-5.689,8.344-22.357-.036-29.708,8.487-1.813,2.1-3.135,6.158-5.478,7.621-5.532,3.453-11.277-.044-15.878-2.947-4.279-2.7-8.675-5.161-13.9-4.641-11.239,1.118-18.947,14.1-30.3,5.255-6.02-4.693-10.434-11.578-17.515-14.372,16.789-18.242,28.048-43.192,26.117-68.213a68.077,68.077,0,0,0,37.329.911,2.264,2.264,0,0,0,.032.3C351.688,692.284,374.571,713.3,395.258,731.643Zm-9.43-91.176c-1.788,2.507-5.414,2.543-7.9,1.136A59.8,59.8,0,0,0,382.7,633.7C385.679,633.953,387.624,637.948,385.828,640.467Zm-5.08-48.821c7.987,19.414.448,42.566-14.846,56.155-17.122,15.215-43.188,17.018-63.574,7.636-20.847-9.6-33.688-29.79-26.466-52.641,7.921-25.057,32.68-36.189,56.573-40.948a1.341,1.341,0,0,0,1.158.719c10.193.444,19.366,1.572,28.262,7.094A47.6,47.6,0,0,1,380.749,591.646Zm-2.344-13.25a57.276,57.276,0,0,0-5.675-6.3c1.544-2.37,5.207-3.814,7.4-1.586C382.706,573.143,380.36,576.391,378.405,578.4Zm7.656-1a1.929,1.929,0,0,0-2-.369c1.12-3.053.383-7.22-1.927-9.175a6.857,6.857,0,0,0-6.283-1.3,1.279,1.279,0,0,0-.09-.516c-3.631-9.017-3.565-20.795,5.674-26.506,10.683-6.6,18.391,1.786,24.675,9.653,6.775,8.481,16.161,16.714,27.367,16.2C422.789,580.989,402.755,591.612,386.061,577.392Z" transform="translate(-225.441 -532.719)" fill="#3c3c3b"/>
      <path id="Path_38428" data-name="Path 38428" d="M354.579,661.434c-4.954-7.168-16.2-4.607-21.6,1.526a97.356,97.356,0,0,0-10.6-22.518,1.658,1.658,0,0,0-2.862,1.672,145.139,145.139,0,0,1,10.542,28.15c.558,2.178,4.35,2.467,4.7,0,.735-5.135,8.157-10.018,13.344-7.648,5.311,2.427,2.565,8.607-1.971,10.108-2.565.847-5.5.177-8.073-.2A2.324,2.324,0,0,0,336.825,677c5.3,1.941,12.208,1.517,16.291-2.822C356.259,670.836,357.255,665.3,354.579,661.434Z" transform="translate(-175.961 -426.563)" fill="#3c3c3b"/>
      <path id="Path_38429" data-name="Path 38429" d="M363.295,585.885c-4.227,8.746-8.79,16.377-17.234,21.725-9.4,5.955-20.484,6.9-31.189,4.865a1.5,1.5,0,0,0-.8,2.893c21.052,6.993,47.9-5.243,52.747-28C367.253,585.353,364.3,583.806,363.295,585.885Z" transform="translate(-182.22 -480.916)" fill="#3c3c3b"/>
      <path id="Path_38430" data-name="Path 38430" d="M341.763,581.2c-.13-2.164.014-4.31-.935-6.283a1.7,1.7,0,0,0-3.077.4c-.59,2.212.1,4.627.389,6.869.295,2.276.55,4.572,1.014,6.817.347,1.678,2.9,1.244,2.921-.395C342.114,586.137,341.91,583.66,341.763,581.2Z" transform="translate(-157.89 -491.642)" fill="#3c3c3b"/>
      <path id="Path_38431" data-name="Path 38431" d="M346.249,578.6c-1.995-.215-3.5,2.216-4.289,3.764a11.626,11.626,0,0,0-1.275,5.741,1.462,1.462,0,0,0,2.921,0A9.115,9.115,0,0,1,345.235,584c.815-1.134,2.377-1.871,2.6-3.318A1.681,1.681,0,0,0,346.249,578.6Z" transform="translate(-154.754 -487.177)" fill="#3c3c3b"/>
      <path id="Path_38432" data-name="Path 38432" d="M356.017,583.423c-2.082.373-4.051,1.612-5.96,2.507-2.065.966-4.125,1.935-6.158,2.967a1.376,1.376,0,0,0,1.056,2.5c2.192-.65,4.36-1.361,6.53-2.081,2.015-.666,4.269-1.126,6.05-2.3A1.98,1.98,0,0,0,356.017,583.423Z" transform="translate(-152.225 -482.418)" fill="#3c3c3b"/>
      <path id="Path_38433" data-name="Path 38433" d="M302.753,565.5c-6.67-.538-8.948-7.188-5.337-12.3,1.032-1.463-1.132-2.828-2.338-1.8-7.268,6.192-1.626,18.443,7.674,17.391A1.645,1.645,0,0,0,302.753,565.5Z" transform="translate(-203.316 -514.528)" fill="#3c3c3b"/>
      <path id="Path_38434" data-name="Path 38434" d="M311.777,561.968A9.39,9.39,0,0,1,302,551.8c.175-1.81-2.678-2.124-3.127-.423-2,7.609,5.628,15.615,13.3,13.513A1.494,1.494,0,0,0,311.777,561.968Z" transform="translate(-196.584 -515.308)" fill="#3c3c3b"/>
      <path id="Path_38435" data-name="Path 38435" d="M321.682,560.226c-5.028-1.355-15.859-1.156-14.647-9.3.253-1.7-2.142-2.471-2.641-.729-2.826,9.874,9.591,14.472,17.287,12.925C323.171,562.821,323.053,560.6,321.682,560.226Z" transform="translate(-191.184 -516.346)" fill="#3c3c3b"/>
      <path id="Path_38436" data-name="Path 38436" d="M279.52,537.1c-20.892,4.613-11.987,35.169-24.788,46.729-1.381,1.247-.452,3.156.99,3.748a33.492,33.492,0,0,0,34.738-5.588c2.049-1.764-.875-4.5-2.915-2.915a29.846,29.846,0,0,1-27.233,5.349c6.881-8.493,5.948-19.93,9.215-30.183,3.169-9.946,10.98-16.287,21.456-10.849,9.069,4.707,13.89,13.734,10.365,23.6-.5,1.413,1.529,2.065,2.29.964C313.6,553.559,294.926,533.7,279.52,537.1Z" transform="translate(-240.755 -528.754)" fill="#3c3c3b"/>
      <path id="Path_38437" data-name="Path 38437" d="M341.318,583.379a2.076,2.076,0,0,0-4.149,0c-1.776,25.572-40.908,21.526-47.432.714-.335-1.07-2.16-.947-2.051.277C290.165,612.335,344.323,613.106,341.318,583.379Z" transform="translate(-207.369 -484.409)" fill="#3c3c3b"/>
      <path id="Path_38438" data-name="Path 38438" d="M309.582,580.859a6.5,6.5,0,0,0-10.044-1.517c-1.2,1.14.538,2.736,1.772,1.77,1.69-1.323,4.866-.676,5.363,1.594a3.432,3.432,0,0,1-.61,2.67c-.721.992-1.815,1.224-2.248,2.465a1.634,1.634,0,0,0,.749,1.841c2.1,1,4.055-.941,4.95-2.738A6.807,6.807,0,0,0,309.582,580.859Z" transform="translate(-195.999 -488.144)" fill="#3c3c3b"/>
      <path id="Path_38439" data-name="Path 38439" d="M298.221,572c-4.271-4.522-11.991-2.7-14.286,2.86-.811,1.965,2.609,3.426,3.458,1.459a4.915,4.915,0,0,1,8.007-1.495C297.133,576.721,299.988,573.873,298.221,572Z" transform="translate(-211.212 -496.251)" fill="#3c3c3b"/>
      <path id="Path_38440" data-name="Path 38440" d="M320.686,567.156a8.01,8.01,0,0,0-8.388,7.559c-.139,1.762,2.521,2.007,3,.406.684-2.294,3-4.268,5.494-3.639s2.541,2.977,4.185,4.422a1.716,1.716,0,0,0,2.664-.343C329.72,571.57,324.3,567.373,320.686,567.156Z" transform="translate(-182.935 -498.544)" fill="#3c3c3b"/>
      <path id="Path_38441" data-name="Path 38441" d="M311.748,601.257c-5.624,7.877-16.12,10.665-25.147,12.353a54.116,54.116,0,0,1-14.508.937c-5.265-.446-9.593-2.615-14.509-4.2a1.354,1.354,0,0,0-1.307,2.246c7.63,7.848,21.626,6.985,31.482,5.225,10.319-1.841,21.347-5.2,26.04-15.357A1.189,1.189,0,0,0,311.748,601.257Z" transform="translate(-238.91 -465.227)" fill="#3c3c3b"/>
      <path id="Path_38442" data-name="Path 38442" d="M258.827,606.968c-1.971.793-3.918,1.626-5.867,2.473-1.748.757-3.988,1.255-4.944,3.011a1.4,1.4,0,0,0,.827,2.031c1.935.411,3.523-.737,5.237-1.57,2.007-.976,4.011-1.957,5.992-2.987C261.667,609.1,260.547,606.275,258.827,606.968Z" transform="translate(-246.918 -459.113)" fill="#3c3c3b"/>
      <path id="Path_38443" data-name="Path 38443" d="M258.715,606.161a17.445,17.445,0,0,1-5.06-.319c-1.582-.4-2.943-1.289-4.494-1.74a1.447,1.447,0,0,0-1.4,2.4c2.563,2.784,7.9,3.089,11.251,1.889C260.156,607.984,260.07,606.1,258.715,606.161Z" transform="translate(-247.38 -461.91)" fill="#3c3c3b"/>
      <path id="Path_38444" data-name="Path 38444" d="M261.546,606.648a14.951,14.951,0,0,1-5.133-3.464c-1.311-1.341-2.035-3.406-4.025-3.671-.662-.088-1.178.516-1.385,1.054-.8,2.077,2,4.51,3.436,5.707a18.87,18.87,0,0,0,6.263,3.443C262.686,610.373,263.4,607.394,261.546,606.648Z" transform="translate(-243.924 -466.413)" fill="#3c3c3b"/>
    </g>
    <g id="Group_1556" data-name="Group 1556" transform="translate(854.458 6692.002)">
      <path id="Path_38445" data-name="Path 38445" d="M538.121,524.662a22.287,22.287,0,0,0-7.292-.06c.53-13.039-2.575-26.022-2.539-39.069.02-7.882-8.505-10.257-13.674-7.128a6.994,6.994,0,0,0-3.964,1.419c-4.866,3.464-9.131,2.758-14.98,2.1a166.9,166.9,0,0,1-21.45-3.99c-11.168-2.764-21.755-6.281-31.59-12a7.953,7.953,0,0,0-13.166.263c-11.933,17.042-27.925,24.679-47.837,29.009a4.95,4.95,0,0,0-.717.233c-1.965-1.841-5.3-1.873-7.541,1.024-7.6,9.846-8.689,21.506-5.715,32.524-.343.094-.685.191-1.026.275-3.266.8-6.65,4.621-6.235,8.188a13.1,13.1,0,0,0,.3,2.258c1.4,4.3,5.865,7.282,10.446,5.932,1.164-.345,2.375-.711,3.551-1.168a60.553,60.553,0,0,0,10.153,11.891c18.413,16.56,44.7,23.746,68.9,25.561,23.774,1.784,49.07-4.882,64.642-23.967a54.181,54.181,0,0,0,10.2-19.326,17.167,17.167,0,0,0,5.07,2.2c4.282.893,9.266-1.249,10.317-5.857C544.938,530.766,542.71,525.637,538.121,524.662Z" transform="translate(-327.659 -395.571)" fill="#f4d9bf"/>
      <path id="Path_38446" data-name="Path 38446" d="M510.4,719.789c-10.476-28.477-16.478-59.086-21.789-88.9-5.385-30.225-10.4-61.195-12.351-91.848-.183-2.858-2.441-5.883-5.638-5.636-.923.072-2.858.4-5.175.745a4.75,4.75,0,0,0-.586-1.391,3.955,3.955,0,0,0-4.289-1.746,4.7,4.7,0,0,0-3.888,3.962c-3.242.014-5.825-.516-6.126-2.252-.729-4.193-6.777-5.476-9.492-2.5-2.389,2.618-5.41,3.792-8.447,1.15a5.525,5.525,0,0,0-6.447-.833c-2.238,1.227-5.259,2.174-6.849,4.2-2.033,2.591-2.6,6.995-3.471,10.1-2.21,7.846-3.946,15.867-5.855,23.794-3.9,16.205-7.85,32.4-12.409,48.437-8.368,29.417-19.944,56.424-36.972,81.892-2.015,3.011-.434,6.285,2.144,7.869a6.309,6.309,0,0,0,2.517,4.884C383.9,726.411,406.9,730.976,430,733.485c24.746,2.686,51.233,2.086,75.305-4.723C508.866,727.756,511.776,723.523,510.4,719.789Z" transform="translate(-328.31 -330.026)" fill="#4b44f2"/>
      <path id="Path_38447" data-name="Path 38447" d="M400.52,661.356c-1.6-5.8-8.336-8.912-13.778-9.781a22.333,22.333,0,0,0-15.542,2.983,5.561,5.561,0,0,0-2.7,5.883,8.731,8.731,0,0,0,3.99,8.226,28.013,28.013,0,0,0,16.006,4.952C395.225,673.486,402.722,669.353,400.52,661.356Z" transform="translate(-319.673 -208.247)" fill="#f50057"/>
      <path id="Path_38448" data-name="Path 38448" d="M460.17,655.716c-4.265-6.437-13.465-7.055-20.111-4.542a23.427,23.427,0,0,0-13.894,13.136c-1.8,4.3,2.8,8.182,6.847,7.909,6.036,4.623,15.414,6.919,22.25,2.551C461.577,670.734,464.49,662.237,460.17,655.716Z" transform="translate(-262.727 -209.694)" fill="#f50057"/>
      <path id="Path_38449" data-name="Path 38449" d="M414.721,538.908a8.459,8.459,0,0,0,2.435-5.881,8.57,8.57,0,0,0-2.435-5.879,8.316,8.316,0,0,0-11.759,0c-.237.259-.46.536-.676.821a7.585,7.585,0,0,0-4.44-5.365,7.389,7.389,0,0,0-7.449.967,7.159,7.159,0,0,0-2.314,3.007,6.947,6.947,0,0,0-.548,2.919,13,13,0,0,0,1.273,8.985c1.056,2.322,4.5,3.547,6.851,2.786a6.312,6.312,0,0,0,4.448-5.8c.068-.231.121-.466.179-.7.141-.146.251-.323.379-.48a8.347,8.347,0,0,0,1.646,3.774,6.27,6.27,0,0,0,2.334,2.14c.3.139.608.251.911.378a7.047,7.047,0,0,0,1.154.48c.07.026.135.06.2.086l-.088-.052a7.074,7.074,0,0,0,4.029,0l-.086.05c.08-.03.15-.062.229-.092a7.211,7.211,0,0,0,1.164-.49A9.615,9.615,0,0,0,414.721,538.908Z" transform="translate(-300.975 -336.564)" fill="#f50057"/>
      <path id="Path_38450" data-name="Path 38450" d="M432.2,525.951a8.095,8.095,0,0,0-13.527,3.571,8.534,8.534,0,0,0-.225,1.206l0-.028,0,.03c-.008.064-.006.128-.012.191a7.671,7.671,0,0,0-.43-1.437,10.461,10.461,0,0,0-1.805-2.764,7.581,7.581,0,0,0-6.718-2.2,7.7,7.7,0,0,0-5.843,3.818,8.787,8.787,0,0,0-.719,7.144,13.807,13.807,0,0,0,1.05,2.349,8.045,8.045,0,0,0,2.872,2.872l.185.078a9.8,9.8,0,0,0,2.641,1.353,14.81,14.81,0,0,0,2.834.482c2.027.259,4.123-1.15,5.287-2.654a6.984,6.984,0,0,0,1.481-4.645,8.078,8.078,0,0,0,1.487,2.078c.084.105.183.189.273.283.313.446.624.893.937,1.341a6.4,6.4,0,0,0,6.277,3.007c2.268-.3,4.821-2.086,5.239-4.514l.323-1.865c.11-.638.325-1.2.476-1.823A8.229,8.229,0,0,0,432.2,525.951Z" transform="translate(-285.859 -335.001)" fill="#f50057"/>
      <path id="Path_38451" data-name="Path 38451" d="M541.564,490.276c-1.036.44-2.085.853-3.137,1.251-13.862,4.243-28.284-8.41-39.15-15.315-14.533-9.237-30.1-12.365-47.2-11.407a101.684,101.684,0,0,0-14.655,1.875c-.913-13.184-10.06-26.466-21.084-32.538-17.4-9.583-40.39-5.466-54.031,8.784-13.158,13.746-18.308,35.561-11.423,53.5,3.441,8.971,10.592,17.1,20.209,19.533a21.727,21.727,0,0,0,12.66-.718,8.991,8.991,0,0,0,.146,3.952c-3.629,2.092-3.334,8.8,1.3,9.671a28.46,28.46,0,0,0,16.468-2.027c19.29-3.061,36.534-14.934,47.947-30.8,28.5,20.773,68.546,25.259,99.578,7.284C558.017,498.678,550.251,486.594,541.564,490.276Z" transform="translate(-340.096 -428.952)" fill="#936037"/>
      <path id="Path_38452" data-name="Path 38452" d="M417.861,466.391c-6.949,5.813-12.557,12.114-20.964,16.048a61.176,61.176,0,0,1-27.634,5.526c-1.325-.038-1.245,1.855,0,2.009,17.475,2.166,41.994-5.135,50.278-22.287A1.074,1.074,0,0,0,417.861,466.391Z" transform="translate(-319.778 -392.067)" fill="#3c3c3b"/>
      <path id="Path_38453" data-name="Path 38453" d="M540.566,540.61a6.854,6.854,0,0,0-6.736,2.206,105.18,105.18,0,0,0-.421-24.442c6.387,1.341,10.677,5.347,7.086,13.89-.632,1.5,1.365,2.628,2.569,1.975,7.128-3.876,3.023-14.215-2.232-17.732a20.254,20.254,0,0,0-8.16-3.111c-.415-2.457-.879-4.9-1.425-7.314-.5-2.192-3.868-1.263-3.372.931.456,2.017.849,4.053,1.21,6.094a29.214,29.214,0,0,0-14.364,3.792,21.735,21.735,0,0,0-11.385-12.042,2.055,2.055,0,0,0-2.385.546.735.735,0,0,0-.385-.4c-12.467-6.068-22.09,3.163-24.653,14.3-6.634-5.492-17.441-5.105-22.626,2.039.068-4.127-.7-8.386-3.039-11.6-2.963-4.065-7.7-5.133-12.435-5.2a.884.884,0,0,0-.446-.259c-11.413-2.646-24.334,1.973-28.206,13.894-.026.08-.04.159-.064.239-.056-.014-.094-.048-.153-.058a124.529,124.529,0,0,0-23.023-1.6c-4.623.062-9.8-.138-14.629.614a1.418,1.418,0,0,0,.187-.494c5.345-35.711,31.693-64.469,68.741-67.6,18.346-1.55,35.864,3.45,51.237,13.368,9.547,6.16,19.248,14.023,30.336,17.353-5.155.209-10.323.289-15.508.267-2.072-.008-2.061,3.133,0,3.208a195.252,195.252,0,0,0,34.918-2.057c-12.953,12.12-34.525,15.444-51.332,14.647-19.617-.933-37.676-8.38-53.6-19.617-.749-.53-1.662.66-.98,1.269,15.2,13.609,35.456,20.659,55.726,21.532,19.539.841,41.715-3.607,55.1-18.842a1.432,1.432,0,0,0-1.379-2.371c-4.819.662-9.635,1.148-14.458,1.5-18.469-4.609-31.313-18.112-48.188-26.145a83.851,83.851,0,0,0-51.9-6.455c-32.652,6.423-60.19,35.759-62.02,69.495a1.464,1.464,0,0,0,.827,1.391,24.191,24.191,0,0,0-3.095.911c-6.249,2.379-12.274,12.77-4.027,16.721a1.908,1.908,0,0,0,2.589-2.589c-3.308-5.819,3.1-9.6,8.131-10.215,3.928-.48,7.965-.516,11.913-.632,7.949-.233,15.906-.012,23.852-.245-1.431,10.524,6.271,18.93,17.1,20.406,11.716,1.6,24.8-2.443,27.263-15.259.142-.735.257-1.5.353-2.286a1.266,1.266,0,0,0,1.664-.237c4.819-5.357,13.284-7.12,19.031-2.09a1.811,1.811,0,0,0,1.6.438c-.861,9.049,2.993,18.445,13.724,21.472,9.936,2.8,21.917-1.638,25.845-11.59a21.008,21.008,0,0,0,.705-12.869,39.044,39.044,0,0,1,14.193-1.855c2.62,19.316.434,39.168-10.976,55.664-13.549,19.591-36.255,25.5-58.965,26.582-21.319,1.012-43.873-3.36-60.734-17.2-16.189-13.29-24.023-31.948-23.678-52.655a.957.957,0,0,0-1.871-.253,44.3,44.3,0,0,0-.229,17.833c-6.19-2.981-14.759.823-13.483,8.593,1.2,7.292,10.474,7.668,16.048,5.8,1.71-.574,1.558-3.505-.45-3.332-3.266.283-8.545,1.674-11-1.4a4.654,4.654,0,0,1,.556-5.968c1.853-2,4.994-2.2,7.491-1.638a1.138,1.138,0,0,0,1.158-.456c2.9,13.348,11.164,25.8,21.183,34.617a75.319,75.319,0,0,0,23.27,13.764c-4.432,32.451-9.231,64.485-18.71,95.933-9.751,32.353-23.652,62.607-39.463,92.382-1.321,2.491,2.314,4.631,3.784,2.214,17.347-28.495,30.3-60.188,40.005-92.039,7.872-25.84,14.129-52.9,16.407-80.032a6.654,6.654,0,0,0,7.447-.7,9.161,9.161,0,0,0,2.511-2.937,9.128,9.128,0,0,0,6.544,4.366,9.807,9.807,0,0,0,8.93-3.97,10.073,10.073,0,0,0,.666,1.636,9.255,9.255,0,0,0,7.927,5.109c4.49-.016,7.142-3.158,8.4-7.021,1.455,3.752,4.328,6.58,9.111,5.929a8.367,8.367,0,0,0,5.253-2.939c-.165,13.513.871,27.152,1.658,40.531,1.032,17.524,2.491,35.023,4.767,52.434,4.308,32.963,11.034,66.9,24.627,97.439a172.564,172.564,0,0,1-72.079,7.082c-25.49-2.981-48.773-12.122-71.208-24.226a1.5,1.5,0,0,0-1.515,2.591,135.149,135.149,0,0,0,27.6,15.49c-3.92,7.1-3.438,17.62-4.771,25.51-1.473,8.7-4.249,17.409-5.02,26.181-.181,2.064,1.939,2.513,3.328,1.68a1.508,1.508,0,0,0,1.156.217c5.187-.99,11.373-2.555,16.409-.086,5.5,2.692,7.909,10.139,1.275,13.059-3.517,1.548-7.959,1.393-11.616.412-4.193-1.126-6.12-3.356-8.724-6.536-.965-1.178-2.971-.189-2.939,1.218.271,12.411,23.8,13.338,29.788,5.223,3.647-4.94,1.487-11.381-2.939-15.02-5.867-4.825-13.916-3.412-20.713-1.5,3.019-8.19,4.1-17.692,5.359-26.2,1.052-7.114,3.515-16.287,1.363-23.344,28.353,11.425,60.75,14.223,90.917,9.245a299.771,299.771,0,0,1,8.192,48.323c.2,2.4,3.792,4.016,5.038,1.363,3.475-7.4,11.777-12.068,19.98-9.8,7.335,2.029,10.129,10.942,2.32,15.193-4.079,2.22-9.219,1.7-13.7,2.306-1.963.267-1.789,3.392,0,3.8,7.469,1.7,16.714.173,21.413-6.457,3.477-4.908,3.254-10.986-.984-15.37-8.252-8.533-21.62-6.09-29.374,1.574a189.4,189.4,0,0,0-9.324-41.558,166.042,166.042,0,0,0,22.931-5.958,2.391,2.391,0,0,0,1.664-2.5,2.319,2.319,0,0,0,1.325-2.914A439.2,439.2,0,0,1,488.21,703.413c-2.037-16.988-3.368-34.061-4.342-51.141-.956-16.715-.891-33.744-3.44-50.312a1.074,1.074,0,0,0-.07-.2c16-3.234,30.633-10.209,40.786-24.276a67.229,67.229,0,0,0,10.2-21.508c6.4,4.589,15.8-.735,14.978-8.553A7.6,7.6,0,0,0,540.566,540.61Zm-92.4-12.7c-2.9,9.908-15.986,11.805-24.709,9.5-9.617-2.537-13.874-12.483-8.766-21.225,3.6-6.15,10.578-8.722,17.435-9.593a1.816,1.816,0,0,0,1.911,2.059c6.492-.09,12.481,1.13,14.591,8.278C449.615,520.26,449.119,524.674,448.171,527.912Zm63.526.68c-2.013,8.8-11.48,13.292-19.93,11.636-9.019-1.768-13.78-10.446-12.138-19.179,1.991-10.58,10.988-13.507,20.51-14.466a.873.873,0,0,0,.265-.074,1.519,1.519,0,0,0,.984,1.682A18.172,18.172,0,0,1,511.7,528.591Zm-85.032,82.571a4.729,4.729,0,0,1-6.261,2.19c.353-4.817.592-9.635.676-14.448,2.086.705,4.211,1.307,6.349,1.865a1.591,1.591,0,0,0-.038.247C427.555,604.377,428.544,608.084,426.664,611.163Zm10.089,2.093a7.232,7.232,0,0,1-5.237-5.231,20.142,20.142,0,0,0-.082-4.737,6.512,6.512,0,0,1,.325-.885,1.135,1.135,0,0,0,.1-.58,107.335,107.335,0,0,0,11.658,1.792,1.626,1.626,0,0,0,.092.7C445.082,608.546,441.722,614.255,436.754,613.255Zm17.967,2.712c-6.353,1.046-7.057-7.9-6.417-11.989,3.808.219,7.614.257,11.391.121C459.342,608.106,460.147,615.075,454.721,615.967Zm17.154-1.682c-5.857,2.216-7.449-6.389-8.065-10.4,4.1-.267,8.168-.7,12.178-1.335C475.336,606.643,476.717,612.452,471.875,614.285Zm61.342-61.561a2.051,2.051,0,0,0-.99-.227c.594-2.611,1.038-5.255,1.377-7.919a.468.468,0,0,0,.167-.064c3.286-2.72,9.049-.8,9.043,3.766C542.806,553.639,537.151,554.679,533.217,552.724Z" transform="translate(-330.138 -412.653)" fill="#3c3c3b"/>
      <path id="Path_38454" data-name="Path 38454" d="M399.272,492a27.19,27.19,0,0,1-1.2-8.057c.126-3.153-4.825-3.86-5.536-.749a17.478,17.478,0,0,0,.875,11.279C394.957,497.854,400.143,495.413,399.272,492Z" transform="translate(-296.251 -377.097)" fill="#3c3c3b"/>
      <path id="Path_38455" data-name="Path 38455" d="M432.549,490.252a45.387,45.387,0,0,1-1.5-7.174c-.472-2.475-3.742-1.917-4.478,0-1.04,2.7-.634,6.072.12,8.788C427.744,495.66,433.864,493.909,432.549,490.252Z" transform="translate(-262.544 -376.858)" fill="#3c3c3b"/>
      <path id="Path_38456" data-name="Path 38456" d="M478.644,501.2c-2.379-3.193-7.836-4.026-10.681-.945a1.6,1.6,0,0,0,1.548,2.66,8.079,8.079,0,0,1,1.491-.279c1.451,20.135-17.339,30.071-35.294,29.246a52.971,52.971,0,0,1-21.9-5.725c-6.646-3.467-16.638-11.038-17.572-19.234.889-.295,1.813-.446,2.682-.827,1.491-.65,1.092-3.21-.458-3.505-3.539-.674-7.168,2.2-8.966,5-1.1,1.712,1.586,3.872,2.868,2.214.094-.12.193-.225.291-.339.454,7.4,7.142,14.133,12.784,18.212,8.736,6.315,19.567,9.5,30.274,9.914,18.83.719,43.682-11.5,39.744-33.477.056.04.11.074.165.116C477.359,505.52,479.942,502.937,478.644,501.2Z" transform="translate(-298.995 -360.08)" fill="#3c3c3b"/>
      <path id="Path_38457" data-name="Path 38457" d="M421.472,497.235a6.507,6.507,0,0,0-4.338-3.982c-3.611-.773-8.011,2.475-6.116,6.321.773,1.57,3.071.434,2.718-1.146-.317-1.417,2.445-1.261,3.115-.638,1.782,1.658.988,4.444,1.66,6.487a2.041,2.041,0,0,0,3.9,0A12.039,12.039,0,0,0,421.472,497.235Z" transform="translate(-277.819 -365.228)" fill="#3c3c3b"/>
      <path id="Path_38458" data-name="Path 38458" d="M414.485,528.824c-6.965,14.641-13.677,29.177-23.09,42.468-9.8,13.836-21.618,25.406-34.631,36.175-2.256,1.867.775,5.867,3.163,4.1,26.008-19.256,49.678-49.764,56.92-81.746C417.154,528.464,415.145,527.439,414.485,528.824Z" transform="translate(-332.016 -330.454)" fill="#3c3c3b"/>
      <path id="Path_38459" data-name="Path 38459" d="M481.95,592.268c-31.293-7.222-48.287-33.9-56.978-63.163-.474-1.6-3.276-1.389-3.049.413,3.715,29.637,27.379,64.608,59.387,67.466C484.013,597.224,484.565,592.871,481.95,592.268Z" transform="translate(-266.552 -330.594)" fill="#3c3c3b"/>
      <path id="Path_38460" data-name="Path 38460" d="M458.076,574.229c-1.323-2.6-2.615-5.225-4.079-7.744-.948-1.63-3.856-.548-3.149,1.327,1.022,2.7,2.23,5.341,3.392,7.983,1.15,2.609,2.033,5.558,3.984,7.672,1.4,1.515,3.362-.143,3.119-1.816C460.957,579.012,459.277,576.585,458.076,574.229Z" transform="translate(-237.933 -293.202)" fill="#3c3c3b"/>
      <path id="Path_38461" data-name="Path 38461" d="M462.5,567.618a24.368,24.368,0,0,0-3.976-2.314,7.891,7.891,0,0,0-1.718-.709c-.518-.078-1.04.215-1.471.086a.917.917,0,0,0-.705,1.668l.221.147c.61,1.845,3.468,3.031,4.825,4.207a32.848,32.848,0,0,1,3.017,2.991c.955,1.078,1.525,2.043,3.011,2.383a2,2,0,0,0,2.509-1.913C468.085,571.257,464.692,569.154,462.5,567.618Z" transform="translate(-234.483 -294.3)" fill="#3c3c3b"/>
      <path id="Path_38462" data-name="Path 38462" d="M474.475,566.043c-2.346-1.411-5.237-1.845-7.862-2.565-2.858-.781-5.715-1.544-8.589-2.26-2.336-.584-3.163,2.724-.979,3.547,2.78,1.048,5.572,2.051,8.376,3.035,2.6.913,5.187,2.148,7.947,2.326C475.612,570.271,476.25,567.109,474.475,566.043Z" transform="translate(-232.933 -297.707)" fill="#3c3c3b"/>
      <path id="Path_38463" data-name="Path 38463" d="M362.182,568.716a72.412,72.412,0,0,0-8.34-1.206c-2.768-.331-5.713-1.108-8.437-.365-1.522.414-2.108,2.927-.478,3.647,2.465,1.088,5.032.915,7.7,1a79.257,79.257,0,0,0,9.125.1C363.469,571.752,364.065,569.169,362.182,568.716Z" transform="translate(-343.95 -292.063)" fill="#3c3c3b"/>
      <path id="Path_38464" data-name="Path 38464" d="M360.774,571.947a20.979,20.979,0,0,0-7.286,1.714c-2.238.941-5.125,1.953-6.353,4.165a2.259,2.259,0,0,0,2.519,3.276c2.1-.367,3.942-2.252,5.807-3.264,1.993-1.08,4.065-2,6.09-3.023A1.55,1.55,0,0,0,360.774,571.947Z" transform="translate(-341.09 -286.99)" fill="#3c3c3b"/>
      <path id="Path_38465" data-name="Path 38465" d="M361.013,575.569c-1.654,1.76-3.093,3.722-4.576,5.626q-1.052,1.348-2.1,2.7c-.09.112-.329.351-.546.594a2.61,2.61,0,0,0-1.263-.111c-4.193.608-1.383,7.738,2.79,5.269,1.684-1,2.654-3.306,3.645-4.884,1.514-2.421,3.141-4.807,4.432-7.357C364.134,575.932,362.244,574.256,361.013,575.569Z" transform="translate(-337.494 -283.863)" fill="#3c3c3b"/>
      <path id="Path_38466" data-name="Path 38466" d="M435.509,458.534c-2.184-15.147-15.859-26.367-30.555-28.612-17.166-2.622-34.782,5.921-46.021,18.609-10.508,11.865-16.865,28.915-11.919,44.593,4.261,13.5,17.293,26.016,32.229,24.635,1.156-.108,1.642-1.977.3-2.2-13.6-2.3-24.655-10.982-28.457-24.631-3.964-14.23,2.26-29.465,11.889-39.963,9.358-10.2,23.286-17.465,37.369-16.841a32.891,32.891,0,0,1,31.016,25.562C431.992,462.443,435.894,461.2,435.509,458.534Z" transform="translate(-342.604 -428.46)" fill="#3c3c3b"/>
    </g>
    <g id="Group_1557" data-name="Group 1557" transform="translate(202 6648.818)">
      <path id="Path_38467" data-name="Path 38467" d="M291.124,603.07c-.8-.173-1.61-.339-2.421-.466.873-15.982-2.292-32.6-14.488-43.794-17.564-16.124-47.265-17.154-68.117-7.608-18.846,8.627-33.086,28.419-32.152,49.581.032.735.082,1.463.146,2.186a20.776,20.776,0,0,0-1.987.9,8.162,8.162,0,0,0-3.721,9.141,8.3,8.3,0,0,0,2.082,3.571,8.012,8.012,0,0,0,7.7,2.068,46.8,46.8,0,0,0,34.758,26.761c20.528,3.7,45,.223,61.163-13.828a39.7,39.7,0,0,0,8.091-9.745,7.688,7.688,0,0,0,4.352-4.257c.185.044.369.09.556.13,3.874.833,8.4-1.15,9.34-5.3C297.3,608.586,295.277,603.963,291.124,603.07Zm-24.9,6.636a34.554,34.554,0,0,0,.863-3.665,38.169,38.169,0,0,0,.3-11.544c0-.108-.006-.217-.008-.327A21.657,21.657,0,0,1,266.222,609.706Z" transform="translate(133.909 -277.453)" fill="#f4d9bf"/>
      <path id="Path_38468" data-name="Path 38468" d="M210.035,633.089l-14.589-1.467a6.085,6.085,0,0,0-5.458,3.131c-1.959,4.5-4.627,8.83-4.793,13.641-2.754,2.072-2.088,7.319,1.634,8.242a54.669,54.669,0,0,0,12.2,1.445c3.465.072,7.475.7,10.769-.476,6.931-2.477,5.773-12.5,6.339-18.413C216.474,635.68,213.052,633.392,210.035,633.089Z" transform="translate(149.222 -191.576)" fill="#66c5ee"/>
      <path id="Path_38469" data-name="Path 38469" d="M244.774,644.677c-3.346-4.482-6.783-8.91-10-13.487-1.646-2.344-5.06-4.559-8.1-3.294-4.546,1.893-9.914,3.2-12.7,7.421a4.179,4.179,0,0,0-3.25,5.391c1.283,5.247,2.8,15.472,8.768,17.377,3.1.99,6.267-.016,9.318-.7,3.958-.893,7.913-1.794,11.875-2.674S247.366,648.152,244.774,644.677Z" transform="translate(176.086 -195.625)" fill="#66c5ee"/>
      <path id="Path_38470" data-name="Path 38470" d="M247.741,656.105c-3.083-2.381-6.945-1.865-9.816.586a21.787,21.787,0,0,0-3.133,4.075,29.272,29.272,0,0,0-1.963,3.135,6.91,6.91,0,0,0,1.768,8.85c2.878,2.224,6.311,1.648,9.007-.536a25.8,25.8,0,0,0,6.062-6.465A7.508,7.508,0,0,0,247.741,656.105Z" transform="translate(197.312 -168.784)" fill="#ee7c3d"/>
      <path id="Path_38471" data-name="Path 38471" d="M268.678,648.746c-1.843-7.238-7.786-14.635-11.435-21.131-4.159-7.4-8.238-14.844-12.674-22.084-3.356-5.48-6.668-10.546-13.894-9.968-3.222.257-5.984,2.027-9.135,2.6a20.85,20.85,0,0,1-12.618-1.716c-5.271-2.477-13.27.345-12.72,7.3.333,4.215.522,8.443.514,12.67-4.008,11.347-7.878,22.744-11.819,34.112a8.055,8.055,0,0,0-.44,2.276c-4.793,1.186-6.7,8.832-.725,10.012a167.076,167.076,0,0,0,49.626,2.128c8.284-.793,16.618-1.805,24.81-3.284C264.8,660.464,270.6,656.311,268.678,648.746Zm-22.315-6.066c.791,1.226,1.57,2.459,2.3,3.7-.731.135-1.475.243-2.214.361C246.472,645.378,246.437,644.027,246.363,642.68Z" transform="translate(145.739 -227.404)" fill="#f0d30c"/>
      <path id="Path_38472" data-name="Path 38472" d="M325.8,659.922c-1.744-.592-3.671-.012-5.458.233-2.09.287-4.179.556-6.257.919a1.173,1.173,0,0,0-.971,1.244,1.787,1.787,0,0,0-2-1.008c-20.127,3.039-36.986-.032-52.773-13.615a1.3,1.3,0,0,0-2.156.743c-.478-1.146-.964-2.288-1.427-3.442.428-.128.863-.255,1.285-.389,14.38-4.55,26.317-14.035,32.867-26.689a7.407,7.407,0,0,0,9.37-3c2.009-3.617-.257-10.165-4.729-10.632a50.155,50.155,0,0,0,.8-8.651c.141-24.852-19.047-45.533-43.273-48.67a1.071,1.071,0,0,0-.482-.241c-23.774-5.161-49.467,3.2-64.17,23.033A52.866,52.866,0,0,0,176,603.06c-5.5-.821-11.156,5.088-9.36,10.733a8.976,8.976,0,0,0,6.431,5.7,8.5,8.5,0,0,0,6.152-.753,46.47,46.47,0,0,0,8.166,13.589c6.072,7.032,14.159,11.5,23.053,13.961-1.786,22.562-7.979,44.152-19.741,63.628a2.428,2.428,0,0,0,1.433,3.523A133.6,133.6,0,0,0,206.01,717.3a106.55,106.55,0,0,0-9.7,22.734,2.087,2.087,0,0,0,1.989,2.61c5.153.3,10.309.578,15.464.857a310.883,310.883,0,0,1,1.5,41.129,1.627,1.627,0,0,0-.323-.518c-3.882-4.177-17.624-8.533-19.91-.319-2.933,10.546,17.465,10.175,22.9,8.776a2.363,2.363,0,0,0,1.7-2.23,201.272,201.272,0,0,0-3.288-46.7c1.491.08,2.979.171,4.47.249,3.26.167,9.105,1.734,11.953-.375,2.13-1.576,1.861-4.484,2.035-6.805.393-5.3,1.136-10.873.654-16.2a129.738,129.738,0,0,0,15.052-.967,97.45,97.45,0,0,1,6.714,22.4,2.322,2.322,0,0,0,2.812,1.6c4.609-1.012,9.2-2.114,13.786-3.246,6.909,12.182,13.521,24.322,18.9,37.287a2.713,2.713,0,0,0,3.165,1.61,1.407,1.407,0,0,0,.233,1.965c7.866,6.777,26.249-2.314,21.375-13.34-1.786-4.041-6.754-5.813-10.887-5.253-5.285.714-8.732,4.681-11.361,9.027a171.683,171.683,0,0,0-18.4-32.052q5.978-1.495,11.951-3a2.463,2.463,0,0,0,1.459-3.583,142.84,142.84,0,0,1-10.064-20.745c.259-.1.524-.183.785-.287,2.9-1.138,6.915-2.431,7.282-6.09.5-5.024-6.965-11.578-9.549-15.362a233.409,233.409,0,0,1-21.977-40.715c12.584,13.906,35.932,21.62,54.152,15.39q2.335,1.829,4.7,3.621c1.63,1.24,3.364,3.093,5.388,3.543a1.677,1.677,0,0,0,1.871-2.433c-1.062-1.73-3.151-2.7-4.813-3.81q-1.725-1.148-3.461-2.28c2.075-.068,4.141-.225,6.212-.367,1.827-.125,3.742.03,5.353-.921A1.427,1.427,0,0,0,325.8,659.922ZM170.878,613.091c-1.845-3.485,2.039-6.666,5.355-6.811a48.4,48.4,0,0,0,1.748,8.834C175.363,615.827,172.384,615.937,170.878,613.091Zm44.208,175.391c-4.364.909-11.134,1.546-12.525-2.764q-2.376-2.873.791-2.316a5.735,5.735,0,0,1,3.994.54,14.012,14.012,0,0,1,5.49,2.9,1.52,1.52,0,0,0,2.361-.773Q215.146,787.275,215.086,788.483Zm81.981-10.335c1.905-3.609,5.879-11.979,11.006-10.693q3.829-1,2.356,4.163,2.532,4.837-2.487,6.2c-3.356,1.586-6.716,1.3-10.219.566a1.654,1.654,0,0,0-.893.086A2.228,2.228,0,0,0,297.067,778.148ZM292.8,607.675a5.2,5.2,0,0,1,2.057,1.833,4.41,4.41,0,0,1,.347,3.864,4.6,4.6,0,0,1-5.247,2.375A48.182,48.182,0,0,0,292.8,607.675ZM186.908,624.41a44.415,44.415,0,0,1-4.229-38.489c9.575-27.345,37.646-37.6,64.417-36.865a2.265,2.265,0,0,0,1.961,1.889c27.469,3.481,46.54,29.91,38.947,57.014-7.7,27.489-37.492,37.271-63.367,35.832C209.685,642.959,195.245,637.455,186.908,624.41Zm43.939,104.8a58.405,58.405,0,0,1-.4,7.5c-.546,2.82.13,2.439-2.6,3.236-3.766,1.1-10.139-.452-14.073-.642q-6.379-.308-12.758-.648a176.231,176.231,0,0,1,7.648-20.767,132.657,132.657,0,0,0,22.917,2.587A66.622,66.622,0,0,0,230.847,729.213Zm53.576,3.374c-7.844,1.929-15.7,3.844-23.487,5.97a103.568,103.568,0,0,0-8.119-19.282,124.3,124.3,0,0,0,22.975-5.462A129.649,129.649,0,0,0,284.423,732.587ZM266.1,679.461c3.583,6.08,7.465,11.985,11.6,17.708,1.018,1.413,4.779,4.93,4.759,6.355-.064,4.265-7.027,5.482-9.952,6.425a124.561,124.561,0,0,1-76.14-.173c11.154-19.091,17.449-40.589,17.078-62.747,12.03,2.692,25.245,1.977,36.839-.823A213.5,213.5,0,0,0,266.1,679.461Z" transform="translate(132.141 -277.321)" fill="#3c3c3b"/>
      <path id="Path_38473" data-name="Path 38473" d="M203.73,548.519c-6.385,2.172-11.672,7.489-14.729,13.366a1.606,1.606,0,0,0,2.772,1.618c3.661-5.241,8.137-9.1,13.1-13.021C205.8,549.751,204.8,548.157,203.73,548.519Z" transform="translate(154.466 -274.115)" fill="#3c3c3b"/>
      <path id="Path_38474" data-name="Path 38474" d="M202.67,550.1c-4.625,3.653-7.86,9.2-7.734,15.191.034,1.59,2.463,2.021,2.846.386,1.214-5.187,3.031-9.79,6.787-13.676C205.8,550.727,203.993,549.057,202.67,550.1Z" transform="translate(160.565 -272.817)" fill="#3c3c3b"/>
      <path id="Path_38475" data-name="Path 38475" d="M205.484,550.376c-.446-1.387-2.884-1.245-2.69.363a119.931,119.931,0,0,1,.676,13.874c.01,1.658,2.625,2.12,2.973.4A29.9,29.9,0,0,0,205.484,550.376Z" transform="translate(168.358 -273.162)" fill="#3c3c3b"/>
      <path id="Path_38476" data-name="Path 38476" d="M208.331,548.333c-.839-.951-2.565.337-1.784,1.375,3.641,4.839,5.361,10.079,7.21,15.753.454,1.391,2.83,1.251,2.692-.365C215.91,558.793,212.438,552.992,208.331,548.333Z" transform="translate(171.9 -274.578)" fill="#3c3c3b"/>
      <path id="Path_38477" data-name="Path 38477" d="M222.477,565.241c-1.17-5.98-5.494-11.815-10.177-15.6a.992.992,0,0,0-1.4,1.4c3.95,4.779,6.357,9.767,9.125,15.237C220.745,567.706,222.756,566.66,222.477,565.241Z" transform="translate(176.148 -273.21)" fill="#3c3c3b"/>
      <path id="Path_38478" data-name="Path 38478" d="M255.269,580.355c-8.477,13.1-19.487,20.55-35.779,19.4-13.752-.97-28.786-7.136-34.752-20.289-.666-1.467-2.951-.414-2.551,1.076,4.2,15.651,22.63,22.672,37.3,23.714,14.938,1.06,35.139-6.18,38.76-22.646A1.639,1.639,0,0,0,255.269,580.355Z" transform="translate(147.865 -244.036)" fill="#3c3c3b"/>
      <path id="Path_38479" data-name="Path 38479" d="M200.605,575.75c-1.469.4-.829,2.483.618,2.24,1.726-.291,5.426.353,5.3,2.788a2.254,2.254,0,0,1-1.347,1.7c-.8.406-1.622.086-2.5.215a1.7,1.7,0,0,0-1.166,2.053c.5,2.473,3.74,2.587,5.546,1.6a5.988,5.988,0,0,0,2.983-5.227C209.938,576.516,204.34,574.736,200.605,575.75Z" transform="translate(165.369 -247.302)" fill="#3c3c3b"/>
      <path id="Path_38480" data-name="Path 38480" d="M220.879,570.542c-.747-2.138-3.828-3.645-5.725-2.545a3.44,3.44,0,0,0-3.585,1.516c-1.863,2.967.9,6.7,4.073,6.919C218.685,576.64,222,573.74,220.879,570.542Zm-4.077,1.307a1.2,1.2,0,0,1-.847.391,1.18,1.18,0,0,1-1.092-.8,1.539,1.539,0,0,0,.711.169c.422-.01,1.046-.277,1.263.05A.241.241,0,0,1,216.8,571.849Z" transform="translate(176.482 -255.092)" fill="#3c3c3b"/>
      <path id="Path_38481" data-name="Path 38481" d="M194.424,567.483c-1.865-.373-5.524.877-5.769,3.027-.012.034-.034.058-.046.094a5.484,5.484,0,0,0,.47,4.221c1.809,3.232,6.176,2.5,8.011-.247A4.511,4.511,0,0,0,194.424,567.483Zm-2.328,5.335a.9.9,0,0,0,.638-.311.507.507,0,0,1,.9.283c0,.018.014.03.018.048A1.061,1.061,0,0,1,192.1,572.817Z" transform="translate(154.062 -255.301)" fill="#3c3c3b"/>
      <path id="Path_38482" data-name="Path 38482" d="M250.733,598.024c-1.835-.241-3.6,1.347-5.117,2.234l-5.408,3.156c-1.622.947-.2,3.246,1.449,2.477q2.849-1.327,5.7-2.656c1.636-.763,3.814-1.269,4.673-2.953A1.526,1.526,0,0,0,250.733,598.024Z" transform="translate(204.803 -224.939)" fill="#3c3c3b"/>
      <path id="Path_38483" data-name="Path 38483" d="M211.621,598.818c-18.31,6.247-35.828,11.293-52.022-2.405-1.234-1.044-3.5.337-2.417,1.865,12.67,17.883,39.26,10.143,55.443,2.925C213.968,600.6,213.014,598.344,211.621,598.818Z" transform="translate(122.804 -226.877)" fill="#3c3c3b"/>
      <path id="Path_38484" data-name="Path 38484" d="M162.2,596.462c-4.131-.849-9.446-2.126-13.633-1.457-1.465.235-1.072,2.164,0,2.593,1.973.787,4.221.8,6.321,1,2.316.223,4.633.412,6.961.454C163.3,599.076,163.677,596.767,162.2,596.462Z" transform="translate(113.582 -228.098)" fill="#3c3c3b"/>
      <path id="Path_38485" data-name="Path 38485" d="M163.458,597.413a34.257,34.257,0,0,1-6.967-3.452c-2-1.377-3.6-3.21-5.654-4.5-1.038-.651-1.911.586-1.517,1.516,2.071,4.875,8.874,7.957,13.852,8.535C164.47,599.667,164.476,597.821,163.458,597.413Z" transform="translate(115.186 -233.594)" fill="#3c3c3b"/>
      <path id="Path_38486" data-name="Path 38486" d="M162.329,597.2a12.226,12.226,0,0,1-5.151-4.978c-1.138-2.1-1.192-4.316-1.748-6.576a1.3,1.3,0,0,0-2.491,0c-1.891,5.707,3.545,11.827,8.465,13.748C162.674,599.892,163.522,597.83,162.329,597.2Z" transform="translate(118.492 -238.114)" fill="#3c3c3b"/>
      <path id="Path_38487" data-name="Path 38487" d="M161.013,620.555c-3.539-7.176-4.013-12.58.355-19.545.861-1.375-1.042-2.7-2.172-1.676a17.376,17.376,0,0,0-5.608,14.683A21.341,21.341,0,0,0,156.28,622c1.429,2.794,3.011,7.144,1.863,10.333-1.092,3.031-5.464,3.92-8.055,4.637a1.882,1.882,0,0,0,0,3.6c6.329,2.164,13-3.657,13.806-9.958C164.379,626.811,162.637,623.851,161.013,620.555Z" transform="translate(114.726 -223.975)" fill="#3c3c3b"/>
      <path id="Path_38488" data-name="Path 38488" d="M237.654,497.947c-23.567-23.907-58.363-46.045-93.241-42.307-20.607,2.21-39.987,9.721-60.814,11.168-3.177.219-6.349.331-9.52.363-14.119-3.055-25.948-9.332-34.095-21.66a2.813,2.813,0,0,0-5.115,2.156c1.263,6.995,5.564,11.638,10.938,15.169-4.265-.323-8.533-.6-12.794-.927a2.084,2.084,0,0,0-1.786.735c-2.816-.426-5.64-.787-8.483-1-3.428-.259-4.992,5.175-1.8,6.636,16.359,7.479,36.544,8.129,54.276,8.408,19.878.315,38.965-2.565,58.385-6.483,18.658-3.762,36.394-1.487,53.775,6.168,16.54,7.282,30.4,18.035,45.527,27.722C236.7,506.524,240.735,501.073,237.654,497.947Z" transform="translate(-13.891 -377.661)" fill="#66c5ee"/>
      <path id="Path_38489" data-name="Path 38489" d="M172.933,480.685c-2.453-7.977-8.252-16.2-12.357-23.467-.46-.813-.941-1.572-1.435-2.306,1.548-2.443.257-6.359-3.346-6.385a7.38,7.38,0,0,0-2.692.464,17.045,17.045,0,0,0-5.275-2.015c-3.94-.815-10.974-2.1-13.96,1.552-2.393,2.927-1.1,7.977.357,12.371a49.274,49.274,0,0,0,2.933,10.066c3.475,13.934,6.925,27.911,10.159,41.906-.11.492-.227.982-.3,1.483a5.7,5.7,0,0,0,1.821,5.131c.052.229.108.458.157.685.45,2,3.453,1.937,4.109.327a5.66,5.66,0,0,0,2.286-1.271c5.9-5.213,9.107-14.129,12.694-21.038C170.743,493.083,174.782,486.7,172.933,480.685Zm-16.626,11.706a5.964,5.964,0,0,0,1.178-.159c-.283.514-.57,1.026-.847,1.544C156.532,493.314,156.424,492.851,156.307,492.391Zm-5.209,8.73c.283.4.558.8.857,1.188-.191.335-.385.666-.574,1C151.291,502.582,151.191,501.851,151.1,501.121Z" transform="translate(98.624 -375.766)" fill="#66c5ee"/>
      <path id="Path_38490" data-name="Path 38490" d="M213.995,513.986a288.8,288.8,0,0,1-10.942-47.849c-2.359-15.994-3.653-32.815-8.093-48.379-.829-2.906-4.876-2.164-5.084.688-.273,3.754-4.428,10.319-6.225,13.824-1.835,3.583-3.754,7.162-5.821,10.62-4.177,6.989-8.91,13.591-12.961,20.667-1.736,3.029,2.349,6.263,4.856,3.746.921-.925,1.819-1.865,2.7-2.812a4.34,4.34,0,0,0,3.679.851c7.419-1.5,14.167,4.673,14.818,11.9.662,7.323-3.778,13.505-9.256,17.841-2.571,2.037-1.11,6.787,1.955,7.4,9.773,1.969,17.742,6.124,23.792,14.278C209.655,519.781,215.378,518.189,213.995,513.986Z" transform="translate(130.304 -405.715)" fill="#66c5ee"/>
      <path id="Path_38491" data-name="Path 38491" d="M203.1,443.175c-13.676-7.593-24.342,1.985-31.956,13.706-4.109-8.412-10.083-14.818-18.708-10.968-16.209,7.234-1.13,31.345,6.473,39.176a6.975,6.975,0,0,0,3.936,2.152c3.982,3.559,11.1,3.874,14.021-1.122a10.433,10.433,0,0,0,3.475-1.2c8.864-4.86,19.246-10.273,26.237-17.732C213.338,459.986,211.969,448.1,203.1,443.175Z" transform="translate(111.211 -381.338)" fill="#f66da7"/>
      <path id="Path_38492" data-name="Path 38492" d="M201.111,502.552c-12.967-1.987-23.5-5.343-32.975-14.922-8.216-8.308-15.339-17.309-26.335-22.072-22.509-9.751-45.647-3.926-66.324,7.084a3.659,3.659,0,0,0-1.526,1.489,23.345,23.345,0,0,0-4.4.6c-2.911.694-3.061,5.442,0,6.038,2.613.512,6.62.193,8.352,2.619a5.991,5.991,0,0,1,.413.777,10.514,10.514,0,0,0-1.3.08c-4.665,1.146-4.942,7.318-1.271,9.729,3.553,2.334,8.107.7,10.705-2.29a9.249,9.249,0,0,0,1.708-2.957c15.006-8.519,33.05-3.922,48.337,1.989,7.987,3.089,15.631,6.979,23.373,10.624,5.522,2.6,12,6.9,18.087,5.243,6.953,2.977,14.727,4.705,22.066,4.047C204.243,510.247,206.039,503.308,201.111,502.552Z" transform="translate(33.86 -361.35)" fill="#f50057"/>
      <path id="Path_38493" data-name="Path 38493" d="M211.044,418q-15.627,14.907-32.277,28.7a154.557,154.557,0,0,1-17.517,12.57c-4.98,3.053-11.4,5.141-15.958,8.91a41.528,41.528,0,0,0-10.044,1.789c-3.966,1.245-3.515,8.021,1.03,7.61,2.176-.2,4.32-.387,6.455-.514a5.382,5.382,0,0,0,4.564,2.521,20.494,20.494,0,0,0,8.583-2,4.56,4.56,0,0,0,4.009-2.041c2.437-1.389,4.771-2.937,6.947-4.308.65-.409,1.281-.847,1.923-1.267,3.675-.02,7.314,2.184,9.37,6.469,1.287,2.678,5.747,3.3,7.666.988,13.788-16.586,24.266-35.4,32.552-55.174C220.137,417.974,213.92,415.254,211.044,418Z" transform="translate(98.63 -404.741)" fill="#f50057"/>
      <path id="Path_38494" data-name="Path 38494" d="M238.285,473.66c-6.5-3.4-13.079-6.66-19.627-9.97-4.506-2.28-10.125-6.554-15.364-6.321s-10.47,4.545-15.295,6.313a83.392,83.392,0,0,1-20.492,4.675c-2.383.233-4.605,1.523-5.245,3.994a86.73,86.73,0,0,1-7.626,18.993q-4.062,3.515-7.848,7.435a6.359,6.359,0,0,0-1.06,7.973c-.821,1.383-1.644,2.776-2.461,4.193a2.406,2.406,0,0,0,3.266,3.268,41.576,41.576,0,0,0,5.393-3.9,7.589,7.589,0,0,0,1.521-.1c5.988-1.04,11.174-4.189,16.538-6.883a172.226,172.226,0,0,1,21.674-8.938c13.9-4.751,29.023-9.424,43.744-10.091C240.758,484.058,243.564,476.422,238.285,473.66Z" transform="translate(108.959 -364.565)" fill="#f50057"/>
      <path id="Path_38495" data-name="Path 38495" d="M162.388,504.325a62.641,62.641,0,0,0-5.249-3.722,53.873,53.873,0,0,0-4.611-2.927,4.784,4.784,0,0,0-4.117-.239,4.046,4.046,0,0,0-1.379-2.509c-2.447-1.947-4.747-2.124-7.612-3-2.3-.7-4.563-1.477-6.789-2.383-1.905-.777-4.243.688-4.94,2.423A4.252,4.252,0,0,0,129.4,497.2a55.865,55.865,0,0,0,6.18,3.832c2.493,1.3,4.829,2.973,7.77,2.778a6.134,6.134,0,0,0,2.437-.668,3.277,3.277,0,0,0,.421.849,61.509,61.509,0,0,0,3.824,4.823c.546.616,1.068,1.265,1.64,1.853l.411.464c-.207-.339-.2-.345.026-.018a19.038,19.038,0,0,0,1.588,1.9c2.367,2.174,6.379,2.517,8.691,0C164.508,510.7,164.979,506.577,162.388,504.325Z" transform="translate(93.483 -332.82)" fill="#f33d8a"/>
      <path id="Path_38496" data-name="Path 38496" d="M122.985,514.133c-4.3.676-4.3,8.005,0,8.681,4.508.709,15.715,3.188,15.715-4.34S127.492,513.424,122.985,514.133Z" transform="translate(85.936 -309.152)" fill="#f33d8a"/>
      <path id="Path_38497" data-name="Path 38497" d="M149.923,521.224a39.121,39.121,0,0,0-10.8-6.871c-3.153-1.395-6.752-.693-8.21,2.768-1.435,3.406.512,6.572,3.75,7.812a39.428,39.428,0,0,0,12.58,2.772C150.477,527.822,152.316,523.436,149.923,521.224Z" transform="translate(96.526 -308.652)" fill="#f33d8a"/>
      <path id="Path_38498" data-name="Path 38498" d="M144.053,538.943a5.617,5.617,0,0,0-5.321-4.051c-2.917.138-5.4,1.881-7.433,3.884-1.708,1.682-3.32,4.171-3.284,6.654a3.874,3.874,0,0,0,4.854,3.7,24.265,24.265,0,0,0,4.382-2.29c.219-.12.446-.225.672-.335.09-.032.249-.09.438-.15a11.126,11.126,0,0,0,3.155-1.18C143.481,543.843,144.836,541.36,144.053,538.943Z" transform="translate(94.13 -287.597)" fill="#f33d8a"/>
      <path id="Path_38499" data-name="Path 38499" d="M153.444,532.88c-1.58-2.453-5.359-4.023-8.013-2.1-1.451,1.048-2.567,1.937-4.107,3.067a28.069,28.069,0,0,0-4.4,3.521,4.619,4.619,0,0,0,4.456,7.654,28.22,28.22,0,0,0,5.257-2.086c1.784-.789,3.057-1.3,4.707-2.041C154.145,539.63,155.034,535.347,153.444,532.88Z" transform="translate(101.718 -292.527)" fill="#f33d8a"/>
      <path id="Path_38500" data-name="Path 38500" d="M165.473,545.817a6.41,6.41,0,0,0-4.765-.624,6.481,6.481,0,0,0-4.32,4.32c-.287.624-.3.715-.038.275-.2.359-.4.719-.594,1.078l-1.04,1.889q-1.115,2.021-2.228,4.045a4.893,4.893,0,0,0-.391,3.778,4.909,4.909,0,0,0-7.138,1.407q.314-.454-.273.2c-.253.243-.5.488-.757.731l-1.132,1.1-2.646,2.565c-3.069,2.975.843,7.88,4.506,5.839l3.234-1.8,2.312-1.287c.149-.082.253-.137.333-.183a4.842,4.842,0,0,0,3.222-6.216,4.713,4.713,0,0,0,6.17-.4l3.3-3.6c.546-.594,1.156-1.166,1.654-1.8.514-.49.566-.582.149-.275q.873-.634,1.69-1.337C169.824,552.923,168.69,547.7,165.473,545.817Z" transform="translate(105.081 -277.57)" fill="#f33d8a"/>
      <path id="Path_38501" data-name="Path 38501" d="M367.352,530c-12.891-37.777-20.751-77.31-24.575-117-.173-1.788-2.33-3.027-3.746-1.55a299.223,299.223,0,0,1-94.791,66.193,2.142,2.142,0,0,0-.988,2.427,352.421,352.421,0,0,1,19.32,76.405l-.02-.022c-.138-.118-.277-.237-.414-.357a.671.671,0,0,0-.04-.857c-7.64-9.53-16.811-18-25.394-26.681-8.123-8.216-16.114-16.769-25.169-23.979-15.659-12.467-35.511-18.5-55.429-18.387-38.393.209-92.511,30.484-116.7-15.083a1.1,1.1,0,0,0-1.357-.558c-.243-.678-1.387-.933-1.513-.042-1.026,7.373.554,14.005,3.109,20.771a54.24,54.24,0,0,0-21.556,4.2c-1.439.578-2.371,3.057-.5,3.852a161.63,161.63,0,0,0,58.255,13.013c22.471.711,43.271-5.835,65.367-8.174,45.926-4.864,83.787,25.3,116.644,53.395-6.094-.149-13.192-3.782-17.533-6.289-6.762-3.908-12.726-9.009-18.625-14.087-10.37-8.926-21.028-17.509-33.712-22.953-10.948-4.7-22.71-6.616-34.473-4.235-14.794,3-27.825,11.4-42.6,14.6-1.891.411-1.277,3.015.428,3.169a34.32,34.32,0,0,1,16.961,6.188c-3.886,3.412-7.734,6.863-11.592,10.3a1.628,1.628,0,0,0,1.572,2.7c13.6-4.914,27.5-9.884,41.984-11.331,15.229-1.521,28.585,1.975,41.769,9.464,18.254,10.368,39.035,25.412,60.5,14.284a1.76,1.76,0,0,0,.4-.293c.074.55.163,1.1.233,1.646a1.176,1.176,0,0,0,1.058,1.022,1.726,1.726,0,0,0-.7,1.21,1.34,1.34,0,0,0-1.75.339,71.8,71.8,0,0,0-8.125,10.986c-1.5-3.715-3.83-7.24-7.527-8.952s-8.3-1.172-10.592,2.445c-5.476,8.631,7.306,12.317,14.96,12.268a88.794,88.794,0,0,0-8.742,38.7c-2.774-3.762-7.3-7.549-12.16-7.5-4.015.044-8.591,3.031-8.78,7.331-.448,10.058,13.726,7.71,21,3.9a95.456,95.456,0,0,0,5.614,29.4,82.633,82.633,0,0,0,3.422,7.971c-3.715-.469-7.636-.243-10.7,1.943-2.955,2.108-4.856,6.3-3.6,9.862,1.311,3.73,5.5,5.01,9.067,4,4.328-1.22,7.461-5.632,8.372-9.936,5.243,9.077,11.783,17.323,18.346,25.627-7.056-.783-14.737,2.517-13.69,10.915a7.262,7.262,0,0,0,7.734,6.652c5.325-.3,9.46-5.584,10.542-10.45.227-1.018-1.09-1.989-1.873-1.092-2.344,2.68-3.685,6.588-7.351,7.8-3.469,1.152-5.789-1.132-5.632-4.47a6.823,6.823,0,0,1,5.046-6.347,14.716,14.716,0,0,1,7.612.046,1.879,1.879,0,0,0,1.443,2.559c.191.024.391.012.586.026,12.692,16.632,23.822,36.895,16.245,58.128-.486,1.363,1.75,2.33,2.361.995,10.153-22.18-.345-41.625-13.585-59.712a12.729,12.729,0,0,0,7.29-5.273c2-3.368,1.891-8.423-1.263-11.076-3.226-2.712-8.021-1.554-10.741,1.305a9.409,9.409,0,0,0-2.5,5.516c-5.7-7.373-11.327-14.553-15.566-21.636,3.1-.452,6.192-2.314,8.641-3.99,3.173-2.172,7.294-5.767,5.859-10.1-1.136-3.428-5.1-4.613-8.336-3.641-4.366,1.315-7.551,6.026-10.317,9.9a91.015,91.015,0,0,1-8.258-29.86,15.857,15.857,0,0,0,5.887,3.812c4.039,1.5,9.308,1.457,11.949-2.491,6.766-10.113-11.682-13.617-18.268-10.466a87.447,87.447,0,0,1,8.5-37.58,12.6,12.6,0,0,0,6.674,10.123c3.954,2.2,11.967,4.219,13.043-2.142,1.291-7.642-7.732-15.609-15.55-15.631a83.917,83.917,0,0,1,5.253-7.6,1.715,1.715,0,0,0,.343-.783,2.06,2.06,0,0,0,2.138.215c32.01-14.5,64.393-26.181,99.151-32.072A2.4,2.4,0,0,0,367.352,530Zm-141.235,91.6c-2.334-1.431-2.274-4.133-.476-5.919,2.24-2.224,5.4-1.941,8.007-.67,2.551,1.245,4.484,3.414,6.666,5.187C235.6,621.834,230.368,624.211,226.117,621.607Zm52.02,62.556c1.871-2.826,6.748-4.382,8.752-.843,1.509,2.66.239,6.054-1.993,7.82a11.273,11.273,0,0,1-5.476,2.122q-1.217-1.614-2.443-3.214A8.614,8.614,0,0,1,278.137,684.162Zm-8.3-32.06c1.445,3.208-3,5.681-5.426,7.13a16.877,16.877,0,0,1-7.439,2.449c-.335-.622-.678-1.24-1-1.867C259.391,655.763,267.286,646.429,269.841,652.1Zm-17.132,11.383a1,1,0,0,0-.6.381c-1.724,2.154-2.7,4.878-4.709,6.807-2.138,2.057-7.282,3.087-7.742-1.022-.769-6.873,7.69-6.873,12.792-6.664C252.535,663.152,252.619,663.32,252.709,663.485Zm-6.439-42.8c2.593-.311,5.157-.873,7.782-.606a15.337,15.337,0,0,1,5.343,1.522c2.557,1.369,3.551,5.349.618,6.993-4.737,2.658-10.4-1.14-13.762-5.155-.048-.921-.058-1.841-.078-2.762A.8.8,0,0,0,246.27,620.69Zm-7.993-50.836c1.995-3.591,6.678-1.9,9.053.229,1.915,1.714,3.1,4.039,4.37,6.257a1.079,1.079,0,0,0,.012.883C246.483,576.554,235.242,575.318,238.277,569.854ZM262,577.5a12.822,12.822,0,0,1,7.565,5.562c.638,1.07,1.768,3.356,1.373,4.655-.488,1.618-2.569,1.927-3.888,1.642a15.838,15.838,0,0,1-2.258-.658c-4.918-1.861-7.9-6.257-6.933-11.5A11.153,11.153,0,0,1,262,577.5Zm98.221-54.1c-9.484-7.981-21.108-14.573-31.677-20.872,7.178-6.435,14.145-15.659,10.165-25.552-3.695-9.181-14.8-10.032-23.045-7.27a31.978,31.978,0,0,0-3.607,1.483,92.7,92.7,0,0,0,11.387-17.6c5.4-10.59,11.744-21.947,15.58-33.319A493.52,493.52,0,0,0,360.224,523.4ZM278.5,484.078c-.054-.022-.108-.038-.161-.06q.278-1.6.558-3.192,5.715-7.01,9.2-1.564c3.677,2.66,4.725,9.585,6.734,13.7.831,1.7,3.2,1.038,3.74-.488a29.864,29.864,0,0,1,17.218-18.262c3.719-1.415,9.338-2.7,13.152-.917,6.925,3.238,7.826,10.819,4.247,16.965-8.3,14.26-27.4,22.058-42.721,25.306a2.47,2.47,0,0,0-.911.385c-5.548-7.722-9.7-15.835-10.887-25.4-.173-1.393-.329-2.812-.377-4.227C279.576,486.3,279.593,484.5,278.5,484.078ZM334.26,422.5c-4.938,9.025-8.569,19.045-13.029,28.2A127.475,127.475,0,0,1,305.5,475.38a34.136,34.136,0,0,0-8.928,11.291c-2.128-5.568-4.143-11.61-10.235-13.655-4.41-1.479-8.617.622-10.616,4.731a18.732,18.732,0,0,0-1.576,4.928c-8.26-2.184-17.728-2.216-26.068-2.07A288.778,288.778,0,0,0,334.26,422.5ZM86.319,508.277A157.908,157.908,0,0,1,24.64,497.653a65.834,65.834,0,0,1,17.823-2.445A1.909,1.909,0,0,0,44.1,492.36a40.308,40.308,0,0,1-5.11-14.852c5.8,12.184,20.326,19.113,32.975,21.628,20.978,4.175,41.55-2.921,61.96-6.951,24.641-4.866,50.314-2.8,71.4,11.941,15.253,10.665,27.441,25.073,40.631,38.254-26.9-22.14-56.753-42.149-92.693-42.8C130.629,499.17,108.907,507.535,86.319,508.277Zm103.368,27.106c-21.289-7.672-43.945-1.618-64.644,5.707q3.39-3.07,6.754-6.17a1.523,1.523,0,0,0,0-2.146,38.6,38.6,0,0,0-13.33-6.859c12.836-4.063,24.762-11.028,38.16-13.095,16.971-2.619,33.226,4.506,46.9,14.029,11.847,8.254,21.725,19.189,34.178,26.6a54.537,54.537,0,0,0,13.9,6.086C229.724,563.365,209.3,542.453,189.687,535.383Zm75.545,23.609c-.07-.915-.153-1.825-.231-2.738.018-.026.038-.046.054-.072a.34.34,0,0,0-.1-.446,289.68,289.68,0,0,0-16.064-72.661c8.426.361,16.614,2.031,24.926,2.891-.381,11.409,6.855,24.784,13.746,31.743a1.22,1.22,0,0,0,1.174.311,2.846,2.846,0,0,0,.546,1.277A144.8,144.8,0,0,0,265.231,558.991Zm1.654,1.281a223.583,223.583,0,0,1,25-40.025,74.2,74.2,0,0,0,34.158-15.576c.243-.2.49-.411.735-.614,10.671,8.139,22.226,17.56,34.282,23.457a1.334,1.334,0,0,0,.516.13c.12.369.235.741.355,1.11C329.072,534.217,296.13,544.1,266.885,560.273Z" transform="translate(-16.541 -410.794)" fill="#3c3c3b"/>
    </g>
  </g>
</svg>
